<svg width="80" height="81" viewBox="0 0 80 81" fill="none" xmlns="http://www.w3.org/2000/svg">
<mask id="mask0_832_3296" style="mask-type:luminance" maskUnits="userSpaceOnUse" x="0" y="0" width="80" height="81">
<path d="M0 0.5H80V80.5H0V0.5Z" fill="white"/>
</mask>
<g mask="url(#mask0_832_3296)">
<path d="M53.8281 15.5H58.675C61.264 15.5 63.3625 17.5984 63.3625 20.1875V79.3281H16.5625V20.1875C16.5625 17.5984 18.6609 15.5 21.25 15.5H26.1718" stroke="#040431" stroke-width="3" stroke-miterlimit="10" stroke-linecap="round" stroke-linejoin="round"/>
<path d="M40 29.3281C32.3751 29.3281 26.1718 23.1248 26.1718 15.5C26.1718 7.87515 32.3751 1.67187 40 1.67187C47.6248 1.67187 53.8281 7.87515 53.8281 15.5C53.8281 23.1248 47.6248 29.3281 40 29.3281Z" stroke="#040431" stroke-width="3" stroke-miterlimit="10" stroke-linecap="round" stroke-linejoin="round"/>
<path d="M48.2031 13.1562H42.8124C42.5535 13.1562 42.3437 12.9464 42.3437 12.6875V7.29687C42.3437 6.77922 41.9238 6.35937 41.4062 6.35937H38.5937C38.076 6.35937 37.6562 6.77922 37.6562 7.29687V12.6875C37.6562 12.9464 37.4463 13.1562 37.1874 13.1562H31.7968C31.2792 13.1562 30.8593 13.5761 30.8593 14.0937V16.9062C30.8593 17.4239 31.2792 17.8437 31.7968 17.8437H37.1874C37.4463 17.8437 37.6562 18.0536 37.6562 18.3125V23.7031C37.6562 24.2208 38.076 24.6406 38.5937 24.6406H41.4062C41.9238 24.6406 42.3437 24.2208 42.3437 23.7031V18.3125C42.3437 18.0536 42.5535 17.8437 42.8124 17.8437H48.2031C48.7207 17.8437 49.1406 17.4239 49.1406 16.9062V14.0937C49.1406 13.5761 48.7207 13.1562 48.2031 13.1562Z" stroke="#040431" stroke-width="3" stroke-miterlimit="10" stroke-linecap="round" stroke-linejoin="round"/>
<path d="M51.6444 56.3479V79.3282" stroke="#040431" stroke-width="3" stroke-miterlimit="10" stroke-linecap="round" stroke-linejoin="round"/>
<path d="M28.3555 65.8181V56.3479" stroke="#040431" stroke-width="3" stroke-miterlimit="10" stroke-linecap="round" stroke-linejoin="round"/>
<path d="M28.3555 79.3281V71.2867" stroke="#040431" stroke-width="3" stroke-miterlimit="10" stroke-linecap="round" stroke-linejoin="round"/>
<path d="M53.0506 51.6604H26.9492C26.4314 51.6604 26.0117 52.0802 26.0117 52.5979V55.4104C26.0117 55.9282 26.4314 56.3479 26.9492 56.3479H53.0506C53.5685 56.3479 53.9881 55.9282 53.9881 55.4104V52.5979C53.9881 52.0802 53.5685 51.6604 53.0506 51.6604Z" stroke="#040431" stroke-width="3" stroke-miterlimit="10" stroke-linecap="round" stroke-linejoin="round"/>
<path d="M40 56.3479V79.3282" stroke="#040431" stroke-width="3" stroke-miterlimit="10" stroke-linecap="round" stroke-linejoin="round"/>
<path d="M44.6875 66.6387V69.0373" stroke="#040431" stroke-width="3" stroke-miterlimit="10" stroke-linecap="round" stroke-linejoin="round"/>
<path d="M35.3125 66.6387V69.0373" stroke="#040431" stroke-width="3" stroke-miterlimit="10" stroke-linecap="round" stroke-linejoin="round"/>
<path d="M35.2343 44.6298H24.8493C24.1568 44.6298 23.5962 44.0666 23.5995 43.374L23.6256 37.6038C23.6287 36.9155 24.1874 36.3594 24.8756 36.3594H35.2343C35.9246 36.3594 36.4843 36.919 36.4843 37.6094V43.3798C36.4843 44.0701 35.9246 44.6298 35.2343 44.6298Z" stroke="#040431" stroke-width="3" stroke-miterlimit="10" stroke-linecap="round" stroke-linejoin="round"/>
<path d="M44.7656 36.3594H55.1131C55.8056 36.3594 56.3662 36.9225 56.3631 37.615L56.3368 43.3853C56.3337 44.0734 55.775 44.6297 55.0868 44.6297H44.7656C44.0753 44.6297 43.5156 44.07 43.5156 43.3797V37.6094C43.5156 36.9191 44.0753 36.3594 44.7656 36.3594Z" stroke="#040431" stroke-width="3" stroke-miterlimit="10" stroke-linecap="round" stroke-linejoin="round"/>
<path d="M68.8319 26.4599H74.1406C76.7294 26.4599 78.8281 28.5587 78.8281 31.1474V78.0781C78.8281 78.7685 78.2684 79.3281 77.5781 79.3281H63.3631" stroke="#040431" stroke-width="3" stroke-miterlimit="10" stroke-linecap="round" stroke-linejoin="round"/>
<path d="M63.3631 33.4912H70.5469C71.2394 33.4912 71.8 34.0543 71.7969 34.7468L71.7706 40.5172C71.7675 41.2054 71.2088 41.7615 70.5206 41.7615H63.3631" stroke="#040431" stroke-width="3" stroke-miterlimit="10" stroke-linecap="round" stroke-linejoin="round"/>
<path d="M63.3631 48.7928H70.5469C71.2394 48.7928 71.8 49.3559 71.7969 50.0484L71.7706 55.8187C71.7675 56.5069 71.2088 57.0631 70.5206 57.0631H63.3631" stroke="#040431" stroke-width="3" stroke-miterlimit="10" stroke-linecap="round" stroke-linejoin="round"/>
<path d="M63.3631 64.0266H70.5469C71.2394 64.0266 71.8 64.5897 71.7969 65.2823L71.7706 71.0525C71.7675 71.7408 71.2088 72.2969 70.5206 72.2969H63.3631" stroke="#040431" stroke-width="3" stroke-miterlimit="10" stroke-linecap="round" stroke-linejoin="round"/>
<path d="M16.6368 26.4599H5.85926C3.27051 26.4599 1.17176 28.5587 1.17176 31.1474V78.0781C1.17176 78.7685 1.73145 79.3281 2.42176 79.3281H16.6368" stroke="#040431" stroke-width="3" stroke-miterlimit="10" stroke-linecap="round" stroke-linejoin="round"/>
<path d="M16.5625 41.7609H9.47964C8.79058 41.7609 8.23277 41.2047 8.22964 40.5172L8.20308 34.7469C8.19996 34.0547 8.76089 33.4906 9.45308 33.4906H16.5625" stroke="#040431" stroke-width="3" stroke-miterlimit="10" stroke-linecap="round" stroke-linejoin="round"/>
<path d="M16.5625 57.0625H9.47964C8.79058 57.0625 8.23277 56.5062 8.22964 55.8187L8.20308 50.0484C8.19996 49.3562 8.76089 48.7922 9.45308 48.7922H16.5625" stroke="#040431" stroke-width="3" stroke-miterlimit="10" stroke-linecap="round" stroke-linejoin="round"/>
<path d="M16.5625 72.2969H9.47964C8.79058 72.2969 8.23277 71.7406 8.22964 71.0531L8.20308 65.2828C8.19996 64.5891 8.76089 64.0266 9.45308 64.0266H16.5625" stroke="#040431" stroke-width="3" stroke-miterlimit="10" stroke-linecap="round" stroke-linejoin="round"/>
</g>
</svg>
