<svg width="136" height="31" viewBox="0 0 136 31" fill="none" xmlns="http://www.w3.org/2000/svg">
<path d="M3.94197 9.59248C2.71676 9.59248 1.75347 9.26228 1.05208 8.60188C0.350693 7.94148 0 6.97597 0 5.70533V0.714733H1.33175V5.65517C1.33175 6.63323 1.55814 7.34796 2.01094 7.79937C2.47261 8.25078 3.12073 8.47649 3.95529 8.47649C4.79873 8.47649 5.44684 8.25078 5.89964 7.79937C6.36131 7.34796 6.59215 6.63323 6.59215 5.65517V0.714733H7.88394V5.70533C7.88394 6.97597 7.53325 7.94148 6.83186 8.60188C6.13935 9.26228 5.17606 9.59248 3.94197 9.59248Z" fill="#11100A"/>
<path d="M14.1966 2.7837C14.7737 2.7837 15.2798 2.88819 15.7148 3.09718C16.1587 3.30616 16.505 3.62382 16.7536 4.05016C17.0022 4.47649 17.1265 5.01567 17.1265 5.66771V9.49216H15.848V5.80564C15.848 5.16196 15.6793 4.67712 15.3419 4.3511C15.0134 4.02508 14.5473 3.86207 13.9436 3.86207C13.4908 3.86207 13.0957 3.94566 12.7583 4.11285C12.421 4.28004 12.1591 4.52665 11.9726 4.85266C11.795 5.17868 11.7063 5.58412 11.7063 6.06897V9.49216H10.4278V2.84639H11.653V4.6395L11.4532 4.16301C11.6841 3.72832 12.0392 3.38976 12.5186 3.14733C12.9981 2.90491 13.5574 2.7837 14.1966 2.7837Z" fill="#11100A"/>
<path d="M22.409 9.5674C21.7254 9.5674 21.1128 9.42529 20.5712 9.14107C20.0385 8.85684 19.6168 8.45977 19.3061 7.94984C18.9953 7.43992 18.84 6.84639 18.84 6.16928C18.84 5.49216 18.9953 4.90282 19.3061 4.40125C19.6168 3.89133 20.0385 3.49425 20.5712 3.21003C21.1128 2.92581 21.7254 2.7837 22.409 2.7837C23.0039 2.7837 23.541 2.90909 24.0204 3.15987C24.4999 3.41066 24.8816 3.78683 25.1657 4.2884C25.4587 4.78997 25.6052 5.41693 25.6052 6.16928C25.6052 6.92163 25.4632 7.54859 25.1791 8.05016C24.9038 8.55172 24.5265 8.93208 24.0471 9.19122C23.5677 9.44201 23.0216 9.5674 22.409 9.5674ZM22.5156 8.51411C22.9595 8.51411 23.359 8.41797 23.7141 8.2257C24.0782 8.03344 24.3623 7.76175 24.5665 7.41066C24.7795 7.0512 24.8861 6.63741 24.8861 6.16928C24.8861 5.69279 24.7795 5.28318 24.5665 4.94044C24.3623 4.58934 24.0782 4.31766 23.7141 4.12539C23.359 3.93312 22.9595 3.83699 22.5156 3.83699C22.0628 3.83699 21.6588 3.93312 21.3037 4.12539C20.9486 4.31766 20.6644 4.58934 20.4514 4.94044C20.2383 5.28318 20.1317 5.69279 20.1317 6.16928C20.1317 6.63741 20.2383 7.0512 20.4514 7.41066C20.6644 7.76175 20.9486 8.03344 21.3037 8.2257C21.6588 8.41797 22.0628 8.51411 22.5156 8.51411ZM24.926 9.49216V7.69906L25.0059 6.15674L24.8728 4.61442V0.188088H26.1512V9.49216H24.926Z" fill="#11100A"/>
<path d="M31.7132 9.5674C30.9585 9.5674 30.2926 9.42111 29.7155 9.12853C29.1473 8.83595 28.7034 8.43469 28.3838 7.92476C28.073 7.41484 27.9177 6.82968 27.9177 6.16928C27.9177 5.50888 28.0686 4.92372 28.3705 4.41379C28.6812 3.90387 29.1029 3.50679 29.6356 3.22257C30.1772 2.92999 30.7854 2.7837 31.4601 2.7837C32.1438 2.7837 32.7475 2.92581 33.2713 3.21003C33.7951 3.49425 34.2035 3.89551 34.4965 4.41379C34.7984 4.92372 34.9493 5.52142 34.9493 6.2069C34.9493 6.25705 34.9449 6.31557 34.936 6.38244C34.936 6.44932 34.9315 6.51202 34.9227 6.57053H28.9165V5.70533H34.2568L33.7374 6.00627C33.7463 5.57994 33.6531 5.19958 33.4577 4.8652C33.2624 4.53083 32.9916 4.27168 32.6454 4.08777C32.308 3.89551 31.9129 3.79937 31.4601 3.79937C31.0162 3.79937 30.6211 3.89551 30.2749 4.08777C29.9286 4.27168 29.6578 4.535 29.4625 4.87774C29.2672 5.21212 29.1695 5.59666 29.1695 6.03135V6.23197C29.1695 6.67503 29.2761 7.0721 29.4891 7.4232C29.7111 7.76593 30.0174 8.03344 30.408 8.2257C30.7987 8.41797 31.247 8.51411 31.7531 8.51411C32.1704 8.51411 32.5477 8.44723 32.8851 8.31348C33.2313 8.17973 33.5332 7.9791 33.7907 7.7116L34.4965 8.48903C34.1769 8.84013 33.7774 9.10763 33.2979 9.29154C32.8274 9.47544 32.2991 9.5674 31.7132 9.5674Z" fill="#11100A"/>
<path d="M36.7246 9.49216V2.84639H37.9498V4.65204L37.8299 4.20063C38.0253 3.74086 38.3538 3.38976 38.8154 3.14733C39.2771 2.90491 39.8453 2.7837 40.5201 2.7837V3.94984C40.4668 3.94148 40.4135 3.9373 40.3603 3.9373C40.3159 3.9373 40.2715 3.9373 40.2271 3.9373C39.5434 3.9373 39.0019 4.12957 38.6023 4.51411C38.2028 4.89864 38.0031 5.45455 38.0031 6.18182V9.49216H36.7246Z" fill="#11100A"/>
<path d="M43.8735 9.49216L41.2499 2.84639H42.4618L44.7924 8.8652H44.2197L46.6435 2.84639H47.7222L50.0927 8.8652H49.5334L51.9172 2.84639H53.0625L50.4257 9.49216H49.2005L46.9764 4H47.3493L45.0987 9.49216H43.8735Z" fill="#11100A"/>
<path d="M54.3598 9.49216V2.84639H55.585V4.65204L55.4652 4.20063C55.6605 3.74086 55.989 3.38976 56.4507 3.14733C56.9123 2.90491 57.4805 2.7837 58.1553 2.7837V3.94984C58.102 3.94148 58.0488 3.9373 57.9955 3.9373C57.9511 3.9373 57.9067 3.9373 57.8623 3.9373C57.1787 3.9373 56.6371 4.12957 56.2376 4.51411C55.8381 4.89864 55.6383 5.45455 55.6383 6.18182V9.49216H54.3598Z" fill="#11100A"/>
<path d="M59.731 9.49216V2.84639H61.0095V9.49216H59.731ZM60.3703 1.5674C60.1217 1.5674 59.913 1.49216 59.7443 1.34169C59.5845 1.19122 59.5046 1.00731 59.5046 0.789969C59.5046 0.564263 59.5845 0.376176 59.7443 0.225705C59.913 0.0752351 60.1217 0 60.3703 0C60.6189 0 60.8231 0.0752351 60.9829 0.225705C61.1516 0.367816 61.2359 0.547544 61.2359 0.76489C61.2359 0.990595 61.156 1.18286 60.9962 1.34169C60.8364 1.49216 60.6277 1.5674 60.3703 1.5674Z" fill="#11100A"/>
<path d="M65.8743 9.5674C65.1641 9.5674 64.6136 9.38767 64.223 9.02821C63.8323 8.66876 63.637 8.15465 63.637 7.48589V1.39185H64.9155V7.43574C64.9155 7.79519 65.0087 8.07105 65.1951 8.26332C65.3905 8.45559 65.6657 8.55172 66.0208 8.55172C66.4203 8.55172 66.7533 8.44723 67.0196 8.23824L67.4192 9.10345C67.2238 9.26228 66.9886 9.37931 66.7133 9.45454C66.447 9.52978 66.1673 9.5674 65.8743 9.5674ZM62.4384 3.83699V2.84639H66.9397V3.83699H62.4384Z" fill="#11100A"/>
<path d="M71.2195 9.5674C70.5093 9.5674 69.9588 9.38767 69.5682 9.02821C69.1775 8.66876 68.9822 8.15465 68.9822 7.48589V1.39185H70.2607V7.43574C70.2607 7.79519 70.3539 8.07105 70.5403 8.26332C70.7357 8.45559 71.0109 8.55172 71.366 8.55172C71.7655 8.55172 72.0985 8.44723 72.3648 8.23824L72.7644 9.10345C72.569 9.26228 72.3338 9.37931 72.0585 9.45454C71.7922 9.52978 71.5125 9.5674 71.2195 9.5674ZM67.7836 3.83699V2.84639H72.2849V3.83699H67.7836Z" fill="#11100A"/>
<path d="M77.2188 9.5674C76.4642 9.5674 75.7983 9.42111 75.2212 9.12853C74.653 8.83595 74.2091 8.43469 73.8895 7.92476C73.5787 7.41484 73.4234 6.82968 73.4234 6.16928C73.4234 5.50888 73.5743 4.92372 73.8762 4.41379C74.1869 3.90387 74.6086 3.50679 75.1413 3.22257C75.6829 2.92999 76.2911 2.7837 76.9658 2.7837C77.6494 2.7837 78.2532 2.92581 78.777 3.21003C79.3008 3.49425 79.7092 3.89551 80.0022 4.41379C80.3041 4.92372 80.455 5.52142 80.455 6.2069C80.455 6.25705 80.4505 6.31557 80.4417 6.38244C80.4417 6.44932 80.4372 6.51202 80.4283 6.57053H74.4222V5.70533H79.7625L79.2431 6.00627C79.252 5.57994 79.1588 5.19958 78.9634 4.8652C78.7681 4.53083 78.4973 4.27168 78.1511 4.08777C77.8137 3.89551 77.4186 3.79937 76.9658 3.79937C76.5219 3.79937 76.1268 3.89551 75.7806 4.08777C75.4343 4.27168 75.1635 4.535 74.9682 4.87774C74.7729 5.21212 74.6752 5.59666 74.6752 6.03135V6.23197C74.6752 6.67503 74.7817 7.0721 74.9948 7.4232C75.2168 7.76593 75.5231 8.03344 75.9137 8.2257C76.3044 8.41797 76.7527 8.51411 77.2588 8.51411C77.6761 8.51411 78.0534 8.44723 78.3908 8.31348C78.737 8.17973 79.0389 7.9791 79.2964 7.7116L80.0022 8.48903C79.6826 8.84013 79.283 9.10763 78.8036 9.29154C78.3331 9.47544 77.8048 9.5674 77.2188 9.5674Z" fill="#11100A"/>
<path d="M85.9991 2.7837C86.5762 2.7837 87.0823 2.88819 87.5173 3.09718C87.9612 3.30616 88.3075 3.62382 88.5561 4.05016C88.8047 4.47649 88.9289 5.01567 88.9289 5.66771V9.49216H87.6505V5.80564C87.6505 5.16196 87.4818 4.67712 87.1444 4.3511C86.8159 4.02508 86.3498 3.86207 85.7461 3.86207C85.2933 3.86207 84.8982 3.94566 84.5608 4.11285C84.2234 4.28004 83.9615 4.52665 83.7751 4.85266C83.5975 5.17868 83.5087 5.58412 83.5087 6.06897V9.49216H82.2303V2.84639H83.4555V4.6395L83.2557 4.16301C83.4865 3.72832 83.8417 3.38976 84.3211 3.14733C84.8005 2.90491 85.3599 2.7837 85.9991 2.7837Z" fill="#11100A"/>
<path d="M98.6137 9.5674C98.0099 9.5674 97.4639 9.44201 96.9756 9.19122C96.4962 8.93208 96.1144 8.55172 95.8303 8.05016C95.5551 7.54859 95.4175 6.92163 95.4175 6.16928C95.4175 5.41693 95.5595 4.78997 95.8436 4.2884C96.1366 3.78683 96.5228 3.41066 97.0022 3.15987C97.4906 2.90909 98.0277 2.7837 98.6137 2.7837C99.3062 2.7837 99.9188 2.92581 100.451 3.21003C100.984 3.49425 101.406 3.89133 101.717 4.40125C102.027 4.90282 102.183 5.49216 102.183 6.16928C102.183 6.84639 102.027 7.43992 101.717 7.94984C101.406 8.45977 100.984 8.85684 100.451 9.14107C99.9188 9.42529 99.3062 9.5674 98.6137 9.5674ZM94.8715 9.49216V0.188088H96.1499V4.61442L96.0168 6.15674L96.0967 7.69906V9.49216H94.8715ZM98.5071 8.51411C98.9599 8.51411 99.3639 8.41797 99.719 8.2257C100.083 8.03344 100.367 7.76175 100.571 7.41066C100.784 7.0512 100.891 6.63741 100.891 6.16928C100.891 5.69279 100.784 5.28318 100.571 4.94044C100.367 4.58934 100.083 4.31766 99.719 4.12539C99.3639 3.93312 98.9599 3.83699 98.5071 3.83699C98.0632 3.83699 97.6592 3.93312 97.2952 4.12539C96.9401 4.31766 96.656 4.58934 96.4429 4.94044C96.2387 5.28318 96.1366 5.69279 96.1366 6.16928C96.1366 6.63741 96.2387 7.0512 96.4429 7.41066C96.656 7.76175 96.9401 8.03344 97.2952 8.2257C97.6592 8.41797 98.0632 8.51411 98.5071 8.51411Z" fill="#11100A"/>
<path d="M104.06 12C103.723 12 103.395 11.9457 103.075 11.837C102.755 11.7367 102.48 11.5862 102.249 11.3856L102.795 10.4828C102.973 10.6416 103.168 10.7628 103.381 10.8464C103.594 10.93 103.821 10.9718 104.06 10.9718C104.371 10.9718 104.629 10.8966 104.833 10.7461C105.037 10.5956 105.228 10.3281 105.405 9.94357L105.845 9.02821L105.978 8.87774L108.748 2.84639H110L106.577 10.1567C106.373 10.6249 106.142 10.9927 105.885 11.2602C105.636 11.5277 105.361 11.7158 105.059 11.8245C104.757 11.9415 104.424 12 104.06 12ZM105.738 9.70533L102.516 2.84639H103.847L106.591 8.76489L105.738 9.70533Z" fill="#11100A"/>
<path d="M126.458 28.4004H112.09V24.9851H126.458V28.4004ZM112.09 19.3404H126.458V22.6817H112.09V19.3404ZM125.383 30.7382C127.946 30.7382 129.095 29.6977 129.095 27.8788V26.2824C129.095 25.7634 128.91 25.541 128.539 25.2419L126.906 23.8307L128.539 22.4196C128.91 22.123 129.095 21.8636 129.095 21.3791V19.9679C129.095 18.149 127.906 17.1086 125.383 17.1086H109.49V30.8097H125.381V30.7382H125.383ZM98.6879 28.4004H84.3195V24.9851H98.6879V28.4004ZM84.3169 19.3404H98.6852V22.6817H84.3169V19.3404ZM97.6103 30.7382C100.173 30.7382 101.322 29.6977 101.322 27.8788V26.2824C101.322 25.7634 101.137 25.541 100.766 25.2419L99.1326 23.8307L100.766 22.4196C101.137 22.123 101.322 21.8636 101.322 21.3791V19.9679C101.322 18.149 100.133 17.1086 97.6103 17.1086H81.7196V30.8097H97.6103V30.7382ZM70.2478 17.0397V28.2892H56.6578V17.0397H54.0579V27.5849C54.0579 29.515 55.2467 30.7038 57.5474 30.7038H69.3158C71.6536 30.7038 72.8053 29.515 72.8053 27.5849V17.0027H70.2425V17.0397H70.2478ZM28.7737 22.6075V17H26.1738V30.7011H28.7737V25.0195H42.549V30.7011H45.1489V17H42.549V22.6075H28.7737ZM18.6759 19.4887V17.0371H3.48949C1.15169 17.0371 0 18.2258 0 20.1559V27.5823C0 29.5124 1.18876 30.7011 3.48949 30.7011H18.6388V28.2495H2.63697V19.449H18.6759V19.4887Z" fill="#11100A"/>
<path d="M134.403 17.1509C134.626 17.2621 134.811 17.3733 134.996 17.5587C135.182 17.744 135.293 17.9293 135.404 18.1517C135.515 18.3741 135.552 18.6336 135.552 18.893C135.552 19.1525 135.515 19.412 135.404 19.6344C135.293 19.8568 135.182 20.0421 134.996 20.2274C134.811 20.4127 134.626 20.5239 134.403 20.6351C134.181 20.7463 133.922 20.7834 133.662 20.7834C133.403 20.7834 133.143 20.7463 132.921 20.6351C132.698 20.5239 132.513 20.4127 132.328 20.2274C132.142 20.0421 132.031 19.8568 131.92 19.6344C131.809 19.412 131.772 19.1525 131.772 18.893C131.772 18.6336 131.809 18.3741 131.92 18.1517C132.031 17.9293 132.142 17.744 132.328 17.5587C132.513 17.3733 132.698 17.2621 132.921 17.1509C133.143 17.0398 133.403 17.0027 133.662 17.0027C133.922 17.0027 134.144 17.0768 134.403 17.1509ZM133.029 17.4104C132.844 17.4845 132.659 17.5957 132.547 17.744C132.399 17.8923 132.288 18.0405 132.214 18.2629C132.14 18.4483 132.103 18.6706 132.103 18.893C132.103 19.1154 132.14 19.3378 132.214 19.5232C132.288 19.7085 132.399 19.8938 132.547 20.0421C132.696 20.1903 132.844 20.3015 133.029 20.3757C133.215 20.4498 133.437 20.4869 133.659 20.4869C133.882 20.4869 134.104 20.4498 134.29 20.3757C134.475 20.3015 134.66 20.1903 134.771 20.0421C134.92 19.8938 135.031 19.7456 135.105 19.5232C135.179 19.3378 135.216 19.1154 135.216 18.893C135.216 18.6706 135.179 18.4483 135.105 18.2629C135.031 18.0776 134.92 17.8923 134.771 17.744C134.623 17.5957 134.475 17.4845 134.29 17.4104C134.104 17.3363 133.882 17.2992 133.659 17.2992C133.437 17.2992 133.217 17.3363 133.029 17.4104ZM132.955 19.9732V17.8208H133.773C134.033 17.8208 134.181 17.8578 134.292 17.969C134.403 18.0802 134.478 18.2285 134.478 18.4138C134.478 18.525 134.478 18.5992 134.44 18.6733C134.403 18.7474 134.366 18.7845 134.329 18.8586C134.292 18.8957 134.218 18.9328 134.144 18.9698C134.07 19.0069 133.996 19.0069 133.922 19.044L134.552 20.0103H134.255L133.662 19.044H133.217V20.0103H132.958V19.9732H132.955ZM133.847 18.7845C133.922 18.7845 133.996 18.7474 134.07 18.7474C134.144 18.7104 134.181 18.6733 134.218 18.6362C134.255 18.5992 134.255 18.525 134.255 18.4138C134.255 18.3397 134.255 18.2656 134.218 18.2285C134.181 18.1914 134.144 18.1544 134.107 18.1173C134.07 18.0802 133.996 18.0802 133.959 18.0432C133.884 18.0432 133.847 18.0432 133.773 18.0432H133.291V18.7845H133.625C133.662 18.7845 133.736 18.7845 133.847 18.7845Z" fill="#11100A"/>
</svg>
