<svg width="80" height="80" viewBox="0 0 80 80" fill="none" xmlns="http://www.w3.org/2000/svg">
<mask id="mask0_1018_729" style="mask-type:luminance" maskUnits="userSpaceOnUse" x="0" y="0" width="80" height="80">
<path d="M0 7.62939e-06H80V80H0V7.62939e-06Z" fill="white"/>
</mask>
<g mask="url(#mask0_1018_729)">
<path d="M38.4375 7.81226H41.5625C42.4219 7.81226 43.125 8.51538 43.125 9.37476V12.4998H46.25C47.1094 12.4998 47.8125 13.2029 47.8125 14.0623V17.1873C47.8125 18.0466 47.1094 18.7498 46.25 18.7498H43.125V21.8748C43.125 22.7341 42.4219 23.4373 41.5625 23.4373H38.4375C37.5781 23.4373 36.875 22.7341 36.875 21.8748V18.7498H33.75C32.8906 18.7498 32.1875 18.0466 32.1875 17.1873V14.0623C32.1875 13.2029 32.8906 12.4998 33.75 12.4998H36.875V9.37476C36.875 8.51538 37.5781 7.81226 38.4375 7.81226Z" stroke="#0C2865" stroke-width="3" stroke-miterlimit="22.926" stroke-linecap="round" stroke-linejoin="round"/>
<path d="M40 29.6873C47.7453 29.6873 54.0625 23.3701 54.0625 15.6248C54.0625 7.87944 47.7453 1.56226 40 1.56226C32.2547 1.56226 25.9375 7.87944 25.9375 15.6248C25.9375 23.3701 32.2547 29.6873 40 29.6873Z" stroke="#0C2865" stroke-width="3" stroke-miterlimit="22.926" stroke-linecap="round" stroke-linejoin="round"/>
<path d="M26.0228 18.7498H7.1875V12.4998H26.0228M54.0356 12.4998H72.8125V18.7498H54.0356" stroke="#0C2865" stroke-width="3" stroke-miterlimit="22.926" stroke-linecap="round" stroke-linejoin="round"/>
<path d="M5.625 78.4373H74.375V72.1873H5.625V78.4373Z" stroke="#0C2865" stroke-width="3" stroke-miterlimit="22.926" stroke-linecap="round" stroke-linejoin="round"/>
<path d="M7.1875 70.6248V65.9373H72.8125V70.6248" stroke="#0C2865" stroke-width="3" stroke-miterlimit="22.926" stroke-linecap="round" stroke-linejoin="round"/>
<path d="M10.3125 26.3766V19.4923M10.3125 65.1951V40.4391" stroke="#0C2865" stroke-width="3" stroke-miterlimit="22.926" stroke-linecap="round" stroke-linejoin="round"/>
<path d="M69.6873 19.4923V65.1951" stroke="#0C2865" stroke-width="3" stroke-miterlimit="22.926" stroke-linecap="round" stroke-linejoin="round"/>
<path d="M55.6248 64.3748V37.4999C55.6248 36.6405 54.9216 35.9376 54.0623 35.9376H25.9375C25.0783 35.9376 24.375 36.6409 24.375 37.4999V64.3748" stroke="#0C2865" stroke-width="3" stroke-miterlimit="22.926" stroke-linecap="round" stroke-linejoin="round"/>
<path d="M40 37.5001V64.3748" stroke="#0C2865" stroke-width="3" stroke-miterlimit="22.926" stroke-linecap="round" stroke-linejoin="round"/>
<path d="M33.7498 49.375V52.5" stroke="#0C2865" stroke-width="3" stroke-miterlimit="22.926" stroke-linecap="round" stroke-linejoin="round"/>
<path d="M46.2502 49.375V52.5" stroke="#0C2865" stroke-width="3" stroke-miterlimit="22.926" stroke-linecap="round" stroke-linejoin="round"/>
<path d="M10.3125 33.4067V33.4082" stroke="#0C2865" stroke-width="3" stroke-miterlimit="2.613" stroke-linecap="round" stroke-linejoin="round"/>
</g>
</svg>
