<svg width="83" height="83" viewBox="0 0 83 83" fill="none" xmlns="http://www.w3.org/2000/svg">
<path d="M25.9375 7.78125H28.5312V10.375H25.9375V7.78125Z" fill="#132766"/>
<path d="M31.125 7.78125H41.5V10.375H31.125V7.78125Z" fill="#132766"/>
<path d="M38.9062 54.4688H33.7188C32.6869 54.4688 31.6973 54.8787 30.9677 55.6083C30.238 56.3379 29.8281 57.3275 29.8281 58.3594C29.8281 59.3912 30.238 60.3808 30.9677 61.1105C31.6973 61.8401 32.6869 62.25 33.7188 62.25H38.9062C39.9381 62.25 40.9277 61.8401 41.6573 61.1105C42.387 60.3808 42.7969 59.3912 42.7969 58.3594C42.7969 57.3275 42.387 56.3379 41.6573 55.6083C40.9277 54.8787 39.9381 54.4688 38.9062 54.4688ZM38.9062 59.6562H33.7188C33.3748 59.6562 33.0449 59.5196 32.8017 59.2764C32.5585 59.0332 32.4219 58.7033 32.4219 58.3594C32.4219 58.0154 32.5585 57.6856 32.8017 57.4423C33.0449 57.1991 33.3748 57.0625 33.7188 57.0625H38.9062C39.2502 57.0625 39.5801 57.1991 39.8233 57.4423C40.0665 57.6856 40.2031 58.0154 40.2031 58.3594C40.2031 58.7033 40.0665 59.0332 39.8233 59.2764C39.5801 59.5196 39.2502 59.6562 38.9062 59.6562Z" fill="#132766"/>
<path d="M5.1874 36.3125H7.78115V21.2869L9.45801 22.9637L11.2918 21.13L7.40116 17.2393C7.15796 16.9962 6.82816 16.8596 6.48427 16.8596C6.14039 16.8596 5.81058 16.9962 5.56738 17.2393L1.67676 21.13L3.51054 22.9637L5.1874 21.2869V36.3125Z" fill="#132766"/>
<path d="M64.8436 21.2869V36.3125H67.4374V21.2869L69.1143 22.9637L70.948 21.13L67.0574 17.2393C66.8142 16.9962 66.4844 16.8596 66.1405 16.8596C65.7966 16.8596 65.4668 16.9962 65.2236 17.2393L61.333 21.13L63.1668 22.9637L64.8436 21.2869Z" fill="#132766"/>
<path d="M72.625 59.6562C71.404 59.6513 70.2217 60.0838 69.292 60.8753C68.8297 60.1087 68.1773 59.4743 67.3981 59.0336C66.6188 58.5928 65.739 58.3606 64.8438 58.3594C63.6228 58.3545 62.4404 58.7869 61.5108 59.5784C60.8104 58.4116 59.6779 57.5681 58.3594 57.2311V11.6719C58.3566 9.26505 57.3993 6.95759 55.6974 5.2557C53.9955 3.55382 51.6881 2.5965 49.2812 2.59375H23.3438C20.9369 2.5965 18.6295 3.55382 16.9276 5.2557C15.2257 6.95759 14.2684 9.26505 14.2656 11.6719V35.4047C13.4412 35.7903 12.7765 36.4505 12.3852 37.2722L6.49734 50.0464C5.63847 51.9182 5.19177 53.9526 5.1875 56.012V80.4062H7.78125V56.012C7.78562 54.3282 8.15276 52.665 8.85766 51.1358L14.2656 39.3991V58.3594C14.2674 59.4173 14.4562 60.4667 14.8233 61.4589L13.5394 63.6766L15.783 64.9734L23.5642 51.4989C23.7328 51.2025 23.9582 50.9423 24.2275 50.7331C24.4967 50.524 24.8046 50.3699 25.1334 50.2798C25.7994 50.1095 26.5054 50.2024 27.1047 50.5392C27.7004 50.8859 28.1345 51.4544 28.3119 52.1204C28.4894 52.7864 28.3957 53.4956 28.0514 54.0927L22.2155 64.1953C22.1027 64.398 22.0446 64.6265 22.0469 64.8584C22.0492 65.0904 22.1117 65.3177 22.2284 65.5181L25.0038 70.135C25.612 71.1405 25.9348 72.2928 25.9375 73.468V80.3933H28.5312V73.468C28.5283 71.8232 28.0801 70.2099 27.2344 68.7992L26.4173 67.4375H34.4191C34.0662 68.7687 34.2526 70.1854 34.9378 71.38L40.5273 81.0547L42.7709 79.7578L37.1814 70.0831C36.9214 69.6386 36.7996 69.1268 36.8315 68.6129C36.8634 68.099 37.0476 67.6062 37.3605 67.1972C37.6735 66.7883 38.1011 66.4818 38.5888 66.3167C39.0766 66.1517 39.6024 66.1355 40.0994 66.2703C40.4299 66.3565 40.7395 66.509 41.0093 66.7185C41.2791 66.9281 41.5034 67.1904 41.6686 67.4894L44.2623 71.9766C44.4081 72.2227 44.6296 72.4151 44.8938 72.5249C45.1579 72.6348 45.4505 72.6563 45.7278 72.5861C46.0042 72.5117 46.2481 72.348 46.4217 72.1204C46.5953 71.8929 46.6888 71.6143 46.6875 71.3281V46.6875C46.6875 45.9996 46.9608 45.3399 47.4472 44.8534C47.9336 44.367 48.5933 44.0938 49.2812 44.0938C49.9692 44.0938 50.6289 44.367 51.1153 44.8534C51.6017 45.3399 51.875 45.9996 51.875 46.6875V67.4375C51.875 67.7815 52.0116 68.1113 52.2548 68.3545C52.4981 68.5977 52.8279 68.7344 53.1719 68.7344C53.5158 68.7344 53.8457 68.5977 54.0889 68.3545C54.3321 68.1113 54.4688 67.7815 54.4688 67.4375V62.25C54.4688 61.5621 54.742 60.9024 55.2284 60.4159C55.7149 59.9295 56.3746 59.6562 57.0625 59.6562C57.7504 59.6562 58.4101 59.9295 58.8966 60.4159C59.383 60.9024 59.6562 61.5621 59.6562 62.25V67.4375C59.6562 67.7815 59.7929 68.1113 60.0361 68.3545C60.2793 68.5977 60.6092 68.7344 60.9531 68.7344C61.2971 68.7344 61.6269 68.5977 61.8702 68.3545C62.1134 68.1113 62.25 67.7815 62.25 67.4375V63.5469C62.25 62.859 62.5233 62.1992 63.0097 61.7128C63.4961 61.2264 64.1558 60.9531 64.8438 60.9531C65.5317 60.9531 66.1914 61.2264 66.6778 61.7128C67.1642 62.1992 67.4375 62.859 67.4375 63.5469V67.4375C67.4375 67.7815 67.5741 68.1113 67.8173 68.3545C68.0606 68.5977 68.3904 68.7344 68.7344 68.7344C69.0783 68.7344 69.4082 68.5977 69.6514 68.3545C69.8946 68.1113 70.0312 67.7815 70.0312 67.4375V64.8438C70.0312 64.1558 70.3045 63.4961 70.7909 63.0097C71.2774 62.5233 71.9371 62.25 72.625 62.25C73.3129 62.25 73.9726 62.5233 74.4591 63.0097C74.9455 63.4961 75.2188 64.1558 75.2188 64.8438V80.4062H77.8125V64.8438C77.8125 63.4679 77.266 62.1485 76.2931 61.1756C75.3203 60.2028 74.0008 59.6562 72.625 59.6562ZM55.7656 57.2311C55.3111 57.3484 54.8748 57.5273 54.4688 57.7628V46.6875C54.4688 45.3117 53.9222 43.9922 52.9494 43.0194C51.9765 42.0465 50.6571 41.5 49.2812 41.5C47.9054 41.5 46.586 42.0465 45.6131 43.0194C44.6403 43.9922 44.0938 45.3117 44.0938 46.6875V64.8438H42.7839C42.2 64.3433 41.514 63.9759 40.7738 63.7673C39.4425 63.4152 38.0261 63.6015 36.8312 64.2861C36.5607 64.4497 36.3047 64.6362 36.0661 64.8438H24.8611L24.8481 64.8308L30.308 55.3895C30.9959 54.1977 31.1822 52.7815 30.8259 51.4523C30.4696 50.1232 29.5998 48.99 28.408 48.3021C27.2163 47.6142 25.8 47.4279 24.4708 47.7842C23.1417 48.1405 22.0085 49.0102 21.3206 50.202L16.8594 57.9184V11.6719C16.8594 9.95211 17.5425 8.30279 18.7586 7.08673C19.9747 5.87067 21.624 5.1875 23.3438 5.1875H49.2812C51.001 5.1875 52.6503 5.87067 53.8664 7.08673C55.0825 8.30279 55.7656 9.95211 55.7656 11.6719V57.2311Z" fill="#132766"/>
<path d="M35.0156 27.2344H37.6094C37.9533 27.2344 38.2832 27.371 38.5264 27.6142C38.7696 27.8574 38.9062 28.1873 38.9062 28.5312H41.5C41.5 27.4994 41.0901 26.5098 40.3605 25.7802C39.6308 25.0505 38.6412 24.6406 37.6094 24.6406V23.3438H35.0156V24.6406C33.9838 24.6406 32.9942 25.0505 32.2645 25.7802C31.5349 26.5098 31.125 27.4994 31.125 28.5312C31.125 29.5631 31.5349 30.5527 32.2645 31.2823C32.9942 32.012 33.9838 32.4219 35.0156 32.4219H37.6094C37.9533 32.4219 38.2832 32.5585 38.5264 32.8017C38.7696 33.0449 38.9062 33.3748 38.9062 33.7188C38.9062 34.0627 38.7696 34.3926 38.5264 34.6358C38.2832 34.879 37.9533 35.0156 37.6094 35.0156H35.0156C34.6717 35.0156 34.3418 34.879 34.0986 34.6358C33.8554 34.3926 33.7188 34.0627 33.7188 33.7188H31.125C31.125 34.7506 31.5349 35.7402 32.2645 36.4698C32.9942 37.1995 33.9838 37.6094 35.0156 37.6094V38.9062H37.6094V37.6094C38.6412 37.6094 39.6308 37.1995 40.3605 36.4698C41.0901 35.7402 41.5 34.7506 41.5 33.7188C41.5 32.6869 41.0901 31.6973 40.3605 30.9677C39.6308 30.238 38.6412 29.8281 37.6094 29.8281H35.0156C34.6717 29.8281 34.3418 29.6915 34.0986 29.4483C33.8554 29.2051 33.7188 28.8752 33.7188 28.5312C33.7188 28.1873 33.8554 27.8574 34.0986 27.6142C34.3418 27.371 34.6717 27.2344 35.0156 27.2344Z" fill="#132766"/>
<path d="M36.3125 18.1562C33.7475 18.1563 31.2402 18.9169 29.1075 20.3419C26.9748 21.7669 25.3125 23.7923 24.3309 26.1621C23.3494 28.5318 23.0925 31.1394 23.5929 33.6551C24.0933 36.1708 25.3285 38.4816 27.1422 40.2953C28.9559 42.109 31.2667 43.3442 33.7824 43.8446C36.2981 44.345 38.9057 44.0881 41.2754 43.1066C43.6452 42.125 45.6706 40.4628 47.0956 38.3301C48.5207 36.1974 49.2813 33.69 49.2813 31.125C49.2775 27.6866 47.9099 24.3902 45.4786 21.9589C43.0473 19.5276 39.7509 18.16 36.3125 18.1562ZM36.3125 41.5C34.2605 41.5 32.2546 40.8915 30.5485 39.7515C28.8423 38.6115 27.5125 36.9911 26.7273 35.0953C25.942 33.1996 25.7365 31.1135 26.1369 29.1009C26.5372 27.0884 27.5253 25.2397 28.9763 23.7888C30.4272 22.3378 32.2759 21.3497 34.2884 20.9494C36.301 20.549 38.3871 20.7545 40.2828 21.5397C42.1786 22.325 43.799 23.6548 44.939 25.361C46.079 27.0671 46.6875 29.073 46.6875 31.125C46.6844 33.8757 45.5904 36.5128 43.6453 38.4578C41.7003 40.4028 39.0632 41.4969 36.3125 41.5Z" fill="#132766"/>
<path d="M64.8438 38.9062H67.4375V41.5H64.8438V38.9062Z" fill="#132766"/>
<path d="M64.8438 44.0938H67.4375V46.6875H64.8438V44.0938Z" fill="#132766"/>
<path d="M5.1875 38.9062H7.78125V41.5H5.1875V38.9062Z" fill="#132766"/>
</svg>
