<svg width="83" height="83" viewBox="0 0 83 83" fill="none" xmlns="http://www.w3.org/2000/svg">
<g clip-path="url(#clip0_1009_415)">
<path d="M78.5096 1.63721H4.49043C2.01437 1.63721 0 3.65142 0 6.12764V58.5311C0 61.0072 2.01437 63.0215 4.49043 63.0215H11.6719C12.3435 63.0215 12.8877 62.4773 12.8877 61.8057C12.8877 61.1341 12.3435 60.5899 11.6719 60.5899H4.49043C3.35518 60.5899 2.43164 59.6664 2.43164 58.5311V6.12764C2.43164 4.99238 3.35518 4.06885 4.49043 4.06885H78.5096C79.6448 4.06885 80.5684 4.99238 80.5684 6.12764V58.5311C80.5684 59.6664 79.6448 60.5899 78.5096 60.5899H17.3457C16.6741 60.5899 16.1299 61.1341 16.1299 61.8057C16.1299 62.4773 16.6741 63.0215 17.3457 63.0215H30.3858C30.1543 65.1568 29.1995 69.7825 25.2855 73.6901H21.1942C19.9819 73.6901 18.9958 74.6762 18.9958 75.8883V79.1646C18.9958 80.3768 19.9819 81.3629 21.1942 81.3629H51.4357C52.1073 81.3629 52.6515 80.8187 52.6515 80.1471C52.6515 79.4755 52.1073 78.9313 51.4357 78.9313H21.4276V76.1219H61.5724V78.9313H57.1095C56.4379 78.9313 55.8937 79.4755 55.8937 80.1471C55.8937 80.8187 56.4379 81.3629 57.1095 81.3629H61.8058C63.0181 81.3629 64.0042 80.3768 64.0042 79.1646V75.8883C64.0042 74.6762 63.0181 73.6901 61.8058 73.6901H57.7147C53.8224 69.8018 52.8571 65.1619 52.6186 63.0215H78.5096C80.9856 63.0215 83 61.0072 83 58.5311V6.12764C83 3.65142 80.9856 1.63721 78.5096 1.63721ZM54.4584 73.69H28.5416C31.8409 69.5388 32.6414 65.1235 32.8322 63.0214H50.1677C50.3586 65.1236 51.1591 69.5388 54.4584 73.69Z" fill="#132766"/>
<path d="M68.4571 52.8686H76.5432C77.2148 52.8686 77.759 52.3244 77.759 51.6528V8.09399C77.759 7.42237 77.2148 6.87817 76.5432 6.87817H6.45679C5.78517 6.87817 5.24097 7.42237 5.24097 8.09399V51.6528C5.24097 52.3244 5.78517 52.8686 6.45679 52.8686H62.7833C63.4549 52.8686 63.9991 52.3244 63.9991 51.6528C63.9991 50.9812 63.4549 50.437 62.7833 50.437H7.67261V9.30981H75.3273V50.437H68.4571C67.7855 50.437 67.2413 50.9812 67.2413 51.6528C67.2413 52.3244 67.7855 52.8686 68.4571 52.8686Z" fill="#132766"/>
<path d="M20.4449 14.8076C20.4449 14.136 19.9007 13.5918 19.2291 13.5918H11.6962C11.0245 13.5918 10.4803 14.136 10.4803 14.8076V21.3578C10.4803 22.0294 11.0245 22.5736 11.6962 22.5736H19.2291C19.9007 22.5736 20.4449 22.0294 20.4449 21.3578V14.8076ZM18.0132 20.142H12.912V16.0234H18.0132V20.142Z" fill="#132766"/>
<path d="M25.7793 22.5737H46.0851C46.7567 22.5737 47.3009 22.0295 47.3009 21.3579C47.3009 20.6863 46.7567 20.1421 46.0851 20.1421H25.7793C25.1077 20.1421 24.5635 20.6863 24.5635 21.3579C24.5635 22.0295 25.1078 22.5737 25.7793 22.5737Z" fill="#132766"/>
<path d="M51.9803 13.5918H35.2772C34.6056 13.5918 34.0614 14.136 34.0614 14.8076C34.0614 15.4792 34.6056 16.0234 35.2772 16.0234H51.9803C52.6519 16.0234 53.1961 15.4792 53.1961 14.8076C53.1961 14.136 52.6519 13.5918 51.9803 13.5918Z" fill="#132766"/>
<path d="M25.7793 16.0234H29.5456C30.2172 16.0234 30.7614 15.4792 30.7614 14.8076C30.7614 14.136 30.2172 13.5918 29.5456 13.5918H25.7793C25.1077 13.5918 24.5635 14.136 24.5635 14.8076C24.5635 15.4792 25.1078 16.0234 25.7793 16.0234Z" fill="#132766"/>
<path d="M20.4449 26.5979C20.4449 25.9263 19.9007 25.3821 19.2291 25.3821H11.6962C11.0245 25.3821 10.4803 25.9263 10.4803 26.5979V33.1481C10.4803 33.8197 11.0245 34.3639 11.6962 34.3639H19.2291C19.9007 34.3639 20.4449 33.8197 20.4449 33.1481V26.5979ZM18.0132 31.9323H12.912V27.8137H18.0132V31.9323Z" fill="#132766"/>
<path d="M25.7793 34.364H46.0851C46.7567 34.364 47.3009 33.8198 47.3009 33.1482C47.3009 32.4766 46.7567 31.9324 46.0851 31.9324H25.7793C25.1077 31.9324 24.5635 32.4766 24.5635 33.1482C24.5635 33.8198 25.1078 34.364 25.7793 34.364Z" fill="#132766"/>
<path d="M51.9803 25.3821H35.2772C34.6056 25.3821 34.0614 25.9263 34.0614 26.5979C34.0614 27.2695 34.6056 27.8137 35.2772 27.8137H51.9803C52.6519 27.8137 53.1961 27.2695 53.1961 26.5979C53.1961 25.9263 52.6519 25.3821 51.9803 25.3821Z" fill="#132766"/>
<path d="M25.7793 27.8137H29.5456C30.2172 27.8137 30.7614 27.2695 30.7614 26.5979C30.7614 25.9263 30.2172 25.3821 29.5456 25.3821H25.7793C25.1077 25.3821 24.5635 25.9263 24.5635 26.5979C24.5635 27.2695 25.1078 27.8137 25.7793 27.8137Z" fill="#132766"/>
<path d="M19.2291 37.1726H11.6962C11.0245 37.1726 10.4803 37.7168 10.4803 38.3884V44.9388C10.4803 45.6104 11.0245 46.1546 11.6962 46.1546H19.2291C19.9007 46.1546 20.4449 45.6104 20.4449 44.9388V38.3884C20.4449 37.7168 19.9007 37.1726 19.2291 37.1726ZM18.0132 43.723H12.912V39.6042H18.0132V43.723Z" fill="#132766"/>
<path d="M25.7793 46.1548H46.0851C46.7567 46.1548 47.3009 45.6106 47.3009 44.939C47.3009 44.2673 46.7567 43.7231 46.0851 43.7231H25.7793C25.1077 43.7231 24.5635 44.2673 24.5635 44.939C24.5635 45.6106 25.1078 46.1548 25.7793 46.1548Z" fill="#132766"/>
<path d="M53.1961 38.3884C53.1961 37.7168 52.6519 37.1726 51.9803 37.1726H35.2772C34.6056 37.1726 34.0614 37.7168 34.0614 38.3884C34.0614 39.06 34.6056 39.6042 35.2772 39.6042H51.9803C52.6519 39.6042 53.1961 39.0599 53.1961 38.3884Z" fill="#132766"/>
<path d="M25.7793 39.6042H29.5456C30.2172 39.6042 30.7614 39.06 30.7614 38.3884C30.7614 37.7168 30.2172 37.1726 29.5456 37.1726H25.7793C25.1077 37.1726 24.5635 37.7168 24.5635 38.3884C24.5635 39.06 25.1078 39.6042 25.7793 39.6042Z" fill="#132766"/>
<path d="M72.5184 35.0264C72.4954 34.5099 72.1485 34.0644 71.6532 33.9159L57.5701 29.691C57.1414 29.5623 56.6774 29.6797 56.361 29.9958C56.0448 30.3121 55.9276 30.7765 56.0562 31.205L60.2811 45.2881C60.4296 45.7833 60.8751 46.1302 61.3915 46.1532C61.4097 46.1542 61.428 46.1545 61.446 46.1545C61.9411 46.1545 62.3893 45.8533 62.5746 45.3902L65.1975 38.8324L71.7553 36.2093C72.2354 36.0175 72.5414 35.5428 72.5184 35.0264ZM63.8107 36.7682C63.5017 36.8919 63.2569 37.1365 63.1332 37.4457L61.6099 41.2546L59.0341 32.669L67.6198 35.2447L63.8107 36.7682Z" fill="#132766"/>
</g>
<defs>
<clipPath id="clip0_1009_415">
<rect width="83" height="83" fill="white"/>
</clipPath>
</defs>
</svg>
