<svg width="83" height="83" viewBox="0 0 83 83" fill="none" xmlns="http://www.w3.org/2000/svg">
<g clip-path="url(#clip0_1009_433)">
<path d="M36.9609 31.125H1.29687C0.51875 31.125 0 30.4766 0 29.8282V21.5282C0 17.8969 2.98281 14.7844 6.74375 14.7844H41.3703C42.1484 14.7844 42.6672 15.4329 42.6672 16.0813C42.6672 16.7297 42.0187 17.3782 41.3703 17.3782H6.61406C4.40937 17.3782 2.59375 19.1938 2.59375 21.3985V28.4016H36.9609C37.7391 28.4016 38.2578 29.05 38.2578 29.6985C38.2578 30.3469 37.7391 31.125 36.9609 31.125Z" fill="#132766"/>
<path d="M6.61406 79.1094C4.79844 79.1094 3.1125 78.461 1.94531 77.1641C0.648438 75.8672 0 74.1813 0 72.3657V29.6985C0 28.9204 0.648438 28.4016 1.29688 28.4016H36.9609C37.7391 28.4016 38.2578 29.05 38.2578 29.6985C38.2578 30.3469 37.6094 30.9954 36.9609 30.9954H2.59375V72.236C2.59375 73.2735 2.98281 74.311 3.76094 75.0891C4.53906 75.8672 5.57656 76.2563 6.61406 76.2563H67.4375C69.6422 76.2563 71.4578 74.4407 71.4578 72.236V46.2985C71.4578 45.5204 72.1062 45.0016 72.7547 45.0016C73.4031 45.0016 74.0516 45.6501 74.0516 46.2985V72.236C74.0516 75.8672 71.0688 78.9797 67.3078 78.9797H6.61406V79.1094Z" fill="#132766"/>
<path d="M11.672 24.2515H8.81885C8.04072 24.2515 7.52197 23.603 7.52197 22.9546C7.52197 22.3062 8.17041 21.6577 8.81885 21.6577H11.672C12.4501 21.6577 12.9688 22.3062 12.9688 22.9546C12.9688 23.603 12.4501 24.2515 11.672 24.2515Z" fill="#132766"/>
<path d="M18.0265 24.2515H15.1733C14.3952 24.2515 13.8765 23.603 13.8765 22.9546C13.8765 22.3062 14.5249 21.6577 15.1733 21.6577H18.0265C18.8046 21.6577 19.3233 22.3062 19.3233 22.9546C19.3233 23.603 18.8046 24.2515 18.0265 24.2515Z" fill="#132766"/>
<path d="M24.3812 24.2515H21.5281C20.75 24.2515 20.2312 23.603 20.2312 22.9546C20.2312 22.3062 20.8796 21.6577 21.5281 21.6577H24.3812C25.1593 21.6577 25.6781 22.3062 25.6781 22.9546C25.6781 23.603 25.1593 24.2515 24.3812 24.2515Z" fill="#132766"/>
<path d="M31.9032 54.5983H12.9688C10.7641 54.5983 8.94849 52.7827 8.94849 50.578V39.2952C8.94849 37.0905 10.7641 35.2749 12.9688 35.2749H31.9032C34.1079 35.2749 35.9235 37.0905 35.9235 39.2952V50.578C35.9235 52.7827 34.1079 54.5983 31.9032 54.5983ZM31.9032 37.8687H12.9688C12.1907 37.8687 11.6719 38.5171 11.6719 39.1655V50.578C11.6719 51.3562 12.3204 51.8749 12.9688 51.8749H31.9032C32.6813 51.8749 33.2 51.2265 33.2 50.578V39.2952C33.2 38.5171 32.5516 37.8687 31.9032 37.8687Z" fill="#132766"/>
<path d="M45.5203 46.5579H44.0938C43.3156 46.5579 42.7969 45.9094 42.7969 45.261C42.7969 44.6125 43.4453 43.9641 44.0938 43.9641H45.5203C46.2984 43.9641 46.8172 44.6125 46.8172 45.261C46.8172 45.9094 46.1687 46.5579 45.5203 46.5579Z" fill="#132766"/>
<path d="M64.5844 55.1172H44.0938C43.3156 55.1172 42.7969 54.4688 42.7969 53.8203C42.7969 53.1719 43.4453 52.5234 44.0938 52.5234H64.5844C65.3625 52.5234 65.8813 53.1719 65.8813 53.8203C65.8813 54.4688 65.2328 55.1172 64.5844 55.1172Z" fill="#132766"/>
<path d="M64.5844 63.6765H9.59692C8.8188 63.6765 8.30005 63.0281 8.30005 62.3796C8.30005 61.7312 8.94849 61.0828 9.59692 61.0828H64.5844C65.3625 61.0828 65.8813 61.7312 65.8813 62.3796C65.8813 63.0281 65.2329 63.6765 64.5844 63.6765Z" fill="#132766"/>
<path d="M64.5844 72.2358H9.59692C8.8188 72.2358 8.30005 71.5874 8.30005 70.939C8.30005 70.2905 8.94849 69.6421 9.59692 69.6421H64.5844C65.3625 69.6421 65.8813 70.2905 65.8813 70.939C65.8813 71.5874 65.2329 72.2358 64.5844 72.2358Z" fill="#132766"/>
<path d="M62.7687 47.0766H60.6937C59.0078 47.0766 57.5812 45.7797 57.3219 44.2234L56.8031 40.9813C56.8031 40.7219 56.5437 40.5922 56.4141 40.4625C55.8953 40.3328 55.5063 40.0734 54.9875 39.9437C54.7281 39.8141 54.5984 39.8141 54.3391 39.9437L51.7453 41.8891C50.4484 42.7969 48.5031 42.6672 47.3359 41.5L45.7797 39.9437C44.6125 38.7766 44.4828 36.9609 45.3906 35.5344L47.3359 32.9406C47.4656 32.6812 47.4656 32.4219 47.3359 32.2922C47.0766 31.9031 46.9469 31.3844 46.6875 30.8656C46.5578 30.6062 46.4281 30.4766 46.1687 30.4766L43.0563 29.9578C41.3703 29.6984 40.2031 28.2719 40.2031 26.5859V24.3812C40.2031 22.6953 41.3703 21.2688 43.0563 21.0094L46.1687 20.4906C46.4281 20.4906 46.5578 20.2313 46.6875 20.1016C46.8172 19.5828 47.0766 19.1937 47.3359 18.675C47.4656 18.4156 47.4656 18.1562 47.3359 18.0266L45.3906 15.4328C44.3531 14.1359 44.6125 12.3203 45.65 11.0234L47.2063 9.46719C48.3734 8.3 50.3187 8.17031 51.6156 9.20781L54.0797 11.1531C54.3391 11.4125 54.5984 11.2828 54.7281 11.1531C55.2469 10.8938 55.6359 10.7641 56.1547 10.5047C56.4141 10.375 56.5437 10.2453 56.6734 9.98594L57.1922 6.74375C57.5812 5.1875 59.0078 3.89062 60.6937 3.89062H62.7687C64.4547 3.89062 65.8812 5.1875 66.1406 6.74375L66.6594 9.98594C66.6594 10.2453 66.9187 10.375 67.0484 10.5047C67.5672 10.6344 67.9562 10.8937 68.475 11.0234C68.7344 11.1531 68.8641 11.1531 69.1234 11.0234L71.7172 9.07812C73.0141 8.04062 74.9594 8.3 76.1266 9.46719L77.6828 11.0234C78.85 12.1906 78.9797 14.0062 78.0719 15.4328L76.1266 18.0266C75.9969 18.2859 75.9969 18.5453 76.1266 18.675C76.3859 19.0641 76.5156 19.5828 76.775 20.1016C76.9047 20.3609 77.0344 20.4906 77.2937 20.4906L80.4062 21.0094C82.0922 21.2688 83.2594 22.6953 83.2594 24.3812V26.5859C83.2594 28.2719 82.0922 29.6984 80.4062 29.9578L77.2937 30.4766C77.0344 30.4766 76.9047 30.7359 76.775 30.8656C76.6453 31.3844 76.3859 31.7734 76.2562 32.2922C76.1266 32.5516 76.1266 32.8109 76.2562 33.0703L78.2016 35.6641C79.1094 36.9609 78.9797 38.7766 77.9422 40.0734L75.9969 41.5C74.8297 42.6672 72.8844 42.7969 71.5875 41.7594L69.1234 39.8141C68.8641 39.5547 68.6047 39.6844 68.475 39.8141C67.9562 40.0734 67.5672 40.2031 67.0484 40.4625C66.7891 40.5922 66.6594 40.7219 66.6594 40.9813L66.1406 44.2234C65.8812 45.7797 64.4547 47.0766 62.7687 47.0766ZM54.5984 37.0906C55.1172 37.0906 55.6359 37.2203 56.025 37.4797C56.4141 37.6094 56.8031 37.8687 57.1922 37.9984C58.3594 38.3875 59.1375 39.425 59.3969 40.5922L59.9156 43.8344C59.9156 44.2234 60.3047 44.4828 60.5641 44.4828H62.6391C63.0281 44.4828 63.2875 44.2234 63.2875 43.9641L63.8062 40.7219C63.9359 39.5547 64.8437 38.5172 66.0109 38.1281C66.4 37.9984 66.7891 37.8688 67.1781 37.6094C68.2156 37.0906 69.6422 37.2203 70.6797 37.9984L73.2734 39.9437C73.6625 40.2031 73.9219 40.0734 74.1812 39.8141L75.7375 38.2578C75.9969 37.9984 75.9969 37.6094 75.7375 37.35L73.7922 34.7562C73.0141 33.7187 72.8844 32.4219 73.4031 31.3844C73.5328 30.9953 73.7922 30.6062 73.9219 30.2172C74.3109 29.05 75.3484 28.1422 76.5156 28.0125L79.6281 27.4938C80.0172 27.4938 80.1469 27.1047 80.1469 26.8453V24.6406C80.1469 24.2516 79.8875 23.9922 79.6281 23.9922L76.5156 23.4734C75.3484 23.3438 74.3109 22.4359 73.9219 21.2687C73.7922 20.8797 73.6625 20.4906 73.4031 20.1016C72.8844 18.9344 73.0141 17.6375 73.6625 16.6L75.6078 14.0063C75.8672 13.7469 75.7375 13.3578 75.6078 13.0984L74.0516 11.5422C73.9219 11.4125 73.6625 11.2828 73.5328 11.2828C73.4031 11.2828 73.2734 11.2828 73.1437 11.4125L70.6797 13.3578C69.7719 14.1359 68.3453 14.2656 67.1781 13.7469C66.7891 13.6172 66.4 13.3578 66.0109 13.2281C64.8437 12.8391 64.0656 11.8016 63.8062 10.6344L63.2875 7.39219C63.2875 7.00312 62.8984 6.74375 62.6391 6.74375H60.5641C60.175 6.74375 59.9156 7.00312 59.9156 7.2625L59.5266 10.375C59.3969 11.5422 58.4891 12.5797 57.3219 12.9688C56.9328 13.0984 56.5437 13.2281 56.1547 13.4875C55.1172 14.0062 53.6906 13.8766 52.6531 13.0984L50.0594 11.1531C49.6703 10.7641 49.4109 11.0234 49.1516 11.2828L47.5953 12.8391C47.3359 13.0984 47.3359 13.4875 47.5953 13.7469L49.5406 16.3406C50.1891 17.3781 50.3188 18.675 49.8 19.7125C49.6703 20.1016 49.4109 20.4906 49.2812 20.8797C48.8922 22.0469 47.8547 22.9547 46.6875 23.0844L43.575 23.6031C43.1859 23.6031 43.0563 23.9922 43.0563 24.2516V26.4562C43.0563 26.8453 43.3156 27.1047 43.575 27.1047L46.6875 27.6234C47.8547 27.7531 48.8922 28.6609 49.2812 29.8281C49.4109 30.2172 49.5406 30.6062 49.8 30.9953C50.3188 32.1625 50.1891 33.4594 49.4109 34.4969L47.4656 37.0906C47.2062 37.35 47.3359 37.7391 47.4656 37.9984L49.0219 39.5547C49.2812 39.8141 49.5406 39.9438 49.9297 39.6844L52.5234 37.7391C53.1719 37.35 53.95 37.0906 54.5984 37.0906Z" fill="#132766"/>
<path d="M61.7313 34.1079C56.9329 34.1079 53.0422 30.2172 53.0422 25.4188C53.0422 20.6204 56.9329 16.7297 61.7313 16.7297C66.5297 16.7297 70.4204 20.6204 70.4204 25.4188C70.4204 30.2172 66.5297 34.1079 61.7313 34.1079ZM61.7313 19.4532C58.3594 19.4532 55.7657 22.1766 55.7657 25.4188C55.7657 28.7907 58.4891 31.3844 61.7313 31.3844C64.9735 31.3844 67.6969 28.661 67.6969 25.4188C67.6969 22.1766 64.9735 19.4532 61.7313 19.4532Z" fill="#132766"/>
</g>
<defs>
<clipPath id="clip0_1009_433">
<rect width="83" height="83" fill="white"/>
</clipPath>
</defs>
</svg>
