<svg width="80" height="42" viewBox="0 0 80 42" fill="none" xmlns="http://www.w3.org/2000/svg">
<path d="M63.761 36.8548L67.4095 41.0948L0 41.113L0.824947 35.9039L8.22849 31.7898L7.08029 23.0711L16.8997 22.2094L17.4077 17.6755L28.8178 16.6953L29.4766 8.54231L31.4378 5.93466L36.0003 6.91216L36.5266 11.2541L43.8282 10.8002L44.2884 19.0168L52.4996 22.2106L52.9597 28.5975C53.666 29.5777 57.2476 28.0105 57.8695 28.9207C58.5034 29.841 57.302 28.0234 57.8695 28.9207C57.0685 32.7062 62.6663 33.3518 62.6663 33.3518L63.761 36.8548Z" fill="#040431"/>
<path d="M54.8439 9.47086L51.4059 8.30145C50.2338 9.2018 49.8029 10.1403 50.1375 11.1214L51.8598 13.1L54.4555 12.2338C55.3935 11.9226 55.7168 11.3308 55.4357 10.4987C55.34 10.2068 55.1555 9.85309 54.844 9.47094L54.8439 9.47086Z" fill="#040431"/>
<path d="M52.6555 0.323519C51.8957 -0.0439671 51.1123 -0.104671 50.2637 0.173715C49.8155 0.323517 49.3488 0.619245 48.8291 1.0684L48.9669 5.14123L52.9139 4.65086C53.9482 3.47333 54.3369 2.51619 54.098 1.78035C53.8937 1.19338 53.4207 0.702963 52.6555 0.323519Z" fill="#040431"/>
<path d="M64.7569 5.98109L64.7808 6.06182C64.631 6.11235 63.9191 5.9479 62.6276 5.54184C62.0057 5.32685 61.3784 5.09362 60.7502 4.84753C59.8583 5.14983 59.3027 6.0409 59.0868 7.50876C58.8718 8.98199 59.015 10.463 59.5057 11.9464C59.6379 12.3468 59.9477 12.7834 60.4389 13.2857L61.2822 14.0748L62.7353 13.9968C64.3739 13.2857 65.3075 12.8907 65.558 12.8073C66.1503 12.4482 66.5501 11.7069 66.754 10.5946C66.958 9.47032 66.8799 8.40555 66.5271 7.36773C66.1384 6.18783 65.5523 5.71745 64.7569 5.98123L64.7569 5.98109Z" fill="#040431"/>
<path d="M58.3964 18.1062L57.5413 21.2045C58.1743 21.7604 59.0898 22.1488 60.3098 22.3289L63.1932 21.3598L61.7337 16.9939L58.3964 18.1062Z" fill="#040431"/>
<path d="M73.07 12.5259L72.2083 15.6243C72.8475 16.1801 73.7577 16.5623 74.9834 16.7486L77.8668 15.7861L76.4007 11.4083L73.07 12.5259Z" fill="#040431"/>
<path d="M75.1979 35.7755L74.3418 38.8729C74.982 39.4351 75.8913 39.8119 77.1113 39.9973L80 39.0345L78.5348 34.6629L75.1979 35.7755Z" fill="#040431"/>
<path d="M74.3788 22.0292C72.7044 20.169 70.6412 19.6482 68.1776 20.474L67.8128 20.5942C66.6464 21.6222 65.6844 23.1295 64.8771 25.0731C64.0928 26.9324 63.8658 28.3918 64.2184 29.4567C64.2486 29.5404 65.0138 30.2401 66.4966 31.574C68.0756 32.8654 68.9547 33.7325 69.1401 34.1688L73.811 32.6016C74.3492 32.4225 74.8746 32.1707 75.3716 31.8484C75.8796 31.5252 76.2985 31.143 76.6457 30.7361C76.9865 30.33 77.238 29.9112 77.3989 29.4979C77.5478 29.0855 77.5717 28.6905 77.4402 28.3138C76.4301 25.2818 75.4077 23.1894 74.3788 22.0292Z" fill="#040431"/>
</svg>
