<svg width="95" height="117" viewBox="0 0 95 117" fill="none" xmlns="http://www.w3.org/2000/svg">
<g clip-path="url(#clip0_891_156)">
<path d="M83.3572 6.50989V104.285C83.3568 105.834 82.7416 107.32 81.6464 108.415C80.5512 109.51 79.066 110.126 77.5172 110.126H6.51122C4.96228 110.126 3.47693 109.511 2.38166 108.415C1.28639 107.32 0.670898 105.834 0.670898 104.285V26.7931L26.7931 0.66919H77.5142C78.2814 0.669014 79.0412 0.819943 79.75 1.11337C80.4589 1.4068 81.1028 1.83698 81.6454 2.37934C82.188 2.92169 82.6184 3.56562 82.9122 4.27434C83.2059 4.98306 83.357 5.7427 83.3572 6.50989Z" fill="white" stroke="#D9D9D9"/>
<path d="M74.0743 19.1522H26.2705V23.6331H74.0743V19.1522Z" fill="#ACC6CC"/>
<g style="mix-blend-mode:multiply">
<path d="M28.4839 28.4873L0.668945 27.5505V26.797L26.7911 0.673065H27.5446L28.4839 28.4873Z" fill="#CCCCCC"/>
</g>
<path d="M26.8313 26.8348L0.668945 26.7946L26.7911 0.670761L26.8313 26.8348Z" fill="#F2F2F2"/>
<path d="M74.0758 32.7542H9.9502V37.2351H74.0758V32.7542Z" fill="#ACC6CC"/>
<path d="M74.0758 46.3562H9.9502V50.8371H74.0758V46.3562Z" fill="#ACC6CC"/>
<path d="M74.0758 59.9582H9.9502V64.4391H74.0758V59.9582Z" fill="#ACC6CC"/>
<path d="M74.0758 73.5602H9.9502V78.0411H74.0758V73.5602Z" fill="#ACC6CC"/>
<path d="M74.0758 87.1621H9.9502V91.643H74.0758V87.1621Z" fill="#ACC6CC"/>
<path d="M92.9612 88.9836C87.1544 103.627 70.332 116.208 54.6727 116.965C38.0886 117.768 29.49 105.13 36.2993 88.8859C43.0215 72.8508 61.6974 60.705 77.251 61.5254C91.9602 62.3016 98.7012 74.5104 92.9612 88.9836Z" fill="#08A4B4"/>
<path d="M91.7942 85.1318C85.9874 99.775 69.1637 112.356 53.5057 113.113C36.9216 113.916 28.323 101.278 35.1323 85.0341C41.8545 69.0002 60.5304 56.8531 76.084 57.6735C90.7945 58.4551 97.5342 70.6639 91.7942 85.1318Z" fill="white"/>
<path d="M92.7114 86.5532C87.1534 100.566 71.0538 112.606 56.0689 113.331C40.1968 114.1 31.9676 102.005 38.4851 86.4595C44.9183 71.1136 62.7912 59.4897 77.6797 60.2754C91.7532 61.0182 98.2037 72.7022 92.7114 86.5532Z" fill="#08A4B4"/>
<path d="M90.8002 85.1479C85.2423 99.1607 69.1427 111.201 54.1578 111.926C38.2857 112.694 30.0565 100.599 36.574 85.0542C43.0071 69.7083 60.88 58.0844 75.7685 58.8701C89.8433 59.6129 96.2939 71.2956 90.8002 85.1479Z" fill="#08A4B4"/>
<path d="M85.2857 85.6698C79.8281 98.5691 65.3304 109.011 52.4052 108.869C38.8282 108.719 32.4004 97.0608 38.6208 82.977C44.777 69.0471 60.5688 59.0106 73.3629 60.3584C85.5601 61.6445 90.6897 72.9003 85.2857 85.6698Z" fill="white"/>
<path d="M42.8452 84.7985C49.0013 70.8686 64.7932 60.8321 77.5872 62.1799C78.6235 62.2879 79.6494 62.48 80.6546 62.754C78.4401 61.4096 75.9477 60.5893 73.3676 60.3556C60.5722 59.0066 44.7804 69.0444 38.6256 82.9743C33.2644 95.1067 37.2966 105.431 47.1906 108.159C40.4818 103.968 38.3271 95.0264 42.8452 84.7985Z" fill="#D1D3D4"/>
<path d="M64.1715 87.0818C63.8041 87.7446 63.2852 88.3112 62.6573 88.7354C62.0293 89.1597 61.3101 89.4295 60.5581 89.523C59.2679 89.5658 58.7755 88.5594 59.4513 87.2732C59.8161 86.6161 60.3292 86.0531 60.9497 85.6291C61.5702 85.2051 62.2811 84.9317 63.0259 84.8306C64.3454 84.7677 64.8593 85.7755 64.1715 87.0818Z" fill="#474747"/>
<path d="M71.2202 70.1218C71.1455 70.2529 71.0426 70.3659 70.9191 70.4524C70.7955 70.539 70.6543 70.597 70.5055 70.6224C70.2472 70.6451 70.1428 70.4591 70.2753 70.2075L71.4236 68.0232C71.4982 67.8919 71.6008 67.7785 71.7241 67.6911C71.8473 67.6037 71.9882 67.5444 72.1369 67.5173C72.4046 67.4919 72.5049 67.6779 72.3711 67.9309L71.2202 70.1218Z" fill="#646464"/>
<path d="M52.2487 106.186C52.181 106.311 52.0832 106.416 51.9643 106.494C51.8453 106.571 51.709 106.618 51.5675 106.629C51.3266 106.629 51.2343 106.419 51.3654 106.17L52.495 104.02C52.5626 103.896 52.6601 103.789 52.7788 103.711C52.8974 103.633 53.0334 103.586 53.1748 103.573C53.4197 103.573 53.5134 103.781 53.3823 104.03L52.2487 106.186Z" fill="#646464"/>
<path d="M79.4939 86.9092C79.2141 86.9199 79.1004 86.7151 79.2409 86.4501C79.32 86.3131 79.4301 86.1967 79.5623 86.11C79.6946 86.0233 79.8453 85.9688 80.0024 85.9509L82.4488 85.8478C82.7325 85.8358 82.8503 86.0419 82.7058 86.3096C82.6259 86.448 82.5147 86.5658 82.3811 86.6534C82.2474 86.7411 82.095 86.7961 81.9362 86.8141L79.4939 86.9092Z" fill="#646464"/>
<path d="M43.4629 88.3292C43.2381 88.3385 43.1564 88.1539 43.2809 87.9156C43.3437 87.7971 43.4334 87.695 43.5429 87.6176C43.6524 87.5402 43.7786 87.4896 43.9112 87.4699L45.8705 87.3883C46.0953 87.3789 46.1823 87.5636 46.0565 87.8032C45.9927 87.9226 45.9019 88.0255 45.7913 88.1035C45.6807 88.1816 45.5534 88.2328 45.4195 88.2529L43.4629 88.3292Z" fill="#646464"/>
<path d="M64.1747 87.0818C63.8076 87.745 63.2889 88.312 62.6609 88.7365C62.033 89.161 61.3135 89.4309 60.5613 89.5244C59.2726 89.5672 58.7774 88.5621 59.4546 87.2745C59.8198 86.6175 60.3332 86.0547 60.9539 85.6307C61.5746 85.2067 62.2856 84.9332 63.0305 84.832C64.3487 84.7678 64.8626 85.7769 64.1747 87.0818Z" fill="#646464"/>
<path d="M61.7988 87.1782L79.8176 75.7256" stroke="#646464" stroke-width="3.8" stroke-miterlimit="10" stroke-linecap="round"/>
<path d="M61.7989 87.1795L56.8887 78.8374" stroke="#646464" stroke-width="3.8" stroke-miterlimit="10" stroke-linecap="round"/>
<path d="M47.1006 95.2914L61.799 87.1782" stroke="#08A4B4" stroke-width="1.267" stroke-miterlimit="10" stroke-linecap="round"/>
<path d="M63.3417 87.1153C63.1032 87.5463 62.7663 87.915 62.3584 88.1913C61.9505 88.4676 61.4832 88.6437 60.9944 88.7053C60.1526 88.736 59.8274 88.0816 60.2703 87.2397C60.5085 86.8113 60.8434 86.4445 61.2484 86.1684C61.6534 85.8924 62.1172 85.7148 62.603 85.6497C63.4555 85.6109 63.7887 86.2681 63.3417 87.1153Z" fill="#08A4B4"/>
</g>
<defs>
<clipPath id="clip0_891_156">
<rect width="95" height="117" fill="white"/>
</clipPath>
</defs>
</svg>
