<svg width="82" height="76" viewBox="0 0 82 76" fill="none" xmlns="http://www.w3.org/2000/svg">
<path d="M2 29.2153V4.03127C2 2.90939 2.90938 2.00002 4.03125 2.00002H7.83125C8.95312 2.00002 9.8625 2.90939 9.8625 4.03127V7.77752" stroke="#132766" stroke-width="3" stroke-miterlimit="10" stroke-linecap="round" stroke-linejoin="round"/>
<path d="M9.86255 22.8525V29.2153" stroke="#132766" stroke-width="3" stroke-miterlimit="10" stroke-linecap="round" stroke-linejoin="round"/>
<path d="M52.6593 52.5715H46.6218V46.8295H52.6593V52.5715Z" stroke="#132766" stroke-width="3" stroke-miterlimit="10" stroke-linecap="round" stroke-linejoin="round"/>
<path d="M35.0343 52.5715H28.9968V46.8295H35.0343V52.5715Z" stroke="#132766" stroke-width="3" stroke-miterlimit="10" stroke-linecap="round" stroke-linejoin="round"/>
<path d="M22.1194 63.6338V59.7808C22.1194 58.7814 22.9295 57.9714 23.9288 57.9714H57.7274C58.7266 57.9714 59.5367 58.7814 59.5367 59.7808V63.5213" stroke="#132766" stroke-width="3" stroke-miterlimit="10" stroke-linecap="round" stroke-linejoin="round"/>
<path d="M64.9367 63.5213V60.0433C64.9367 55.9168 61.5915 52.5714 57.4648 52.5714H24.1914C20.0646 52.5714 16.7195 55.9168 16.7195 60.0433V63.6338" stroke="#132766" stroke-width="3" stroke-miterlimit="10" stroke-linecap="round" stroke-linejoin="round"/>
<path d="M67.6041 68.3203C67.6041 71.2535 65.2263 73.6313 62.293 73.6313C59.3597 73.6313 56.9819 71.2535 56.9819 68.3203C56.9819 65.387 59.3597 63.0092 62.293 63.0092C65.2263 63.0092 67.6041 65.387 67.6041 68.3203Z" stroke="#132766" stroke-width="3" stroke-miterlimit="10" stroke-linecap="round" stroke-linejoin="round"/>
<path d="M24.6744 68.3203C24.6744 71.2535 22.2965 73.6313 19.3633 73.6313C16.4299 73.6313 14.0522 71.2535 14.0522 68.3203C14.0522 65.387 16.4299 63.0092 19.3633 63.0092C22.2965 63.0092 24.6744 65.387 24.6744 68.3203Z" stroke="#132766" stroke-width="3" stroke-miterlimit="10" stroke-linecap="round" stroke-linejoin="round"/>
<path d="M63.5436 68.3202C63.5436 69.011 62.9836 69.5708 62.2929 69.5708C61.6021 69.5708 61.0422 69.011 61.0422 68.3202C61.0422 67.6294 61.6021 67.0696 62.2929 67.0696C62.9836 67.0696 63.5436 67.6294 63.5436 68.3202Z" fill="#040431"/>
<path d="M20.614 68.3202C20.614 69.011 20.0541 69.5708 19.3633 69.5708C18.6725 69.5708 18.1125 69.011 18.1125 68.3202C18.1125 67.6294 18.6725 67.0696 19.3633 67.0696C20.0541 67.0696 20.614 67.6294 20.614 68.3202Z" fill="#040431"/>
<path d="M71.7938 40.1V43.7043C71.7938 45.4303 70.3947 46.8293 68.6688 46.8293H23.5969" stroke="#132766" stroke-width="3" stroke-miterlimit="10" stroke-linecap="round" stroke-linejoin="round"/>
<path d="M18.5905 46.8296H12.9875C11.2616 46.8296 9.86255 45.4305 9.86255 43.7046V40.1002" stroke="#132766" stroke-width="3" stroke-miterlimit="10" stroke-linecap="round" stroke-linejoin="round"/>
<path d="M50.6719 21.8442H43.2891" stroke="#132766" stroke-width="3" stroke-miterlimit="10" stroke-linecap="round" stroke-linejoin="round"/>
<path d="M63.4547 21.8442H56.072" stroke="#132766" stroke-width="3" stroke-miterlimit="10" stroke-linecap="round" stroke-linejoin="round"/>
<path d="M79.6563 29.2153V24.9691C79.6563 23.2431 78.2572 21.8441 76.5313 21.8441H68.8547" stroke="#132766" stroke-width="3" stroke-miterlimit="10" stroke-linecap="round" stroke-linejoin="round"/>
<path d="M37.8892 21.8441H27.2341C25.9639 21.8441 24.748 21.3286 23.8648 20.4158L16.1883 12.4803C14.7584 11.0022 12.3948 10.9827 10.9405 12.4367C9.5175 13.8599 9.50125 16.1622 10.9044 17.605L22.1934 29.2153" stroke="#132766" stroke-width="3" stroke-miterlimit="10" stroke-linecap="round" stroke-linejoin="round"/>
<path d="M61.472 40.1001H76.5312C78.2572 40.1001 79.6562 38.701 79.6562 36.9751V29.2154H69.7923C69.2745 29.2154 68.8548 28.7956 68.8548 28.2779V15.5032C68.8548 13.3459 67.1058 11.597 64.9486 11.597H41.7955C39.638 11.597 37.8892 13.3459 37.8892 15.5032V28.2779C37.8892 28.7956 37.4694 29.2154 36.9517 29.2154H2V36.9751C2 38.701 3.39922 40.1001 5.125 40.1001H56.072M62.5173 29.2154H57.0095C56.4917 29.2154 56.072 28.7956 56.072 28.2779V17.9345C56.072 17.4168 56.4917 16.997 57.0095 16.997H62.5173C63.035 16.997 63.4548 17.4168 63.4548 17.9345V28.2779C63.4548 28.7956 63.035 29.2154 62.5173 29.2154ZM49.7344 29.2154H44.2266C43.7089 29.2154 43.2891 28.7956 43.2891 28.2779V17.9345C43.2891 17.4168 43.7089 16.997 44.2266 16.997H49.7344C50.2522 16.997 50.6719 17.4168 50.6719 17.9345V28.2779C50.6719 28.7956 50.2522 29.2154 49.7344 29.2154Z" stroke="#132766" stroke-width="3" stroke-miterlimit="10" stroke-linecap="round" stroke-linejoin="round"/>
<path d="M15.4968 34.8032H21.6845" stroke="#132766" stroke-width="3" stroke-miterlimit="10" stroke-linecap="round" stroke-linejoin="round"/>
<path d="M26.7844 34.8032H28.4719" stroke="#132766" stroke-width="3" stroke-miterlimit="10" stroke-linecap="round" stroke-linejoin="round"/>
</svg>
