<svg width="32" height="32" viewBox="0 0 32 32" fill="none" xmlns="http://www.w3.org/2000/svg">
<rect width="32" height="32" fill="white"/>
<path d="M14.3519 15.0329C14.3519 16.031 14.2632 16.6243 14.0601 17.0919C13.871 17.4828 13.5021 17.8877 13.1216 18.1273C12.5753 18.4926 11.9286 18.6578 11.3332 18.6578C10.927 18.6578 8.83514 18.5182 8.44292 16.3963C8.40556 16.2078 8.39156 15.9914 8.37988 15.7774H10.397C10.397 15.8658 10.4087 15.9426 10.4227 16.031C10.5628 16.6382 10.9433 17.0035 11.4243 17.0035C11.9449 16.9919 12.2227 16.7127 12.3371 16.3963C12.4515 16.1054 12.4632 15.7774 12.4632 15.4866V9.13013H14.3519V15.0329Z" fill="#132766"/>
<path d="M22.7979 18.4809H21.1357V17.4828C20.6921 18.2924 19.7652 18.6949 18.7893 18.6949C16.5574 18.6949 15.25 16.9639 15.25 15.0049C15.25 12.8178 16.8352 11.3264 18.7893 11.3264C20.0571 11.3264 20.8322 11.9965 21.1357 12.5526V11.5405H22.7979V18.4786V18.4809ZM16.9146 15.0444C16.9146 15.903 17.5356 17.1547 19.0321 17.1547C19.9567 17.1547 20.566 16.6754 20.8835 16.0425C21.0493 15.7401 21.124 15.4097 21.1497 15.07C21.1613 14.7419 21.0983 14.3999 20.9582 14.0975C20.6664 13.4413 20.0197 12.8713 19.0181 12.8713C17.6734 12.8713 16.9123 13.9579 16.9123 15.0328V15.0444H16.9146Z" fill="#132766"/>
<path d="M30.0005 7.2804C30.0005 7.2804 27.8349 20.292 14.9824 26.292L17.3499 27.9775C17.3499 27.9775 29.3244 22.3155 30.0005 7.2804V7.2804Z" fill="#132766"/>
<path d="M5.03764 7.2804C5.03764 7.2804 5.17287 21.2353 15.2522 28.8545C15.2522 28.8545 3.88721 23.2588 2.60156 8.83117L5.03764 7.2804V7.2804Z" fill="#132766"/>
<path d="M3.48145 5.59486C3.48145 5.59486 14.7112 -1.28205 27.9028 5.59486V8.56164C27.9028 8.56164 18.1605 0.942534 3.48145 5.59486Z" fill="#08A5B5"/>
</svg>
