<svg width="80" height="80" viewBox="0 0 80 80" fill="none" xmlns="http://www.w3.org/2000/svg">
<path d="M70.5698 2.42426H64.9334H50.9092H45.2849C41.4668 2.42426 38.3516 5.52729 38.3516 9.35759V28.2303H13.8062C10.1456 28.2303 7.17586 31.2121 7.17586 34.8727V63.9515H5.52737C3.85465 63.9515 2.49707 65.3091 2.49707 66.9818V67.8303C2.49707 73.2 6.87283 77.5758 12.2425 77.5758H57.5152C62.8849 77.5758 67.2607 73.2 67.2607 67.8303V66.9818C67.2607 65.3091 65.9031 63.9515 64.2304 63.9515H62.594V52.7273H70.5577C74.3759 52.7273 77.491 49.6121 77.491 45.7818V41.9758V9.35759C77.5031 5.52729 74.388 2.42426 70.5698 2.42426ZM62.994 5.40607L62.4001 7.62425C62.3395 7.83032 62.1577 7.97577 61.9395 7.97577H53.9031C53.6849 7.97577 53.5031 7.83032 53.4425 7.62425L52.8486 5.40607H62.994ZM41.3456 9.35759C41.3456 7.18789 43.1152 5.41819 45.2849 5.41819H49.7698L50.5577 8.40001C50.9577 9.91516 52.3395 10.9697 53.9031 10.9697H61.9395C63.5031 10.9697 64.8849 9.91516 65.2849 8.40001L66.0849 5.41819H70.5698C72.7395 5.41819 74.5092 7.18789 74.5092 9.35759V40.4849H41.3456V29.7333V9.35759ZM64.2789 66.9818V67.8303C64.2789 71.5515 61.2486 74.5818 57.5274 74.5818H12.2425C8.52131 74.5818 5.49101 71.5515 5.49101 67.8303L5.52737 66.9455H23.9637V68.8606C23.9637 69.0909 23.988 69.3212 24.0365 69.5394C24.2668 70.6424 25.0304 71.5515 26.0486 71.9879C26.4607 72.1576 26.9092 72.2546 27.3698 72.2546H42.3759C42.8849 72.2546 43.3577 72.1333 43.7819 71.9394C44.9577 71.4061 45.794 70.2303 45.794 68.8606V66.9333H64.2425C64.2668 66.9455 64.2789 66.9697 64.2789 66.9818ZM59.6243 63.9515H44.3152C44.1092 63.9515 43.9152 64 43.7334 64.0727C43.2001 64.303 42.8122 64.8243 42.8122 65.4546V68.8606C42.8122 68.9939 42.7395 69.103 42.6304 69.1758C42.5577 69.2243 42.4728 69.2727 42.388 69.2727H27.3819C27.3213 69.2727 27.2849 69.2364 27.2243 69.2121C27.1637 69.1879 27.1031 69.1515 27.0546 69.103C27.0062 69.0303 26.9577 68.9576 26.9577 68.8606V65.4546C26.9577 64.6303 26.291 63.9636 25.4668 63.9636H10.1577V34.8727C10.1577 32.8606 11.794 31.2121 13.8062 31.2121H38.3637V41.9636V45.7697C38.3637 49.6 41.4668 52.7152 45.2971 52.7152H59.6365V63.9515H59.6243ZM74.5092 45.7818C74.5092 47.9636 72.7395 49.7333 70.5698 49.7333H61.1152H45.2849C43.1152 49.7333 41.3456 47.9636 41.3456 45.7818V43.4667H74.5213V45.7818H74.5092Z" fill="#132766"/>
<path d="M54.6061 48.097H61.2364C62.0607 48.097 62.7274 47.4303 62.7274 46.6061C62.7274 45.7818 62.0607 45.1152 61.2364 45.1152H54.6061C53.7819 45.1152 53.1152 45.7818 53.1152 46.6061C53.1152 47.4303 53.7819 48.097 54.6061 48.097Z" fill="#132766"/>
<path d="M46.3395 24.3515H53.1517C53.9759 24.3515 54.6426 23.6849 54.6426 22.8606V16.0485C54.6426 15.2243 53.9759 14.5576 53.1517 14.5576H46.3395C45.5153 14.5455 44.8486 15.2243 44.8486 16.0485V22.8606C44.8486 23.6849 45.5153 24.3515 46.3395 24.3515ZM47.8426 17.5394H51.6608V21.3576H47.8426V17.5394Z" fill="#132766"/>
<path d="M59.3212 24.3516H66.1334C66.9576 24.3516 67.6243 23.6849 67.6243 22.8606V16.0485C67.6243 15.2243 66.9576 14.5576 66.1334 14.5576H59.3212C58.497 14.5576 57.8303 15.2243 57.8303 16.0485V22.8606C57.8303 23.6849 58.497 24.3516 59.3212 24.3516ZM60.8243 17.5394H64.6424V21.3576H60.8243V17.5394Z" fill="#132766"/>
<path d="M46.3395 36.5333H53.1517C53.9759 36.5333 54.6426 35.8667 54.6426 35.0424V28.2303C54.6426 27.406 53.9759 26.7394 53.1517 26.7394H46.3395C45.5153 26.7394 44.8486 27.406 44.8486 28.2303V35.0424C44.8486 35.8667 45.5153 36.5333 46.3395 36.5333ZM47.8426 29.7212H51.6608V33.5394H47.8426V29.7212Z" fill="#132766"/>
<path d="M28.0971 37.0909L17.6607 47.5273C17.0789 48.1091 17.0789 49.0545 17.6607 49.6364C17.9516 49.9273 18.3395 50.0727 18.7153 50.0727C19.1032 50.0727 19.4789 49.9273 19.7698 49.6364L30.2062 39.2C30.788 38.6182 30.788 37.6727 30.2062 37.0909C29.6244 36.5091 28.6789 36.5091 28.0971 37.0909Z" fill="#132766"/>
<path d="M18.5699 42.8849L23.4547 38C24.0365 37.4182 24.0365 36.4728 23.4547 35.891C22.8729 35.3091 21.9274 35.3091 21.3456 35.891L16.4608 40.7758C15.879 41.3576 15.879 42.3031 16.4608 42.8849C16.7517 43.1758 17.1396 43.3213 17.5153 43.3213C17.9032 43.3213 18.279 43.1758 18.5699 42.8849Z" fill="#132766"/>
</svg>
