<svg width="80" height="68" viewBox="0 0 80 68" fill="none" xmlns="http://www.w3.org/2000/svg">
<path fill-rule="evenodd" clip-rule="evenodd" d="M60.8219 49.5911C65.9357 50.3788 72.3279 49.9471 76.1069 48.325C78.5909 47.2583 79.9999 45.6197 79.9999 43.7254C79.9999 40.763 78.9689 38.0246 77.2217 35.8183C76.7502 35.2244 75.8855 35.1227 75.2903 35.5942C74.6951 36.0657 74.5947 36.9304 75.0662 37.5256C76.4354 39.2563 77.2506 41.4022 77.2506 43.7254C77.2506 44.2601 76.8808 44.6739 76.3694 45.0533C75.579 45.6389 74.4531 46.0857 73.1431 46.4307C69.0026 47.5208 63.1011 47.5167 58.9881 46.4101C57.887 44.8347 56.5728 43.4065 55.0826 42.1596C55.8923 37.1256 60.5387 33.293 66.1047 33.293C68.4307 33.293 70.593 33.9611 72.3856 35.1089C73.0235 35.5172 73.8744 35.3316 74.284 34.6924C74.6937 34.0532 74.5067 33.2023 73.8675 32.794C73.0111 32.2441 72.0859 31.7836 71.1058 31.4248C72.7183 30.024 73.7397 27.9593 73.7397 25.6581C73.7397 21.4433 70.3181 18.0218 66.1047 18.0218C65.0408 18.0218 64.029 18.2403 63.1093 18.6335C61.5285 16.3584 59.2218 14.5686 56.4972 13.5706C58.111 12.1698 59.131 10.1051 59.131 7.80386C59.131 3.58913 55.7109 0.168945 51.4961 0.168945C47.2828 0.168945 43.8612 3.58913 43.8612 7.80386C43.8612 10.1051 44.8812 12.1698 46.4951 13.5706C45.0269 14.1081 43.6798 14.8752 42.503 15.8251C40.94 15.5116 39.3289 15.5116 37.7659 15.8251C36.5892 14.8752 35.242 14.1081 33.7739 13.5706C35.3877 12.1698 36.4077 10.1051 36.4077 7.80386C36.4077 3.58913 32.9862 0.168945 28.7728 0.168945C24.5581 0.168945 21.1379 3.58913 21.1379 7.80386C21.1379 10.1051 22.1579 12.1698 23.7718 13.5706C21.0472 14.57 18.7391 16.3584 17.1596 18.6335C16.24 18.2403 15.2282 18.0218 14.1642 18.0218C9.95085 18.0218 6.52929 21.4433 6.52929 25.6581C6.52929 27.9593 7.5493 30.024 9.16316 31.4248C3.95316 33.3342 0.269043 38.1373 0.269043 43.7254C0.269043 45.6197 1.67808 47.2583 4.16211 48.325C7.94108 49.9471 14.3333 50.3788 19.4471 49.5911C18.2222 52.2236 17.5431 55.131 17.5431 58.1855C17.5431 60.2929 18.6965 62.1281 20.7887 63.5921C21.4101 64.0279 22.2679 63.8753 22.7023 63.2539C23.1381 62.6326 22.9868 61.7748 22.3641 61.3404C21.1118 60.4634 20.2925 59.4461 20.2925 58.1855C20.2925 47.8796 29.2045 39.5532 40.1345 39.5532C51.0645 39.5532 59.9765 47.8796 59.9765 58.1855C59.9765 59.2963 59.3317 60.22 58.3241 61.0256C57.0677 62.0305 55.2737 62.8278 53.1595 63.4546C46.4236 65.4479 36.5397 65.6239 29.2237 63.9976C28.4828 63.8327 27.7473 64.3014 27.5824 65.041C27.4188 65.7819 27.8862 66.5174 28.6271 66.681C37.6876 68.6962 50.4555 68.0529 57.3027 64.8348C60.7298 63.2251 62.7258 60.9184 62.7258 58.1855C62.7258 55.131 62.0467 52.2236 60.8219 49.5911ZM25.1863 42.1596C24.3766 37.1256 19.7302 33.293 14.1642 33.293C8.03455 33.293 3.01838 37.9449 3.01838 43.7254C3.01838 44.2601 3.38817 44.6739 3.89955 45.0533C4.68998 45.6389 5.81584 46.0857 7.1259 46.4307C11.2664 47.5208 17.1679 47.5167 21.2809 46.4101C22.382 44.8361 23.6962 43.4065 25.1863 42.1596ZM29.0519 32.1314C25.6881 32.1561 22.3023 31.719 19.7605 30.8502C19.5722 31.0523 19.3742 31.2434 19.1666 31.4248C23.303 32.9425 26.4785 36.2829 27.6112 40.3918C29.4657 39.2192 31.5153 38.2982 33.7038 37.6837C32.9766 37.2218 32.2892 36.6733 31.6555 36.0382C30.5035 34.8849 29.6347 33.5528 29.0519 32.1314ZM61.1023 31.4248C60.8947 31.2434 60.6954 31.0523 60.5085 30.8502C57.9667 31.719 54.5795 32.1561 51.2171 32.1328C50.6315 33.5569 49.7599 34.8931 48.6024 36.0492C47.9715 36.6788 47.2883 37.2245 46.5652 37.6837C48.7537 38.2982 50.8019 39.2178 52.6577 40.3918C53.7905 36.2829 56.9659 32.9411 61.1023 31.4248ZM60.8164 20.1511C58.819 17.307 55.3851 15.4388 51.4961 15.4388C49.3778 15.4388 47.3941 15.9928 45.7046 16.9578C46.7508 17.5077 47.7337 18.2225 48.6134 19.1037C49.1496 19.6398 49.1482 20.5113 48.6121 21.0474C48.0746 21.5836 47.2044 21.5822 46.6683 21.0461C43.0667 17.4403 37.2161 17.4362 33.6103 21.0378C30.0032 24.6381 30.0004 30.49 33.6007 34.0958C37.2023 37.7016 43.0529 37.7057 46.6587 34.1041C49.4094 31.3575 50.0637 27.3022 48.6231 23.9315C48.3248 23.2345 48.6478 22.4248 49.3461 22.1265C50.0431 21.8282 50.8514 22.1527 51.1497 22.8496C52.035 24.9199 52.3113 27.1881 51.9786 29.382C54.5012 29.3491 56.9948 29.0439 58.9963 28.4514C58.6568 27.5854 58.4685 26.6437 58.4685 25.6581C58.4685 23.4957 59.3702 21.5409 60.8164 20.1511ZM66.1047 20.7711C68.8005 20.7711 70.9903 22.961 70.9903 25.6581C70.9903 28.3538 68.8005 30.5436 66.1047 30.5436C63.4076 30.5436 61.2178 28.3538 61.2178 25.6581C61.2178 22.961 63.4076 20.7711 66.1047 20.7711ZM14.1642 20.7711C16.8613 20.7711 19.0512 22.961 19.0512 25.6581C19.0512 28.3538 16.8613 30.5436 14.1642 30.5436C11.4685 30.5436 9.27863 28.3538 9.27863 25.6581C9.27863 22.961 11.4685 20.7711 14.1642 20.7711ZM34.5643 16.9578C32.8748 15.9928 30.8912 15.4388 28.7728 15.4388C24.8839 15.4388 21.45 17.307 19.4526 20.1511C20.8987 21.5409 21.8005 23.4957 21.8005 25.6581C21.8005 26.6437 21.6135 27.5854 21.2726 28.4514C23.2741 29.0439 25.7678 29.3491 28.2903 29.382C27.7377 25.7392 28.8636 21.8915 31.6665 19.0926C32.5436 18.217 33.5223 17.5049 34.5643 16.9578ZM51.4961 2.91829C54.1932 2.91829 56.3817 5.10676 56.3817 7.80386C56.3817 10.4996 54.1932 12.6894 51.4961 12.6894C48.799 12.6894 46.6106 10.4996 46.6106 7.80386C46.6106 5.10676 48.799 2.91829 51.4961 2.91829ZM28.7728 2.91829C31.4699 2.91829 33.6584 5.10676 33.6584 7.80386C33.6584 10.4996 31.4699 12.6894 28.7728 12.6894C26.0757 12.6894 23.8873 10.4996 23.8873 7.80386C23.8873 5.10676 26.0757 2.91829 28.7728 2.91829Z" fill="#132766"/>
<path d="M25.1354 65.6224C25.8946 65.6224 26.5101 65.0069 26.5101 64.2477C26.5101 63.4885 25.8946 62.873 25.1354 62.873C24.3762 62.873 23.7607 63.4885 23.7607 64.2477C23.7607 65.0069 24.3762 65.6224 25.1354 65.6224Z" fill="#132766"/>
</svg>
