<svg width="21" height="22" viewBox="0 0 21 22" fill="none" xmlns="http://www.w3.org/2000/svg">
<path d="M13.1365 21.5H7.73653C2.79653 21.5 0.696533 19.39 0.696533 14.46V9.97003C0.696533 9.77112 0.775551 9.58035 0.916203 9.4397C1.05686 9.29905 1.24762 9.22003 1.44653 9.22003C1.64545 9.22003 1.83621 9.29905 1.97686 9.4397C2.11752 9.58035 2.19653 9.77112 2.19653 9.97003V14.46C2.19653 18.55 3.64653 20 7.73653 20H13.1265C17.2165 20 18.6665 18.55 18.6665 14.46V9.97003C18.6665 9.77112 18.7456 9.58035 18.8862 9.4397C19.0269 9.29905 19.2176 9.22003 19.4165 9.22003C19.6154 9.22003 19.8062 9.29905 19.9469 9.4397C20.0875 9.58035 20.1665 9.77112 20.1665 9.97003V14.46C20.1765 19.39 18.0665 21.5 13.1365 21.5Z" fill="#6B6B6B"/>
<path d="M10.4365 11.5001C9.90791 11.5095 9.38343 11.4056 8.89839 11.1953C8.41334 10.985 7.97899 10.6733 7.6246 10.281C7.27021 9.88866 7.00399 9.42497 6.8439 8.92113C6.6838 8.41728 6.63354 7.88498 6.69649 7.36007L7.36649 0.680068C7.38572 0.494214 7.47291 0.322008 7.61133 0.196506C7.74975 0.0710039 7.92965 0.00104856 8.11649 6.81854e-05H12.7865C12.9739 -0.000749489 13.1547 0.0685885 13.2935 0.194436C13.4323 0.320284 13.519 0.493526 13.5365 0.680068L14.2065 7.36007C14.2665 7.88486 14.2146 8.4164 14.0543 8.91969C13.894 9.42299 13.6289 9.88662 13.2765 10.2801C12.9138 10.6695 12.4739 10.9791 11.985 11.1891C11.496 11.3992 10.9686 11.5051 10.4365 11.5001ZM8.78649 1.50007L8.18649 7.51007C8.14776 7.82567 8.17678 8.1459 8.27162 8.4494C8.36646 8.7529 8.52495 9.03268 8.73649 9.27007C8.95946 9.49381 9.2244 9.67134 9.51613 9.79247C9.80785 9.91361 10.1206 9.97596 10.4365 9.97596C10.7524 9.97596 11.0651 9.91361 11.3569 9.79247C11.6486 9.67134 11.9135 9.49381 12.1365 9.27007C12.3468 9.03188 12.5045 8.75201 12.5992 8.44874C12.694 8.14547 12.7237 7.82561 12.6865 7.51007L12.0865 1.50007H8.78649Z" fill="#6B6B6B"/>
<path d="M16.7465 11.5C15.7438 11.4801 14.782 11.0989 14.0379 10.4265C13.2938 9.75407 12.8175 8.83562 12.6965 7.84004L11.9965 0.83004C11.9871 0.725526 11.9991 0.62019 12.0318 0.520467C12.0644 0.420744 12.1171 0.328728 12.1865 0.25004C12.2564 0.170505 12.3425 0.106991 12.4392 0.0638436C12.5359 0.0206959 12.6407 -0.00106805 12.7465 4.03031e-05H15.7965C18.7365 4.03031e-05 20.1065 1.23004 20.5165 4.25004L20.7965 7.03004C20.8619 7.5973 20.8055 8.172 20.6309 8.71569C20.4564 9.25938 20.1677 9.75953 19.7843 10.1827C19.4009 10.6059 18.9316 10.9423 18.4077 11.1695C17.8838 11.3966 17.3175 11.5094 16.7465 11.5ZM13.5765 1.50004L14.1965 7.69004C14.2787 8.31488 14.5802 8.8902 15.0473 9.31331C15.5144 9.73643 16.1166 9.97981 16.7465 10C17.1086 10.0117 17.4688 9.94462 17.8024 9.80332C18.1359 9.66202 18.4348 9.44993 18.6783 9.18172C18.9218 8.91351 19.1041 8.59559 19.2125 8.24997C19.321 7.90435 19.3531 7.53928 19.3065 7.18004L19.0265 4.43004C18.7165 2.17004 17.9865 1.50004 15.7965 1.50004H13.5765Z" fill="#6B6B6B"/>
<path d="M4.07641 11.5001C3.50546 11.5094 2.93911 11.3967 2.41522 11.1695C1.89134 10.9423 1.422 10.6059 1.03859 10.1827C0.655187 9.75955 0.366555 9.2594 0.192 8.71571C0.0174448 8.17202 -0.0390099 7.59732 0.0264113 7.03006L0.296411 4.28006C0.716411 1.23006 2.08641 6.10352e-05 5.02641 6.10352e-05H8.07641C8.18193 0.000968299 8.28613 0.0236392 8.38248 0.0666559C8.47884 0.109673 8.56529 0.172109 8.63641 0.250061C8.70783 0.327449 8.76177 0.4193 8.79455 0.519377C8.82734 0.619454 8.8382 0.725413 8.82641 0.830061L8.12641 7.84006C8.00543 8.83564 7.52911 9.75409 6.78503 10.4265C6.04094 11.0989 5.07912 11.4802 4.07641 11.5001ZM5.02641 1.50006C2.83641 1.50006 2.10641 2.16006 1.78641 4.45006L1.51641 7.18006C1.46986 7.5393 1.50192 7.90437 1.6104 8.24999C1.71887 8.59561 1.90116 8.91353 2.14464 9.18174C2.38812 9.44995 2.68698 9.66204 3.02053 9.80334C3.35408 9.94464 3.71436 10.0118 4.07641 10.0001C4.7068 9.98144 5.30989 9.7386 5.77729 9.31519C6.2447 8.89178 6.54577 8.31555 6.62641 7.69006L7.24641 1.50006H5.02641Z" fill="#6B6B6B"/>
<path d="M12.9363 21.5H7.93631C7.7378 21.4987 7.54779 21.4193 7.40743 21.2789C7.26706 21.1385 7.18762 20.9485 7.18631 20.75V18.25C7.13464 17.8108 7.18316 17.3655 7.32822 16.9477C7.47327 16.5299 7.7111 16.1503 8.02385 15.8376C8.3366 15.5248 8.71613 15.287 9.13396 15.1419C9.55179 14.9969 9.99705 14.9484 10.4363 15C10.8756 14.9484 11.3208 14.9969 11.7387 15.1419C12.1565 15.287 12.536 15.5248 12.8488 15.8376C13.1615 16.1503 13.3993 16.5299 13.5444 16.9477C13.6895 17.3655 13.738 17.8108 13.6863 18.25V20.75C13.685 20.9485 13.6056 21.1385 13.4652 21.2789C13.3248 21.4193 13.1348 21.4987 12.9363 21.5ZM8.68631 20H12.1863V18.25C12.1863 16.99 11.6963 16.5 10.4363 16.5C9.17631 16.5 8.68631 16.99 8.68631 18.25V20Z" fill="#6B6B6B"/>
</svg>
