<svg width="66" height="66" viewBox="0 0 66 66" fill="none" xmlns="http://www.w3.org/2000/svg">
<path d="M64.5652 63.1304C60.6095 63.1304 57.3913 59.9122 57.3913 55.9565V10.0435C57.3913 4.50522 52.8847 0 47.3478 0H10.0435C4.50665 0 0 4.50522 0 10.0435C0 10.8355 0.641348 11.4783 1.43478 11.4783H11.4783V55.9565C11.4783 61.4933 15.9849 66 21.5217 66H64.5652C65.3587 66 66 65.3587 66 64.5652C66 63.7718 65.3587 63.1304 64.5652 63.1304ZM3.01448 8.6087C3.68022 5.33883 6.57848 2.86957 10.0435 2.86957H40.3246C38.785 4.37752 37.7262 6.37474 37.4062 8.6087H3.01448ZM21.5217 63.1304C17.566 63.1304 14.3478 59.9122 14.3478 55.9565V11.4783H38.7391C39.5326 11.4783 40.1739 10.8355 40.1739 10.0435C40.1739 6.08778 43.3921 2.86957 47.3478 2.86957C51.3035 2.86957 54.5217 6.08778 54.5217 10.0435V55.9565C54.5217 58.7658 55.6839 61.3054 57.5506 63.1304H21.5217Z" fill="#040431"/>
<path d="M47.3488 20.087H21.5227C20.7292 20.087 20.0879 20.7298 20.0879 21.5218C20.0879 22.3138 20.7292 22.9565 21.5227 22.9565H47.3488C48.1422 22.9565 48.7835 22.3138 48.7835 21.5218C48.7835 20.7298 48.1422 20.087 47.3488 20.087Z" fill="#040431"/>
<path d="M47.3488 28.6957H21.5227C20.7292 28.6957 20.0879 29.3385 20.0879 30.1305C20.0879 30.9225 20.7292 31.5652 21.5227 31.5652H47.3488C48.1422 31.5652 48.7835 30.9225 48.7835 30.1305C48.7835 29.3385 48.1422 28.6957 47.3488 28.6957Z" fill="#040431"/>
<path d="M47.3488 37.3044H21.5227C20.7292 37.3044 20.0879 37.9457 20.0879 38.7392C20.0879 39.5326 20.7292 40.1739 21.5227 40.1739H47.3488C48.1422 40.1739 48.7835 39.5326 48.7835 38.7392C48.7835 37.9457 48.1422 37.3044 47.3488 37.3044Z" fill="#040431"/>
<path d="M44.4778 45.9131H24.3908C23.5974 45.9131 22.9561 46.5544 22.9561 47.3479C22.9561 48.1413 23.5974 48.7827 24.3908 48.7827H44.4778C45.2712 48.7827 45.9126 48.1413 45.9126 47.3479C45.9126 46.5544 45.2712 45.9131 44.4778 45.9131Z" fill="#040431"/>
</svg>
