<svg width="80" height="80" viewBox="0 0 80 80" fill="none" xmlns="http://www.w3.org/2000/svg">
<path d="M16.9902 50.5182C16.3696 50.5183 15.7739 50.1702 15.4869 49.5735L11.1754 40.6077C7.63257 41.4602 3.84457 39.7597 2.20307 36.3462C0.561572 32.9327 1.5989 28.9118 4.4764 26.6767L0.165072 17.711C-0.233928 16.8813 0.115238 15.8855 0.944738 15.4867L9.9104 11.1752C9.05824 7.63285 10.7586 3.84435 14.1721 2.20285C16.0752 1.28752 18.2209 1.16852 20.2137 1.86702C21.6716 2.37802 22.9197 3.28185 23.8432 4.47535L32.8074 0.164686C33.2057 -0.0268139 33.6639 -0.0524806 34.0811 0.0938528C34.4982 0.240019 34.8402 0.546019 35.0317 0.944519L39.3431 9.91018C42.8859 9.05835 46.6741 10.7584 48.3154 14.1719C49.2306 16.0748 49.3499 18.2205 48.6512 20.2133C48.1402 21.6712 47.2364 22.9194 46.0431 23.8429L50.3536 32.807C50.7526 33.6365 50.4034 34.6323 49.5737 35.0313L39.2652 39.9883C38.4354 40.3875 37.4399 40.038 37.0409 39.2087C36.5116 38.108 35.5854 37.2792 34.4327 36.8753C33.2802 36.4712 32.0392 36.5402 30.9386 37.0697C29.8379 37.599 29.0091 38.5252 28.6051 39.6777C28.2011 40.8302 28.2701 42.0712 28.7994 43.1718C29.1984 44.0015 28.8492 44.9973 28.0196 45.3962L17.7111 50.3532C17.4786 50.465 17.2326 50.5182 16.9902 50.5182ZM12.0319 36.876C12.2179 36.876 12.4044 36.9072 12.5832 36.9698C13.0004 37.116 13.3424 37.422 13.5339 37.8203L17.7687 46.6268L25.2307 43.0385C24.8751 41.572 24.9486 40.0327 25.4596 38.5748C26.1582 36.582 27.5911 34.9805 29.4942 34.0653C31.3972 33.1502 33.5429 33.0308 35.5357 33.7295C36.9936 34.2405 38.2417 35.1443 39.1652 36.3377L46.6272 32.7493L42.3924 23.9428C42.2009 23.5445 42.1754 23.0864 42.3216 22.6692C42.4677 22.252 42.7737 21.91 43.1722 21.7185C44.2729 21.1892 45.1016 20.263 45.5056 19.1105C45.9096 17.9579 45.8406 16.717 45.3112 15.6163C44.2187 13.344 41.4812 12.3847 39.2089 13.4772C38.3794 13.8764 37.3836 13.527 36.9846 12.6974L32.7497 3.89102L23.9434 8.12585C23.5451 8.31735 23.0867 8.34302 22.6697 8.19669C22.2526 8.05052 21.9106 7.74452 21.7191 7.34602C21.1897 6.24535 20.2636 5.41669 19.1111 5.01269C17.9586 4.60869 16.7176 4.67752 15.6169 5.20702C13.3446 6.29952 12.3851 9.03702 13.4776 11.3094C13.8766 12.1389 13.5274 13.1347 12.6979 13.5337L3.8914 17.7683L8.12624 26.5747C8.52524 27.4043 8.17607 28.4002 7.34657 28.799C5.0744 29.8917 4.11457 32.6292 5.2074 34.9013C6.30007 37.1735 9.0374 38.1335 11.3097 37.0405C11.5372 36.9313 11.7842 36.876 12.0319 36.876Z" fill="#040431"/>
<path d="M72.5946 80H62.0728C61.1523 80 60.4062 79.2537 60.4062 78.3333C60.4062 76.0877 58.5793 74.2608 56.3337 74.2608C54.088 74.2608 52.2613 76.0878 52.2613 78.3333C52.2613 79.2537 51.5152 80 50.5947 80H40.0728C39.1523 80 38.4062 79.2537 38.4062 78.3333V69.289C35.1227 68.5308 32.667 65.583 32.667 62.0723C32.667 58.5617 35.1225 55.6138 38.4062 54.8557V45.8114C38.4062 44.891 39.1523 44.1447 40.0728 44.1447H49.1172C49.8753 40.8612 52.8232 38.4055 56.3338 38.4055C59.8445 38.4055 62.7923 40.861 63.5505 44.1447H72.5948C73.5153 44.1447 74.2615 44.891 74.2615 45.8114V54.8557C77.545 55.6138 80.0006 58.5617 80.0006 62.0723C80.0006 65.583 77.5451 68.5308 74.2615 69.289V78.3333C74.2613 79.2538 73.5151 80 72.5946 80ZM63.5503 76.6667H70.928V67.8115C70.928 66.8912 71.6741 66.1448 72.5946 66.1448C74.8401 66.1448 76.6671 64.318 76.6671 62.0723C76.6671 59.8267 74.8401 58 72.5946 58C71.6741 58 70.928 57.2537 70.928 56.3333V47.4782H62.0728C61.1523 47.4782 60.4062 46.7318 60.4062 45.8115C60.4062 43.5658 58.5793 41.739 56.3337 41.739C54.088 41.739 52.2612 43.5658 52.2612 45.8115C52.2612 46.7318 51.515 47.4782 50.5945 47.4782H41.7393V56.3333C41.7393 57.2537 40.9932 58 40.0727 58C37.8272 58 36.0002 59.8268 36.0002 62.0725C36.0002 64.3182 37.827 66.145 40.0727 66.145C40.9932 66.145 41.7393 66.8913 41.7393 67.8117V76.6667H49.117C49.8752 73.3832 52.823 70.9275 56.3337 70.9275C59.8443 70.9275 62.7922 73.3832 63.5503 76.6667Z" fill="#040431"/>
</svg>
