<svg width="20" height="18" viewBox="0 0 20 18" fill="none" xmlns="http://www.w3.org/2000/svg">
<path d="M6.08536 16.125H6.17376L6.20322 16.0417C6.39202 15.5074 6.90151 15.125 7.5 15.125C8.0985 15.125 8.60796 15.5074 8.79676 16.0417L8.82622 16.125H8.91462H18H18.125V16V13.0322V12.9547L18.0556 12.9203C16.6148 12.2043 15.625 10.7176 15.625 9C15.625 7.28236 16.6148 5.79575 18.0556 5.0797L18.125 5.04522V4.96776V2V1.875H18H8.91462H8.82622L8.79676 1.95835C8.60796 2.49256 8.0985 2.875 7.5 2.875C6.90151 2.875 6.39202 2.49256 6.20322 1.95835L6.17376 1.875H6.08536H2H1.875V2V16V16.125H2H6.08536ZM0.125 1C0.125 0.516756 0.516756 0.125 1 0.125H19C19.4833 0.125 19.875 0.516754 19.875 1V6.37792C18.4833 6.44317 17.375 7.59217 17.375 9C17.375 10.4078 18.4833 11.5568 19.875 11.6221V17C19.875 17.4833 19.4833 17.875 19 17.875H1C0.516754 17.875 0.125 17.4833 0.125 17V1ZM7.5 7.875C6.74062 7.875 6.125 7.25937 6.125 6.5C6.125 5.74061 6.74061 5.125 7.5 5.125C8.25939 5.125 8.87502 5.74061 8.87502 6.5C8.87502 7.25936 8.25939 7.875 7.5 7.875ZM7.5 12.875C6.74062 12.875 6.125 12.2594 6.125 11.5C6.125 10.7406 6.74062 10.125 7.5 10.125C8.25939 10.125 8.87502 10.7406 8.87502 11.5C8.87502 12.2594 8.25939 12.875 7.5 12.875Z" fill="#6B6B6B" stroke="white" stroke-width="0.25"/>
</svg>
