<svg width="77" height="80" viewBox="0 0 77 80" fill="none" xmlns="http://www.w3.org/2000/svg">
<path d="M11.7904 80H1.31004C0.962597 80 0.629382 79.8965 0.383701 79.7124C0.138021 79.5282 0 79.2785 0 79.0181V26.9765C0 26.4556 0.276042 25.9561 0.767403 25.5878C1.25876 25.2195 1.92519 25.0126 2.62008 25.0126H10.4803C11.1752 25.0126 11.8417 25.2195 12.333 25.5878C12.8244 25.9561 13.1004 26.4556 13.1004 26.9765V30.9041H10.4803V26.9765H2.62008V78.0362H10.4803V36.7956H13.1004V79.0181C13.1004 79.2785 12.9624 79.5282 12.7167 79.7124C12.471 79.8965 12.1378 80 11.7904 80Z" fill="#040431"/>
<path d="M10.4805 32.868H13.1006V34.8328H10.4805V32.868Z" fill="#040431"/>
<path d="M9.30603 14.1169L7.99727 15.9491L22.2509 26.1304C22.4939 26.304 22.7959 26.374 23.0904 26.325L29.2636 25.2962L55.1559 45.7213C55.2794 45.8186 55.4219 45.889 55.5743 45.9279C55.7266 45.9668 55.8855 45.9734 56.0405 45.9471L58.8617 45.477L74.3846 58.4729L75.83 56.748L59.9103 43.4198C59.7859 43.3152 59.6404 43.2387 59.4836 43.1957C59.3269 43.1526 59.1627 43.144 59.0023 43.1704L56.1612 43.644L30.2667 23.2192C30.1435 23.1221 30.0014 23.0518 29.8494 23.0129C29.6975 22.9739 29.539 22.9671 29.3843 22.993L23.18 24.027L9.30603 14.1169Z" fill="#040431"/>
<path d="M2.80908 12.2539L5.40027 14.1048L6.70923 12.2722L4.11804 10.4214L2.80908 12.2539Z" fill="#040431"/>
<path d="M75.2927 51.8709L73.0713 52.2411L73.8118 56.6838L69.369 57.4243L69.7393 59.6456L75.2927 58.7201C75.5872 58.671 75.8502 58.5069 76.0238 58.2639C76.1974 58.0209 76.2673 57.7189 76.2182 57.4243L75.2927 51.8709Z" fill="#040431"/>
<path d="M68.5159 80H58.0421C57.6949 80 57.3619 79.8978 57.1164 79.7159C56.8708 79.5341 56.7329 79.2874 56.7329 79.0302V64.4833C56.7329 63.9688 57.0088 63.4755 57.4998 63.1118C57.9909 62.748 58.6569 62.5437 59.3514 62.5437H67.2067C67.9011 62.5437 68.5672 62.748 69.0582 63.1118C69.5493 63.4755 69.8251 63.9688 69.8251 64.4833V79.0302C69.8251 79.2874 69.6872 79.5341 69.4417 79.7159C69.1962 79.8978 68.8631 80 68.5159 80ZM59.3514 78.0604H67.2067V64.4833H59.3514V78.0604Z" fill="#040431"/>
<path d="M48.4412 80H37.9674C37.6202 80 37.2872 79.8958 37.0417 79.7103C36.7961 79.5248 36.6582 79.2732 36.6582 79.0108V52.3027C36.6582 51.778 36.9341 51.2748 37.4251 50.9037C37.9162 50.5327 38.5822 50.3243 39.2766 50.3243H47.132C47.8264 50.3243 48.4925 50.5327 48.9835 50.9037C49.4746 51.2748 49.7504 51.778 49.7504 52.3027V79.0108C49.7504 79.2732 49.6125 79.5248 49.367 79.7103C49.1214 79.8958 48.7884 80 48.4412 80ZM39.2766 78.0216H47.132V52.3027H39.2766V78.0216Z" fill="#040431"/>
<path d="M29.2395 80H18.7658C18.4185 80 18.0855 79.8976 17.84 79.7153C17.5945 79.533 17.4565 79.2858 17.4565 79.028V39.1761C17.4565 38.6605 17.7324 38.166 18.2235 37.8014C18.7145 37.4369 19.3805 37.2321 20.075 37.2321H27.9303C28.6248 37.2321 29.2908 37.4369 29.7818 37.8014C30.2729 38.166 30.5488 38.6605 30.5488 39.1761V79.028C30.5488 79.2858 30.4108 79.533 30.1653 79.7153C29.9198 79.8976 29.5868 80 29.2395 80ZM20.075 78.056H27.9303V39.1761H20.075V78.056Z" fill="#040431"/>
</svg>
