<svg width="83" height="81" viewBox="0 0 83 81" fill="none" xmlns="http://www.w3.org/2000/svg">
<path d="M81.5508 38.5662C80.8811 38.5662 80.3384 39.1089 80.3384 39.7786V70.2694C80.3384 72.5581 78.4763 74.4203 76.1874 74.4203H67.1708C66.5011 74.4203 65.9585 74.963 65.9585 75.6327C65.9585 76.3024 66.5011 76.845 67.1708 76.845H76.1874C79.8133 76.845 82.7631 73.8953 82.7631 70.2694V39.7786C82.7631 39.1089 82.2205 38.5662 81.5508 38.5662Z" fill="#040431"/>
<path d="M79.7001 24.4265C76.9706 22.6597 75.7409 20.1341 75.2017 17.9689H77.2609C77.9306 17.9689 78.4732 17.4262 78.4732 16.7565V1.71235C78.4732 1.04265 77.9306 0.5 77.2609 0.5H41.31C40.6403 0.5 40.0976 1.04265 40.0976 1.71235V16.7562C40.0976 17.4259 40.6403 17.9685 41.31 17.9685H43.3673C43.1418 18.8768 42.8257 19.7274 42.4205 20.5119H26.9808C25.998 20.5119 25.0667 20.8656 24.3385 21.4748C23.6109 20.8654 22.6797 20.5119 21.6964 20.5119H16.5206C15.8509 20.5119 15.3083 21.0545 15.3083 21.7242C15.3083 22.3939 15.8509 22.9366 16.5206 22.9366H21.6966C22.3572 22.9366 22.9606 23.3255 23.234 23.9276C23.4306 24.3604 23.8618 24.6384 24.3371 24.6387C24.3374 24.6387 24.3376 24.6387 24.3379 24.6387C24.8128 24.6387 25.2441 24.3613 25.441 23.9291C25.7158 23.3262 26.3202 22.9364 26.9808 22.9364H44.3903C45.3227 22.9364 46.0812 23.6949 46.0812 24.6272V58.1965C44.058 58.2498 42.1261 58.8358 40.4316 59.9094C38.6522 58.765 36.5818 58.1489 34.4157 58.1489C31.4361 58.1489 28.6351 59.3092 26.5284 61.416C25.2696 62.6747 24.3518 64.1824 23.8143 65.8267H7.76584C7.09614 65.8267 6.55349 66.3693 6.55349 67.039C6.55349 67.7087 7.09614 68.2514 7.76584 68.2514H23.3108C23.2784 68.5991 23.261 68.9498 23.261 69.3034C23.261 69.5664 23.2733 69.8274 23.2912 70.0872C23.2712 70.1216 23.2505 70.1557 23.2338 70.1926C22.9606 70.7947 22.3571 71.1836 21.6964 71.1836H4.11553C3.18315 71.1836 2.4247 70.4252 2.4247 69.4928V24.6277C2.4247 23.6954 3.18315 22.9369 4.11553 22.9369H11.3896C12.0593 22.9369 12.602 22.3943 12.602 21.7246C12.602 21.0549 12.0593 20.5122 11.3896 20.5122H4.11553C1.84617 20.5122 0 22.3584 0 24.6277V69.4935C0 71.7628 1.84617 73.609 4.11553 73.609H21.6964C22.4835 73.609 23.2367 73.3814 23.8794 72.9784C24.4247 74.5461 25.3199 75.9833 26.528 77.1914C28.6349 79.2982 31.436 80.4585 34.4156 80.4585C36.5556 80.4585 38.6021 79.857 40.3669 78.7389C42.1617 79.8933 44.224 80.5 46.3833 80.5C49.6492 80.5 52.5916 79.0891 54.6337 76.8452H62.0404C62.7101 76.8452 63.2527 76.3025 63.2527 75.6328C63.2527 74.9631 62.7099 74.4203 62.0404 74.4203H56.3119C57.0942 72.8965 57.5387 71.172 57.5387 69.3447C57.5387 67.635 57.1509 66.0145 56.4602 64.5649H74.8333C75.503 64.5649 76.0456 64.0222 76.0456 63.3525V56.0622C76.0456 56.058 76.0463 56.054 76.0463 56.0498C76.0463 56.0456 76.0456 56.0415 76.0456 56.0373V36.9616C76.0456 36.2918 75.503 35.7492 74.8333 35.7492H48.5059V24.6276C48.5059 24.0919 48.4019 23.5803 48.2149 23.1104C48.3782 23.1921 48.5618 23.2393 48.7567 23.2393H60.8775C61.5472 23.2393 62.0899 22.6967 62.0899 22.027C62.0899 21.3573 61.5472 20.8146 60.8775 20.8146H48.7567C48.0998 20.8146 47.5662 21.3374 47.5463 21.9897C46.9275 21.2506 46.0546 20.7317 45.0633 20.568C45.4009 19.7473 45.6633 18.8786 45.8521 17.9687H72.7149C73.2844 20.7172 74.7526 24.1122 78.3827 26.4621C79.6069 27.2542 80.3378 28.5718 80.3378 29.9865V34.6484C80.3378 35.3181 80.8805 35.8607 81.5502 35.8607C82.2199 35.8607 82.7625 35.3181 82.7625 34.6484V29.9865C82.7625 27.7459 81.6176 25.6673 79.7001 24.4265ZM28.2426 75.4768C27.0149 74.2493 26.1988 72.7199 25.8616 71.0564C25.8582 71.0341 25.8528 71.0121 25.8483 70.99C25.7413 70.4404 25.6858 69.8766 25.6858 69.304C25.6858 66.9723 26.5938 64.78 28.2428 63.1312C29.9446 61.4294 32.18 60.5783 34.4156 60.5783C36.6512 60.5783 38.8866 61.4294 40.5886 63.1312C42.2374 64.7798 43.1453 66.9721 43.1453 69.304C43.1453 71.6359 42.2374 73.828 40.5886 75.4768C37.1844 78.8806 31.6464 78.8803 28.2426 75.4768ZM73.6213 62.1401H54.8895C53.278 60.2411 51.0447 58.8872 48.506 58.3961V57.262H73.6213V62.1401ZM48.5059 38.1739H73.6213V54.8369H48.5059V38.1739ZM55.1141 69.3446C55.114 74.1586 51.1976 78.0751 46.3833 78.0751C44.9708 78.0751 43.612 77.7426 42.3838 77.1064C43.4407 76.0272 44.235 74.7861 44.7649 73.4621H49.6548C50.3245 73.4621 50.8672 72.9194 50.8672 72.2497C50.8672 71.58 50.3245 71.0374 49.6548 71.0374H45.4279C45.9496 67.6947 44.9522 64.1607 42.4365 61.5568C43.6505 60.9386 44.9912 60.6155 46.3834 60.6155C51.1976 60.6157 55.1141 64.5316 55.1141 69.3446ZM45.6051 15.5438H42.5223V2.9247H45.6051V15.5438ZM53.9168 15.544H48.0298V2.9247H53.9168V15.544ZM62.2289 15.544H56.3417V2.9247H62.2289V15.544ZM70.5407 15.5438H64.6536V2.9247H70.5407V15.5438ZM72.9655 2.9247H76.0482V15.544H72.9655V2.9247Z" fill="#040431"/>
<path d="M67.0698 20.8146H64.6132C63.9435 20.8146 63.4009 21.3573 63.4009 22.027C63.4009 22.6967 63.9435 23.2393 64.6132 23.2393H67.0698C67.7395 23.2393 68.2821 22.6967 68.2821 22.027C68.2821 21.3573 67.7395 20.8146 67.0698 20.8146Z" fill="#040431"/>
<path d="M64.1833 58.4882H54.3872C53.7175 58.4882 53.1748 59.0309 53.1748 59.7006C53.1748 60.3703 53.7175 60.9129 54.3872 60.9129H64.1833C64.853 60.9129 65.3956 60.3703 65.3956 59.7006C65.3956 59.0309 64.8528 58.4882 64.1833 58.4882Z" fill="#040431"/>
<path d="M62.6335 43.7675H62.4069V43.5411C62.4069 41.82 61.0067 40.4195 59.2855 40.4195C57.5643 40.4195 56.1639 41.8198 56.1639 43.5411V43.7675H55.9375C54.2164 43.7675 52.8159 45.1679 52.8159 46.8891C52.8159 48.6103 54.2163 50.0107 55.9375 50.0107H56.1639V50.2371C56.1639 51.9582 57.5643 53.3587 59.2855 53.3587C61.0067 53.3587 62.4069 51.9583 62.4069 50.2371V50.0107H62.6335C64.3546 50.0107 65.7549 48.6103 65.7549 46.8891C65.7549 45.1679 64.3548 43.7675 62.6335 43.7675ZM62.6335 47.5859H61.1946C60.5249 47.5859 59.9822 48.1286 59.9822 48.7983V50.2371C59.9822 50.6214 59.6696 50.934 59.2855 50.934C58.9013 50.934 58.5887 50.6214 58.5887 50.2371V48.7983C58.5887 48.1286 58.046 47.5859 57.3763 47.5859H55.9375C55.5532 47.5859 55.2406 47.2733 55.2406 46.8891C55.2406 46.5049 55.5532 46.1922 55.9375 46.1922H57.3763C58.046 46.1922 58.5887 45.6496 58.5887 44.9799V43.5411C58.5887 43.1568 58.9013 42.8442 59.2855 42.8442C59.6696 42.8442 59.9822 43.1568 59.9822 43.5411V44.9799C59.9822 45.6496 60.5249 46.1922 61.1946 46.1922H62.6335C63.0176 46.1922 63.3302 46.5049 63.3302 46.8891C63.3302 47.2733 63.0176 47.5859 62.6335 47.5859Z" fill="#040431"/>
<path d="M24.3383 25.488C23.6686 25.488 23.126 26.0307 23.126 26.7004V57.756C23.126 58.4257 23.6686 58.9683 24.3383 58.9683C25.008 58.9683 25.5507 58.4257 25.5507 57.7561V26.7004C25.5508 26.0307 25.008 25.488 24.3383 25.488Z" fill="#040431"/>
<path d="M11.1792 61.972H7.76582C7.09612 61.972 6.55347 62.5147 6.55347 63.1844C6.55347 63.8541 7.09612 64.3967 7.76582 64.3967H11.179C11.8487 64.3967 12.3913 63.8541 12.3913 63.1844C12.3913 62.5147 11.8489 61.972 11.1792 61.972Z" fill="#040431"/>
<path d="M12.7553 28.329C9.31061 28.329 6.5083 31.1313 6.5083 34.576C6.5083 38.0207 9.31061 40.823 12.7553 40.823C16.1998 40.823 19.0021 38.0207 19.0021 34.576C19.0021 31.1313 16.1998 28.329 12.7553 28.329ZM12.7553 38.3981C10.6478 38.3981 8.933 36.6835 8.933 34.5758C8.933 32.4681 10.6476 30.7535 12.7553 30.7535C14.863 30.7535 16.5774 32.4681 16.5774 34.5758C16.5774 36.6835 14.8629 38.3981 12.7553 38.3981Z" fill="#040431"/>
<path d="M11.1687 32.8652C10.4989 32.8652 9.9563 33.4079 9.9563 34.0776V35.074C9.9563 35.7437 10.4989 36.2863 11.1687 36.2863C11.8384 36.2863 12.381 35.7437 12.381 35.074V34.0776C12.381 33.408 11.8382 32.8652 11.1687 32.8652Z" fill="#040431"/>
<path d="M12.7553 43.9297C9.31061 43.9297 6.5083 46.732 6.5083 50.1767C6.5083 53.6214 9.31061 56.4237 12.7553 56.4237C16.1998 56.4235 19.0021 53.6212 19.0021 50.1767C19.0021 46.732 16.1998 43.9297 12.7553 43.9297ZM12.7555 53.999C10.6478 53.999 8.93317 52.2842 8.93317 50.1767C8.93317 48.0691 10.6478 46.3544 12.7555 46.3544C14.8632 46.3544 16.5776 48.069 16.5776 50.1767C16.5776 52.2844 14.8632 53.999 12.7555 53.999Z" fill="#040431"/>
<path d="M11.1687 48.4661C10.4989 48.4661 9.9563 49.0088 9.9563 49.6785V50.6749C9.9563 51.3446 10.4989 51.8872 11.1687 51.8872C11.8384 51.8872 12.381 51.3446 12.381 50.6749V49.6785C12.381 49.0088 11.8382 48.4661 11.1687 48.4661Z" fill="#040431"/>
<path d="M35.7517 28.3288C32.3072 28.3288 29.5049 31.1311 29.5049 34.5758C29.5049 38.0205 32.3072 40.8228 35.7517 40.8228C39.1964 40.8228 41.9987 38.0205 41.9987 34.5758C41.9989 31.1311 39.1964 28.3288 35.7517 28.3288ZM35.7517 38.3983C33.644 38.3983 31.9296 36.6837 31.9296 34.576C31.9296 32.4682 33.6442 30.7537 35.7517 30.7537C37.8593 30.7537 39.574 32.4682 39.574 34.576C39.574 36.6837 37.8594 38.3983 35.7517 38.3983Z" fill="#040431"/>
<path d="M34.1647 32.8652C33.495 32.8652 32.9524 33.4079 32.9524 34.0776V35.074C32.9524 35.7437 33.495 36.2863 34.1647 36.2863C34.8344 36.2863 35.3771 35.7437 35.3771 35.074V34.0776C35.3771 33.4079 34.8344 32.8652 34.1647 32.8652Z" fill="#040431"/>
<path d="M35.7517 43.9295C32.3072 43.9295 29.5049 46.7318 29.5049 50.1765C29.5049 53.6212 32.3072 56.4235 35.7517 56.4235C39.1964 56.4235 41.9987 53.6212 41.9987 50.1765C41.9989 46.7318 39.1964 43.9295 35.7517 43.9295ZM35.7517 53.999C33.644 53.999 31.9296 52.2844 31.9296 50.1767C31.9296 48.069 33.6442 46.3544 35.7517 46.3544C37.8593 46.3544 39.574 48.069 39.574 50.1767C39.574 52.2844 37.8594 53.999 35.7517 53.999Z" fill="#040431"/>
<path d="M34.1647 48.4661C33.495 48.4661 32.9524 49.0088 32.9524 49.6785V50.6749C32.9524 51.3444 33.495 51.8872 34.1647 51.8872C34.8344 51.8872 35.3771 51.3446 35.3771 50.6749V49.6785C35.3771 49.0088 34.8344 48.4661 34.1647 48.4661Z" fill="#040431"/>
<path d="M35.5323 72.8135L30.9061 68.1873C30.4325 67.7139 29.6648 67.7137 29.1917 68.1872C28.718 68.6606 28.718 69.4283 29.1915 69.9016L33.8175 74.5278C34.0543 74.7646 34.3645 74.8829 34.6749 74.8829C34.9851 74.8829 35.2955 74.7646 35.5321 74.5279C36.0057 74.0545 36.0057 73.2868 35.5323 72.8135Z" fill="#040431"/>
</svg>
