<svg width="20" height="22" viewBox="0 0 20 22" fill="none" xmlns="http://www.w3.org/2000/svg">
<path d="M19.0466 9H1.04658M14.0466 1V5M6.04658 1V5M5.84658 21H14.2466C15.3118 21.1197 16.3904 21.0081 17.4086 20.673C17.973 20.3854 18.432 19.9265 18.7196 19.362C19.0547 18.3438 19.1662 17.2653 19.0466 16.2V7.8C19.1662 6.73475 19.0547 5.65622 18.7196 4.638C18.432 4.07354 17.973 3.61462 17.4086 3.327C16.3904 2.99188 15.3118 2.88034 14.2466 3H5.84658C4.78133 2.88034 3.7028 2.99188 2.68458 3.327C2.12012 3.61462 1.6612 4.07354 1.37358 4.638C1.03846 5.65622 0.926922 6.73475 1.04658 7.8V16.2C0.926922 17.2653 1.03846 18.3438 1.37358 19.362C1.6612 19.9265 2.12012 20.3854 2.68458 20.673C3.7028 21.0081 4.78133 21.1197 5.84658 21Z" stroke="#6B6B6B" stroke-width="1.5" stroke-linecap="round" stroke-linejoin="round"/>
</svg>
