<svg width="21" height="21" viewBox="0 0 21 21" fill="none" xmlns="http://www.w3.org/2000/svg">
<path d="M13.125 3.5H4.375V17.5H16.625V7H13.125V3.5ZM2.625 2.61783C2.625 2.13854 3.01655 1.75 3.49869 1.75H14L18.3747 6.125L18.375 18.3684C18.375 18.8553 17.9857 19.25 17.5058 19.25H3.49423C3.01417 19.25 2.625 18.8516 2.625 18.3822V2.61783ZM10.5 10.0625C9.29189 10.0625 8.3125 9.08311 8.3125 7.875C8.3125 6.66688 9.29189 5.6875 10.5 5.6875C11.7081 5.6875 12.6875 6.66688 12.6875 7.875C12.6875 9.08311 11.7081 10.0625 10.5 10.0625ZM6.58653 14.875C6.80417 12.9062 8.47326 11.375 10.5 11.375C12.5268 11.375 14.1958 12.9062 14.4134 14.875H6.58653Z" fill="#6B6B6B"/>
</svg>
