<svg width="21" height="21" viewBox="0 0 21 21" fill="none" xmlns="http://www.w3.org/2000/svg">
<path d="M18.3822 2.625C18.8615 2.625 19.25 3.01433 19.25 3.49423V17.5058C19.25 17.9858 18.8516 18.375 18.3822 18.375H2.61783C2.13854 18.375 1.75 17.9857 1.75 17.5058V3.49423C1.75 3.01417 2.1484 2.625 2.61783 2.625H18.3822ZM17.5 4.375H3.5V16.625H17.5V4.375ZM15.75 13.125V14.875H5.25V13.125H15.75ZM10.5 6.125V11.375H5.25V6.125H10.5ZM15.75 9.625V11.375H12.25V9.625H15.75ZM8.75 7.875H7V9.625H8.75V7.875ZM15.75 6.125V7.875H12.25V6.125H15.75Z" fill="#6B6B6B"/>
</svg>
