<svg width="18" height="22" viewBox="0 0 18 22" fill="none" xmlns="http://www.w3.org/2000/svg">
<path d="M8.87648 12.9202C8.11205 12.9193 7.36509 12.6916 6.73004 12.2661C6.095 11.8406 5.60039 11.2363 5.30878 10.5297C5.01716 9.82308 4.94162 9.04586 5.09172 8.29632C5.24183 7.54678 5.61082 6.85858 6.15205 6.31875C6.69328 5.77892 7.38243 5.4117 8.13236 5.26354C8.88229 5.11538 9.65931 5.19292 10.3652 5.48637C11.071 5.77982 11.674 6.27598 12.0979 6.91213C12.5218 7.54827 12.7475 8.29582 12.7465 9.06025C12.743 10.0847 12.3339 11.066 11.6086 11.7894C10.8833 12.5128 9.90089 12.9195 8.87648 12.9202ZM8.87648 6.69025C8.40774 6.69025 7.94952 6.82924 7.55978 7.08966C7.17003 7.35008 6.86626 7.72022 6.68688 8.15329C6.5075 8.58635 6.46057 9.06287 6.55202 9.52261C6.64346 9.98234 6.86918 10.4046 7.20063 10.7361C7.53208 11.0675 7.95438 11.2933 8.41411 11.3847C8.87385 11.4762 9.35038 11.4292 9.78344 11.2498C10.2165 11.0705 10.5866 10.7667 10.8471 10.3769C11.1075 9.9872 11.2465 9.52899 11.2465 9.06025C11.2452 8.43209 10.995 7.83004 10.5509 7.38586C10.1067 6.94169 9.50463 6.69157 8.87648 6.69025Z" fill="#6B6B6B"/>
<path d="M8.87649 21.5102C8.14654 21.5053 7.42489 21.355 6.75359 21.0683C6.0823 20.7816 5.47479 20.3641 4.96649 19.8402C2.17649 17.0002 -0.912513 12.4702 0.252487 7.08021C0.635444 5.07801 1.70792 3.27332 3.28347 1.97984C4.85903 0.686363 6.83804 -0.0140999 8.87649 0.000215141H8.88549C10.9254 -0.0136643 12.9055 0.688216 14.4813 1.98368C16.057 3.27915 17.1286 5.08617 17.5095 7.09022C18.6645 12.4802 15.5785 17.0002 12.7855 19.8402C12.2773 20.364 11.67 20.7814 10.9988 21.0681C10.3277 21.3548 9.60626 21.5051 8.87649 21.5102ZM8.87649 1.50022C7.16595 1.46799 5.4996 2.04456 4.17477 3.12707C2.84994 4.20957 1.95282 5.72757 1.64349 7.41021C0.621488 12.1202 3.42349 16.1802 5.96049 18.7502C6.33701 19.146 6.79005 19.4611 7.2921 19.6764C7.79414 19.8918 8.33472 20.0028 8.88099 20.0028C9.42726 20.0028 9.96783 19.8918 10.4699 19.6764C10.9719 19.4611 11.425 19.146 11.8015 18.7502C14.3295 16.1802 17.1315 12.1202 16.1275 7.41021C15.813 5.72672 14.9119 4.2092 13.5844 3.12719C12.2569 2.04518 10.5888 1.46872 8.87649 1.50022Z" fill="#6B6B6B"/>
</svg>
