<svg width="77" height="80" viewBox="0 0 77 80" fill="none" xmlns="http://www.w3.org/2000/svg">
<path d="M11.7904 80H1.31004C0.962597 80 0.629382 79.8966 0.383701 79.7125C0.138021 79.5283 0 79.2786 0 79.0181V26.9765C0 26.4557 0.276042 25.9562 0.767403 25.5879C1.25876 25.2196 1.92519 25.0127 2.62008 25.0127H10.4803C11.1752 25.0127 11.8417 25.2196 12.333 25.5879C12.8244 25.9562 13.1004 26.4557 13.1004 26.9765V30.9042H10.4803V26.9765H2.62008V78.0362H10.4803V36.7957H13.1004V79.0181C13.1004 79.2786 12.9624 79.5283 12.7167 79.7125C12.471 79.8966 12.1378 80 11.7904 80Z" fill="#132766"/>
<path d="M10.4807 32.6179H10.2307V32.8679V34.8327V35.0827H10.4807H13.1008H13.3508V34.8327V32.8679V32.6179H13.1008H10.4807Z" fill="#132766" stroke="#132766" stroke-width="0.5"/>
<path d="M9.30578 14.1168L7.99702 15.9491L22.2507 26.1304C22.4937 26.304 22.7956 26.374 23.0902 26.3249L29.2634 25.2961L55.1556 45.7212C55.2791 45.8186 55.4217 45.8889 55.574 45.9278C55.7264 45.9667 55.8852 45.9733 56.0403 45.9471L58.8614 45.4769L74.3844 58.4728L75.8298 56.748L59.9101 43.4197C59.7857 43.3151 59.6401 43.2386 59.4834 43.1956C59.3267 43.1526 59.1625 43.144 59.0021 43.1704L56.161 43.6439L30.2665 23.2191C30.1433 23.122 30.0011 23.0518 29.8492 23.0128C29.6972 22.9738 29.5388 22.9671 29.3841 22.9929L23.1798 24.0269L9.30578 14.1168Z" fill="#132766"/>
<path d="M2.80859 12.2537L5.39978 14.1045L6.70874 12.272L4.11755 10.4211L2.80859 12.2537Z" fill="#132766"/>
<path d="M75.2922 51.8708L73.0708 52.241L73.8113 56.6837L69.3686 57.4241L69.7388 59.6455L75.2922 58.72C75.5867 58.6709 75.8497 58.5068 76.0233 58.2638C76.1969 58.0208 76.2668 57.7187 76.2177 57.4242L75.2922 51.8708Z" fill="#132766"/>
<path d="M68.5159 80H58.0421C57.6949 80 57.3619 79.8978 57.1164 79.716C56.8708 79.5341 56.7329 79.2874 56.7329 79.0302V64.4833C56.7329 63.9689 57.0088 63.4755 57.4998 63.1118C57.9909 62.748 58.6569 62.5437 59.3514 62.5437H67.2067C67.9011 62.5437 68.5672 62.748 69.0582 63.1118C69.5493 63.4755 69.8251 63.9689 69.8251 64.4833V79.0302C69.8251 79.2874 69.6872 79.5341 69.4417 79.716C69.1962 79.8978 68.8631 80 68.5159 80ZM59.3514 78.0604H67.2067V64.4833H59.3514V78.0604Z" fill="#132766"/>
<path d="M48.4412 79.9999H37.9674C37.6202 79.9999 37.2872 79.8957 37.0417 79.7102C36.7961 79.5247 36.6582 79.2731 36.6582 79.0107V52.3026C36.6582 51.7779 36.9341 51.2747 37.4251 50.9037C37.9162 50.5327 38.5822 50.3242 39.2766 50.3242H47.132C47.8264 50.3242 48.4925 50.5327 48.9835 50.9037C49.4746 51.2747 49.7504 51.7779 49.7504 52.3026V79.0107C49.7504 79.2731 49.6125 79.5247 49.367 79.7102C49.1214 79.8957 48.7884 79.9999 48.4412 79.9999ZM39.2766 78.0216H47.132V52.3026H39.2766V78.0216Z" fill="#132766"/>
<path d="M29.2393 79.9999H18.7655C18.4183 79.9999 18.0853 79.8975 17.8398 79.7152C17.5942 79.5329 17.4563 79.2857 17.4563 79.0279V39.1759C17.4563 38.6604 17.7322 38.1659 18.2232 37.8013C18.7143 37.4367 19.3803 37.2319 20.0747 37.2319H27.9301C28.6245 37.2319 29.2906 37.4367 29.7816 37.8013C30.2727 38.1659 30.5485 38.6604 30.5485 39.1759V79.0279C30.5485 79.2857 30.4106 79.5329 30.1651 79.7152C29.9195 79.8975 29.5865 79.9999 29.2393 79.9999ZM20.0747 78.0559H27.9301V39.1759H20.0747V78.0559Z" fill="#132766"/>
</svg>
