<svg width="75" height="75" viewBox="0 0 75 75" fill="none" xmlns="http://www.w3.org/2000/svg">
<g clip-path="url(#clip0_1094_869)">
<path d="M31.7871 53.4669C32.5956 53.4669 33.252 52.8105 33.252 52.002C33.252 51.1935 32.5956 50.5372 31.7871 50.5372C30.9786 50.5372 30.3223 51.1935 30.3223 52.002C30.3223 52.8105 30.9786 53.4669 31.7871 53.4669Z" fill="#040431"/>
<path d="M0.575638 56.8463L18.1538 74.4245C18.726 74.9967 19.653 74.9967 20.2252 74.4245L29.8932 64.7565C30.4654 64.1843 30.4654 63.2573 29.8932 62.6851L29.464 62.2559H50.5795C52.434 62.2559 54.2039 61.5607 55.5686 60.2938L73.3396 43.6387C75.0407 42.0588 75.6043 39.5491 74.7415 37.3942C74.1178 35.8344 72.844 34.6407 71.2476 34.1195C69.6506 33.597 67.9185 33.8088 66.4937 34.6991C66.4845 34.7048 62.5483 37.2878 62.5483 37.2878C62.5214 29.3473 57.7224 20.8798 51.1162 17.0677C51.4933 16.6346 51.7897 16.1219 51.9786 15.548C52.7344 13.2483 51.4779 10.7592 49.1748 9.99872C49.1027 9.97468 49.0306 9.95351 48.9585 9.9312L52.7293 3.15743C52.9462 2.76776 52.9742 2.30027 52.8043 1.88828C52.6349 1.47572 52.287 1.16272 51.8584 1.03855C49.1547 0.252343 46.3446 -0.146484 43.5059 -0.146484C40.6678 -0.146484 37.8571 0.252343 35.1534 1.03798C34.7249 1.16272 34.377 1.47515 34.207 1.88771C34.0376 2.30027 34.0651 2.76776 34.2825 3.15743L38.0534 9.9312C37.9801 9.95408 37.9069 9.97583 37.8336 9.99986C35.534 10.7592 34.278 13.2477 35.0338 15.5491C35.2227 16.1219 35.5214 16.6329 35.8996 17.0666C29.1951 20.9353 24.4629 29.4897 24.4629 37.3536C24.4629 37.5681 24.4681 37.7799 24.4749 37.9899C21.8514 38.7057 19.4121 40.0097 17.3607 41.8059L12.909 45.7009L12.315 45.1069C11.7428 44.5347 10.8158 44.5347 10.2436 45.1069L0.575638 54.7749C0.00343303 55.3471 0.00343303 56.2741 0.575638 56.8463ZM37.7684 3.39604C39.6452 2.98863 41.5679 2.78321 43.5059 2.78321C45.444 2.78321 47.3666 2.98863 49.244 3.39604L45.9796 9.25943C44.3339 9.02997 42.6768 9.02997 41.0328 9.25943L37.7684 3.39604ZM38.748 12.7831C41.7538 11.7994 45.0308 11.7251 48.2598 12.7819C49.0283 13.0354 49.4477 13.8663 49.1954 14.633C49.0054 15.2104 48.4904 15.6023 47.8936 15.6372C45.0051 14.7188 42.005 14.7171 39.1177 15.6344C39.1177 15.6344 39.1177 15.6344 39.1171 15.6344C38.5151 15.5966 38.0042 15.2029 37.8165 14.6336C37.5641 13.8657 37.9836 13.0348 38.748 12.7831ZM39.5583 18.5766C42.0983 17.6617 44.7299 17.6399 47.2762 18.5148C54.082 20.8552 59.6192 29.3061 59.6192 37.3536C59.6192 38.0356 59.5763 38.6857 59.4916 39.2933L52.4506 43.9128C51.3606 42.5623 49.7086 41.7481 47.9005 41.7481H44.9708V40.0315C46.6759 39.4267 47.9005 37.7982 47.9005 35.8887C47.9005 33.4654 45.9292 31.4942 43.5059 31.4942C42.6985 31.4942 42.0411 30.8373 42.0411 30.0293C42.0411 29.2214 42.6985 28.5645 43.5059 28.5645C44.0249 28.5645 44.5725 28.8294 45.0904 29.3301C45.6717 29.8926 46.5993 29.8771 47.1617 29.2963C47.7242 28.715 47.7088 27.7874 47.1274 27.225C46.3841 26.5051 45.6402 26.0983 44.9708 25.8763V24.17C44.9708 23.3609 44.315 22.7051 43.5059 22.7051C42.6968 22.7051 42.0411 23.3609 42.0411 24.17V25.8866C40.3365 26.4914 39.1114 28.1199 39.1114 30.0293C39.1114 32.4526 41.0826 34.4239 43.5059 34.4239C44.3139 34.4239 44.9708 35.0808 44.9708 35.8887C44.9708 36.6967 44.3139 37.3536 43.5059 37.3536C42.8799 37.3536 42.2047 36.9599 41.6039 36.2452C41.0832 35.6261 40.1591 35.546 39.54 36.0667C38.9208 36.5874 38.8407 37.5115 39.3614 38.1306C40.1442 39.0622 41.0655 39.711 42.0411 40.0383V41.7481H41.5536C40.8337 41.7481 40.5104 41.2789 40.0034 40.951C36.9084 38.6313 33.0746 37.3536 29.2076 37.3536C28.6028 37.3536 27.9969 37.385 27.3938 37.4463C27.3938 37.4154 27.3926 37.385 27.3926 37.3536C27.3926 29.4188 32.8503 20.9959 39.5583 18.5766ZM19.2902 44.01C22.0425 41.5999 25.5793 40.2833 29.2076 40.2833C32.4452 40.2833 35.6547 41.3527 38.2445 43.2942C38.6181 43.5128 39.6584 44.6778 41.553 44.6778H47.9005C49.5679 44.6778 50.8301 46.0333 50.8301 47.6075C50.8301 49.2228 49.5158 50.5372 47.9005 50.5372H37.6465C36.8374 50.5372 36.1817 51.1929 36.1817 52.002C36.1817 52.8111 36.8374 53.4669 37.6465 53.4669H47.9005C51.1311 53.4669 53.7598 50.8382 53.7598 47.6075C53.7598 47.2716 53.7301 46.9403 53.674 46.6141L68.0587 37.1762C68.743 36.7533 69.5733 36.6543 70.3378 36.9038C71.1068 37.1556 71.7208 37.7306 72.0212 38.4825C72.4441 39.5377 72.1786 40.7193 71.3408 41.4969L53.5704 58.1515C52.7545 58.9091 51.6925 59.3262 50.5795 59.3262H26.5343L14.9855 47.7769L19.2902 44.01ZM11.2793 48.214L26.7861 63.7208L19.1895 71.3174L3.68271 55.8106L11.2793 48.214Z" fill="#040431"/>
</g>
<defs>
<clipPath id="clip0_1094_869">
<rect width="75" height="75" fill="white"/>
</clipPath>
</defs>
</svg>
