<svg width="80" height="80" viewBox="0 0 80 80" fill="none" xmlns="http://www.w3.org/2000/svg">
<path d="M61.6667 0H5C2.23859 0 0 2.23859 0 5V45C0 47.7614 2.23859 50 5 50H43.3333V46.6667H5C4.07953 46.6667 3.33328 45.9205 3.33328 45V5C3.33328 4.07953 4.07953 3.33328 5 3.33328H61.6667C62.5872 3.33328 63.3334 4.07953 63.3334 5V26.6667H66.6667V5C66.6667 2.23859 64.4281 0 61.6667 0Z" fill="#040431"/>
<path d="M43.333 56.6668H18.333V60.0001H43.333V56.6668Z" fill="#040431"/>
<path d="M43.3337 36.6667H1.66699V40H43.3337V36.6667Z" fill="#040431"/>
<path d="M11.667 30C10.7465 30 10.0003 29.2537 10.0003 28.3333V25H6.66699V28.3333C6.66699 31.0947 8.90559 33.3333 11.667 33.3333H15.0003V30H11.667Z" fill="#040431"/>
<path d="M10.0003 18.3333H6.66699V21.6665H10.0003V18.3333Z" fill="#040431"/>
<path d="M75.0003 30H51.667C48.9056 30 46.667 32.2386 46.667 35V75C46.667 77.7614 48.9056 80 51.667 80H75.0003C77.7617 80 80.0003 77.7614 80.0003 75V35C80.0003 32.2386 77.7617 30 75.0003 30ZM76.667 75C76.667 75.9205 75.9207 76.6667 75.0003 76.6667H51.667C50.7465 76.6667 50.0003 75.9205 50.0003 75V35C50.0003 34.0795 50.7465 33.3333 51.667 33.3333H75.0003C75.9207 33.3333 76.667 34.0795 76.667 35V75Z" fill="#040431"/>
<path d="M25.0003 48.3333H21.667V58.3333H25.0003V48.3333Z" fill="#040431"/>
<path d="M78.333 38.3333H48.333V41.6665H78.333V38.3333Z" fill="#040431"/>
<path d="M65.0003 70H61.667V73.3333H65.0003V70Z" fill="#040431"/>
<path d="M56.6663 45H53.333V48.3333H56.6663V45Z" fill="#040431"/>
<path d="M63.3333 45H60V48.3333H63.3333V45Z" fill="#040431"/>
<path d="M56.6663 51.6667H53.333V55H56.6663V51.6667Z" fill="#040431"/>
</svg>
