<svg width="289" height="34" viewBox="0 0 289 34" fill="none" xmlns="http://www.w3.org/2000/svg">
<path d="M40.8074 0.688575C40.8074 0.481742 40.977 0.312744 41.1846 0.312744H46.0897C48.1575 0.312744 51.1694 0.514533 53.1487 3.18066C54.3636 4.70416 54.8571 6.54044 54.8571 8.5785C54.8571 13.26 52.3843 16.8897 46.3377 16.8897H41.1846C40.977 16.8897 40.8074 16.7207 40.8074 16.5138V0.688575V0.688575ZM44.156 13.5803C44.156 13.7872 44.3256 13.9562 44.5331 13.9562H46.5174C50.114 13.9562 51.5086 11.6053 51.5086 8.6239C51.5086 7.32489 51.172 5.93507 50.3848 4.90595C49.6888 4.01052 48.565 3.24877 46.5402 3.24877H44.5331C44.3256 3.24877 44.156 3.41776 44.156 3.6246V13.5803V13.5803Z" fill="#08A5B5"/>
<path d="M56.5175 8.73744C56.5175 3.42788 60.6102 0 65.2394 0C70.2736 0 73.9841 3.89704 73.9841 8.60123C73.9841 13.3054 70.2989 17.2025 65.2166 17.2025C60.1343 17.2025 56.5175 13.1919 56.5175 8.75762V8.73491V8.73744ZM59.8661 8.60375C59.8661 11.6281 62.0453 14.2715 65.2825 14.2715C68.5196 14.2715 70.633 11.3582 70.633 8.62645C70.633 5.89474 68.6538 2.93602 65.2597 2.93602C61.8656 2.93602 59.8661 5.66773 59.8661 8.58105V8.60375V8.60375Z" fill="#08A5B5"/>
<path d="M92.0046 11.3355C92.2653 11.3355 92.45 11.5953 92.3589 11.8399C91.1921 15.0004 88.084 17.205 84.3887 17.205C79.3089 17.205 75.6668 13.1944 75.6668 8.58105C75.6668 3.96766 79.1065 0 84.3659 0C88.8357 0.0201788 91.5034 3.08736 92.3665 5.4609C92.4551 5.70304 92.2678 5.9578 92.0096 5.9578H89.2306C89.0914 5.9578 88.9623 5.88213 88.899 5.75601C88.3067 4.60834 86.8463 2.95368 84.3432 2.9335C81.106 2.9335 79.0154 5.64503 79.0154 8.57853C79.0154 11.512 81.1946 14.269 84.3659 14.269C87.0817 14.269 88.4434 12.3167 88.8939 11.5221C88.9597 11.4061 89.0838 11.3355 89.2204 11.3355H92.0046V11.3355Z" fill="#08A5B5"/>
<path d="M97.0446 3.24883H93.4481V0.312805H103.967V3.24883H100.393V16.8897H97.0446V3.24883Z" fill="#08A5B5"/>
<path d="M104.124 8.73744C104.124 3.42788 108.214 0 112.846 0C117.88 0 121.59 3.89704 121.59 8.60123C121.59 13.3054 117.905 17.2025 112.823 17.2025C107.741 17.2025 104.124 13.1919 104.124 8.75762V8.73491V8.73744ZM107.472 8.60375C107.472 11.6281 109.652 14.2715 112.889 14.2715C116.126 14.2715 118.239 11.3582 118.239 8.62645C118.239 5.89474 116.26 2.93602 112.866 2.93602C109.472 2.93602 107.472 5.66773 107.472 8.58105V8.60375V8.60375Z" fill="#08A5B5"/>
<path d="M123.924 0.688575C123.924 0.481742 124.093 0.312744 124.301 0.312744H128.96C131.545 0.312744 133.028 0.716321 133.929 1.36457C135.301 2.35081 136.042 4.0307 136.042 5.86697C136.042 7.0777 135.706 8.15222 135.144 8.95938C134.529 9.85986 133.752 10.3341 132.866 10.6191C132.633 10.6948 132.529 10.9621 132.656 11.169L135.769 16.3196C135.921 16.5693 135.739 16.8871 135.447 16.8871H132.823C132.689 16.8871 132.565 16.8165 132.496 16.7005L128.459 9.74383C128.315 9.49412 128.495 9.18134 128.786 9.18134C129.887 9.18134 131.079 9.11324 131.775 8.57598C132.428 8.03872 132.83 7.16598 132.83 6.15704C132.83 5.1481 132.337 4.22996 131.595 3.7608C130.988 3.37993 130.18 3.24624 129.236 3.24624H127.657C127.449 3.24624 127.28 3.41524 127.28 3.62207V16.5138C127.28 16.7207 127.11 16.8897 126.903 16.8897H124.306C124.098 16.8897 123.929 16.7207 123.929 16.5138V0.688575H123.924Z" fill="#08A5B5"/>
<path d="M42.6044 29.0146C42.7765 29.0146 42.9208 29.1433 42.9411 29.3123C43.1537 31.0754 44.4116 31.4235 45.0266 31.4235C46.1833 31.4235 47.0768 30.4927 47.0768 29.4409C47.0768 28.1646 46.0011 27.8417 43.9079 27.0119C42.7715 26.6083 40.1519 25.675 40.1519 22.8424C40.1519 20.0098 42.6905 18.4106 45.1279 18.4106C47.0413 18.4106 49.5546 19.3843 49.8558 22.4086C49.8761 22.6078 49.7191 22.7844 49.5167 22.7844H47.1755C47.0185 22.7844 46.8793 22.6759 46.8439 22.5221C46.6946 21.8385 46.3326 20.9431 45.0266 20.9431C44.0319 20.9431 43.179 21.6317 43.179 22.6432C43.1587 23.7555 43.9712 24.0405 46.5098 25.0924C48.8054 26.0836 50.0836 27.1758 50.0836 29.3022C50.0836 31.711 48.6004 33.9559 45.0671 33.9559C41.7996 33.9559 40.0405 32.0793 39.9165 29.3778C39.9064 29.1836 40.0608 29.0171 40.2556 29.0171H42.6044V29.0146Z" fill="#132766"/>
<path d="M52.0732 33.3305V19.0312C52.0732 18.8446 52.2251 18.6932 52.4124 18.6932H54.7587C54.946 18.6932 55.0978 18.8446 55.0978 19.0312V24.366C55.0978 24.5527 55.2497 24.704 55.437 24.704H60.5446C60.7319 24.704 60.8837 24.5527 60.8837 24.366V19.0312C60.8837 18.8446 61.0356 18.6932 61.2229 18.6932H63.5692C63.7565 18.6932 63.9083 18.8446 63.9083 19.0312V33.3305C63.9083 33.5171 63.7565 33.6685 63.5692 33.6685H61.2229C61.0356 33.6685 60.8837 33.5171 60.8837 33.3305V27.693C60.8837 27.5063 60.7319 27.355 60.5446 27.355H55.437C55.2497 27.355 55.0978 27.5063 55.0978 27.693V33.3305C55.0978 33.5171 54.946 33.6685 54.7587 33.6685H52.4124C52.2251 33.6685 52.0732 33.5171 52.0732 33.3305Z" fill="#132766"/>
<path d="M67.0744 18.6932H69.4206C69.6079 18.6932 69.7598 18.8445 69.7598 19.0312V33.3304C69.7598 33.5171 69.6079 33.6684 69.4206 33.6684H67.0744C66.8871 33.6684 66.7352 33.5171 66.7352 33.3304V19.0312C66.7352 18.8445 66.8871 18.6932 67.0744 18.6932V18.6932Z" fill="#132766"/>
<path d="M72.9211 18.6932H80.6685C80.8558 18.6932 81.0077 18.8445 81.0077 19.0312V21.0062C81.0077 21.1928 80.8558 21.3442 80.6685 21.3442H75.9456C75.7583 21.3442 75.6065 21.4955 75.6065 21.6822V24.4063C75.6065 24.593 75.7583 24.7443 75.9456 24.7443H80.5673C80.7546 24.7443 80.9065 24.8956 80.9065 25.0823V27.0573C80.9065 27.244 80.7546 27.3953 80.5673 27.3953H75.9456C75.7583 27.3953 75.6065 27.5466 75.6065 27.7333V30.6794C75.6065 30.8661 75.7583 31.0174 75.9456 31.0174H80.6685C80.8558 31.0174 81.0077 31.1687 81.0077 31.3554V33.3304C81.0077 33.5171 80.8558 33.6684 80.6685 33.6684H72.9211C72.7338 33.6684 72.5819 33.5171 72.5819 33.3304V19.0312C72.5819 18.8445 72.7338 18.6932 72.9211 18.6932V18.6932Z" fill="#132766"/>
<path d="M83.8065 18.6932H86.1528C86.3401 18.6932 86.492 18.8446 86.492 19.0312V30.6795C86.492 30.8661 86.6438 31.0175 86.8311 31.0175H91.0858C91.2731 31.0175 91.4249 31.1688 91.4249 31.3555V33.3305C91.4249 33.5171 91.2731 33.6685 91.0858 33.6685H83.804C83.6167 33.6685 83.4648 33.5171 83.4648 33.3305V19.0312C83.4648 18.8446 83.6167 18.6932 83.804 18.6932H83.8065Z" fill="#132766"/>
<path d="M92.9693 19.0312C92.9693 18.8445 93.1211 18.6932 93.3084 18.6932H97.7402C99.6081 18.6932 102.329 18.8748 104.116 21.2836C105.212 22.6608 105.66 24.3205 105.66 26.1619C105.66 30.3919 103.425 33.6709 97.963 33.6709H93.3059C93.1186 33.6709 92.9667 33.5196 92.9667 33.3329V19.0337L92.9693 19.0312ZM95.9964 30.6794C95.9964 30.8661 96.1482 31.0174 96.3355 31.0174H98.1275C101.377 31.0174 102.635 28.8936 102.635 26.1997C102.635 25.0268 102.332 23.7707 101.62 22.8399C100.99 22.0303 99.9751 21.3416 98.1477 21.3416H96.3355C96.1482 21.3416 95.9964 21.493 95.9964 21.6796V30.6769V30.6794Z" fill="#132766"/>
<path d="M15.5228 16.2588C15.5228 17.3736 15.4237 18.0363 15.1969 18.5586C14.9856 18.9952 14.5736 19.4474 14.1486 19.7151C13.5384 20.1231 12.8161 20.3076 12.1512 20.3076C11.6974 20.3076 9.36102 20.1516 8.92294 17.7816C8.88122 17.5711 8.86558 17.3295 8.85254 17.0904H11.1055C11.1055 17.1891 11.1186 17.2749 11.1342 17.3736C11.2907 18.0519 11.7157 18.4599 12.2529 18.4599C12.8344 18.4469 13.1447 18.1351 13.2724 17.7816C13.4002 17.4568 13.4133 17.0904 13.4133 16.7656V9.66595H15.5228V16.2588Z" fill="#132766"/>
<path d="M24.9568 20.1101H23.1002V18.9953C22.6047 19.8996 21.5695 20.3492 20.4795 20.3492C17.9866 20.3492 16.5264 18.4157 16.5264 16.2277C16.5264 13.7849 18.2969 12.1191 20.4795 12.1191C21.8954 12.1191 22.7612 12.8676 23.1002 13.4886V12.3582H24.9568V20.1075V20.1101ZM18.3856 16.2718C18.3856 17.2307 19.0792 18.6288 20.7507 18.6288C21.7833 18.6288 22.4639 18.0935 22.8185 17.3867C23.0037 17.0488 23.0871 16.6798 23.1158 16.3004C23.1288 15.934 23.0584 15.552 22.902 15.2142C22.576 14.4813 21.8537 13.8447 20.7351 13.8447C19.2331 13.8447 18.383 15.0582 18.383 16.2588V16.2718H18.3856Z" fill="#132766"/>
<path d="M35.3984 6.12653C35.3984 6.12653 32.6004 22.9374 15.9951 30.6893L19.0538 32.867C19.0538 32.867 34.5248 25.5517 35.3984 6.12653V6.12653Z" fill="#132766"/>
<path d="M3.14739 6.12653C3.14739 6.12653 3.3221 24.1562 16.3445 34C16.3445 34 1.66105 26.7705 0 8.13011L3.14739 6.12653V6.12653Z" fill="#132766"/>
<path d="M1.1369 3.94884C1.1369 3.94884 15.6457 -4.93605 32.689 3.94884V7.7819C32.689 7.7819 20.1021 -2.06191 1.1369 3.94884Z" fill="#08A5B5"/>
<rect x="109" y="23.9671" width="50" height="9.9863" rx="2" fill="#000066"/>
<path d="M119.008 26.0716L117.174 30.0744L117.017 30.4293L116.876 30.0744L115.041 26.0716H114V31.8488H114.926V27.8378L115.083 28.3082L116.636 31.8488H117.405L118.967 28.3082L119.132 27.8378V31.8488H120.058V26.0716H119.008Z" fill="white"/>
<path d="M123.09 26.0716L120.8 31.8488H121.817L122.362 30.4376H124.8L125.354 31.8488H126.371L124.081 26.0716H123.09ZM123.685 27.5407L124.503 29.604H122.668L123.47 27.5407L123.577 27.2271L123.685 27.5407Z" fill="white"/>
<path d="M127.115 26.0716V31.8488H130.545V30.9823H128.04V26.0716H127.115Z" fill="white"/>
<path d="M133.154 26.0716L130.865 31.8488H131.881L132.427 30.4376H134.865L135.418 31.8488H136.435L134.146 26.0716H133.154ZM133.749 27.5407L134.567 29.604H132.732L133.534 27.5407L133.641 27.2271L133.749 27.5407Z" fill="white"/>
<path d="M139.94 26.0716L138.519 28.3082L138.304 28.6961L138.097 28.3082L136.684 26.0716H135.601L137.841 29.6783V31.8488H138.783V29.6783L141.023 26.0716H139.94Z" fill="white"/>
<path d="M143.205 25.9644C142.668 25.9644 142.246 26.1212 141.932 26.4348C141.618 26.7402 141.461 27.1363 141.461 27.6232C141.461 28.0772 141.594 28.432 141.85 28.6879C142.114 28.9437 142.519 29.1666 143.073 29.3564C143.899 29.6287 144.205 29.8763 144.205 30.3138C144.205 30.8089 143.875 31.1391 143.288 31.1391C142.635 31.1391 142.271 30.7759 142.246 30.1157H141.313C141.337 31.2381 142.032 31.9561 143.28 31.9561C143.825 31.9561 144.271 31.8076 144.618 31.5022C144.965 31.1968 145.139 30.7759 145.139 30.2477C145.139 29.8186 145.015 29.4719 144.759 29.2161C144.511 28.952 144.089 28.7127 143.486 28.5063C143.073 28.3495 142.784 28.2092 142.627 28.0854C142.47 27.9616 142.395 27.7883 142.395 27.549C142.395 27.0785 142.693 26.7897 143.18 26.7897C143.676 26.7897 144.007 27.1033 144.015 27.6397H144.957C144.916 26.5503 144.263 25.9644 143.205 25.9644Z" fill="white"/>
<path d="M146.057 26.0716V31.8488H146.983V26.0716H146.057Z" fill="white"/>
<path d="M150.022 26.0716L147.732 31.8488H148.749L149.294 30.4376H151.732L152.286 31.8488H153.303L151.013 26.0716H150.022ZM150.617 27.5407L151.435 29.604H149.6L150.402 27.5407L150.509 27.2271L150.617 27.5407Z" fill="white"/>
<path d="M173.958 13.7251C173.108 13.7251 172.317 13.5841 171.584 13.3021C170.862 13.0092 170.23 12.6023 169.689 12.0816C169.158 11.55 168.743 10.9263 168.446 10.2103C168.149 9.49428 168 8.7132 168 7.86702C168 7.02085 168.149 6.23977 168.446 5.52377C168.743 4.80778 169.163 4.18942 169.705 3.6687C170.246 3.13713 170.878 2.73032 171.6 2.44826C172.322 2.15535 173.114 2.0089 173.974 2.0089C174.887 2.0089 175.721 2.17162 176.475 2.49708C177.229 2.81168 177.866 3.28358 178.387 3.91279L177.048 5.19832C176.645 4.75354 176.193 4.42266 175.694 4.20569C175.195 3.97788 174.654 3.86397 174.069 3.86397C173.485 3.86397 172.949 3.96161 172.46 4.15688C171.983 4.35215 171.563 4.62878 171.202 4.98678C170.852 5.34478 170.575 5.76786 170.374 6.25604C170.182 6.74422 170.087 7.28121 170.087 7.86702C170.087 8.45284 170.182 8.98983 170.374 9.47801C170.575 9.96618 170.852 10.3893 171.202 10.7473C171.563 11.1053 171.983 11.3819 172.46 11.5772C172.949 11.7724 173.485 11.8701 174.069 11.8701C174.654 11.8701 175.195 11.7616 175.694 11.5446C176.193 11.3168 176.645 10.9751 177.048 10.5195L178.387 11.8213C177.866 12.4396 177.229 12.9115 176.475 13.237C175.721 13.5624 174.882 13.7251 173.958 13.7251Z" fill="#000066"/>
<path d="M180.18 13.5624V1.48818H182.171V13.5624H180.18Z" fill="#000066"/>
<path d="M184.784 13.5624V4.87287H186.776V13.5624H184.784ZM185.788 3.44088C185.416 3.44088 185.108 3.32155 184.864 3.08289C184.631 2.84422 184.514 2.55674 184.514 2.22044C184.514 1.87329 184.631 1.58581 184.864 1.358C185.108 1.11933 185.416 1 185.788 1C186.16 1 186.462 1.11391 186.696 1.34172C186.94 1.55869 187.063 1.83532 187.063 2.17162C187.063 2.52962 186.946 2.83338 186.712 3.08289C186.478 3.32155 186.17 3.44088 185.788 3.44088Z" fill="#000066"/>
<path d="M194.216 4.77524C194.896 4.77524 195.501 4.91084 196.032 5.18205C196.574 5.45326 196.999 5.87092 197.307 6.43504C197.615 6.9883 197.769 7.7043 197.769 8.58302V13.5624H195.777V8.84338C195.777 8.07314 195.597 7.49818 195.236 7.11848C194.885 6.73879 194.391 6.54894 193.754 6.54894C193.287 6.54894 192.873 6.64658 192.512 6.84185C192.151 7.03712 191.869 7.33003 191.667 7.72057C191.476 8.10026 191.381 8.58302 191.381 9.16883V13.5624H189.389V4.87287H191.285V7.21612L190.95 6.50013C191.248 5.94686 191.678 5.52377 192.241 5.23087C192.814 4.92711 193.473 4.77524 194.216 4.77524Z" fill="#000066"/>
<path d="M200.295 13.5624V4.87287H202.286V13.5624H200.295ZM201.298 3.44088C200.927 3.44088 200.619 3.32155 200.374 3.08289C200.141 2.84422 200.024 2.55674 200.024 2.22044C200.024 1.87329 200.141 1.58581 200.374 1.358C200.619 1.11933 200.927 1 201.298 1C201.67 1 201.973 1.11391 202.206 1.34172C202.451 1.55869 202.573 1.83532 202.573 2.17162C202.573 2.52962 202.456 2.83338 202.222 3.08289C201.989 3.32155 201.681 3.44088 201.298 3.44088Z" fill="#000066"/>
<path d="M208.802 13.6763C207.91 13.6763 207.114 13.4865 206.413 13.1068C205.723 12.7162 205.181 12.1847 204.788 11.5121C204.395 10.8395 204.199 10.0747 204.199 9.21765C204.199 8.34978 204.395 7.58497 204.788 6.92321C205.181 6.25061 205.723 5.72447 206.413 5.34478C207.114 4.96508 207.91 4.77524 208.802 4.77524C209.631 4.77524 210.358 4.94881 210.985 5.29596C211.622 5.63226 212.105 6.13128 212.435 6.79303L210.905 7.7043C210.65 7.29206 210.337 6.9883 209.965 6.79303C209.604 6.59776 209.211 6.50013 208.787 6.50013C208.298 6.50013 207.857 6.60861 207.464 6.82558C207.071 7.04255 206.763 7.35715 206.54 7.76939C206.317 8.17078 206.206 8.65353 206.206 9.21765C206.206 9.78176 206.317 10.2699 206.54 10.6822C206.763 11.0836 207.071 11.3927 207.464 11.6097C207.857 11.8267 208.298 11.9352 208.787 11.9352C209.211 11.9352 209.604 11.8375 209.965 11.6423C210.337 11.447 210.65 11.1432 210.905 10.731L212.435 11.6423C212.105 12.2932 211.622 12.7976 210.985 13.1556C210.358 13.5028 209.631 13.6763 208.802 13.6763Z" fill="#000066"/>
<path d="M218.75 13.5624V2.17162H223.338C224.325 2.17162 225.17 2.33435 225.87 2.6598C226.582 2.98525 227.129 3.45173 227.511 4.05924C227.894 4.66675 228.085 5.38817 228.085 6.22349C228.085 7.05882 227.894 7.78024 227.511 8.38774C227.129 8.99525 226.582 9.46173 225.87 9.78719C225.17 10.1126 224.325 10.2754 223.338 10.2754H219.897L220.821 9.28274V13.5624H218.75ZM220.821 9.51055L219.897 8.48538H223.242C224.155 8.48538 224.84 8.29011 225.297 7.89957C225.764 7.49818 225.998 6.93949 225.998 6.22349C225.998 5.49665 225.764 4.93796 225.297 4.54742C224.84 4.15688 224.155 3.96161 223.242 3.96161H219.897L220.821 2.92016V9.51055Z" fill="#000066"/>
<path d="M229.884 13.5624V4.87287H231.78V7.26494L231.557 6.56522C231.811 5.97941 232.21 5.53462 232.751 5.23087C233.304 4.92711 233.989 4.77524 234.806 4.77524V6.71167C234.721 6.68997 234.642 6.67913 234.567 6.67913C234.493 6.66828 234.419 6.66285 234.344 6.66285C233.59 6.66285 232.99 6.89067 232.544 7.3463C232.098 7.79108 231.875 8.45826 231.875 9.34783V13.5624H229.884Z" fill="#000066"/>
<path d="M240.241 13.6763C239.37 13.6763 238.595 13.4865 237.915 13.1068C237.236 12.7162 236.699 12.1847 236.306 11.5121C235.913 10.8395 235.717 10.0747 235.717 9.21765C235.717 8.34978 235.913 7.58497 236.306 6.92321C236.699 6.25061 237.236 5.72447 237.915 5.34478C238.595 4.96508 239.37 4.77524 240.241 4.77524C241.122 4.77524 241.903 4.96508 242.583 5.34478C243.273 5.72447 243.809 6.24519 244.192 6.90694C244.585 7.56869 244.781 8.33893 244.781 9.21765C244.781 10.0747 244.585 10.8395 244.192 11.5121C243.809 12.1847 243.273 12.7162 242.583 13.1068C241.903 13.4865 241.122 13.6763 240.241 13.6763ZM240.241 11.9352C240.73 11.9352 241.165 11.8267 241.547 11.6097C241.93 11.3927 242.227 11.0781 242.439 10.6659C242.662 10.2537 242.774 9.77091 242.774 9.21765C242.774 8.65353 242.662 8.17078 242.439 7.76939C242.227 7.35715 241.93 7.04255 241.547 6.82558C241.165 6.60861 240.735 6.50013 240.257 6.50013C239.768 6.50013 239.333 6.60861 238.951 6.82558C238.579 7.04255 238.282 7.35715 238.059 7.76939C237.836 8.17078 237.724 8.65353 237.724 9.21765C237.724 9.77091 237.836 10.2537 238.059 10.6659C238.282 11.0781 238.579 11.3927 238.951 11.6097C239.333 11.8267 239.763 11.9352 240.241 11.9352Z" fill="#000066"/>
<path d="M251.401 13.6763C250.71 13.6763 250.078 13.5136 249.505 13.1882C248.942 12.8627 248.491 12.3745 248.151 11.7236C247.822 11.0619 247.657 10.2265 247.657 9.21765C247.657 8.1979 247.816 7.36257 248.135 6.71167C248.464 6.06077 248.91 5.57801 249.473 5.26341C250.036 4.93796 250.678 4.77524 251.401 4.77524C252.24 4.77524 252.978 4.95966 253.615 5.3285C254.263 5.69735 254.773 6.21265 255.144 6.8744C255.527 7.53615 255.718 8.31723 255.718 9.21765C255.718 10.1181 255.527 10.9046 255.144 11.5772C254.773 12.2389 254.263 12.7542 253.615 13.1231C252.978 13.4919 252.24 13.6763 251.401 13.6763ZM246.685 16.7193V4.87287H248.581V6.92321L248.517 9.23392L248.677 11.5446V16.7193H246.685ZM251.178 11.9352C251.656 11.9352 252.08 11.8267 252.452 11.6097C252.834 11.3927 253.137 11.0781 253.36 10.6659C253.583 10.2537 253.695 9.77091 253.695 9.21765C253.695 8.65353 253.583 8.17078 253.36 7.76939C253.137 7.35715 252.834 7.04255 252.452 6.82558C252.08 6.60861 251.656 6.50013 251.178 6.50013C250.7 6.50013 250.27 6.60861 249.887 6.82558C249.505 7.04255 249.202 7.35715 248.979 7.76939C248.756 8.17078 248.645 8.65353 248.645 9.21765C248.645 9.77091 248.756 10.2537 248.979 10.6659C249.202 11.0781 249.505 11.3927 249.887 11.6097C250.27 11.8267 250.7 11.9352 251.178 11.9352Z" fill="#000066"/>
<path d="M261.605 13.6763C260.66 13.6763 259.831 13.4865 259.12 13.1068C258.419 12.7162 257.872 12.1847 257.479 11.5121C257.096 10.8395 256.905 10.0747 256.905 9.21765C256.905 8.34978 257.091 7.58497 257.463 6.92321C257.845 6.25061 258.366 5.72447 259.024 5.34478C259.693 4.96508 260.452 4.77524 261.302 4.77524C262.13 4.77524 262.869 4.95966 263.516 5.3285C264.164 5.69735 264.674 6.21807 265.046 6.89067C265.417 7.56327 265.603 8.3552 265.603 9.26646C265.603 9.35325 265.598 9.45089 265.587 9.55937C265.587 9.66785 265.582 9.77091 265.571 9.86855H258.482V8.51793H264.52L263.739 8.94101C263.75 8.44199 263.649 8.00263 263.437 7.62293C263.224 7.24324 262.932 6.94491 262.561 6.72794C262.199 6.51098 261.78 6.40249 261.302 6.40249C260.814 6.40249 260.383 6.51098 260.012 6.72794C259.651 6.94491 259.364 7.24867 259.151 7.63921C258.95 8.0189 258.849 8.46911 258.849 8.98983V9.31528C258.849 9.836 258.966 10.2971 259.199 10.6984C259.433 11.0998 259.762 11.409 260.187 11.626C260.612 11.843 261.1 11.9514 261.653 11.9514C262.13 11.9514 262.561 11.8755 262.943 11.7236C263.325 11.5717 263.665 11.3331 263.962 11.0076L265.03 12.2606C264.647 12.7162 264.164 13.0688 263.58 13.3183C263.007 13.557 262.348 13.6763 261.605 13.6763Z" fill="#000066"/>
<path d="M267.516 13.5624V4.87287H269.412V7.26494L269.189 6.56522C269.444 5.97941 269.842 5.53462 270.383 5.23087C270.936 4.92711 271.621 4.77524 272.438 4.77524V6.71167C272.353 6.68997 272.274 6.67913 272.199 6.67913C272.125 6.66828 272.051 6.66285 271.976 6.66285C271.222 6.66285 270.622 6.89067 270.176 7.3463C269.73 7.79108 269.507 8.45826 269.507 9.34783V13.5624H267.516Z" fill="#000066"/>
<path d="M277.641 13.6763C276.706 13.6763 275.984 13.4322 275.474 12.9441C274.964 12.445 274.71 11.7128 274.71 10.7473V2.95271H276.701V10.6984C276.701 11.1107 276.802 11.4307 277.004 11.6585C277.216 11.8863 277.508 12.0003 277.88 12.0003C278.326 12.0003 278.697 11.8809 278.995 11.6423L279.552 13.0905C279.319 13.2858 279.032 13.4322 278.692 13.5299C278.352 13.6275 278.002 13.6763 277.641 13.6763ZM273.308 6.56522V4.93796H278.979V6.56522H273.308Z" fill="#000066"/>
<path d="M281.736 16.8332C281.322 16.8332 280.907 16.7627 280.493 16.6217C280.079 16.4806 279.734 16.2854 279.458 16.0359L280.254 14.5388C280.456 14.7232 280.684 14.8697 280.939 14.9781C281.194 15.0866 281.454 15.1409 281.72 15.1409C282.081 15.1409 282.373 15.0486 282.596 14.8642C282.819 14.6798 283.026 14.3706 283.217 13.9367L283.711 12.7976L283.87 12.5535L287.088 4.87287H289L285.017 14.2621C284.752 14.913 284.455 15.4283 284.125 15.808C283.807 16.1877 283.446 16.4535 283.042 16.6054C282.649 16.7573 282.214 16.8332 281.736 16.8332ZM283.488 13.8716L279.649 4.87287H281.72L284.842 12.3745L283.488 13.8716Z" fill="#000066"/>
<path d="M168.797 32.8861V21.4953H170.867V32.8861H168.797Z" fill="#000066"/>
<path d="M178.519 24.0989C179.199 24.0989 179.804 24.2345 180.335 24.5057C180.877 24.7769 181.302 25.1946 181.61 25.7587C181.918 26.312 182.072 27.028 182.072 27.9067V32.8861H180.08V28.167C180.08 27.3968 179.9 26.8218 179.539 26.4422C179.188 26.0625 178.695 25.8726 178.057 25.8726C177.59 25.8726 177.176 25.9703 176.815 26.1655C176.454 26.3608 176.172 26.6537 175.97 27.0442C175.779 27.4239 175.684 27.9067 175.684 28.4925V32.8861H173.692V24.1965H175.588V26.5398L175.254 25.8238C175.551 25.2705 175.981 24.8474 176.544 24.5545C177.117 24.2508 177.776 24.0989 178.519 24.0989Z" fill="#000066"/>
<path d="M187.226 33C186.515 33 185.83 32.9078 185.171 32.7234C184.523 32.5281 184.008 32.2949 183.626 32.0236L184.391 30.4778C184.773 30.7273 185.23 30.9334 185.761 31.0961C186.292 31.2588 186.823 31.3402 187.354 31.3402C187.98 31.3402 188.432 31.2534 188.708 31.0798C188.995 30.9063 189.138 30.673 189.138 30.3801C189.138 30.1415 189.042 29.9625 188.851 29.8431C188.66 29.7129 188.41 29.6153 188.102 29.5502C187.794 29.4851 187.449 29.4255 187.067 29.3712C186.695 29.317 186.318 29.2465 185.936 29.1597C185.564 29.062 185.224 28.9264 184.916 28.7529C184.608 28.5684 184.359 28.3244 184.168 28.0206C183.977 27.7168 183.881 27.3154 183.881 26.8164C183.881 26.2632 184.035 25.7858 184.343 25.3844C184.651 24.9722 185.081 24.6576 185.633 24.4406C186.196 24.2128 186.86 24.0989 187.625 24.0989C188.198 24.0989 188.777 24.164 189.361 24.2942C189.945 24.4244 190.428 24.6088 190.811 24.8474L190.046 26.3933C189.642 26.1438 189.234 25.9757 188.819 25.8889C188.416 25.7913 188.012 25.7424 187.609 25.7424C187.003 25.7424 186.552 25.8346 186.255 26.0191C185.968 26.2035 185.824 26.4367 185.824 26.7188C185.824 26.9792 185.92 27.1744 186.111 27.3046C186.302 27.4348 186.552 27.5378 186.86 27.6138C187.168 27.6897 187.508 27.7548 187.879 27.8091C188.262 27.8524 188.639 27.923 189.01 28.0206C189.382 28.1182 189.722 28.2538 190.03 28.4274C190.349 28.5901 190.604 28.8234 190.795 29.1271C190.986 29.4309 191.081 29.8268 191.081 30.315C191.081 30.8574 190.922 31.3294 190.604 31.7307C190.296 32.1321 189.855 32.4467 189.281 32.6746C188.708 32.8915 188.023 33 187.226 33Z" fill="#000066"/>
<path d="M196.397 33C195.674 33 195.037 32.8644 194.485 32.5932C193.933 32.3111 193.503 31.888 193.195 31.3239C192.887 30.749 192.733 30.0275 192.733 29.1597V24.1965H194.724V28.883C194.724 29.6641 194.894 30.2499 195.234 30.6405C195.584 31.0202 196.078 31.21 196.715 31.21C197.182 31.21 197.586 31.1124 197.926 30.9171C198.276 30.7218 198.547 30.4289 198.738 30.0384C198.94 29.6479 199.041 29.1651 199.041 28.5901V24.1965H201.032V32.8861H199.137V30.5428L199.471 31.2588C199.184 31.823 198.765 32.2569 198.213 32.5606C197.66 32.8535 197.055 33 196.397 33Z" fill="#000066"/>
<path d="M203.639 32.8861V24.1965H205.535V26.5886L205.312 25.8889C205.567 25.3031 205.965 24.8583 206.507 24.5545C207.059 24.2508 207.744 24.0989 208.562 24.0989V26.0353C208.477 26.0136 208.397 26.0028 208.323 26.0028C208.249 25.9919 208.174 25.9865 208.1 25.9865C207.346 25.9865 206.746 26.2143 206.3 26.67C205.854 27.1148 205.631 27.7819 205.631 28.6715V32.8861H203.639Z" fill="#000066"/>
<path d="M214.885 32.8861V31.1287L214.774 30.7544V27.6789C214.774 27.0822 214.599 26.6212 214.248 26.2957C213.898 25.9594 213.367 25.7913 212.655 25.7913C212.177 25.7913 211.705 25.8672 211.237 26.0191C210.781 26.1709 210.393 26.3825 210.074 26.6537L209.294 25.1729C209.751 24.8149 210.292 24.5491 210.919 24.3755C211.556 24.1911 212.214 24.0989 212.894 24.0989C214.126 24.0989 215.077 24.4027 215.746 25.0102C216.425 25.6068 216.765 26.5344 216.765 27.7928V32.8861H214.885ZM212.209 33C211.572 33 211.014 32.8915 210.536 32.6746C210.059 32.4467 209.687 32.1376 209.421 31.747C209.166 31.3456 209.039 30.8954 209.039 30.3964C209.039 29.9082 209.151 29.4689 209.374 29.0783C209.607 28.6878 209.984 28.3786 210.505 28.1508C211.025 27.923 211.715 27.8091 212.576 27.8091H215.045V29.1597H212.719C212.039 29.1597 211.583 29.2736 211.349 29.5014C211.115 29.7184 210.998 29.9896 210.998 30.315C210.998 30.6839 211.142 30.9768 211.429 31.1937C211.715 31.4107 212.114 31.5192 212.623 31.5192C213.112 31.5192 213.547 31.4053 213.93 31.1775C214.323 30.9497 214.604 30.6134 214.774 30.1686L215.108 31.389C214.917 31.8989 214.572 32.2949 214.073 32.5769C213.584 32.859 212.963 33 212.209 33Z" fill="#000066"/>
<path d="M224.148 24.0989C224.827 24.0989 225.433 24.2345 225.964 24.5057C226.505 24.7769 226.93 25.1946 227.238 25.7587C227.546 26.312 227.7 27.028 227.7 27.9067V32.8861H225.709V28.167C225.709 27.3968 225.528 26.8218 225.167 26.4422C224.817 26.0625 224.323 25.8726 223.686 25.8726C223.218 25.8726 222.804 25.9703 222.443 26.1655C222.082 26.3608 221.801 26.6537 221.599 27.0442C221.408 27.4239 221.312 27.9067 221.312 28.4925V32.8861H219.321V24.1965H221.216V26.5398L220.882 25.8238C221.179 25.2705 221.609 24.8474 222.172 24.5545C222.746 24.2508 223.404 24.0989 224.148 24.0989Z" fill="#000066"/>
<path d="M234.145 33C233.252 33 232.456 32.8102 231.755 32.4305C231.065 32.0399 230.523 31.5083 230.13 30.8357C229.737 30.1632 229.541 29.3983 229.541 28.5413C229.541 27.6734 229.737 26.9086 230.13 26.2469C230.523 25.5743 231.065 25.0481 231.755 24.6684C232.456 24.2888 233.252 24.0989 234.145 24.0989C234.973 24.0989 235.7 24.2725 236.327 24.6196C236.964 24.9559 237.447 25.455 237.777 26.1167L236.247 27.028C235.992 26.6157 235.679 26.312 235.307 26.1167C234.946 25.9214 234.553 25.8238 234.129 25.8238C233.64 25.8238 233.199 25.9323 232.806 26.1493C232.414 26.3662 232.106 26.6808 231.882 27.0931C231.659 27.4944 231.548 27.9772 231.548 28.5413C231.548 29.1054 231.659 29.5936 231.882 30.0058C232.106 30.4072 232.414 30.7164 232.806 30.9334C233.199 31.1504 233.64 31.2588 234.129 31.2588C234.553 31.2588 234.946 31.1612 235.307 30.9659C235.679 30.7707 235.992 30.4669 236.247 30.0547L237.777 30.9659C237.447 31.6168 236.964 32.1213 236.327 32.4793C235.7 32.8264 234.973 33 234.145 33Z" fill="#000066"/>
<path d="M243.372 33C242.427 33 241.598 32.8102 240.887 32.4305C240.186 32.0399 239.639 31.5083 239.246 30.8357C238.864 30.1632 238.673 29.3983 238.673 28.5413C238.673 27.6734 238.858 26.9086 239.23 26.2469C239.613 25.5743 240.133 25.0481 240.791 24.6684C241.46 24.2888 242.22 24.0989 243.069 24.0989C243.898 24.0989 244.636 24.2833 245.284 24.6522C245.932 25.021 246.441 25.5417 246.813 26.2143C247.185 26.8869 247.371 27.6789 247.371 28.5901C247.371 28.6769 247.365 28.7746 247.355 28.883C247.355 28.9915 247.349 29.0946 247.339 29.1922H240.25V27.8416H246.287L245.507 28.2647C245.517 27.7657 245.416 27.3263 245.204 26.9466C244.992 26.5669 244.7 26.2686 244.328 26.0516C243.967 25.8346 243.547 25.7262 243.069 25.7262C242.581 25.7262 242.151 25.8346 241.779 26.0516C241.418 26.2686 241.131 26.5723 240.919 26.9629C240.717 27.3426 240.616 27.7928 240.616 28.3135V28.639C240.616 29.1597 240.733 29.6207 240.967 30.0221C241.2 30.4235 241.529 30.7327 241.954 30.9497C242.379 31.1666 242.868 31.2751 243.42 31.2751C243.898 31.2751 244.328 31.1992 244.71 31.0473C245.093 30.8954 245.432 30.6568 245.73 30.3313L246.797 31.5843C246.415 32.0399 245.932 32.3925 245.347 32.642C244.774 32.8807 244.115 33 243.372 33Z" fill="#000066"/>
</svg>
