<svg width="159" height="34" viewBox="0 0 159 34" fill="none" xmlns="http://www.w3.org/2000/svg">
<path d="M40.8076 0.688575C40.8076 0.481742 40.9772 0.312744 41.1847 0.312744H46.0899C48.1577 0.312744 51.1696 0.514533 53.1489 3.18066C54.3638 4.70416 54.8573 6.54044 54.8573 8.5785C54.8573 13.26 52.3845 16.8897 46.3379 16.8897H41.1847C40.9772 16.8897 40.8076 16.7207 40.8076 16.5138V0.688575ZM44.1562 13.5803C44.1562 13.7872 44.3257 13.9562 44.5333 13.9562H46.5176C50.1142 13.9562 51.5088 11.6053 51.5088 8.6239C51.5088 7.32489 51.1722 5.93507 50.385 4.90595C49.689 4.01052 48.5652 3.24877 46.5404 3.24877H44.5333C44.3257 3.24877 44.1562 3.41776 44.1562 3.6246V13.5803Z" fill="#08A5B5"/>
<path d="M56.5176 8.73744C56.5176 3.42788 60.6102 0 65.2395 0C70.2737 0 73.9842 3.89704 73.9842 8.60123C73.9842 13.3054 70.299 17.2025 65.2167 17.2025C60.1344 17.2025 56.5176 13.1919 56.5176 8.75762V8.73491V8.73744ZM59.8661 8.60375C59.8661 11.6281 62.0453 14.2715 65.2825 14.2715C68.5197 14.2715 70.6331 11.3582 70.6331 8.62645C70.6331 5.89474 68.6538 2.93602 65.2597 2.93602C61.8656 2.93602 59.8661 5.66773 59.8661 8.58105V8.60375Z" fill="#08A5B5"/>
<path d="M92.0048 11.3355C92.2654 11.3355 92.4502 11.5953 92.3591 11.8399C91.1923 15.0004 88.0842 17.205 84.3889 17.205C79.3091 17.205 75.667 13.1944 75.667 8.58105C75.667 3.96766 79.1067 0 84.3661 0C88.8359 0.0201788 91.5036 3.08736 92.3667 5.4609C92.4553 5.70304 92.268 5.9578 92.0098 5.9578H89.2307C89.0915 5.9578 88.9625 5.88213 88.8992 5.75601C88.3069 4.60834 86.8465 2.95368 84.3433 2.9335C81.1062 2.9335 79.0155 5.64503 79.0155 8.57853C79.0155 11.512 81.1947 14.269 84.3661 14.269C87.0819 14.269 88.4436 12.3167 88.8941 11.5221C88.9599 11.4061 89.084 11.3355 89.2206 11.3355H92.0048Z" fill="#08A5B5"/>
<path d="M97.0448 3.24877H93.4482V0.312744H103.967V3.24877H100.393V16.8897H97.0448V3.24877Z" fill="#08A5B5"/>
<path d="M104.124 8.73744C104.124 3.42788 108.214 0 112.846 0C117.88 0 121.591 3.89704 121.591 8.60123C121.591 13.3054 117.905 17.2025 112.823 17.2025C107.741 17.2025 104.124 13.1919 104.124 8.75762V8.73491V8.73744ZM107.473 8.60375C107.473 11.6281 109.652 14.2715 112.889 14.2715C116.126 14.2715 118.24 11.3582 118.24 8.62645C118.24 5.89474 116.26 2.93602 112.866 2.93602C109.472 2.93602 107.473 5.66773 107.473 8.58105V8.60375Z" fill="#08A5B5"/>
<path d="M123.924 0.688575C123.924 0.481742 124.093 0.312744 124.301 0.312744H128.961C131.545 0.312744 133.028 0.716321 133.929 1.36457C135.301 2.35081 136.042 4.03069 136.042 5.86697C136.042 7.0777 135.706 8.15222 135.144 8.95938C134.529 9.85986 133.752 10.3341 132.866 10.6191C132.633 10.6948 132.529 10.9621 132.656 11.169L135.769 16.3196C135.921 16.5693 135.739 16.8871 135.448 16.8871H132.823C132.689 16.8871 132.565 16.8165 132.496 16.7005L128.459 9.74383C128.315 9.49411 128.495 9.18134 128.786 9.18134C129.887 9.18134 131.079 9.11324 131.775 8.57598C132.428 8.03872 132.83 7.16598 132.83 6.15704C132.83 5.1481 132.337 4.22996 131.595 3.7608C130.988 3.37993 130.181 3.24624 129.236 3.24624H127.657C127.45 3.24624 127.28 3.41524 127.28 3.62207V16.5138C127.28 16.7207 127.11 16.8897 126.903 16.8897H124.306C124.098 16.8897 123.929 16.7207 123.929 16.5138V0.688575H123.924Z" fill="#08A5B5"/>
<path d="M42.6044 29.0146C42.7765 29.0146 42.9208 29.1433 42.9411 29.3123C43.1537 31.0754 44.4116 31.4235 45.0266 31.4235C46.1833 31.4235 47.0768 30.4927 47.0768 29.4409C47.0768 28.1646 46.0011 27.8417 43.9079 27.0119C42.7715 26.6083 40.1519 25.675 40.1519 22.8424C40.1519 20.0098 42.6905 18.4106 45.1279 18.4106C47.0413 18.4106 49.5546 19.3843 49.8558 22.4086C49.8761 22.6078 49.7191 22.7844 49.5167 22.7844H47.1755C47.0185 22.7844 46.8793 22.6759 46.8439 22.5221C46.6946 21.8385 46.3326 20.9431 45.0266 20.9431C44.0319 20.9431 43.179 21.6317 43.179 22.6432C43.1587 23.7555 43.9712 24.0405 46.5098 25.0924C48.8054 26.0836 50.0836 27.1758 50.0836 29.3022C50.0836 31.711 48.6004 33.9559 45.0671 33.9559C41.7996 33.9559 40.0405 32.0793 39.9165 29.3778C39.9064 29.1836 40.0608 29.0171 40.2556 29.0171H42.6044V29.0146Z" fill="#132766"/>
<path d="M52.0732 33.3303V19.0311C52.0732 18.8445 52.2251 18.6931 52.4124 18.6931H54.7587C54.946 18.6931 55.0978 18.8445 55.0978 19.0311V24.3659C55.0978 24.5525 55.2497 24.7039 55.437 24.7039H60.5446C60.7319 24.7039 60.8837 24.5525 60.8837 24.3659V19.0311C60.8837 18.8445 61.0356 18.6931 61.2229 18.6931H63.5692C63.7565 18.6931 63.9083 18.8445 63.9083 19.0311V33.3303C63.9083 33.517 63.7565 33.6683 63.5692 33.6683H61.2229C61.0356 33.6683 60.8837 33.517 60.8837 33.3303V27.6929C60.8837 27.5062 60.7319 27.3549 60.5446 27.3549H55.437C55.2497 27.3549 55.0978 27.5062 55.0978 27.6929V33.3303C55.0978 33.517 54.946 33.6683 54.7587 33.6683H52.4124C52.2251 33.6683 52.0732 33.517 52.0732 33.3303Z" fill="#132766"/>
<path d="M67.0745 18.6931H69.4208C69.6081 18.6931 69.7599 18.8445 69.7599 19.0311V33.3303C69.7599 33.517 69.6081 33.6683 69.4208 33.6683H67.0745C66.8872 33.6683 66.7354 33.517 66.7354 33.3303V19.0311C66.7354 18.8445 66.8872 18.6931 67.0745 18.6931Z" fill="#132766"/>
<path d="M72.9212 18.6931H80.6687C80.856 18.6931 81.0078 18.8445 81.0078 19.0311V21.0061C81.0078 21.1928 80.856 21.3441 80.6687 21.3441H75.9458C75.7585 21.3441 75.6066 21.4955 75.6066 21.6821V24.4062C75.6066 24.5929 75.7585 24.7442 75.9458 24.7442H80.5674C80.7547 24.7442 80.9066 24.8956 80.9066 25.0822V27.0572C80.9066 27.2439 80.7547 27.3952 80.5674 27.3952H75.9458C75.7585 27.3952 75.6066 27.5466 75.6066 27.7332V30.6793C75.6066 30.866 75.7585 31.0173 75.9458 31.0173H80.6687C80.856 31.0173 81.0078 31.1687 81.0078 31.3553V33.3303C81.0078 33.517 80.856 33.6683 80.6687 33.6683H72.9212C72.7339 33.6683 72.582 33.517 72.582 33.3303V19.0311C72.582 18.8445 72.7339 18.6931 72.9212 18.6931Z" fill="#132766"/>
<path d="M83.8065 18.6931H86.1528C86.3401 18.6931 86.492 18.8445 86.492 19.0311V30.6793C86.492 30.866 86.6438 31.0173 86.8311 31.0173H91.0858C91.2731 31.0173 91.4249 31.1687 91.4249 31.3553V33.3303C91.4249 33.517 91.2731 33.6683 91.0858 33.6683H83.804C83.6167 33.6683 83.4648 33.517 83.4648 33.3303V19.0311C83.4648 18.8445 83.6167 18.6931 83.804 18.6931H83.8065Z" fill="#132766"/>
<path d="M92.9693 19.0311C92.9693 18.8445 93.1212 18.6931 93.3085 18.6931H97.7403C99.6082 18.6931 102.329 18.8747 104.116 21.2836C105.212 22.6608 105.66 24.3205 105.66 26.1618C105.66 30.3918 103.425 33.6709 97.963 33.6709H93.306C93.1187 33.6709 92.9668 33.5195 92.9668 33.3329V19.0336L92.9693 19.0311ZM95.9964 30.6793C95.9964 30.866 96.1483 31.0173 96.3356 31.0173H98.1276C101.377 31.0173 102.635 28.8935 102.635 26.1996C102.635 25.0267 102.332 23.7706 101.62 22.8399C100.99 22.0302 99.9752 21.3416 98.1478 21.3416H96.3356C96.1483 21.3416 95.9964 21.4929 95.9964 21.6796V30.6768V30.6793Z" fill="#132766"/>
<path d="M15.5228 16.2589C15.5228 17.3737 15.4237 18.0364 15.1969 18.5587C14.9856 18.9953 14.5736 19.4475 14.1486 19.7151C13.5384 20.1231 12.8161 20.3076 12.1512 20.3076C11.6974 20.3076 9.36102 20.1517 8.92294 17.7817C8.88122 17.5712 8.86558 17.3295 8.85254 17.0905H11.1055C11.1055 17.1892 11.1186 17.275 11.1342 17.3737C11.2907 18.052 11.7157 18.46 12.2529 18.46C12.8344 18.447 13.1447 18.1351 13.2724 17.7817C13.4002 17.4569 13.4133 17.0905 13.4133 16.7656V9.66602H15.5228V16.2589Z" fill="#132766"/>
<path d="M24.9568 20.1101H23.1002V18.9953C22.6047 19.8996 21.5695 20.3492 20.4795 20.3492C17.9866 20.3492 16.5264 18.4157 16.5264 16.2277C16.5264 13.7849 18.2969 12.1191 20.4795 12.1191C21.8954 12.1191 22.7612 12.8676 23.1002 13.4886V12.3582H24.9568V20.1075V20.1101ZM18.3856 16.2718C18.3856 17.2307 19.0792 18.6288 20.7507 18.6288C21.7833 18.6288 22.4639 18.0935 22.8185 17.3867C23.0037 17.0488 23.0871 16.6798 23.1158 16.3004C23.1288 15.934 23.0584 15.552 22.902 15.2142C22.576 14.4813 21.8537 13.8447 20.7351 13.8447C19.2331 13.8447 18.383 15.0582 18.383 16.2588V16.2718H18.3856Z" fill="#132766"/>
<path d="M35.3984 6.12646C35.3984 6.12646 32.6004 22.9373 15.9951 30.6892L19.0538 32.8669C19.0538 32.8669 34.5248 25.5516 35.3984 6.12646Z" fill="#132766"/>
<path d="M3.14739 6.12646C3.14739 6.12646 3.3221 24.1561 16.3445 33.9999C16.3445 33.9999 1.66105 26.7704 0 8.13005L3.14739 6.12646Z" fill="#132766"/>
<path d="M1.13672 3.94884C1.13672 3.94884 15.6455 -4.93605 32.6888 3.94884V7.7819C32.6888 7.7819 20.1019 -2.06191 1.13672 3.94884Z" fill="#08A5B5"/>
<rect x="109" y="23.967" width="50" height="9.9863" rx="2" fill="#000066"/>
<path d="M119.008 26.0716L117.174 30.0744L117.017 30.4293L116.876 30.0744L115.041 26.0716H114V31.8488H114.926V27.8378L115.083 28.3082L116.636 31.8488H117.405L118.967 28.3082L119.132 27.8378V31.8488H120.058V26.0716H119.008Z" fill="white"/>
<path d="M123.09 26.0716L120.8 31.8488H121.817L122.362 30.4376H124.8L125.354 31.8488H126.371L124.081 26.0716H123.09ZM123.685 27.5407L124.503 29.604H122.668L123.47 27.5407L123.577 27.2271L123.685 27.5407Z" fill="white"/>
<path d="M127.115 26.0716V31.8488H130.545V30.9823H128.04V26.0716H127.115Z" fill="white"/>
<path d="M133.154 26.0716L130.865 31.8488H131.881L132.427 30.4376H134.865L135.418 31.8488H136.435L134.146 26.0716H133.154ZM133.749 27.5407L134.567 29.604H132.732L133.534 27.5407L133.641 27.2271L133.749 27.5407Z" fill="white"/>
<path d="M139.94 26.0716L138.519 28.3082L138.304 28.6961L138.097 28.3082L136.684 26.0716H135.601L137.841 29.6783V31.8488H138.783V29.6783L141.023 26.0716H139.94Z" fill="white"/>
<path d="M143.205 25.9644C142.668 25.9644 142.246 26.1212 141.932 26.4348C141.618 26.7402 141.461 27.1363 141.461 27.6232C141.461 28.0772 141.594 28.432 141.85 28.6879C142.114 28.9437 142.519 29.1666 143.073 29.3564C143.899 29.6287 144.205 29.8763 144.205 30.3138C144.205 30.8089 143.875 31.1391 143.288 31.1391C142.635 31.1391 142.271 30.7759 142.246 30.1157H141.313C141.337 31.2381 142.032 31.9561 143.28 31.9561C143.825 31.9561 144.271 31.8076 144.618 31.5022C144.965 31.1968 145.139 30.7759 145.139 30.2477C145.139 29.8186 145.015 29.4719 144.759 29.2161C144.511 28.952 144.089 28.7127 143.486 28.5063C143.073 28.3495 142.784 28.2092 142.627 28.0854C142.47 27.9616 142.395 27.7883 142.395 27.549C142.395 27.0785 142.693 26.7897 143.18 26.7897C143.676 26.7897 144.007 27.1033 144.015 27.6397H144.957C144.916 26.5503 144.263 25.9644 143.205 25.9644Z" fill="white"/>
<path d="M146.057 26.0716V31.8488H146.983V26.0716H146.057Z" fill="white"/>
<path d="M150.022 26.0716L147.732 31.8488H148.749L149.294 30.4376H151.732L152.286 31.8488H153.303L151.013 26.0716H150.022ZM150.617 27.5407L151.435 29.604H149.6L150.402 27.5407L150.509 27.2271L150.617 27.5407Z" fill="white"/>
</svg>
