<svg width="176" height="142" viewBox="0 0 176 142" fill="none" xmlns="http://www.w3.org/2000/svg">
<ellipse cx="64" cy="78.9697" rx="64" ry="63.0303" fill="#FFECCE"/>
<mask id="mask0_1117_1028" style="mask-type:alpha" maskUnits="userSpaceOnUse" x="0" y="15" width="128" height="127">
<ellipse cx="64" cy="78.9697" rx="64" ry="63.0303" fill="#C4C5C8"/>
</mask>
<g mask="url(#mask0_1117_1028)">
<g filter="url(#filter0_d_1117_1028)">
<rect x="27" y="48" width="81" height="93.5606" rx="4" fill="white"/>
</g>
<path d="M57.1564 85.7133C56.3133 86.6253 55.1924 87.1279 54.0001 87.1279C52.808 87.1279 51.6874 86.6256 50.8441 85.7133C49.9646 84.7622 48.5392 84.7622 47.6595 85.7133C46.7802 86.6646 46.7802 88.2071 47.6595 89.1586C49.3532 90.9907 51.6049 92 53.9999 92C56.395 92 58.6468 90.9907 60.3405 89.1586C61.2198 88.2073 61.2198 86.6648 60.3405 85.7133C59.4615 84.7622 58.0359 84.7622 57.1564 85.7133Z" fill="#FFA34E"/>
<path d="M82.0002 92C84.3953 92 86.6469 90.9907 88.3406 89.1586C89.2198 88.2073 89.2198 86.6648 88.3406 85.7133C87.4611 84.7622 86.0358 84.7622 85.1561 85.7133C84.3131 86.6253 83.1922 87.1279 82 87.1279C80.8078 87.1279 79.6871 86.6256 78.8439 85.7133C77.9644 84.7622 76.5392 84.7622 75.6594 85.7133C74.7802 86.6646 74.7802 88.2071 75.6594 89.1586C77.3538 90.9907 79.6054 92 82.0002 92Z" fill="#FFA34E"/>
<path d="M70.9274 100H65.0726C63.9281 100 63 101.12 63 102.5C63 103.88 63.9281 105 65.0726 105H70.9274C72.0719 105 73 103.88 73 102.5C73 101.12 72.0719 100 70.9274 100Z" fill="#FFA34E"/>
<path d="M56.8521 50.8291C56.615 50.3209 56.1303 50 55.6 50H51.4C50.6269 50 50 50.6717 50 51.5C50 52.3283 50.6269 53 51.4 53H52.8L50.28 56.6C49.9619 57.0545 49.9106 57.6626 50.1479 58.171C50.385 58.6792 50.8697 59 51.4 59H55.6C56.3731 59 57 58.3283 57 57.5C57 56.6717 56.3731 56 55.6 56H54.2L56.72 52.4C57.0381 51.9454 57.0894 51.3374 56.8521 50.8291Z" fill="#FFA34E"/>
<path d="M43.5 41.7273H40.5L44.7 35.6182C45.0408 35.1224 45.0958 34.459 44.8416 33.9044C44.5875 33.35 44.0682 33 43.5 33H37.5C36.6717 33 36 33.7328 36 34.6364C36 35.54 36.6717 36.2727 37.5 36.2727H40.5L36.3 42.3818C35.9592 42.8776 35.9042 43.541 36.1584 44.0954C36.4125 44.65 36.9318 45 37.5 45H43.5C44.3283 45 45 44.2672 45 43.3636C45 42.46 44.3283 41.7273 43.5 41.7273Z" fill="#FFA34E"/>
</g>
<g filter="url(#filter1_f_1117_1028)">
<ellipse cx="115.911" cy="59.337" rx="19.2" ry="19.0761" fill="#FFA34E"/>
</g>
<ellipse cx="115.911" cy="59.3369" rx="27.7333" ry="27.5543" fill="#FFA34E"/>
<ellipse cx="115.699" cy="59.1275" rx="25.1499" ry="24.9876" fill="white"/>
<ellipse cx="116.664" cy="60.085" rx="23.6081" ry="23.4558" fill="#FFA34E"/>
<path fill-rule="evenodd" clip-rule="evenodd" d="M113.128 52.1429C113.083 50.2006 113.819 48.7856 114.96 47.9549C116.751 46.6519 119.425 46.7068 120.877 48.3214C121.502 49.0156 121.863 49.997 121.874 51.239C121.898 54.2156 120.481 55.9564 119.097 57.7603C117.232 60.1892 115.369 62.6853 115.137 66.853C115.076 67.9749 115.948 68.9359 117.085 68.9969C118.222 69.058 119.196 68.1968 119.258 67.075C119.433 63.909 120.968 62.0644 122.385 60.2198C124.283 57.7501 126.033 55.2865 126 51.2064C125.979 48.808 125.168 46.9573 123.964 45.6176C121.147 42.4882 115.979 42.1523 112.511 44.6769C110.431 46.1917 108.919 48.7001 109.004 52.2386C109.031 53.3625 109.976 54.2522 111.114 54.2258C112.253 54.1993 113.155 53.2668 113.128 52.1429Z" fill="white"/>
<path d="M117.5 76C118.881 76 120 74.8807 120 73.5C120 72.1193 118.881 71 117.5 71C116.12 71 115 72.1193 115 73.5C115 74.8807 116.12 76 117.5 76Z" fill="white"/>
<path fill-rule="evenodd" clip-rule="evenodd" d="M22.2167 38.6217L26.2167 43.6537C26.5607 44.0857 27.1897 44.1577 27.6217 43.8147C28.0537 43.4717 28.1257 42.8417 27.7827 42.4097L23.7827 37.3777C23.4387 36.9457 22.8097 36.8737 22.3777 37.2167C21.9457 37.5607 21.8737 38.1897 22.2167 38.6217Z" fill="#FFA34E"/>
<path fill-rule="evenodd" clip-rule="evenodd" d="M11.502 41.1247L21.954 47.1247C22.432 47.3997 23.044 47.2347 23.319 46.7557C23.594 46.2767 23.428 45.6657 22.949 45.3907L12.498 39.3907C12.019 39.1157 11.408 39.2807 11.133 39.7597C10.858 40.2387 11.023 40.8497 11.502 41.1247Z" fill="#FFA34E"/>
<path fill-rule="evenodd" clip-rule="evenodd" d="M13 52.2576H20C20.552 52.2576 21 51.8096 21 51.2576C21 50.7056 20.552 50.2576 20 50.2576H13C12.448 50.2576 12 50.7056 12 51.2576C12 51.8096 12.448 52.2576 13 52.2576Z" fill="#FFA34E"/>
<defs>
<filter id="filter0_d_1117_1028" x="6" y="31" width="123" height="135.561" filterUnits="userSpaceOnUse" color-interpolation-filters="sRGB">
<feFlood flood-opacity="0" result="BackgroundImageFix"/>
<feColorMatrix in="SourceAlpha" type="matrix" values="0 0 0 0 0 0 0 0 0 0 0 0 0 0 0 0 0 0 127 0" result="hardAlpha"/>
<feOffset dy="4"/>
<feGaussianBlur stdDeviation="10.5"/>
<feComposite in2="hardAlpha" operator="out"/>
<feColorMatrix type="matrix" values="0 0 0 0 0.454902 0 0 0 0 0.0745098 0 0 0 0 0.0764706 0 0 0 0.08 0"/>
<feBlend mode="normal" in2="BackgroundImageFix" result="effect1_dropShadow_1117_1028"/>
<feBlend mode="normal" in="SourceGraphic" in2="effect1_dropShadow_1117_1028" result="shape"/>
</filter>
<filter id="filter1_f_1117_1028" x="56.7111" y="0.260864" width="118.4" height="118.152" filterUnits="userSpaceOnUse" color-interpolation-filters="sRGB">
<feFlood flood-opacity="0" result="BackgroundImageFix"/>
<feBlend mode="normal" in="SourceGraphic" in2="BackgroundImageFix" result="shape"/>
<feGaussianBlur stdDeviation="20" result="effect1_foregroundBlur_1117_1028"/>
</filter>
</defs>
</svg>
