<svg width="176" height="142" viewBox="0 0 176 142" fill="none" xmlns="http://www.w3.org/2000/svg">
<ellipse cx="64" cy="78.9697" rx="64" ry="63.0303" fill="#B4EFF4"/>
<mask id="mask0_1117_1062" style="mask-type:alpha" maskUnits="userSpaceOnUse" x="0" y="15" width="128" height="127">
<ellipse cx="64" cy="78.9697" rx="64" ry="63.0303" fill="#C4C5C8"/>
</mask>
<g mask="url(#mask0_1117_1062)">
<g filter="url(#filter0_d_1117_1062)">
<rect x="27" y="48" width="81" height="93.5606" rx="4" fill="white"/>
</g>
<rect x="36" y="60" width="27" height="5.90909" rx="2.95454" fill="#00BDA0"/>
<rect x="36" y="69.8485" width="47" height="5.90909" rx="2.95454" fill="#E3E3E3"/>
<rect x="36" y="87.5758" width="27" height="5.90909" rx="2.95455" fill="#00BDA0"/>
<rect x="36" y="97.4243" width="47" height="5.90909" rx="2.95455" fill="#E3E3E3"/>
<rect x="36" y="115.152" width="27" height="5.90909" rx="2.95454" fill="#00BDA0"/>
<rect x="36" y="125" width="47" height="5.90909" rx="2.95454" fill="#E3E3E3"/>
</g>
<g filter="url(#filter1_f_1117_1062)">
<ellipse cx="115.911" cy="59.337" rx="19.2" ry="19.0761" fill="#FFA34E"/>
</g>
<ellipse cx="115.911" cy="59.3369" rx="27.7333" ry="27.5543" fill="#FFA34E"/>
<ellipse cx="115.699" cy="59.1275" rx="25.1499" ry="24.9876" fill="white"/>
<ellipse cx="116.664" cy="60.085" rx="23.6081" ry="23.4558" fill="#FFA34E"/>
<g clip-path="url(#clip0_1117_1062)">
<path d="M117 77C116.348 77.002 115.708 76.7996 115.165 76.4198C114.622 76.04 114.198 75.4989 113.948 74.8655C113.697 74.2322 113.631 73.5358 113.758 72.8623C113.885 72.1899 114.199 71.5716 114.661 71.0876C115.123 70.6026 115.71 70.2729 116.351 70.1397C116.991 70.0064 117.655 70.0755 118.258 70.3391C118.861 70.6026 119.375 71.0475 119.738 71.6177C120.1 72.1889 120.292 72.8593 120.29 73.5448C120.289 74.4607 119.941 75.3385 119.325 75.9859C118.708 76.6332 117.873 76.998 117 77Z" fill="white"/>
<path d="M120.993 48.4605L119.749 66.0974C119.741 66.2196 119.689 66.3339 119.604 66.417C119.52 66.5002 119.407 66.5463 119.291 66.5463H114.71C114.594 66.5463 114.482 66.5002 114.396 66.417C114.311 66.3339 114.26 66.2196 114.252 66.0974L113.008 48.4605C112.975 47.8883 113.053 47.3141 113.238 46.775C113.423 46.2358 113.712 45.7418 114.086 45.3239C114.46 44.9061 114.912 44.5734 115.413 44.3459C115.914 44.1184 116.454 44.0012 117 44.0012C117.547 44.0012 118.087 44.1184 118.588 44.3459C119.089 44.5734 119.541 44.9061 119.915 45.3239C120.289 45.7418 120.578 46.2358 120.763 46.775C120.948 47.3141 121.026 47.8883 120.993 48.4605Z" fill="white"/>
</g>
<path fill-rule="evenodd" clip-rule="evenodd" d="M22.2167 38.6217L26.2167 43.6537C26.5607 44.0857 27.1897 44.1577 27.6217 43.8147C28.0537 43.4717 28.1257 42.8417 27.7827 42.4097L23.7827 37.3777C23.4387 36.9457 22.8097 36.8737 22.3777 37.2167C21.9457 37.5607 21.8737 38.1897 22.2167 38.6217Z" fill="#FFA34E"/>
<path fill-rule="evenodd" clip-rule="evenodd" d="M11.502 41.1247L21.954 47.1247C22.432 47.3997 23.044 47.2347 23.319 46.7557C23.594 46.2767 23.428 45.6657 22.949 45.3907L12.498 39.3907C12.019 39.1157 11.408 39.2807 11.133 39.7597C10.858 40.2387 11.023 40.8497 11.502 41.1247Z" fill="#FFA34E"/>
<path fill-rule="evenodd" clip-rule="evenodd" d="M13 52.2576H20C20.552 52.2576 21 51.8096 21 51.2576C21 50.7056 20.552 50.2576 20 50.2576H13C12.448 50.2576 12 50.7056 12 51.2576C12 51.8096 12.448 52.2576 13 52.2576Z" fill="#FFA34E"/>
<defs>
<filter id="filter0_d_1117_1062" x="6" y="31" width="123" height="135.561" filterUnits="userSpaceOnUse" color-interpolation-filters="sRGB">
<feFlood flood-opacity="0" result="BackgroundImageFix"/>
<feColorMatrix in="SourceAlpha" type="matrix" values="0 0 0 0 0 0 0 0 0 0 0 0 0 0 0 0 0 0 127 0" result="hardAlpha"/>
<feOffset dy="4"/>
<feGaussianBlur stdDeviation="10.5"/>
<feComposite in2="hardAlpha" operator="out"/>
<feColorMatrix type="matrix" values="0 0 0 0 0.454902 0 0 0 0 0.0745098 0 0 0 0 0.0764706 0 0 0 0.08 0"/>
<feBlend mode="normal" in2="BackgroundImageFix" result="effect1_dropShadow_1117_1062"/>
<feBlend mode="normal" in="SourceGraphic" in2="effect1_dropShadow_1117_1062" result="shape"/>
</filter>
<filter id="filter1_f_1117_1062" x="56.7111" y="0.260864" width="118.4" height="118.152" filterUnits="userSpaceOnUse" color-interpolation-filters="sRGB">
<feFlood flood-opacity="0" result="BackgroundImageFix"/>
<feBlend mode="normal" in="SourceGraphic" in2="BackgroundImageFix" result="shape"/>
<feGaussianBlur stdDeviation="20" result="effect1_foregroundBlur_1117_1062"/>
</filter>
<clipPath id="clip0_1117_1062">
<rect width="8" height="33" fill="white" transform="translate(113 44)"/>
</clipPath>
</defs>
</svg>
