<svg width="80" height="80" viewBox="0 0 80 80" fill="none" xmlns="http://www.w3.org/2000/svg">
<path d="M17.4168 32.078C17.379 32.8955 16.6854 33.5277 15.8678 33.4897C15.0503 33.4518 14.4181 32.7583 14.4561 31.9407C14.494 31.123 15.1875 30.491 16.0051 30.5289C16.8226 30.5669 17.4546 31.2605 17.4168 32.078ZM76.5618 56.7357L72.1146 58.4597C71.7087 58.6171 71.2907 58.6916 70.8795 58.6916C69.5048 58.6916 68.2051 57.8589 67.6792 56.5024L67.2912 55.5018L63.6718 57.0119C63.8464 58.0372 63.6786 59.103 63.1695 60.0288C62.5656 61.1269 61.5653 61.9229 60.3531 62.2697C60.3032 62.2841 60.2531 62.2975 60.2029 62.3102C60.5989 63.5032 60.5196 64.8466 59.8732 66.0218C58.9193 67.7564 57.0168 68.6458 55.1625 68.3999C55.2179 69.2536 55.0407 70.1297 54.6015 70.9282C53.9993 72.0232 53.0028 72.8175 51.7957 73.1649C51.0412 73.3821 50.264 73.4069 49.522 73.2457C49.5461 74.0504 49.3634 74.8696 48.9501 75.6211C48.3478 76.7163 47.3086 77.5388 46.0995 77.8777C45.6818 77.9949 45.2584 78.0527 44.839 78.0527C44.0537 78.0527 43.282 77.8496 42.5879 77.4508L41.362 76.7468C40.754 77.6025 39.8839 78.2316 38.8581 78.5424C38.3981 78.6818 37.9282 78.7508 37.4615 78.7508C36.6884 78.7508 35.9236 78.5611 35.2248 78.1874C34.1879 77.6328 33.4228 76.738 33.0218 75.6936C31.727 76.2443 30.2082 76.2189 28.8965 75.5175C27.9676 75.0207 27.2531 74.2411 26.8264 73.3246C25.4617 74.0635 23.7661 74.1271 22.3021 73.3441C20.4715 72.3649 19.5387 70.3547 19.8362 68.4105C19.0311 68.4289 18.2218 68.2458 17.484 67.8511C16.3636 67.2519 15.5425 66.2486 15.172 65.0261C14.8015 63.8036 14.9276 62.5133 15.5268 61.3929L16.7237 59.155C16.4562 58.5189 16.3243 57.8238 16.1979 57.1443C15.9687 55.9116 15.7903 55.148 15.2453 54.9364C15.0307 54.8533 14.522 54.6416 12.6568 53.8102L12.1761 54.898C11.8068 55.7333 11.1323 56.3758 10.2768 56.7069C9.87355 56.863 9.45324 56.9408 9.03433 56.9408C8.56449 56.9408 8.09621 56.843 7.65465 56.6479L3.29215 54.7197C1.5634 53.9554 0.778396 51.9271 1.54246 50.1983L11.5579 27.5364C11.9271 26.7011 12.6018 26.0588 13.4573 25.7277C14.3132 25.3966 15.2445 25.4177 16.0795 25.7869L20.4418 27.715C21.2771 28.0843 21.9196 28.7588 22.2506 29.6143C22.5817 30.4699 22.5606 31.4011 22.1915 32.2364L21.4403 33.9361L24.2798 35.2461C24.3101 35.2602 24.34 35.2753 24.369 35.2918C25.2067 35.7632 26.065 35.8696 26.999 35.7941C23.9682 32.2027 22.3217 27.6788 22.3217 22.8235V9.53957C22.3217 9.03957 22.6196 8.5877 23.0793 8.39066L39.5076 1.35004C39.822 1.21535 40.1781 1.21535 40.4925 1.35004L56.9209 8.39066C57.3804 8.58754 57.6786 9.03957 57.6786 9.53957V22.8235C57.6786 27.8079 55.9411 32.4482 52.751 36.0847C54.5357 36.7677 55.7751 37.0847 56.929 36.4844L59.405 35.1591L58.7235 33.4011C58.0403 31.6388 58.9182 29.6489 60.6807 28.9657L65.1278 27.2416C66.8895 26.5585 68.8801 27.4363 69.5634 29.1988L78.519 52.3C79.2023 54.0625 78.3242 56.0522 76.5618 56.7357ZM24.8218 22.8233C24.8218 27.573 26.6148 31.9571 29.8831 35.2433C30.5976 35.0768 31.3545 34.9077 32.1525 34.7924C28.732 31.8544 26.6968 27.6049 26.6968 22.8233V12.4244C26.6968 11.9244 26.9948 11.4724 27.4545 11.2755L39.5078 6.10988C39.8221 5.9752 40.1782 5.9752 40.4926 6.10988L52.5461 11.2755C53.0056 11.4725 53.3037 11.9244 53.3037 12.4244V22.8233C53.3037 27.3866 51.4271 31.5572 48.1556 34.5188C48.8867 34.6755 49.5812 34.8871 50.2404 35.1186C53.4301 31.8468 55.1787 27.5107 55.1787 22.8235V10.3638L40.0001 3.85895L24.8218 10.3638V22.8233ZM44.1381 34.3693C48.3761 31.9136 50.8034 27.7169 50.8034 22.8233V13.2488L40.0001 8.61879L29.1968 13.2486V22.8233C29.1968 29.146 33.4473 34.371 39.8211 35.9611C41.3606 35.0597 42.7975 34.5738 44.1381 34.3693ZM19.905 31.2257C20.0043 31.001 20.0093 30.7491 19.9193 30.5163C19.8292 30.2835 19.6559 30.1007 19.4314 30.0014L15.0689 28.0733C14.6015 27.8671 14.0515 28.0788 13.8446 28.5471L3.82855 51.2086C3.62168 51.6768 3.83418 52.226 4.3023 52.4329L8.6648 54.3608C8.88949 54.4602 9.14136 54.4652 9.37402 54.375C9.60668 54.2849 9.78965 54.1116 9.88886 53.8871L19.905 31.2257ZM21.1303 65.4333L23.9873 60.4885C24.4571 59.4074 24.0201 58.1368 22.9779 57.5805C21.872 56.9903 20.4926 57.408 19.9021 58.5118L17.7309 62.5718C17.4465 63.1033 17.3873 63.7175 17.564 64.3008C17.7409 64.8841 18.1311 65.3621 18.6626 65.6463C19.4546 66.07 20.4245 65.9803 21.1303 65.4333ZM26.5628 70.1943L29.7189 64.0821C29.9093 63.113 29.4395 62.0977 28.567 61.6321C27.7678 61.2054 26.7911 61.2991 26.0846 61.8558L22.549 68.0649C21.9584 69.1694 22.3764 70.5486 23.4811 71.1396C24.5843 71.7294 25.9665 71.3055 26.5628 70.1943ZM32.9512 72.686L35.7503 67.3061C35.94 66.3375 35.4701 65.3232 34.5982 64.8579C33.729 64.3938 32.6309 64.561 31.9317 65.2457L28.8826 71.1505C28.8229 72.0383 29.2862 72.8908 30.0753 73.3129C31.0565 73.8377 32.2796 73.5658 32.9512 72.686ZM39.4782 75.0511L41.5604 71.1577C41.9703 70.3913 41.8992 69.4389 41.3792 68.7318C41.1804 68.4613 40.9279 68.2432 40.6287 68.0832C39.7596 67.6188 38.6606 67.7868 37.9612 68.473L35.217 73.7475C35.1246 74.663 35.5865 75.546 36.4037 75.9828C36.9351 76.2671 37.5492 76.3263 38.1328 76.1496C38.7161 75.9729 39.194 75.5829 39.4782 75.0511ZM45.8998 71.4574C45.8325 71.4196 44.3007 70.5288 44.3007 70.5288C44.2445 71.1529 44.0687 71.7688 43.7651 72.3366L42.5756 74.561L43.8328 75.283C44.3109 75.5577 44.8764 75.6241 45.4246 75.4705C45.9918 75.3114 46.4784 74.9272 46.7595 74.4163C47.3336 73.3722 46.9479 72.045 45.8998 71.4574ZM61.019 56.8403C60.8204 56.431 60.505 56.0947 60.1068 55.8677L48.279 49.1261C46.2706 47.9811 43.7614 48.9971 40.8564 50.1732C38.6845 51.0524 36.2431 52.0404 33.7693 52.0407C31.3523 52.0408 28.9046 51.098 26.644 48.1894C26.3506 47.8127 26.2337 47.3268 26.3242 46.8575C26.4146 46.3882 26.7039 45.9804 27.1176 45.7388C30.4531 43.7922 33.2701 41.6672 35.4906 39.4233C36.0829 38.8247 36.6625 38.2904 37.2295 37.8125C34.6723 36.6907 32.4851 37.2014 30.1917 37.7386C27.925 38.2697 25.5817 38.8188 23.1892 37.496L20.4293 36.2228L13.6668 51.5233C15.3411 52.2694 15.9479 52.5275 16.1495 52.6057C17.8159 53.2525 18.2893 54.8443 18.5586 56.1819C20.0071 54.7591 22.2707 54.3691 24.155 55.3749C25.5507 56.1197 26.4317 57.4738 26.6323 58.9454C27.6721 58.7543 28.7704 58.9068 29.744 59.4266C30.914 60.051 31.7334 61.105 32.0804 62.3122C33.2754 61.9321 34.6054 62.0282 35.7751 62.6522C36.9451 63.2766 37.7645 64.3305 38.1115 65.5375C39.307 65.1571 40.6376 65.2532 41.807 65.8782C42.3654 66.1768 42.847 66.5728 43.2426 67.0572L49.4687 70.5814C49.9667 70.8582 50.5471 70.9224 51.1037 70.7622C51.667 70.6 52.1311 70.2311 52.4104 69.7232C52.9814 68.685 52.5929 67.3605 51.5443 66.7703C51.4759 66.7319 42.8067 61.8286 42.8067 61.8286C42.205 61.49 41.9917 60.7279 42.3303 60.1261C42.6689 59.5246 43.4309 59.3113 44.0326 59.6497L54.7361 65.6725C55.7839 66.2483 57.1059 65.8646 57.6821 64.8168C58.2532 63.7786 57.8646 62.4539 56.8161 61.8638C56.8157 61.8636 56.8154 61.8633 56.815 61.8632C54.3034 60.4564 51.4571 58.8622 48.6676 57.2653C48.0685 56.9224 47.8609 56.1586 48.2037 55.5596C48.5465 54.9605 49.31 54.7525 49.9096 55.0958C52.6904 56.6877 55.5325 58.2796 58.04 59.6841C58.5331 59.9602 59.11 60.025 59.6646 59.8663C60.2314 59.7041 60.6978 59.3339 60.9782 58.8241C61.3176 58.208 61.3321 57.485 61.019 56.8403ZM66.3871 53.17L60.3153 37.5074L58.0956 38.6955C55.6867 39.9488 53.3289 39.0102 51.0487 38.1028C47.2628 36.5958 43.3476 35.0379 37.2676 41.1821C35.0887 43.3841 32.3903 45.4683 29.2371 47.3863C32.4746 50.8699 35.9412 49.4661 39.9181 47.8561C43.1318 46.5549 46.4554 45.2096 49.5168 46.9544L61.3448 53.696C61.8303 53.9727 62.2578 54.3274 62.6129 54.7449L66.3871 53.17ZM76.1881 53.2036L67.2325 30.1024C67.0901 29.735 66.7381 29.5097 66.3659 29.5097C66.2545 29.5097 66.1412 29.5299 66.0312 29.5725L61.5843 31.2964C61.1071 31.4814 60.8695 32.0202 61.0543 32.4974L70.01 55.5988C70.195 56.076 70.734 56.3138 71.2111 56.1288L75.6582 54.4047C76.1354 54.2196 76.3729 53.6808 76.1881 53.2036ZM64.9823 31.9824C64.166 31.9824 63.5003 32.648 63.5003 33.4644C63.5003 34.2807 64.166 34.9464 64.9823 34.9464C65.7985 34.9464 66.4643 34.2807 66.4643 33.4644C66.4643 32.648 65.7985 31.9824 64.9823 31.9824ZM40.5307 28.4604C39.9157 29.0754 39.0981 29.4139 38.2282 29.4139C37.3586 29.4139 36.5407 29.0754 35.9259 28.4604L31.4806 24.015C30.2112 22.7455 30.2111 20.6797 31.4806 19.4102C32.0956 18.7952 32.9132 18.4566 33.7831 18.4566C34.6529 18.4566 35.4707 18.7952 36.0856 19.4102L38.2193 21.5441L43.9126 15.7943C44.5237 15.1771 45.339 14.8355 46.2081 14.8322H46.2207C47.0865 14.8322 47.9007 15.168 48.515 15.7788C49.7842 17.041 49.7911 19.1032 48.5301 20.3758C47.5395 21.3755 46.5514 22.3779 45.5632 23.3802C43.9182 25.0485 42.2171 26.7738 40.5307 28.4604ZM38.7629 26.6925C40.4432 25.0122 42.1411 23.2902 43.7829 21.6249C44.7726 20.6211 45.7621 19.6174 46.7543 18.6161C47.0467 18.321 47.0457 17.8435 46.7521 17.5514C46.609 17.4093 46.4189 17.3374 46.2176 17.3322C46.0173 17.333 45.8296 17.4116 45.689 17.5535L39.112 24.196C38.8781 24.4322 38.5595 24.5657 38.2268 24.5664C38.2259 24.5664 38.2248 24.5664 38.2237 24.5664C37.8921 24.5664 37.5743 24.4347 37.3398 24.2003L34.3176 21.1782C34.175 21.0354 33.985 20.9568 33.7829 20.9568C33.5809 20.9568 33.3909 21.0354 33.2482 21.1782C32.9534 21.473 32.9532 21.9528 33.2482 22.2475L37.6934 26.6927C37.8361 26.8355 38.0261 26.9141 38.2281 26.9141C38.4304 26.9139 38.6203 26.8353 38.7629 26.6925Z" fill="#132766"/>
</svg>
