<svg width="23" height="12" viewBox="0 0 23 12" fill="none" xmlns="http://www.w3.org/2000/svg">
<path d="M0.40918 12V0.363632H4.341C5.25009 0.363632 5.9963 0.518935 6.57963 0.829541C7.16297 1.13636 7.59479 1.55871 7.87509 2.09659C8.15539 2.63447 8.29554 3.24621 8.29554 3.93181C8.29554 4.61742 8.15539 5.22537 7.87509 5.75568C7.59479 6.28598 7.16486 6.70265 6.58532 7.00568C6.00577 7.30492 5.26524 7.45454 4.36373 7.45454H1.18191V6.18181H4.31827C4.93948 6.18181 5.43948 6.09091 5.81827 5.90909C6.20085 5.72727 6.47736 5.46969 6.64782 5.13636C6.82206 4.79924 6.90918 4.39772 6.90918 3.93181C6.90918 3.4659 6.82206 3.05871 6.64782 2.71022C6.47357 2.36174 6.19516 2.0928 5.81259 1.90341C5.43001 1.71022 4.92433 1.61363 4.29554 1.61363H1.81827V12H0.40918ZM5.88645 6.77272L8.75009 12H7.11373L4.29554 6.77272H5.88645Z" fill="#4A4A4A"/>
<path d="M10.6436 0.363632H12.3254L16.2799 10.0227H16.4163L20.3708 0.363632H22.0526V12H20.7345V3.15909H20.6208L16.9845 12H15.7117L12.0754 3.15909H11.9617V12H10.6436V0.363632Z" fill="#4A4A4A"/>
</svg>
