<svg width="256" height="256" viewBox="0 0 256 256" fill="none" xmlns="http://www.w3.org/2000/svg">
<rect width="256" height="256" fill="white"/>
<path d="M110.385 121.995C110.385 130.862 109.597 136.132 107.793 140.287C106.113 143.759 102.836 147.356 99.455 149.485C94.6019 152.73 88.8569 154.197 83.5682 154.197C79.9594 154.197 61.3763 152.957 57.892 134.107C57.5602 132.433 57.4357 130.51 57.332 128.609H75.2514C75.2514 129.394 75.3551 130.076 75.4796 130.862C76.724 136.256 80.1046 139.501 84.377 139.501C89.0021 139.398 91.4701 136.918 92.4864 134.107C93.5027 131.523 93.6064 128.609 93.6064 126.025V69.5576H110.385V121.995Z" fill="#132766"/>
<path d="M185.416 152.626H170.649V143.759C166.708 150.952 158.475 154.528 149.805 154.528C129.978 154.528 118.363 139.15 118.363 121.747C118.363 102.318 132.446 89.069 149.805 89.069C161.067 89.069 167.953 95.0216 170.649 99.9615V90.9705H185.416V152.605V152.626ZM133.151 122.098C133.151 129.725 138.668 140.845 151.962 140.845C160.175 140.845 165.588 136.587 168.409 130.965C169.882 128.278 170.545 125.343 170.773 122.325C170.877 119.411 170.317 116.373 169.073 113.686C166.48 107.857 160.735 102.793 151.838 102.793C139.891 102.793 133.13 112.446 133.13 121.995V122.098H133.151Z" fill="#132766"/>
<path d="M249.401 53.1248C249.401 53.1248 230.162 168.714 115.986 222.015L137.018 236.989C137.018 236.989 243.394 186.69 249.401 53.1248V53.1248Z" fill="#132766"/>
<path d="M27.6411 53.1248C27.6411 53.1248 28.8423 177.094 118.383 244.779C118.383 244.779 17.4212 195.07 6 66.9012L27.6411 53.1248V53.1248Z" fill="#132766"/>
<path d="M13.8164 38.1517C13.8164 38.1517 113.577 -22.9397 230.765 38.1517V64.5074C230.765 64.5074 144.219 -3.17744 13.8164 38.1517Z" fill="#08A5B5"/>
</svg>
