<svg width="200" height="161" viewBox="0 0 200 161" fill="none" xmlns="http://www.w3.org/2000/svg">
<g clip-path="url(#clip0_242_1661)">
<path d="M100 155C141.421 155 175 121.421 175 80C175 38.5786 141.421 5 100 5C58.5786 5 25 38.5786 25 80C25 121.421 58.5786 155 100 155Z" fill="white" stroke="#132766" stroke-width="3"/>
<path d="M98.0172 83.2854C98.4127 83.2854 101.587 83.2854 101.983 83.2854C110.208 83.2854 116.875 76.618 116.875 68.3932C116.875 64.0461 114.975 59.9152 111.675 57.0869C111.338 56.7969 108.641 54.4871 108.304 54.1971C110.102 52.7205 110.364 50.0662 108.887 48.2662C108.675 48.0096 108.432 47.7775 108.167 47.5754C108.411 47.3311 110.369 45.3729 110.615 45.1268C112.064 43.6783 112.064 41.3281 110.615 39.8797C107.859 37.1234 103.391 37.1234 100.635 39.8797C100.592 39.9219 100.381 40.1328 100 40.5143C99.6186 40.1328 99.4076 39.9219 99.3654 39.8797C96.6092 37.1234 92.1408 37.1234 89.3846 39.8797C87.9361 41.3281 87.9361 43.6783 89.3846 45.1268C89.6307 45.3729 91.5889 47.3311 91.8332 47.5754C89.9752 48.9764 89.6043 51.6184 91.0053 53.4764C91.2057 53.7436 91.4377 53.9861 91.6961 54.1971C91.3586 54.4871 88.6621 56.7969 88.3264 57.0869C85.0234 59.9135 83.1232 64.0461 83.125 68.3932C83.1338 76.6145 89.7959 83.2748 98.0172 83.2854ZM105.625 49.5354C106.402 49.5354 107.031 50.1646 107.031 50.9416C107.031 51.7168 106.402 52.3479 105.625 52.3479C104.5 52.3479 95.5 52.3479 94.375 52.3479C93.598 52.3479 92.9688 51.7168 92.9688 50.9416C92.9688 50.1646 93.598 49.5354 94.375 49.5354C96.625 49.5354 104.5 49.5354 105.625 49.5354ZM91.3744 41.8678C93.032 40.2102 95.718 40.2102 97.3756 41.8678C97.3756 41.8678 97.3756 41.8678 97.3773 41.8678C97.5391 42.0312 98.8434 43.3355 99.0068 43.4973C99.5553 44.0475 100.446 44.0475 100.995 43.4973C101.158 43.3355 102.461 42.0312 102.624 41.8678C104.282 40.2102 106.97 40.2102 108.626 41.8678H108.627C108.977 42.2193 108.977 42.7871 108.627 43.1387C108.388 43.3777 107.193 44.5713 105.043 46.7229H94.9568C92.807 44.5713 91.6135 43.3777 91.3744 43.1387C91.2057 42.9699 91.1107 42.7414 91.1107 42.5041C91.1107 42.265 91.2057 42.0365 91.3744 41.8678ZM94.8953 55.1604H105.106C107.949 57.5984 109.527 58.952 109.844 59.2227C114.908 63.5645 115.495 71.1898 111.153 76.2541C108.859 78.9313 105.509 80.4729 101.983 80.4729C101.586 80.4729 98.4127 80.4729 98.0172 80.4729C91.3463 80.4729 85.9375 75.0641 85.9375 68.3932C85.9375 64.867 87.4791 61.5166 90.1563 59.2227C90.7891 58.6812 92.3676 57.326 94.8953 55.1604Z" fill="#132766"/>
<path d="M108.438 67.3333C108.438 62.6733 104.66 58.8958 100 58.8958C95.34 58.8958 91.5625 62.6733 91.5625 67.3333C91.5678 71.9915 95.3418 75.7655 100 75.7708C104.66 75.7708 108.438 71.9932 108.438 67.3333ZM105.625 67.3333C105.625 70.4393 103.106 72.9583 100 72.9583C96.8939 72.9583 94.375 70.4393 94.375 67.3333C94.3785 64.229 96.8957 61.7118 100 61.7083C103.106 61.7083 105.625 64.2272 105.625 67.3333Z" fill="#132766"/>
<path d="M101.406 64.5208C101.406 67.8958 101.406 69.7713 101.406 70.1458C99.7187 70.1458 98.7818 70.1458 98.5938 70.1458C98.5938 66.7708 98.5938 64.8952 98.5938 64.5208C100.281 64.5208 101.218 64.5208 101.406 64.5208Z" fill="#132766"/>
<path d="M126.719 119.375H73.2813C73.2813 95.75 73.2813 82.6244 73.2813 80C73.2813 79.6273 73.1337 79.2687 72.87 79.0051C72.4692 78.6043 70.4635 76.5986 66.853 72.9898C72.7962 67.284 76.0973 64.1146 76.7583 63.4801C75.1657 69.7168 76.4682 76.3384 80.3038 81.5082C83.0284 85.1978 86.7673 88.0191 91.0633 89.6258C91.1635 89.3621 91.9616 87.258 92.0618 86.9961C84.0708 83.9638 78.9063 76.8008 78.9063 68.75C78.9116 65.0586 80.012 61.4515 82.0669 58.3842C82.3885 58.0748 84.004 56.5244 86.9114 53.733L84.9637 51.7045C72.3075 63.8545 65.2762 70.6045 63.87 71.9545C63.3092 72.4924 63.2917 73.3818 63.8296 73.9426C63.8366 73.9496 63.8419 73.9566 63.8489 73.9636C64.2901 74.4049 66.4979 76.6109 70.4688 80.5818C70.4688 104.703 70.4688 118.101 70.4688 120.781C70.4688 121.558 71.0981 122.187 71.8751 122.187C77.5001 122.187 122.5 122.187 128.125 122.187C128.902 122.187 129.531 121.558 129.531 120.781C129.531 118.101 129.531 104.703 129.531 80.5818C133.502 76.6109 135.71 74.4049 136.151 73.9636C136.7 73.4135 136.7 72.524 136.151 71.9738C136.144 71.9668 136.137 71.9615 136.13 71.9545C134.724 70.6045 127.693 63.8545 115.036 51.7045L113.089 53.733C115.996 56.5244 117.612 58.0748 117.935 58.3842C122.189 64.7158 122.143 73.0039 117.819 79.2898C115.673 82.4117 112.713 84.8849 109.258 86.4441C109.376 86.699 110.311 88.7451 110.427 89.0017C114.349 87.2299 117.708 84.4191 120.145 80.8718C123.637 75.7935 124.768 69.4531 123.242 63.4801C123.903 64.1146 127.204 67.284 133.147 72.9898C129.537 76.6004 127.531 78.606 127.13 79.0068C126.866 79.2705 126.719 79.6273 126.719 80C126.719 85.2506 126.719 98.3744 126.719 119.375Z" fill="#08A5B5"/>
<path d="M126.719 119.375H73.2813C73.2813 95.75 73.2813 82.6244 73.2813 80C73.2813 79.6273 73.1337 79.2687 72.87 79.0051C72.4692 78.6043 70.4635 76.5986 66.853 72.9898C72.7962 67.284 76.0973 64.1146 76.7583 63.4801C75.1657 69.7168 76.4682 76.3384 80.3038 81.5082C83.0284 85.1978 86.7673 88.0191 91.0633 89.6258C91.1635 89.3621 91.9616 87.258 92.0618 86.9961C84.0708 83.9638 78.9063 76.8008 78.9063 68.75C78.9116 65.0586 80.012 61.4515 82.0669 58.3842C82.3885 58.0748 84.004 56.5244 86.9114 53.733L84.9637 51.7045C72.3075 63.8545 65.2762 70.6045 63.87 71.9545C63.3092 72.4924 63.2917 73.3818 63.8296 73.9426C63.8366 73.9496 63.8419 73.9566 63.8489 73.9636C64.2901 74.4049 66.4979 76.6109 70.4688 80.5818C70.4688 104.703 70.4688 118.101 70.4688 120.781C70.4688 121.558 71.0981 122.187 71.8751 122.187C77.5001 122.187 122.5 122.187 128.125 122.187C128.902 122.187 129.531 121.558 129.531 120.781C129.531 118.101 129.531 104.703 129.531 80.5818C133.502 76.6109 135.71 74.4049 136.151 73.9636C136.7 73.4135 136.7 72.524 136.151 71.9738C136.144 71.9668 136.137 71.9615 136.13 71.9545C134.724 70.6045 127.693 63.8545 115.036 51.7045L113.089 53.733C115.996 56.5244 117.612 58.0748 117.935 58.3842C122.189 64.7158 122.143 73.0039 117.819 79.2898C115.673 82.4117 112.713 84.8849 109.258 86.4441C109.376 86.699 110.311 88.7451 110.427 89.0017C114.349 87.2299 117.708 84.4191 120.145 80.8718C123.637 75.7935 124.768 69.4531 123.242 63.4801C123.903 64.1146 127.204 67.284 133.147 72.9898C129.537 76.6004 127.531 78.606 127.13 79.0068C126.866 79.2705 126.719 79.6273 126.719 80C126.719 85.2506 126.719 98.3744 126.719 119.375Z" fill="#08A5B5"/>
<path d="M105.625 93.6705C106.495 93.1625 107.029 92.2309 107.031 91.2236C107.031 90.8035 107.031 87.4496 107.031 87.0312C107.031 86.2543 106.402 85.625 105.625 85.625C104.927 85.625 99.3461 85.625 98.6482 85.625C96.2893 85.6268 94.3768 87.5393 94.375 89.8982C94.375 90.5381 94.375 95.6498 94.375 96.2897C94.3768 98.1652 95.8973 99.6857 97.7729 99.6875C97.7025 99.6875 97.1436 99.6875 97.0732 99.6875C94.0322 99.691 91.566 102.155 91.5625 105.198C91.5625 106.195 91.5625 114.161 91.5625 115.156C91.5625 115.933 92.1918 116.562 92.9688 116.562C94.375 116.562 105.625 116.562 107.031 116.562C107.808 116.562 108.438 115.933 108.438 115.156C108.438 114.161 108.438 106.195 108.438 105.198C108.434 102.155 105.968 99.691 102.927 99.6875C102.856 99.6875 102.297 99.6875 102.227 99.6875C104.103 99.6857 105.623 98.1652 105.625 96.2897C105.625 95.7658 105.625 93.9324 105.625 93.6705ZM94.375 113.75V110.938C96.2084 110.938 97.2262 110.938 97.4301 110.938C97.1066 111.848 97.1066 112.839 97.4301 113.75C97.0223 113.75 96.0045 113.75 94.375 113.75ZM105.625 113.75C103.094 113.75 101.688 113.75 101.406 113.75C100.629 113.75 100 113.121 100 112.344C100 111.567 100.629 110.938 101.406 110.938C101.688 110.938 103.094 110.938 105.625 110.938V113.75ZM102.927 102.5C104.416 102.502 105.623 103.709 105.625 105.198C105.625 105.393 105.625 106.369 105.625 108.125H94.375C94.375 106.369 94.375 105.393 94.375 105.198C94.3768 103.709 95.5844 102.502 97.0732 102.5C98.2439 102.5 101.756 102.5 102.927 102.5ZM102.812 96.2897C102.812 96.6131 102.551 96.875 102.227 96.875C101.782 96.875 98.2176 96.875 97.7729 96.875C97.4494 96.875 97.1875 96.6131 97.1875 96.2897C97.1875 96.1402 97.1875 95.3984 97.1875 94.0625H102.812C102.812 95.2508 102.812 95.9926 102.812 96.2897ZM104.219 91.2236C104.219 91.2377 104.206 91.25 104.192 91.25C103.725 91.25 101.39 91.25 97.1875 91.25C97.1875 90.4396 97.1875 89.9879 97.1875 89.8982C97.1893 89.0914 97.8414 88.4393 98.6482 88.4375C99.0191 88.4375 100.877 88.4375 104.219 88.4375C104.219 89.9229 104.219 90.851 104.219 91.2236Z" fill="#08A5B5"/>
<path d="M105.625 93.6705C106.495 93.1625 107.029 92.2309 107.031 91.2236C107.031 90.8035 107.031 87.4496 107.031 87.0312C107.031 86.2543 106.402 85.625 105.625 85.625C104.927 85.625 99.3461 85.625 98.6482 85.625C96.2893 85.6268 94.3768 87.5393 94.375 89.8982C94.375 90.5381 94.375 95.6498 94.375 96.2897C94.3768 98.1652 95.8973 99.6857 97.7729 99.6875C97.7025 99.6875 97.1436 99.6875 97.0732 99.6875C94.0322 99.691 91.566 102.155 91.5625 105.198C91.5625 106.195 91.5625 114.161 91.5625 115.156C91.5625 115.933 92.1918 116.562 92.9688 116.562C94.375 116.562 105.625 116.562 107.031 116.562C107.808 116.562 108.438 115.933 108.438 115.156C108.438 114.161 108.438 106.195 108.438 105.198C108.434 102.155 105.968 99.691 102.927 99.6875C102.856 99.6875 102.297 99.6875 102.227 99.6875C104.103 99.6857 105.623 98.1652 105.625 96.2897C105.625 95.7658 105.625 93.9324 105.625 93.6705ZM94.375 113.75V110.938C96.2084 110.938 97.2262 110.938 97.4301 110.938C97.1066 111.848 97.1066 112.839 97.4301 113.75C97.0223 113.75 96.0045 113.75 94.375 113.75ZM105.625 113.75C103.094 113.75 101.688 113.75 101.406 113.75C100.629 113.75 100 113.121 100 112.344C100 111.567 100.629 110.938 101.406 110.938C101.688 110.938 103.094 110.938 105.625 110.938V113.75ZM102.927 102.5C104.416 102.502 105.623 103.709 105.625 105.198C105.625 105.393 105.625 106.369 105.625 108.125H94.375C94.375 106.369 94.375 105.393 94.375 105.198C94.3768 103.709 95.5844 102.502 97.0732 102.5C98.2439 102.5 101.756 102.5 102.927 102.5ZM102.812 96.2897C102.812 96.6131 102.551 96.875 102.227 96.875C101.782 96.875 98.2176 96.875 97.7729 96.875C97.4494 96.875 97.1875 96.6131 97.1875 96.2897C97.1875 96.1402 97.1875 95.3984 97.1875 94.0625H102.812C102.812 95.2508 102.812 95.9926 102.812 96.2897ZM104.219 91.2236C104.219 91.2377 104.206 91.25 104.192 91.25C103.725 91.25 101.39 91.25 97.1875 91.25C97.1875 90.4396 97.1875 89.9879 97.1875 89.8982C97.1893 89.0914 97.8414 88.4393 98.6482 88.4375C99.0191 88.4375 100.877 88.4375 104.219 88.4375C104.219 89.9229 104.219 90.851 104.219 91.2236Z" fill="#08A5B5"/>
</g>
<defs>
<clipPath id="clip0_242_1661">
<rect width="200" height="161" fill="white"/>
</clipPath>
</defs>
</svg>
