<svg width="153" height="172" viewBox="0 0 153 172" fill="none" xmlns="http://www.w3.org/2000/svg">
<ellipse cx="76.5" cy="76.8185" rx="76.5" ry="75.965" fill="#F1FAFF"/>
<path fill-rule="evenodd" clip-rule="evenodd" d="M115.486 69.6587C115.486 69.6587 115.486 69.6311 115.486 69.6172C115.484 69.5896 115.478 69.5619 115.475 69.5343C115.467 69.4707 115.459 69.4043 115.448 69.3407C115.428 69.2052 115.406 69.0697 115.381 68.9342C115.37 68.8678 115.356 68.7987 115.342 68.7323C115.312 68.5858 115.279 68.4392 115.243 68.2926C115.232 68.2456 115.221 68.1959 115.207 68.1488C115.157 67.958 115.099 67.77 115.038 67.5847C115.022 67.5377 115.005 67.4907 114.989 67.4437C114.939 67.3026 114.889 67.1616 114.834 67.0233C114.809 66.9597 114.784 66.8989 114.756 66.8381C114.701 66.7081 114.646 66.5809 114.585 66.4537C114.557 66.3984 114.532 66.3403 114.505 66.285C114.416 66.108 114.328 65.9338 114.228 65.7596C114.228 65.7596 114.228 65.7568 114.228 65.7541C114.225 65.7485 114.223 65.7402 114.217 65.7347C108.761 56.5206 100.246 49.7123 92.5864 45.0914C92.5864 45.0914 92.5809 45.0858 92.5781 45.0858C92.5477 45.0693 92.5173 45.0527 92.4896 45.0361C92.3541 44.9559 92.2159 44.8812 92.0748 44.8093C92.0085 44.7734 91.9421 44.7402 91.873 44.707C91.7485 44.6462 91.6213 44.5881 91.4941 44.53C91.4388 44.5051 91.3863 44.4802 91.331 44.4581C91.1623 44.389 90.9936 44.3226 90.8249 44.2618C90.7502 44.2341 90.6756 44.212 90.6009 44.1871C90.4848 44.1484 90.3659 44.1124 90.247 44.0765C90.1723 44.0544 90.0976 44.0323 90.023 44.0129C89.8543 43.9686 89.6856 43.9272 89.5169 43.8912C89.4284 43.8719 89.3372 43.8553 89.2487 43.8387C89.1961 43.8304 89.1436 43.8166 89.091 43.8083C89.0744 43.8027 89.0579 43.8055 89.044 43.8027C88.5048 43.7142 87.96 43.6645 87.4097 43.6645C75.209 43.6506 20.5298 43.6506 20.5298 43.6506C16.2767 43.6562 12.8394 47.0935 12.8394 51.3355V163.716C12.8394 167.959 16.2767 171.396 20.5187 171.396H107.873C112.115 171.396 115.553 167.959 115.553 163.716V70.7815C115.553 70.4054 115.528 70.032 115.486 69.6587Z" fill="#132766"/>
<path fill-rule="evenodd" clip-rule="evenodd" d="M90.1947 46.6123C90.3606 46.6759 90.5238 46.745 90.6842 46.8225C90.7146 46.8363 90.7478 46.8501 90.7782 46.8667C90.969 46.958 91.157 47.0575 91.3396 47.1654C92.631 47.9452 93.95 48.7886 95.2719 49.6984C101.48 53.9626 107.807 59.6675 112.127 66.957C112.204 67.0952 112.279 67.2363 112.348 67.3773C112.367 67.416 112.384 67.4547 112.4 67.4934C112.447 67.5957 112.494 67.7008 112.539 67.8059C112.561 67.8585 112.58 67.9082 112.6 67.9608C112.635 68.0548 112.671 68.1488 112.705 68.2456C112.724 68.3037 112.743 68.3645 112.763 68.4226C112.777 68.4641 112.788 68.5055 112.799 68.547C112.627 68.547 92.7941 68.547 92.7941 68.547C90.8252 68.547 88.1871 67.9304 86.4698 66.7219C85.7812 66.238 85.2392 65.6683 85.076 64.9576C84.9157 64.2552 85.1673 63.4671 85.842 62.5518C90.8197 55.8375 90.3164 50.6193 90.1256 46.5874C90.1477 46.5957 90.1698 46.604 90.1892 46.6123H90.1947Z" fill="white"/>
<path fill-rule="evenodd" clip-rule="evenodd" d="M107.873 168.979H20.5188C17.6124 168.979 15.2563 166.623 15.2563 163.716V51.3355C15.2563 48.4291 17.6124 46.073 20.5188 46.073C20.5188 46.073 75.1953 46.073 87.3987 46.0868C87.4983 46.0868 87.6006 46.0924 87.7001 46.0979C87.8716 49.8477 88.6182 54.7645 83.9061 61.1193C82.6893 62.7619 82.4377 64.2358 82.7253 65.4996C83.0101 66.755 83.8646 67.8446 85.0841 68.7018C87.1803 70.1758 90.3936 70.9667 92.7995 70.9667H113.136V163.719C113.136 166.626 110.78 168.982 107.873 168.982V168.979Z" fill="white"/>
<path fill-rule="evenodd" clip-rule="evenodd" d="M25.5361 95.5424H56.2327C56.6191 95.5424 56.9333 95.0004 56.9333 94.3339C56.9333 93.6675 56.6191 93.1255 56.2327 93.1255H25.5361C25.1497 93.1255 24.8354 93.6675 24.8354 94.3339C24.8354 95.0004 25.1497 95.5424 25.5361 95.5424Z" fill="#132766"/>
<path fill-rule="evenodd" clip-rule="evenodd" d="M37.4261 126.442H26.0439C25.3775 126.442 24.8354 126.984 24.8354 127.651C24.8354 128.317 25.3775 128.859 26.0439 128.859H37.4261C38.0925 128.859 38.6345 128.317 38.6345 127.651C38.6345 126.984 38.0925 126.442 37.4261 126.442Z" fill="#132766"/>
<path fill-rule="evenodd" clip-rule="evenodd" d="M51.1822 109.787H25.2369C25.0155 109.787 24.8354 110.329 24.8354 110.995C24.8354 111.662 25.0155 112.204 25.2369 112.204H51.1822C51.4036 112.204 51.5837 111.662 51.5837 110.995C51.5837 110.329 51.4036 109.787 51.1822 109.787Z" fill="#132766"/>
<path d="M35.0494 68.0018C35.0494 68.7911 34.9793 69.2603 34.8189 69.6301C34.6696 69.9393 34.3782 70.2594 34.0777 70.4489C33.6463 70.7378 33.1355 70.8684 32.6654 70.8684C32.3446 70.8684 30.6925 70.758 30.3828 69.08C30.3533 68.9309 30.3422 68.7598 30.333 68.5906H31.926C31.926 68.6605 31.9352 68.7212 31.9463 68.7911C32.0569 69.2713 32.3575 69.5602 32.7373 69.5602C33.1484 69.551 33.3679 69.3302 33.4582 69.08C33.5485 68.85 33.5578 68.5906 33.5578 68.3606V63.3337H35.0494V68.0018Z" fill="#132766"/>
<path d="M41.7202 70.7286H40.4074V69.9393C40.0571 70.5796 39.3251 70.8979 38.5544 70.8979C36.7918 70.8979 35.7593 69.5289 35.7593 67.9797C35.7593 66.2501 37.0112 65.0707 38.5544 65.0707C39.5556 65.0707 40.1677 65.6006 40.4074 66.0403V65.24H41.7202V70.7268V70.7286ZM37.0739 68.011C37.0739 68.6899 37.5643 69.6798 38.7462 69.6798C39.4763 69.6798 39.9575 69.3008 40.2083 68.8003C40.3392 68.5611 40.3982 68.2998 40.4185 68.0312C40.4277 67.7718 40.3779 67.5013 40.2673 67.2621C40.0368 66.7432 39.5261 66.2924 38.7351 66.2924C37.6731 66.2924 37.072 67.1517 37.072 68.0018V68.011H37.0739Z" fill="#132766"/>
<path d="M49.1033 60.8274C49.1033 60.8274 47.1249 72.7302 35.3838 78.2188L37.5465 79.7607C37.5465 79.7607 48.4856 74.5812 49.1033 60.8274Z" fill="#132766"/>
<path d="M26.2992 60.8274C26.2992 60.8274 26.4227 73.5931 35.6305 80.563C35.6305 80.563 25.2482 75.4442 24.0737 62.246L26.2992 60.8274Z" fill="#132766"/>
<path d="M24.8779 59.2857C24.8779 59.2857 35.1367 52.9948 47.1875 59.2857V61.9997C47.1875 61.9997 38.2877 55.0298 24.8779 59.2857Z" fill="#08A5B5"/>
<rect x="25.6787" y="139.944" width="36.9126" height="11.2343" rx="5.61713" fill="#08A5B5"/>
<g filter="url(#filter0_d_242_1758)">
<rect x="64.1963" y="76.8185" width="38.7726" height="42.6498" rx="2" fill="white"/>
<path d="M83.582 84.573C80.3762 84.573 77.7661 87.1831 77.7661 90.3889C77.7661 93.5947 80.3762 96.2048 83.582 96.2048C86.7878 96.2048 89.3979 93.5947 89.3979 90.3889C89.3979 87.1831 86.7878 84.573 83.582 84.573ZM83.582 90.1052C83.6671 90.1052 83.7522 90.1193 83.8515 90.1193C84.8161 90.247 85.5679 91.084 85.5679 92.0911C85.5679 93.084 84.8302 93.9209 83.8657 94.0486V94.7863C83.8657 94.9423 83.7381 95.07 83.582 95.07C83.426 95.07 83.2984 94.9423 83.2984 94.7863V94.0486C82.3338 93.9067 81.5962 93.0841 81.5962 92.0911C81.5962 91.935 81.7238 91.8074 81.8798 91.8074C81.9508 91.8074 82.0217 91.8358 82.0784 91.8925C82.1351 91.9493 82.1635 92.0201 82.1635 92.0911C82.1635 92.8713 82.8018 93.5096 83.582 93.5096C84.3622 93.5096 85.0005 92.8713 85.0005 92.0911C85.0005 91.3109 84.3622 90.6726 83.582 90.6726C83.4969 90.6726 83.4118 90.6584 83.3125 90.6584C82.348 90.5308 81.5961 89.6938 81.5961 88.6867C81.5961 87.6937 82.3338 86.8569 83.2983 86.7291V85.9915C83.2983 85.8354 83.426 85.7078 83.582 85.7078C83.738 85.7078 83.8657 85.8354 83.8657 85.9915V86.7291C84.8302 86.871 85.5679 87.6936 85.5679 88.6867C85.5679 88.8427 85.4402 88.9704 85.2842 88.9704C85.2132 88.9704 85.1423 88.942 85.0856 88.8853C85.0289 88.8285 85.0005 88.7576 85.0005 88.6867C85.0005 87.9065 84.3622 87.2682 83.582 87.2682C82.8018 87.2682 82.1635 87.9065 82.1635 88.6867C82.1635 89.4669 82.8018 90.1052 83.582 90.1052Z" fill="#08A5B5"/>
<path fill-rule="evenodd" clip-rule="evenodd" d="M68.7503 109.775H98.4143C98.7877 109.775 99.0913 109.34 99.0913 108.806C99.0913 108.271 98.7877 107.837 98.4143 107.837H68.7503C68.3769 107.837 68.0732 108.271 68.0732 108.806C68.0732 109.34 68.3769 109.775 68.7503 109.775Z" fill="#DADADA"/>
<path fill-rule="evenodd" clip-rule="evenodd" d="M68.7503 113.652H98.4143C98.7877 113.652 99.0913 113.218 99.0913 112.683C99.0913 112.149 98.7877 111.714 98.4143 111.714H68.7503C68.3769 111.714 68.0732 112.149 68.0732 112.683C68.0732 113.218 68.3769 113.652 68.7503 113.652Z" fill="#DADADA"/>
</g>
<g filter="url(#filter1_d_242_1758)">
<rect x="108.785" y="92.3275" width="38.7726" height="42.6498" rx="2" fill="white"/>
</g>
<path d="M128.17 100.082C124.965 100.082 122.354 102.692 122.354 105.898C122.354 109.104 124.965 111.714 128.17 111.714C131.376 111.714 133.986 109.104 133.986 105.898C133.986 102.692 131.376 100.082 128.17 100.082ZM128.17 105.614C128.255 105.614 128.341 105.628 128.44 105.628C129.404 105.756 130.156 106.593 130.156 107.6C130.156 108.593 129.419 109.43 128.454 109.558V110.295C128.454 110.451 128.326 110.579 128.17 110.579C128.014 110.579 127.887 110.451 127.887 110.295V109.558C126.922 109.416 126.185 108.593 126.185 107.6C126.185 107.444 126.312 107.316 126.468 107.316C126.539 107.316 126.61 107.345 126.667 107.402C126.724 107.458 126.752 107.529 126.752 107.6C126.752 108.38 127.39 109.019 128.17 109.019C128.951 109.019 129.589 108.38 129.589 107.6C129.589 106.82 128.951 106.182 128.17 106.182C128.085 106.182 128 106.167 127.901 106.167C126.936 106.04 126.185 105.203 126.185 104.196C126.185 103.203 126.922 102.366 127.887 102.238V101.5C127.887 101.344 128.014 101.217 128.17 101.217C128.326 101.217 128.454 101.344 128.454 101.5V102.238C129.419 102.38 130.156 103.203 130.156 104.196C130.156 104.352 130.029 104.479 129.873 104.479C129.802 104.479 129.731 104.451 129.674 104.394C129.617 104.337 129.589 104.267 129.589 104.196C129.589 103.416 128.951 102.777 128.17 102.777C127.39 102.777 126.752 103.416 126.752 104.196C126.752 104.976 127.39 105.614 128.17 105.614Z" fill="#08A5B5"/>
<path fill-rule="evenodd" clip-rule="evenodd" d="M113.339 125.284H143.003C143.376 125.284 143.68 124.85 143.68 124.315C143.68 123.78 143.376 123.346 143.003 123.346H113.339C112.965 123.346 112.662 123.78 112.662 124.315C112.662 124.85 112.965 125.284 113.339 125.284Z" fill="#DADADA"/>
<path fill-rule="evenodd" clip-rule="evenodd" d="M113.339 129.162H143.003C143.376 129.162 143.68 128.727 143.68 128.192C143.68 127.658 143.376 127.223 143.003 127.223H113.339C112.965 127.223 112.662 127.658 112.662 128.192C112.662 128.727 112.965 129.162 113.339 129.162Z" fill="#DADADA"/>
<g filter="url(#filter2_d_242_1758)">
<rect x="64.1963" y="123.346" width="38.7726" height="42.6498" rx="2" fill="white"/>
</g>
<path d="M83.582 131.1C80.3762 131.1 77.7661 133.71 77.7661 136.916C77.7661 140.122 80.3762 142.732 83.582 142.732C86.7878 142.732 89.3979 140.122 89.3979 136.916C89.3979 133.71 86.7878 131.1 83.582 131.1ZM83.582 136.632C83.6671 136.632 83.7522 136.647 83.8515 136.647C84.8161 136.774 85.5679 137.611 85.5679 138.618C85.5679 139.611 84.8302 140.448 83.8657 140.576V141.314C83.8657 141.47 83.7381 141.597 83.582 141.597C83.426 141.597 83.2984 141.47 83.2984 141.314V140.576C82.3338 140.434 81.5962 139.611 81.5962 138.618C81.5962 138.462 81.7238 138.335 81.8798 138.335C81.9508 138.335 82.0217 138.363 82.0784 138.42C82.1351 138.476 82.1635 138.547 82.1635 138.618C82.1635 139.398 82.8018 140.037 83.582 140.037C84.3622 140.037 85.0005 139.398 85.0005 138.618C85.0005 137.838 84.3622 137.2 83.582 137.2C83.4969 137.2 83.4118 137.186 83.3125 137.186C82.348 137.058 81.5961 136.221 81.5961 135.214C81.5961 134.221 82.3338 133.384 83.2983 133.256V132.519C83.2983 132.363 83.426 132.235 83.582 132.235C83.738 132.235 83.8657 132.363 83.8657 132.519V133.256C84.8302 133.398 85.5679 134.221 85.5679 135.214C85.5679 135.37 85.4402 135.498 85.2842 135.498C85.2132 135.498 85.1423 135.469 85.0856 135.412C85.0289 135.356 85.0005 135.285 85.0005 135.214C85.0005 134.434 84.3622 133.795 83.582 133.795C82.8018 133.795 82.1635 134.434 82.1635 135.214C82.1635 135.994 82.8018 136.632 83.582 136.632Z" fill="#08A5B5"/>
<path fill-rule="evenodd" clip-rule="evenodd" d="M68.7503 156.302H98.4143C98.7877 156.302 99.0913 155.868 99.0913 155.333C99.0913 154.799 98.7877 154.364 98.4143 154.364H68.7503C68.3769 154.364 68.0732 154.799 68.0732 155.333C68.0732 155.868 68.3769 156.302 68.7503 156.302Z" fill="#DADADA"/>
<path fill-rule="evenodd" clip-rule="evenodd" d="M68.7503 160.18H98.4143C98.7877 160.18 99.0913 159.745 99.0913 159.21C99.0913 158.676 98.7877 158.241 98.4143 158.241H68.7503C68.3769 158.241 68.0732 158.676 68.0732 159.21C68.0732 159.745 68.3769 160.18 68.7503 160.18Z" fill="#DADADA"/>
<defs>
<filter id="filter0_d_242_1758" x="60.1963" y="72.8185" width="46.7725" height="50.6499" filterUnits="userSpaceOnUse" color-interpolation-filters="sRGB">
<feFlood flood-opacity="0" result="BackgroundImageFix"/>
<feColorMatrix in="SourceAlpha" type="matrix" values="0 0 0 0 0 0 0 0 0 0 0 0 0 0 0 0 0 0 127 0" result="hardAlpha"/>
<feOffset/>
<feGaussianBlur stdDeviation="2"/>
<feComposite in2="hardAlpha" operator="out"/>
<feColorMatrix type="matrix" values="0 0 0 0 0.779167 0 0 0 0 0.779167 0 0 0 0 0.779167 0 0 0 0.25 0"/>
<feBlend mode="normal" in2="BackgroundImageFix" result="effect1_dropShadow_242_1758"/>
<feBlend mode="normal" in="SourceGraphic" in2="effect1_dropShadow_242_1758" result="shape"/>
</filter>
<filter id="filter1_d_242_1758" x="104.785" y="88.3275" width="46.7725" height="50.6499" filterUnits="userSpaceOnUse" color-interpolation-filters="sRGB">
<feFlood flood-opacity="0" result="BackgroundImageFix"/>
<feColorMatrix in="SourceAlpha" type="matrix" values="0 0 0 0 0 0 0 0 0 0 0 0 0 0 0 0 0 0 127 0" result="hardAlpha"/>
<feOffset/>
<feGaussianBlur stdDeviation="2"/>
<feComposite in2="hardAlpha" operator="out"/>
<feColorMatrix type="matrix" values="0 0 0 0 0.779167 0 0 0 0 0.779167 0 0 0 0 0.779167 0 0 0 0.25 0"/>
<feBlend mode="normal" in2="BackgroundImageFix" result="effect1_dropShadow_242_1758"/>
<feBlend mode="normal" in="SourceGraphic" in2="effect1_dropShadow_242_1758" result="shape"/>
</filter>
<filter id="filter2_d_242_1758" x="60.1963" y="119.346" width="46.7725" height="50.6499" filterUnits="userSpaceOnUse" color-interpolation-filters="sRGB">
<feFlood flood-opacity="0" result="BackgroundImageFix"/>
<feColorMatrix in="SourceAlpha" type="matrix" values="0 0 0 0 0 0 0 0 0 0 0 0 0 0 0 0 0 0 127 0" result="hardAlpha"/>
<feOffset/>
<feGaussianBlur stdDeviation="2"/>
<feComposite in2="hardAlpha" operator="out"/>
<feColorMatrix type="matrix" values="0 0 0 0 0.779167 0 0 0 0 0.779167 0 0 0 0 0.779167 0 0 0 0.25 0"/>
<feBlend mode="normal" in2="BackgroundImageFix" result="effect1_dropShadow_242_1758"/>
<feBlend mode="normal" in="SourceGraphic" in2="effect1_dropShadow_242_1758" result="shape"/>
</filter>
</defs>
</svg>
