<svg width="182" height="152" viewBox="0 0 182 152" fill="none" xmlns="http://www.w3.org/2000/svg">
<g filter="url(#filter0_f_339_2486)">
<path d="M91 143.841C136.84 143.841 174 142.533 174 140.92C174 139.307 136.84 138 91 138C45.1604 138 8 139.307 8 140.92C8 142.533 45.1604 143.841 91 143.841Z" fill="#A3D8DA"/>
</g>
<path fill-rule="evenodd" clip-rule="evenodd" d="M130.86 47.0252C130.86 42.6685 127.331 39.1375 122.98 39.1375H59.9385C57.8489 39.1375 55.8445 39.9683 54.3661 41.4482C52.8887 42.9271 52.0576 44.9336 52.0576 47.0262V96.3268C52.0576 100.684 55.5862 104.215 59.9374 104.215H113.129C113.129 104.215 119.252 109.663 124.302 114.155C125.462 115.188 127.119 115.442 128.534 114.806C129.949 114.169 130.86 112.761 130.86 111.208V47.0252Z" fill="#08A5B5"/>
<path fill-rule="evenodd" clip-rule="evenodd" d="M28.417 60.8295C28.417 56.4728 31.9455 52.9418 36.2968 52.9418H99.3384C101.428 52.9418 103.432 53.7726 104.911 55.2525C106.388 56.7314 107.219 58.7379 107.219 60.8305V110.131C107.219 114.488 103.691 118.019 99.3395 118.019H46.1479C46.1479 118.019 40.0245 123.467 34.975 127.96C33.8151 128.992 32.1582 129.247 30.7431 128.61C29.3279 127.973 28.417 126.565 28.417 125.012V60.8305V60.8295Z" fill="url(#paint0_linear_339_2486)"/>
<path fill-rule="evenodd" clip-rule="evenodd" d="M57.9687 74.6338C57.9687 70.2802 61.4994 66.7461 65.8486 66.7461C70.1978 66.7461 73.7284 70.2802 73.7284 74.6338C73.7284 79.7985 70.4779 81.7707 68.0014 83.9911C65.695 86.0598 63.8783 88.2813 63.8783 91.8892V94.3547C63.8783 95.4431 64.7613 96.3269 65.8486 96.3269C66.9359 96.3269 67.8188 95.4431 67.8188 94.3547V91.8892C67.8188 88.8421 70.0421 87.4473 72.0715 85.6704C74.907 83.1872 77.6688 80.3105 77.6688 74.6338C77.6688 68.1035 72.3724 62.8017 65.8486 62.8017C59.3248 62.8017 54.0283 68.1035 54.0283 74.6338C54.0283 75.7222 54.9112 76.606 55.9985 76.606C57.0858 76.606 57.9687 75.7222 57.9687 74.6338Z" fill="#132766"/>
<path fill-rule="evenodd" clip-rule="evenodd" d="M63.8779 101.749V104.215C63.8779 105.303 64.7608 106.187 65.8481 106.187C66.9354 106.187 67.8184 105.303 67.8184 104.215V101.749C67.8184 100.661 66.9354 99.7769 65.8481 99.7769C64.7608 99.7769 63.8779 100.661 63.8779 101.749Z" fill="#132766"/>
<path d="M138.996 74.7689C151.24 74.7689 161.166 64.8334 161.166 52.5773C161.166 40.3212 151.24 30.3857 138.996 30.3857C126.753 30.3857 116.827 40.3212 116.827 52.5773C116.827 64.8334 126.753 74.7689 138.996 74.7689Z" fill="url(#paint1_linear_339_2486)"/>
<path fill-rule="evenodd" clip-rule="evenodd" d="M143.19 73.4675C141.834 73.7396 140.432 73.8819 138.996 73.8819C127.249 73.8819 117.714 64.3356 117.714 52.5783C117.714 40.821 127.25 31.2747 138.996 31.2747C149.582 31.2747 158.375 39.0295 160.006 49.1688C160.084 49.6527 160.54 49.9819 161.023 49.904C161.506 49.8262 161.835 49.3702 161.758 48.8863C159.99 37.9006 150.465 29.4988 138.996 29.4988C126.271 29.4988 115.939 39.8406 115.939 52.5783C115.939 65.316 126.271 75.6578 138.996 75.6578C140.551 75.6578 142.07 75.5031 143.538 75.2092C144.018 75.1126 144.33 74.6452 144.233 74.1644C144.137 73.6835 143.67 73.372 143.189 73.4686L143.19 73.4675Z" fill="#08A5B5"/>
<path fill-rule="evenodd" clip-rule="evenodd" d="M156.061 49.0264C155.93 49.0264 155.812 49.1054 155.761 49.2269C155.711 49.3484 155.739 49.4875 155.832 49.581C157.032 50.7826 159.833 53.5856 160.652 54.4061C160.779 54.5328 160.984 54.5328 161.111 54.4061C161.93 53.5856 164.731 50.7816 165.931 49.581C166.023 49.4886 166.051 49.3484 166.002 49.2269C165.952 49.1054 165.833 49.0264 165.702 49.0264H156.06H156.061Z" fill="#08A5B5"/>
<path fill-rule="evenodd" clip-rule="evenodd" d="M138.558 50.2073L133.508 41.3724C133.265 40.9477 132.722 40.7992 132.298 41.0432C131.874 41.2862 131.725 41.8294 131.969 42.2542L137.02 51.089C137.262 51.5148 137.805 51.6623 138.229 51.4182C138.654 51.1752 138.802 50.6321 138.558 50.2073Z" fill="#132766"/>
<path fill-rule="evenodd" clip-rule="evenodd" d="M136.523 53.2243L132.854 56.0958C132.468 56.398 132.401 56.9557 132.702 57.3421C133.003 57.7284 133.561 57.797 133.947 57.4947L137.615 54.6232C138.001 54.321 138.069 53.7633 137.768 53.3769C137.466 52.9906 136.909 52.9231 136.523 53.2243Z" fill="#132766"/>
<path fill-rule="evenodd" clip-rule="evenodd" d="M138.109 34.246V38.1052C138.109 38.5954 138.507 38.9932 138.996 38.9932C139.486 38.9932 139.884 38.5954 139.884 38.1052V34.246C139.884 33.7558 139.486 33.358 138.996 33.358C138.507 33.358 138.109 33.7558 138.109 34.246Z" fill="#181818"/>
<path fill-rule="evenodd" clip-rule="evenodd" d="M129.071 37.1456L130.035 38.8166C130.28 39.2414 130.822 39.3868 131.247 39.1417C131.671 38.8966 131.816 38.3534 131.571 37.9286L130.608 36.2576C130.363 35.8339 129.82 35.6875 129.396 35.9326C128.971 36.1777 128.826 36.7208 129.071 37.1456Z" fill="#181818"/>
<path fill-rule="evenodd" clip-rule="evenodd" d="M154.413 42.6426L152.743 43.6074C152.319 43.8525 152.174 44.3956 152.419 44.8204C152.664 45.2441 153.206 45.3906 153.631 45.1455L155.3 44.1807C155.723 43.9356 155.869 43.3924 155.625 42.9676C155.38 42.5439 154.837 42.3975 154.413 42.6426Z" fill="#181818"/>
<path fill-rule="evenodd" clip-rule="evenodd" d="M122.693 44.1806L124.362 45.1455C124.786 45.3905 125.329 45.2451 125.574 44.8204C125.819 44.3956 125.673 43.8525 125.249 43.6074L123.58 42.6426C123.156 42.3975 122.613 42.5429 122.368 42.9676C122.123 43.3924 122.268 43.9355 122.693 44.1806Z" fill="#181818"/>
<path fill-rule="evenodd" clip-rule="evenodd" d="M147.385 36.2576L146.421 37.9286C146.176 38.3523 146.321 38.8965 146.745 39.1416C147.169 39.3867 147.712 39.2413 147.957 38.8166L148.921 37.1456C149.166 36.7208 149.021 36.1776 148.596 35.9325C148.172 35.6874 147.629 35.8328 147.385 36.2576Z" fill="#181818"/>
<path fill-rule="evenodd" clip-rule="evenodd" d="M138.109 67.0504V70.9096C138.109 71.3998 138.507 71.7975 138.996 71.7975C139.486 71.7975 139.884 71.3998 139.884 70.9096V67.0504C139.884 66.5602 139.486 66.1624 138.996 66.1624C138.507 66.1624 138.109 66.5602 138.109 67.0504Z" fill="#181818"/>
<path fill-rule="evenodd" clip-rule="evenodd" d="M124.362 60.0101L122.693 60.9749C122.268 61.22 122.123 61.7632 122.368 62.1879C122.613 62.6127 123.155 62.7581 123.58 62.513L125.249 61.5482C125.672 61.3031 125.819 60.7599 125.574 60.3352C125.329 59.9104 124.786 59.765 124.362 60.0101Z" fill="#181818"/>
<path fill-rule="evenodd" clip-rule="evenodd" d="M130.035 66.3379L129.071 68.0089C128.826 68.4327 128.971 68.9769 129.396 69.222C129.819 69.4671 130.363 69.3217 130.608 68.8969L131.571 67.2259C131.816 66.8011 131.671 66.258 131.247 66.0129C130.823 65.7678 130.28 65.9132 130.035 66.3379Z" fill="#181818"/>
<path fill-rule="evenodd" clip-rule="evenodd" d="M124.537 51.6903H120.682C120.192 51.6903 119.795 52.0881 119.795 52.5783C119.795 53.0685 120.192 53.4662 120.682 53.4662H124.537C125.027 53.4662 125.424 53.0685 125.424 52.5783C125.424 52.0881 125.027 51.6903 124.537 51.6903Z" fill="#181818"/>
<path d="M138.996 54.9275C140.293 54.9275 141.344 53.8753 141.344 52.5773C141.344 51.2793 140.293 50.2271 138.996 50.2271C137.7 50.2271 136.648 51.2793 136.648 52.5773C136.648 53.8753 137.7 54.9275 138.996 54.9275Z" fill="#08A5B5"/>
<path fill-rule="evenodd" clip-rule="evenodd" d="M52.9186 16.5253V15.7381C52.9186 11.5642 51.2618 7.56059 48.3142 4.60905C45.3646 1.65855 41.3661 0 37.1964 0H35.6246C31.4548 0 27.4553 1.65855 24.5077 4.60905C21.5592 7.56059 19.9033 11.5631 19.9033 15.7381V16.5253L24.016 17.2793L23.9568 14.7577C24.8148 8.64171 30.0636 3.93503 36.4099 3.93503H36.412C42.7045 3.93503 47.9179 8.5607 48.8433 14.6009L48.8828 17.2959L52.9197 16.5242L52.9186 16.5253Z" fill="#08A5B5"/>
<path fill-rule="evenodd" clip-rule="evenodd" d="M39.5541 36.1973H48.2016C49.6614 36.1973 51.061 35.6168 52.0923 34.5845C53.1246 33.5511 53.7045 32.1501 53.7045 30.69V29.1166C53.7045 28.6824 53.3518 28.3293 52.9181 28.3293C52.4844 28.3293 52.1317 28.6814 52.1317 29.1166V30.69C52.1317 31.7337 51.7177 32.7338 50.9801 33.4722C50.2424 34.2096 49.2433 34.625 48.2006 34.625H39.553C39.1194 34.625 38.7666 34.9781 38.7666 35.4122C38.7666 35.8463 39.1194 36.1994 39.553 36.1994L39.5541 36.1973Z" fill="#132766"/>
<path fill-rule="evenodd" clip-rule="evenodd" d="M50.5605 16.5253H52.9188C53.9615 16.5253 54.9606 16.9396 55.6982 17.6781C56.4349 18.4154 56.8499 19.4166 56.8499 20.4603V25.1815C56.8499 26.2252 56.4359 27.2254 55.6982 27.9638C54.9616 28.7022 53.9615 29.1165 52.9188 29.1165H50.5605V16.5263V16.5253Z" fill="#181818"/>
<path fill-rule="evenodd" clip-rule="evenodd" d="M22.26 16.5253H19.9018C18.8591 16.5253 17.86 16.9396 17.1223 17.6781C16.3857 18.4154 15.9707 19.4166 15.9707 20.4603V25.1815C15.9707 26.2252 16.3847 27.2254 17.1223 27.9638C17.86 28.7022 18.8591 29.1165 19.9018 29.1165H22.26V16.5263V16.5253Z" fill="#181818"/>
<path d="M37.9832 37.7708C39.2857 37.7708 40.3415 36.7139 40.3415 35.4102C40.3415 34.1064 39.2857 33.0496 37.9832 33.0496C36.6808 33.0496 35.625 34.1064 35.625 35.4102C35.625 36.7139 36.6808 37.7708 37.9832 37.7708Z" fill="#08A5B5"/>
<path fill-rule="evenodd" clip-rule="evenodd" d="M50.56 16.5252C50.56 16.1077 50.394 15.7079 50.0993 15.4119C49.8047 15.117 49.4042 14.9508 48.9882 14.9508H48.2018C47.7847 14.9508 47.3852 15.117 47.0896 15.4119C46.7949 15.7069 46.6289 16.1077 46.6289 16.5252V29.1155C46.6289 29.533 46.7949 29.9328 47.0896 30.2288C47.3842 30.5237 47.7847 30.6899 48.2018 30.6899H48.9882C49.4053 30.6899 49.8047 30.5237 50.0993 30.2288C50.394 29.9338 50.56 29.533 50.56 29.1155V16.5252Z" fill="#132766"/>
<path fill-rule="evenodd" clip-rule="evenodd" d="M22.2598 16.5252C22.2598 16.1077 22.4258 15.7079 22.7204 15.4119C23.0151 15.117 23.4155 14.9508 23.8326 14.9508H24.619C25.0361 14.9508 25.4356 15.117 25.7312 15.4119C26.0259 15.7069 26.1919 16.1077 26.1919 16.5252V29.1155C26.1919 29.533 26.0259 29.9328 25.7312 30.2288C25.4366 30.5237 25.0361 30.6899 24.619 30.6899H23.8326C23.4155 30.6899 23.0161 30.5237 22.7204 30.2288C22.4258 29.9338 22.2598 29.533 22.2598 29.1155V16.5252Z" fill="#132766"/>
<defs>
<filter id="filter0_f_339_2486" x="0" y="130" width="182" height="21.8408" filterUnits="userSpaceOnUse" color-interpolation-filters="sRGB">
<feFlood flood-opacity="0" result="BackgroundImageFix"/>
<feBlend mode="normal" in="SourceGraphic" in2="BackgroundImageFix" result="shape"/>
<feGaussianBlur stdDeviation="4" result="effect1_foregroundBlur_339_2486"/>
</filter>
<linearGradient id="paint0_linear_339_2486" x1="27.1187" y1="60.9465" x2="104.678" y2="122.248" gradientUnits="userSpaceOnUse">
<stop stop-color="white"/>
<stop offset="1" stop-color="#BEE0E1"/>
</linearGradient>
<linearGradient id="paint1_linear_339_2486" x1="126.143" y1="34.916" x2="153.046" y2="71.7579" gradientUnits="userSpaceOnUse">
<stop stop-color="#E9F8F0"/>
<stop offset="1" stop-color="#CCE7E7"/>
</linearGradient>
</defs>
</svg>
