<svg width="200" height="174" viewBox="0 0 200 174" fill="none" xmlns="http://www.w3.org/2000/svg">
<rect width="200" height="174" fill="white"/>
<circle cx="84.2113" cy="94.7887" r="71.2113" fill="#F1FAFF"/>
<path fill-rule="evenodd" clip-rule="evenodd" d="M88.1837 146.502C83.3101 146.547 85.1267 146.53 88.1837 146.502L71.5047 146.657C69.2682 146.657 67.4657 148.471 67.4657 150.696C67.4657 152.922 69.2793 154.735 71.5047 154.735H144.619C146.855 154.735 148.658 152.922 148.658 150.696C148.658 148.471 146.844 146.657 144.619 146.657L127.812 146.502C146.521 146.502 132.057 146.541 127.812 146.502H176.263C182.572 146.502 187.69 141.394 187.69 135.086V42.0547C187.69 36.7139 183.329 32.3522 177.988 32.3522H38.2802C32.9393 32.3522 28.5776 36.7027 28.5776 42.0436V135.074C28.5776 141.383 33.6959 146.49 40.0048 146.49H88.6176L88.1837 146.502Z" fill="#132766"/>
<path fill-rule="evenodd" clip-rule="evenodd" d="M180.581 123.781H35.688V42.0547C35.688 40.6416 36.8563 39.4733 38.2805 39.4733H177.988C179.401 39.4733 180.57 40.6416 180.57 42.0547V123.792L180.581 123.781Z" fill="white"/>
<path fill-rule="evenodd" clip-rule="evenodd" d="M139.8 44.8202C139.8 44.8202 139.8 44.801 139.8 44.7914C139.798 44.7723 139.794 44.7531 139.792 44.7339C139.786 44.6898 139.78 44.6438 139.773 44.5997C139.759 44.5058 139.744 44.4118 139.727 44.3179C139.719 44.2719 139.709 44.2239 139.7 44.1779C139.679 44.0763 139.656 43.9747 139.631 43.8731C139.623 43.8405 139.615 43.806 139.606 43.7734C139.571 43.6411 139.531 43.5107 139.489 43.3823C139.477 43.3497 139.466 43.3171 139.454 43.2845C139.42 43.1867 139.385 43.089 139.347 42.9931C139.33 42.949 139.313 42.9068 139.293 42.8646C139.255 42.7745 139.217 42.6863 139.175 42.5981C139.155 42.5598 139.138 42.5195 139.119 42.4812C139.058 42.3585 138.996 42.2377 138.927 42.1169C138.927 42.1169 138.927 42.115 138.927 42.1131C138.925 42.1093 138.923 42.1035 138.92 42.0997C135.137 35.7115 129.234 30.9913 123.923 27.7876C123.923 27.7876 123.919 27.7838 123.917 27.7838C123.896 27.7723 123.875 27.7608 123.856 27.7493C123.762 27.6937 123.666 27.6419 123.568 27.5921C123.522 27.5671 123.476 27.5441 123.428 27.5211C123.342 27.479 123.254 27.4387 123.166 27.3984C123.127 27.3812 123.091 27.3639 123.053 27.3486C122.936 27.3007 122.819 27.2546 122.702 27.2125C122.65 27.1933 122.598 27.178 122.546 27.1607C122.466 27.1339 122.384 27.1089 122.301 27.084C122.249 27.0687 122.198 27.0533 122.146 27.0399C122.029 27.0092 121.912 26.9805 121.795 26.9556C121.734 26.9421 121.67 26.9306 121.609 26.9191C121.573 26.9134 121.536 26.9038 121.5 26.898C121.488 26.8942 121.477 26.8961 121.467 26.8942C121.093 26.8329 120.716 26.7983 120.334 26.7983C111.875 26.7888 73.9661 26.7888 73.9661 26.7888C71.0174 26.7926 68.6343 29.1757 68.6343 32.1167V110.031C68.6343 112.972 71.0174 115.355 73.9584 115.355H134.521C137.462 115.355 139.846 112.972 139.846 110.031V45.5986C139.846 45.3379 139.828 45.079 139.8 44.8202Z" fill="#132766"/>
<path fill-rule="evenodd" clip-rule="evenodd" d="M122.265 28.8422C122.38 28.8863 122.493 28.9342 122.604 28.9879C122.625 28.9975 122.648 29.0071 122.669 29.0186C122.802 29.0819 122.932 29.1509 123.059 29.2256C123.954 29.7663 124.868 30.3511 125.785 30.9818C130.089 33.9382 134.476 37.8934 137.47 42.9472C137.524 43.043 137.576 43.1408 137.624 43.2386C137.637 43.2654 137.649 43.2923 137.66 43.3191C137.693 43.3901 137.725 43.4629 137.756 43.5358C137.771 43.5722 137.785 43.6067 137.798 43.6431C137.823 43.7083 137.848 43.7735 137.871 43.8406C137.884 43.8809 137.898 43.9231 137.911 43.9633C137.921 43.9921 137.928 44.0208 137.936 44.0496C137.817 44.0496 124.067 44.0496 124.067 44.0496C122.702 44.0496 120.873 43.622 119.682 42.7842C119.205 42.4487 118.829 42.0538 118.716 41.561C118.605 41.0741 118.779 40.5277 119.247 39.8931C122.698 35.238 122.349 31.6203 122.217 28.825C122.232 28.8307 122.248 28.8365 122.261 28.8422H122.265Z" fill="white"/>
<path fill-rule="evenodd" clip-rule="evenodd" d="M134.522 113.679H73.9585C71.9435 113.679 70.3101 112.046 70.3101 110.031V32.1167C70.3101 30.1017 71.9435 28.4683 73.9585 28.4683C73.9585 28.4683 111.866 28.4683 120.326 28.4778C120.395 28.4778 120.466 28.4817 120.535 28.4855C120.654 31.0853 121.172 34.4941 117.905 38.8999C117.061 40.0387 116.887 41.0606 117.086 41.9367C117.284 42.8071 117.876 43.5625 118.722 44.1569C120.175 45.1787 122.403 45.7271 124.071 45.7271H138.17V110.033C138.17 112.048 136.537 113.681 134.522 113.681V113.679Z" fill="white"/>
<path fill-rule="evenodd" clip-rule="evenodd" d="M77.789 62.7655H114.498C114.96 62.7655 115.336 62.3897 115.336 61.9277C115.336 61.4656 114.96 61.0898 114.498 61.0898H77.789C77.3269 61.0898 76.9512 61.4656 76.9512 61.9277C76.9512 62.3897 77.3269 62.7655 77.789 62.7655Z" fill="#132766"/>
<path fill-rule="evenodd" clip-rule="evenodd" d="M122.788 62.7655H131.933C132.395 62.7655 132.771 62.3897 132.771 61.9277C132.771 61.4656 132.395 61.0898 131.933 61.0898H122.788C122.326 61.0898 121.95 61.4656 121.95 61.9277C121.95 62.3897 122.326 62.7655 122.788 62.7655Z" fill="#132766"/>
<path fill-rule="evenodd" clip-rule="evenodd" d="M124.51 84.1885H92.8354C92.3733 84.1885 91.9976 84.5643 91.9976 85.0263C91.9976 85.4884 92.3733 85.8641 92.8354 85.8641H124.51C124.972 85.8641 125.348 85.4884 125.348 85.0263C125.348 84.5643 124.972 84.1885 124.51 84.1885Z" fill="#132766"/>
<path fill-rule="evenodd" clip-rule="evenodd" d="M85.6803 84.1885H77.789C77.3269 84.1885 76.9512 84.5643 76.9512 85.0263C76.9512 85.4884 77.3269 85.8641 77.789 85.8641H85.6803C86.1423 85.8641 86.5181 85.4884 86.5181 85.0263C86.5181 84.5643 86.1423 84.1885 85.6803 84.1885Z" fill="#132766"/>
<path fill-rule="evenodd" clip-rule="evenodd" d="M131.933 72.6411H77.789C77.3269 72.6411 76.9512 73.0169 76.9512 73.4789C76.9512 73.941 77.3269 74.3168 77.789 74.3168H131.933C132.395 74.3168 132.771 73.941 132.771 73.4789C132.771 73.0169 132.395 72.6411 131.933 72.6411Z" fill="#132766"/>
<path d="M84.0321 43.6714C84.0321 44.2187 83.9835 44.544 83.8723 44.8004C83.7687 45.0147 83.5668 45.2366 83.3584 45.368C83.0593 45.5683 82.7052 45.6589 82.3792 45.6589C82.1568 45.6589 81.0115 45.5823 80.7967 44.4189C80.7763 44.3156 80.7686 44.197 80.7622 44.0796H81.8666C81.8666 44.1281 81.873 44.1702 81.8807 44.2187C81.9574 44.5516 82.1658 44.7519 82.4291 44.7519C82.7142 44.7455 82.8663 44.5924 82.9289 44.4189C82.9915 44.2595 82.9979 44.0796 82.9979 43.9202V40.4351H84.0321V43.6714Z" fill="#132766"/>
<path d="M88.6566 45.5619H87.7465V45.0147C87.5036 45.4586 86.9961 45.6793 86.4618 45.6793C85.2398 45.6793 84.5239 44.7302 84.5239 43.6561C84.5239 42.457 85.3919 41.6393 86.4618 41.6393C87.1559 41.6393 87.5803 42.0067 87.7465 42.3116V41.7566H88.6566V45.5607V45.5619ZM85.4353 43.6778C85.4353 44.1485 85.7754 44.8348 86.5948 44.8348C87.101 44.8348 87.4346 44.572 87.6084 44.225C87.6992 44.0592 87.7401 43.8781 87.7542 43.6918C87.7606 43.5119 87.726 43.3244 87.6493 43.1586C87.4896 42.7989 87.1355 42.4863 86.5871 42.4863C85.8508 42.4863 85.4341 43.0821 85.4341 43.6714V43.6778H85.4353Z" fill="#132766"/>
<path d="M93.7759 38.6974C93.7759 38.6974 92.4043 46.9496 84.2642 50.7549L85.7636 51.8239C85.7636 51.8239 93.3477 48.2329 93.7759 38.6974Z" fill="#132766"/>
<path d="M77.9657 38.6974C77.9657 38.6974 78.0514 47.5479 84.4352 52.3801C84.4352 52.3801 77.2371 48.8312 76.4229 39.6809L77.9657 38.6974Z" fill="#132766"/>
<path d="M76.9805 37.6286C76.9805 37.6286 84.0929 33.2671 92.4478 37.6286V39.5102C92.4478 39.5102 86.2775 34.678 76.9805 37.6286Z" fill="#08A5B5"/>
<rect x="77.5356" y="93.5493" width="25.5915" height="7.78873" rx="3.89437" fill="#08A5B5"/>
<path fill-rule="evenodd" clip-rule="evenodd" d="M153.152 37.0314C153.152 37.0314 153.152 37.0123 153.152 37.0027C153.15 36.9835 153.146 36.9643 153.144 36.9452C153.138 36.9011 153.132 36.8551 153.125 36.811C153.111 36.717 153.096 36.6231 153.079 36.5291C153.071 36.4831 153.061 36.4352 153.052 36.3892C153.031 36.2876 153.008 36.186 152.983 36.0843C152.975 36.0517 152.968 36.0172 152.958 35.9846C152.923 35.8524 152.883 35.722 152.841 35.5935C152.829 35.5609 152.818 35.5283 152.806 35.4958C152.772 35.398 152.737 35.3002 152.699 35.2043C152.682 35.1602 152.665 35.1181 152.645 35.0759C152.607 34.9858 152.569 34.8976 152.527 34.8094C152.507 34.771 152.49 34.7308 152.471 34.6924C152.41 34.5697 152.348 34.449 152.279 34.3282C152.279 34.3282 152.279 34.3263 152.279 34.3243C152.277 34.3205 152.275 34.3147 152.272 34.3109C148.489 27.9227 142.586 23.2025 137.275 19.9989C137.275 19.9989 137.271 19.995 137.269 19.995C137.248 19.9835 137.227 19.972 137.208 19.9605C137.114 19.9049 137.018 19.8532 136.92 19.8033C136.874 19.7784 136.828 19.7554 136.78 19.7324C136.694 19.6902 136.606 19.6499 136.518 19.6097C136.479 19.5924 136.443 19.5752 136.405 19.5598C136.288 19.5119 136.171 19.4659 136.054 19.4237C136.002 19.4045 135.95 19.3892 135.899 19.3719C135.818 19.3451 135.736 19.3202 135.653 19.2953C135.601 19.2799 135.55 19.2646 135.498 19.2512C135.381 19.2205 135.264 19.1917 135.147 19.1668C135.086 19.1534 135.022 19.1419 134.961 19.1304C134.925 19.1246 134.888 19.115 134.852 19.1093C134.84 19.1054 134.829 19.1074 134.819 19.1054C134.445 19.0441 134.068 19.0096 133.686 19.0096C125.227 19 87.3181 19 87.3181 19C84.3694 19.0038 81.9863 21.3869 81.9863 24.328V102.242C81.9863 105.183 84.3694 107.566 87.3104 107.566H147.873C150.814 107.566 153.198 105.183 153.198 102.242V37.8098C153.198 37.5491 153.18 37.2903 153.152 37.0314Z" fill="#132766"/>
<path fill-rule="evenodd" clip-rule="evenodd" d="M135.617 21.0534C135.732 21.0975 135.845 21.1454 135.956 21.1991C135.977 21.2087 136 21.2183 136.021 21.2298C136.154 21.293 136.284 21.3621 136.411 21.4368C137.306 21.9775 138.22 22.5622 139.137 23.193C143.441 26.1494 147.828 30.1046 150.822 35.1584C150.876 35.2542 150.928 35.352 150.976 35.4498C150.989 35.4766 151.001 35.5035 151.012 35.5303C151.045 35.6012 151.077 35.6741 151.108 35.747C151.123 35.7834 151.137 35.8179 151.15 35.8543C151.175 35.9195 151.2 35.9847 151.223 36.0518C151.236 36.0921 151.25 36.1342 151.263 36.1745C151.273 36.2033 151.281 36.232 151.288 36.2608C151.169 36.2608 137.419 36.2608 137.419 36.2608C136.054 36.2608 134.225 35.8332 133.034 34.9954C132.557 34.6599 132.181 34.2649 132.068 33.7722C131.957 33.2852 132.131 32.7388 132.599 32.1042C136.05 27.4492 135.701 23.8314 135.569 21.0361C135.584 21.0419 135.6 21.0476 135.613 21.0534H135.617Z" fill="white"/>
<path fill-rule="evenodd" clip-rule="evenodd" d="M147.874 105.89H87.3106C85.2956 105.89 83.6621 104.257 83.6621 102.242V24.3279C83.6621 22.3129 85.2956 20.6794 87.3106 20.6794C87.3106 20.6794 125.218 20.6794 133.679 20.689C133.748 20.689 133.818 20.6929 133.887 20.6967C134.006 23.2964 134.524 26.7053 131.257 31.111C130.413 32.2499 130.239 33.2717 130.438 34.1479C130.636 35.0183 131.228 35.7737 132.074 36.368C133.527 37.3899 135.755 37.9382 137.423 37.9382H151.522V102.244C151.522 104.259 149.889 105.892 147.874 105.892V105.89Z" fill="white"/>
<path fill-rule="evenodd" clip-rule="evenodd" d="M91.141 54.9767H127.85C128.312 54.9767 128.688 54.6009 128.688 54.1388C128.688 53.6768 128.312 53.301 127.85 53.301H91.141C90.679 53.301 90.3032 53.6768 90.3032 54.1388C90.3032 54.6009 90.679 54.9767 91.141 54.9767Z" fill="#132766"/>
<path fill-rule="evenodd" clip-rule="evenodd" d="M136.141 54.9767H145.286C145.748 54.9767 146.124 54.6009 146.124 54.1388C146.124 53.6768 145.748 53.301 145.286 53.301H136.141C135.679 53.301 135.303 53.6768 135.303 54.1388C135.303 54.6009 135.679 54.9767 136.141 54.9767Z" fill="#132766"/>
<path fill-rule="evenodd" clip-rule="evenodd" d="M137.862 76.3997H106.187C105.725 76.3997 105.35 76.7754 105.35 77.2375C105.35 77.6995 105.725 78.0753 106.187 78.0753H137.862C138.324 78.0753 138.7 77.6995 138.7 77.2375C138.7 76.7754 138.324 76.3997 137.862 76.3997Z" fill="#132766"/>
<path fill-rule="evenodd" clip-rule="evenodd" d="M99.0323 76.3997H91.141C90.679 76.3997 90.3032 76.7754 90.3032 77.2375C90.3032 77.6995 90.679 78.0753 91.141 78.0753H99.0323C99.4944 78.0753 99.8701 77.6995 99.8701 77.2375C99.8701 76.7754 99.4944 76.3997 99.0323 76.3997Z" fill="#132766"/>
<path fill-rule="evenodd" clip-rule="evenodd" d="M145.285 64.8523H91.141C90.679 64.8523 90.3032 65.2281 90.3032 65.6901C90.3032 66.1522 90.679 66.5279 91.141 66.5279H145.285C145.747 66.5279 146.123 66.1522 146.123 65.6901C146.123 65.2281 145.747 64.8523 145.285 64.8523Z" fill="#132766"/>
<path d="M97.3851 35.8827C97.3851 36.43 97.3365 36.7553 97.2253 37.0117C97.1218 37.226 96.9198 37.4479 96.7114 37.5793C96.4123 37.7796 96.0582 37.8702 95.7323 37.8702C95.5098 37.8702 94.3645 37.7936 94.1497 36.6302C94.1293 36.5269 94.1216 36.4083 94.1152 36.2909H95.2197C95.2197 36.3394 95.2261 36.3815 95.2337 36.43C95.3104 36.7629 95.5188 36.9632 95.7821 36.9632C96.0672 36.9568 96.2193 36.8037 96.2819 36.6302C96.3446 36.4708 96.351 36.2909 96.351 36.1315V32.6464H97.3851V35.8827Z" fill="#132766"/>
<path d="M102.01 37.7732H101.1V37.226C100.857 37.6699 100.349 37.8906 99.8148 37.8906C98.5928 37.8906 97.877 36.9415 97.877 35.8674C97.877 34.6683 98.7449 33.8506 99.8148 33.8506C100.509 33.8506 100.933 34.218 101.1 34.5229V33.9679H102.01V37.772V37.7732ZM98.7884 35.8891C98.7884 36.3598 99.1284 37.0461 99.9478 37.0461C100.454 37.0461 100.788 36.7833 100.961 36.4363C101.052 36.2705 101.093 36.0894 101.107 35.9031C101.114 35.7233 101.079 35.5357 101.002 35.3699C100.843 35.0102 100.488 34.6976 99.9401 34.6976C99.2038 34.6976 98.7871 35.2934 98.7871 35.8827V35.8891H98.7884Z" fill="#132766"/>
<path d="M107.128 30.9088C107.128 30.9088 105.757 39.161 97.6167 42.9663L99.1161 44.0353C99.1161 44.0353 106.7 40.4443 107.128 30.9088Z" fill="#132766"/>
<path d="M91.3183 30.9088C91.3183 30.9088 91.4039 39.7593 97.7877 44.5915C97.7877 44.5915 90.5897 41.0426 89.7754 31.8923L91.3183 30.9088Z" fill="#132766"/>
<path d="M90.333 29.8399C90.333 29.8399 97.4454 25.4784 105.8 29.8399V31.7215C105.8 31.7215 99.63 26.8893 90.333 29.8399Z" fill="#08A5B5"/>
<rect x="90.8877" y="85.7606" width="25.5915" height="7.78873" rx="3.89437" fill="#08A5B5"/>
</svg>
