<svg width="200" height="200" viewBox="0 0 200 200" fill="none" xmlns="http://www.w3.org/2000/svg">
<g clip-path="url(#clip0_242_1697)">
<path d="M103 155C144.421 155 178 121.421 178 80C178 38.5786 144.421 5 103 5C61.5786 5 28 38.5786 28 80C28 121.421 61.5786 155 103 155Z" fill="white" stroke="#132766" stroke-width="3"/>
<path d="M137.13 84.6631C135.214 84.6631 131.779 83.7097 128.874 82.4469C128.874 81.8366 128.874 76.9541 128.874 76.3438C128.874 74.0178 126.981 72.125 124.655 72.125C124.468 72.125 123.53 72.125 121.842 72.125C121.842 56.9375 121.842 48.5 121.842 46.8125C121.842 45.2628 120.581 44 119.03 44C114.811 44 81.0625 44 76.8438 44C75.2927 44 74.0312 45.2628 74.0312 46.8125C74.0312 47.9375 74.0312 53.5639 74.0312 63.6889C71.5 63.6889 70.0938 63.6889 69.8125 63.6889C68.2614 63.6889 67 64.9503 67 66.5014C67 70.5795 67 103.203 67 107.281C67 109.607 68.8928 111.5 71.2188 111.5C75.7863 111.5 112.328 111.5 116.895 111.5C118.549 113.029 120.509 114.487 122.832 115.814C123.049 115.938 123.289 115.999 123.53 115.999C123.77 115.999 124.011 115.938 124.227 115.814C133.959 110.258 137.328 102.388 138.439 96.7625C139.641 90.6805 138.544 85.9428 138.497 85.7431C138.346 85.1103 137.781 84.6631 137.13 84.6631ZM76.8438 46.8125H119.03V72.125H94.6708C93.2561 68.5897 92.47 66.6266 92.3125 66.2328C91.6952 64.6873 90.2664 63.6889 88.6731 63.6889C87.8842 63.6889 83.9411 63.6889 76.8438 63.6889V46.8125ZM69.8125 105.875C74.2 105.875 76.637 105.875 77.1236 105.875C77.9012 105.875 78.5298 105.245 78.5298 104.469C78.5298 103.693 77.9012 103.063 77.1236 103.063C76.637 103.063 74.2 103.063 69.8125 103.063V66.5014C81.1286 66.5014 87.4159 66.5014 88.6731 66.5014C89.1695 66.5014 89.5478 66.8909 89.7025 67.2777C89.9725 67.9555 92.1409 73.3766 92.4123 74.0544C92.6261 74.5888 93.1436 74.9375 93.7188 74.9375C96.8125 74.9375 121.561 74.9375 124.655 74.9375C125.431 74.9375 126.061 75.5689 126.061 76.3438C126.061 76.8106 126.061 80.54 126.061 81.0055C125.438 80.6202 124.908 80.2278 124.518 79.8439C123.971 79.3025 123.09 79.3025 122.541 79.8439C120.235 82.1248 113.056 84.6631 109.931 84.6631C109.28 84.6631 108.714 85.1103 108.563 85.7431C108.515 85.9428 107.42 90.6805 108.621 96.7611C109.308 100.237 110.858 104.573 114.237 108.688C109.936 108.688 75.5205 108.688 71.2188 108.688C70.4439 108.688 69.8125 108.056 69.8125 107.281C69.8125 107.094 69.8125 106.625 69.8125 105.875ZM123.53 112.963C116.906 108.97 112.828 103.378 111.402 96.328C110.605 92.3834 110.893 89.0098 111.124 87.4011C114.752 86.9933 120.482 84.9444 123.53 82.6803C126.579 84.9458 132.312 86.9947 135.94 87.4025C136.169 88.9888 136.455 92.2991 135.68 96.2169C134.276 103.318 130.19 108.948 123.53 112.963Z" fill="#08A5B5"/>
<path d="M113.897 52.4375C114.673 52.4375 115.303 51.8089 115.303 51.0312C115.303 50.255 114.673 49.625 113.897 49.625C110.705 49.625 85.1688 49.625 81.9766 49.625C81.2003 49.625 80.5703 50.255 80.5703 51.0312C80.5703 51.8089 81.2003 52.4375 81.9766 52.4375C88.3609 52.4375 110.705 52.4375 113.897 52.4375Z" fill="#132766"/>
<path d="M113.897 55.25C110.705 55.25 85.1688 55.25 81.9766 55.25C81.2003 55.25 80.5703 55.88 80.5703 56.6562C80.5703 57.4339 81.2003 58.0625 81.9766 58.0625C85.1688 58.0625 110.705 58.0625 113.897 58.0625C114.673 58.0625 115.303 57.4339 115.303 56.6562C115.303 55.88 114.673 55.25 113.897 55.25Z" fill="#132766"/>
<path d="M97.936 60.875C97.1598 60.875 96.5298 61.505 96.5298 62.2812C96.5298 63.0589 97.1598 63.6875 97.936 63.6875C99.5321 63.6875 112.301 63.6875 113.897 63.6875C114.673 63.6875 115.303 63.0589 115.303 62.2812C115.303 61.505 114.673 60.875 113.897 60.875C110.705 60.875 99.5321 60.875 97.936 60.875Z" fill="#132766"/>
<path d="M105.6 66.5C104.824 66.5 104.194 67.13 104.194 67.9062C104.194 68.6825 104.824 69.3125 105.6 69.3125C106.43 69.3125 113.067 69.3125 113.897 69.3125C114.673 69.3125 115.303 68.6825 115.303 67.9062C115.303 67.13 114.673 66.5 113.897 66.5C112.238 66.5 106.43 66.5 105.6 66.5Z" fill="#132766"/>
<path d="M125.801 91.3035C125.542 91.5622 124.248 92.856 121.92 95.1847C121.523 94.7896 121.304 94.5688 121.26 94.5252C120.463 93.7293 119.404 93.2905 118.276 93.2905C117.15 93.2905 116.091 93.7293 115.293 94.5252C114.497 95.3225 114.059 96.3814 114.059 97.5079C114.059 98.6357 114.497 99.6946 115.293 100.491C115.657 100.855 118.571 103.77 118.935 104.134C119.758 104.955 120.838 105.367 121.92 105.367C123 105.367 124.08 104.955 124.902 104.134C125.588 103.446 131.08 97.9564 131.766 97.2688C133.41 95.6249 133.41 92.9488 131.766 91.3035C130.969 90.5075 129.91 90.0674 128.783 90.0674C127.656 90.0674 126.597 90.5075 125.801 91.3035ZM122.914 102.144C122.365 102.693 121.474 102.693 120.925 102.144C120.561 101.78 117.647 98.8663 117.283 98.5021C117.017 98.2363 116.871 97.8833 116.871 97.5079C116.871 97.1324 117.017 96.7794 117.283 96.5136C117.547 96.2479 117.902 96.1016 118.277 96.1016C118.653 96.1016 119.006 96.2479 119.27 96.5136C119.436 96.6796 120.759 98.0029 120.925 98.1674C121.188 98.4318 121.545 98.5794 121.92 98.5794C122.292 98.5794 122.649 98.4318 122.914 98.1674C123.4 97.6808 127.301 93.7799 127.789 93.2919C128.054 93.0261 128.408 92.8813 128.783 92.8813C129.159 92.8813 129.512 93.0275 129.776 93.2919C130.325 93.8404 130.325 94.7319 129.778 95.2804C129.778 95.2804 123.6 101.458 122.914 102.144Z" fill="#132766"/>
<path d="M82.0454 104.469C82.0454 105.245 82.6754 105.875 83.4517 105.875H83.4531C84.2293 105.875 84.8579 105.245 84.8579 104.469C84.8579 103.692 84.2279 103.062 83.4517 103.062C82.6754 103.062 82.0454 103.692 82.0454 104.469Z" fill="#08A5B5"/>
</g>
<defs>
<clipPath id="clip0_242_1697">
<rect width="200" height="200" fill="white"/>
</clipPath>
</defs>
</svg>
