<svg width="154" height="171" viewBox="0 0 154 171" fill="none" xmlns="http://www.w3.org/2000/svg">
<circle cx="66.75" cy="85.75" r="66.25" fill="#F1FAFF" stroke="black" stroke-dasharray="4 4"/>
<path fill-rule="evenodd" clip-rule="evenodd" d="M95.938 75.3082C95.938 75.3082 95.938 75.2824 95.938 75.2694C95.9354 75.2436 95.9302 75.2178 95.9276 75.1919C95.9199 75.1325 95.9121 75.0704 95.9018 75.011C95.8837 74.8843 95.863 74.7577 95.8398 74.631C95.8294 74.569 95.8165 74.5044 95.8036 74.4424C95.7751 74.3054 95.7441 74.1684 95.7105 74.0314C95.7002 73.9875 95.6898 73.941 95.6769 73.897C95.6304 73.7187 95.5761 73.5429 95.5193 73.3698C95.5038 73.3258 95.4883 73.2819 95.4727 73.2379C95.4262 73.1061 95.3797 72.9743 95.328 72.8451C95.3047 72.7856 95.2815 72.7288 95.2556 72.6719C95.2039 72.5504 95.1523 72.4315 95.0954 72.3127C95.0695 72.261 95.0463 72.2067 95.0204 72.155C94.9377 71.9896 94.855 71.8267 94.762 71.6639C94.762 71.6639 94.762 71.6613 94.762 71.6588C94.7594 71.6536 94.7568 71.6458 94.7516 71.6407C89.6522 63.0288 81.6942 56.6655 74.5349 52.3466C74.5349 52.3466 74.5297 52.3414 74.5271 52.3414C74.4987 52.3259 74.4702 52.3104 74.4444 52.2949C74.3177 52.2199 74.1885 52.1501 74.0567 52.0829C73.9947 52.0493 73.9326 52.0183 73.868 51.9873C73.7517 51.9305 73.6328 51.8762 73.5139 51.8219C73.4622 51.7986 73.4131 51.7754 73.3614 51.7547C73.2038 51.6901 73.0461 51.6281 72.8885 51.5712C72.8187 51.5454 72.7489 51.5247 72.6791 51.5014C72.5706 51.4652 72.4594 51.4316 72.3483 51.398C72.2785 51.3774 72.2087 51.3567 72.1389 51.3386C71.9813 51.2972 71.8236 51.2585 71.6659 51.2249C71.5832 51.2068 71.4979 51.1913 71.4152 51.1758C71.3661 51.168 71.317 51.1551 71.2679 51.1473C71.2524 51.1422 71.2369 51.1447 71.224 51.1422C70.72 51.0594 70.2108 51.0129 69.6965 51.0129C58.2932 51 7.18779 51 7.18779 51C3.21266 51.0052 0 54.2178 0 58.1826V163.218C0 167.183 3.21266 170.396 7.17745 170.396H88.8226C92.7873 170.396 96 167.183 96 163.218V76.3576C96 76.0061 95.9767 75.6571 95.938 75.3082Z" fill="#132766"/>
<path fill-rule="evenodd" clip-rule="evenodd" d="M72.2995 53.7681C72.4546 53.8276 72.607 53.8922 72.7569 53.9646C72.7854 53.9775 72.8164 53.9904 72.8448 54.0059C73.0232 54.0912 73.1989 54.1843 73.3695 54.2851C74.5765 55.0139 75.8094 55.8022 77.0448 56.6526C82.8472 60.638 88.7608 65.9701 92.798 72.7831C92.8704 72.9123 92.9401 73.0441 93.0047 73.1759C93.0228 73.2121 93.0383 73.2483 93.0539 73.2845C93.0978 73.3801 93.1417 73.4783 93.1831 73.5766C93.2038 73.6257 93.2219 73.6722 93.2399 73.7213C93.2735 73.8092 93.3071 73.897 93.3382 73.9875C93.3563 74.0418 93.3743 74.0986 93.3924 74.1529C93.4054 74.1917 93.4157 74.2305 93.426 74.2692C93.2658 74.2692 74.729 74.2692 74.729 74.2692C72.8888 74.2692 70.4231 73.6929 68.818 72.5634C68.1744 72.1111 67.6679 71.5787 67.5154 70.9144C67.3655 70.2579 67.6007 69.5213 68.2313 68.6658C72.8836 62.3904 72.4132 57.5132 72.2349 53.7449C72.2555 53.7526 72.2762 53.7604 72.2943 53.7681H72.2995Z" fill="white"/>
<path fill-rule="evenodd" clip-rule="evenodd" d="M88.8224 168.137H7.17729C4.46087 168.137 2.25879 165.935 2.25879 163.218V58.1825C2.25879 55.4661 4.46087 53.264 7.17729 53.264C7.17729 53.264 58.2801 53.264 69.686 53.277C69.779 53.277 69.8747 53.2821 69.9677 53.2873C70.1279 56.792 70.8258 61.3875 66.4216 67.3269C65.2844 68.8621 65.0492 70.2397 65.318 71.4209C65.5842 72.5943 66.3829 73.6126 67.5227 74.4139C69.4818 75.7915 72.4851 76.5307 74.7337 76.5307H93.7409V163.221C93.7409 165.937 91.5388 168.139 88.8224 168.139V168.137Z" fill="white"/>
<path fill-rule="evenodd" clip-rule="evenodd" d="M12.3414 99.5002H61.8288C62.4517 99.5002 62.9583 98.9936 62.9583 98.3707C62.9583 97.7478 62.4517 97.2412 61.8288 97.2412H12.3414C11.7185 97.2412 11.2119 97.7478 11.2119 98.3707C11.2119 98.9936 11.7185 99.5002 12.3414 99.5002Z" fill="#132766"/>
<path fill-rule="evenodd" clip-rule="evenodd" d="M73.005 99.5002H85.3335C85.9564 99.5002 86.463 98.9936 86.463 98.3707C86.463 97.7478 85.9564 97.2412 85.3335 97.2412H73.005C72.3821 97.2412 71.8755 97.7478 71.8755 98.3707C71.8755 98.9936 72.3821 99.5002 73.005 99.5002Z" fill="#132766"/>
<path fill-rule="evenodd" clip-rule="evenodd" d="M75.3258 128.38H32.6256C32.0027 128.38 31.4961 128.887 31.4961 129.51C31.4961 130.133 32.0027 130.639 32.6256 130.639H75.3258C75.9487 130.639 76.4553 130.133 76.4553 129.51C76.4553 128.887 75.9487 128.38 75.3258 128.38Z" fill="#132766"/>
<path fill-rule="evenodd" clip-rule="evenodd" d="M22.9796 128.38H12.3414C11.7185 128.38 11.2119 128.887 11.2119 129.51C11.2119 130.133 11.7185 130.639 12.3414 130.639H22.9796C23.6025 130.639 24.1091 130.133 24.1091 129.51C24.1091 128.887 23.6025 128.38 22.9796 128.38Z" fill="#132766"/>
<path fill-rule="evenodd" clip-rule="evenodd" d="M85.3332 112.813H12.3414C11.7185 112.813 11.2119 113.32 11.2119 113.943C11.2119 114.566 11.7185 115.072 12.3414 115.072H85.3332C85.9561 115.072 86.4627 114.566 86.4627 113.943C86.4627 113.32 85.9561 112.813 85.3332 112.813Z" fill="#132766"/>
<path d="M20.7582 73.7595C20.7582 74.4973 20.6927 74.9358 20.5428 75.2815C20.4032 75.5704 20.1309 75.8696 19.85 76.0467C19.4468 76.3167 18.9695 76.4388 18.53 76.4388C18.2302 76.4388 16.6861 76.3357 16.3966 74.7673C16.3691 74.628 16.3587 74.4681 16.3501 74.3098H17.839C17.839 74.3752 17.8476 74.4319 17.858 74.4973C17.9613 74.9461 18.2422 75.2161 18.5972 75.2161C18.9815 75.2075 19.1866 75.0012 19.271 74.7673C19.3555 74.5523 19.3641 74.3098 19.3641 74.0949V69.3966H20.7582V73.7595Z" fill="#132766"/>
<path d="M26.9927 76.3081H25.7657V75.5704C25.4383 76.1688 24.7542 76.4664 24.0339 76.4664C22.3864 76.4664 21.4214 75.1869 21.4214 73.7389C21.4214 72.1224 22.5915 71.02 24.0339 71.02C24.9696 71.02 25.5417 71.5153 25.7657 71.9263V71.1782H26.9927V76.3064V76.3081ZM22.6501 73.7681C22.6501 74.4027 23.1085 75.3279 24.2131 75.3279C24.8955 75.3279 25.3453 74.9736 25.5796 74.5059C25.702 74.2823 25.7571 74.0381 25.7761 73.787C25.7847 73.5446 25.7382 73.2918 25.6348 73.0682C25.4194 72.5832 24.942 72.1619 24.2027 72.1619C23.2101 72.1619 22.6483 72.965 22.6483 73.7595V73.7681H22.6501Z" fill="#132766"/>
<path d="M33.8936 67.0541C33.8936 67.0541 32.0445 78.1789 21.0708 83.3088L23.0922 84.75C23.0922 84.75 33.3163 79.909 33.8936 67.0541Z" fill="#132766"/>
<path d="M12.58 67.0541C12.58 67.0541 12.6954 78.9855 21.3014 85.4997C21.3014 85.4997 11.5977 80.7155 10.5 68.38L12.58 67.0541Z" fill="#132766"/>
<path d="M11.2515 65.6132C11.2515 65.6132 20.8397 59.7335 32.1029 65.6132V68.1498C32.1029 68.1498 23.7848 61.6355 11.2515 65.6132Z" fill="#08A5B5"/>
<rect x="12" y="141" width="34.5" height="10.5" rx="5.25" fill="#08A5B5"/>
<g filter="url(#filter0_d_241_1378)">
<circle cx="132.75" cy="79.75" r="17.25" fill="white"/>
</g>
<path d="M143.568 77.4139C143.31 77.2786 143.07 77.3022 142.848 77.2551C142.62 77.2257 142.391 77.1904 142.169 77.161C141.719 77.0964 141.281 77.0376 140.855 76.9788C139.996 76.8612 139.18 76.7494 138.406 76.6436C138.022 76.5907 137.643 76.5378 137.277 76.4907C137.103 76.4613 136.899 76.4496 136.755 76.4084C136.605 76.3614 136.479 76.2614 136.395 76.1379C135.777 74.9443 135.249 73.9095 134.81 73.0569C134.378 72.2278 134.036 71.5752 133.796 71.1107C133.682 70.899 133.592 70.7343 133.526 70.605C133.466 70.4933 133.412 70.3698 133.328 70.2698C133.25 70.1699 133.082 70.0288 132.812 70.0052C132.553 69.97 132.175 70.1111 132.019 70.4756C131.851 70.8049 131.653 71.1812 131.437 71.5987C130.999 72.4513 130.465 73.4861 129.852 74.6915C129.696 74.9914 129.54 75.303 129.372 75.6264C129.288 75.7851 129.21 75.9498 129.126 76.1144C129.042 76.2555 128.904 76.3614 128.742 76.4084C127.974 76.5143 127.163 76.6318 126.311 76.7494C125.453 76.867 124.552 76.9905 123.616 77.1199C123.142 77.1846 122.661 77.2551 122.175 77.3257C121.893 77.3845 121.647 77.5961 121.551 77.8666C121.449 78.1371 121.503 78.4605 121.689 78.6898C123.148 80.0892 124.702 81.5886 126.341 83.1644C126.533 83.3349 126.599 83.5466 126.539 83.8053C126.491 84.0875 126.437 84.3639 126.389 84.652C126.287 85.2164 126.191 85.7927 126.083 86.3689C125.879 87.5272 125.669 88.7091 125.459 89.9086C125.368 90.2437 125.525 90.673 125.855 90.8611C126.017 90.9611 126.209 91.014 126.401 90.9963C126.593 90.9846 126.773 90.8846 126.899 90.82C127.457 90.5318 128.028 90.2378 128.598 89.9497C129.738 89.3617 130.891 88.7679 132.061 88.1681L132.493 87.9447C132.607 87.8859 132.745 87.8741 132.872 87.8977C132.986 87.9153 133.13 88.0094 133.28 88.0799L133.712 88.3034C134.288 88.6032 134.864 88.8972 135.435 89.1912C136.581 89.7792 137.704 90.3554 138.814 90.9258C139.162 91.0845 139.594 90.9787 139.834 90.7024C139.96 90.5671 140.038 90.3907 140.056 90.2084C140.074 90.0144 140.026 89.8674 140.002 89.7204C139.9 89.1324 139.792 88.5444 139.69 87.9682C139.486 86.8099 139.288 85.6751 139.09 84.5697C139.042 84.2933 138.994 84.017 138.946 83.7465C138.898 83.5113 138.982 83.2996 139.18 83.135C139.576 82.7528 139.972 82.3765 140.363 82.006C141.137 81.2652 141.887 80.542 142.62 79.8423C142.986 79.4953 143.34 79.1484 143.694 78.8133C143.898 78.6486 144.03 78.3488 143.994 78.0783C143.97 77.8019 143.802 77.5491 143.556 77.4198L143.568 77.4139Z" fill="#08A5B5"/>
<g filter="url(#filter1_d_241_1378)">
<circle cx="108.75" cy="30.25" r="17.25" fill="white"/>
</g>
<path d="M109.5 22C104.539 22 100.5 26.039 100.5 31C100.5 35.961 104.539 40 109.5 40C114.461 40 118.5 35.961 118.5 31C118.5 26.039 114.461 22 109.5 22ZM109.5 30.561C109.632 30.561 109.763 30.5829 109.917 30.5829C111.41 30.7804 112.573 32.0756 112.573 33.6341C112.573 35.1706 111.432 36.4657 109.939 36.6634V37.8049C109.939 38.0464 109.741 38.2439 109.5 38.2439C109.259 38.2439 109.061 38.0464 109.061 37.8049V36.6634C107.568 36.4438 106.427 35.1708 106.427 33.6341C106.427 33.3926 106.624 33.1951 106.866 33.1951C106.976 33.1951 107.086 33.2391 107.173 33.3268C107.261 33.4147 107.305 33.5243 107.305 33.6341C107.305 34.8415 108.293 35.8292 109.5 35.8292C110.707 35.8292 111.695 34.8415 111.695 33.6341C111.695 32.4267 110.707 31.439 109.5 31.439C109.368 31.439 109.237 31.4171 109.083 31.4171C107.59 31.2196 106.427 29.9243 106.427 28.3659C106.427 26.8293 107.568 25.5342 109.061 25.3366V24.1951C109.061 23.9536 109.259 23.7561 109.5 23.7561C109.741 23.7561 109.939 23.9536 109.939 24.1951V25.3366C111.432 25.5561 112.573 26.8292 112.573 28.3659C112.573 28.6073 112.376 28.8048 112.134 28.8048C112.024 28.8048 111.915 28.7609 111.827 28.6732C111.739 28.5853 111.695 28.4756 111.695 28.3659C111.695 27.1585 110.707 26.1707 109.5 26.1707C108.293 26.1707 107.305 27.1585 107.305 28.3659C107.305 29.5732 108.293 30.561 109.5 30.561Z" fill="#08A5B5"/>
<g filter="url(#filter2_d_241_1378)">
<circle cx="120.75" cy="130.75" r="17.25" fill="white"/>
</g>
<path fill-rule="evenodd" clip-rule="evenodd" d="M121.592 124.059C122.194 124.133 122.771 124.29 123.316 124.513L124.586 123.449L126.764 125.107L126.08 126.609C126.443 127.079 126.748 127.59 126.979 128.151L128.629 128.3L129 131.014L127.449 131.592C127.375 132.194 127.218 132.771 126.995 133.316L128.06 134.586L126.401 136.764L124.892 136.08C124.421 136.443 123.91 136.748 123.349 136.979L123.2 138.629L120.486 139L119.909 137.449C119.306 137.375 118.729 137.218 118.184 136.995L116.914 138.06L114.736 136.401L115.421 134.892C115.057 134.421 114.752 133.91 114.521 133.349L112.871 133.2L112.5 130.486L114.051 129.909C114.125 129.306 114.282 128.729 114.505 128.184L113.44 126.914L115.099 124.736L116.609 125.421C117.079 125.057 117.59 124.752 118.151 124.521L118.3 122.871L121.014 122.5L121.592 124.051V124.059ZM120.478 127.829C118.869 128.044 117.747 129.529 117.962 131.138C118.176 132.747 119.661 133.868 121.27 133.654C122.878 133.439 124 131.955 123.786 130.346C123.571 128.737 122.087 127.615 120.478 127.829Z" fill="#08A5B5"/>
<g filter="url(#filter3_d_241_1378)">
<circle cx="50.25" cy="21.25" r="17.25" fill="white"/>
</g>
<path d="M51 13C48.6131 13 46.324 13.9482 44.636 15.636C42.9482 17.324 42 19.6133 42 22C42 24.3867 42.9482 26.676 44.636 28.364C46.324 30.0518 48.6133 31 51 31C53.3867 31 55.676 30.0518 57.364 28.364C59.0518 26.676 60 24.3867 60 22C60.0007 20.42 59.5853 18.8676 58.7955 17.4992C58.0057 16.1307 56.8693 14.9943 55.5008 14.2045C54.1323 13.4147 52.5799 12.9993 51 13L51 13ZM51.6429 29.6887V28.4287C51.6429 28.1989 51.5203 27.9867 51.3214 27.8719C51.1225 27.7571 50.8775 27.7571 50.6786 27.8719C50.4797 27.9867 50.3571 28.1989 50.3571 28.4287V29.6887C48.76 29.5573 47.2444 28.9276 46.0242 27.8887L46.0224 27.887L46.9086 27.0004C47.0663 26.8371 47.1262 26.6028 47.0662 26.3838C47.0062 26.1649 46.8351 25.9938 46.6162 25.9338C46.3972 25.8739 46.1629 25.9337 45.9996 26.0914L45.1133 26.9779L45.1113 26.9758C44.0724 25.7556 43.4428 24.24 43.3113 22.6429H44.5714C44.8011 22.6429 45.0133 22.5203 45.1281 22.3215C45.2429 22.1226 45.2429 21.8775 45.1281 21.6786C45.0133 21.4797 44.8011 21.3572 44.5714 21.3572H43.3113C43.4428 19.76 44.0724 18.2445 45.1113 17.0243L45.1132 17.0223L45.9996 17.9086C46.1629 18.0663 46.3972 18.1262 46.6162 18.0662C46.8351 18.0062 47.0062 17.8352 47.0662 17.6162C47.1262 17.3972 47.0663 17.1629 46.9086 16.9996L46.0222 16.1132L46.0242 16.1114C47.2444 15.0725 48.76 14.4428 50.3571 14.3113V22C50.3584 22.1704 50.4252 22.3339 50.5435 22.4564L55.9822 27.8888C54.7596 28.9279 53.2419 29.5574 51.643 29.6888L51.6429 29.6887Z" fill="#08A5B5"/>
<defs>
<filter id="filter0_d_241_1378" x="111.5" y="58.5" width="42.5" height="42.5" filterUnits="userSpaceOnUse" color-interpolation-filters="sRGB">
<feFlood flood-opacity="0" result="BackgroundImageFix"/>
<feColorMatrix in="SourceAlpha" type="matrix" values="0 0 0 0 0 0 0 0 0 0 0 0 0 0 0 0 0 0 127 0" result="hardAlpha"/>
<feOffset/>
<feGaussianBlur stdDeviation="2"/>
<feComposite in2="hardAlpha" operator="out"/>
<feColorMatrix type="matrix" values="0 0 0 0 0.779167 0 0 0 0 0.779167 0 0 0 0 0.779167 0 0 0 0.25 0"/>
<feBlend mode="normal" in2="BackgroundImageFix" result="effect1_dropShadow_241_1378"/>
<feBlend mode="normal" in="SourceGraphic" in2="effect1_dropShadow_241_1378" result="shape"/>
</filter>
<filter id="filter1_d_241_1378" x="87.5" y="9" width="42.5" height="42.5" filterUnits="userSpaceOnUse" color-interpolation-filters="sRGB">
<feFlood flood-opacity="0" result="BackgroundImageFix"/>
<feColorMatrix in="SourceAlpha" type="matrix" values="0 0 0 0 0 0 0 0 0 0 0 0 0 0 0 0 0 0 127 0" result="hardAlpha"/>
<feOffset/>
<feGaussianBlur stdDeviation="2"/>
<feComposite in2="hardAlpha" operator="out"/>
<feColorMatrix type="matrix" values="0 0 0 0 0.779167 0 0 0 0 0.779167 0 0 0 0 0.779167 0 0 0 0.25 0"/>
<feBlend mode="normal" in2="BackgroundImageFix" result="effect1_dropShadow_241_1378"/>
<feBlend mode="normal" in="SourceGraphic" in2="effect1_dropShadow_241_1378" result="shape"/>
</filter>
<filter id="filter2_d_241_1378" x="99.5" y="109.5" width="42.5" height="42.5" filterUnits="userSpaceOnUse" color-interpolation-filters="sRGB">
<feFlood flood-opacity="0" result="BackgroundImageFix"/>
<feColorMatrix in="SourceAlpha" type="matrix" values="0 0 0 0 0 0 0 0 0 0 0 0 0 0 0 0 0 0 127 0" result="hardAlpha"/>
<feOffset/>
<feGaussianBlur stdDeviation="2"/>
<feComposite in2="hardAlpha" operator="out"/>
<feColorMatrix type="matrix" values="0 0 0 0 0.779167 0 0 0 0 0.779167 0 0 0 0 0.779167 0 0 0 0.25 0"/>
<feBlend mode="normal" in2="BackgroundImageFix" result="effect1_dropShadow_241_1378"/>
<feBlend mode="normal" in="SourceGraphic" in2="effect1_dropShadow_241_1378" result="shape"/>
</filter>
<filter id="filter3_d_241_1378" x="29" y="0" width="42.5" height="42.5" filterUnits="userSpaceOnUse" color-interpolation-filters="sRGB">
<feFlood flood-opacity="0" result="BackgroundImageFix"/>
<feColorMatrix in="SourceAlpha" type="matrix" values="0 0 0 0 0 0 0 0 0 0 0 0 0 0 0 0 0 0 127 0" result="hardAlpha"/>
<feOffset/>
<feGaussianBlur stdDeviation="2"/>
<feComposite in2="hardAlpha" operator="out"/>
<feColorMatrix type="matrix" values="0 0 0 0 0.779167 0 0 0 0 0.779167 0 0 0 0 0.779167 0 0 0 0.25 0"/>
<feBlend mode="normal" in2="BackgroundImageFix" result="effect1_dropShadow_241_1378"/>
<feBlend mode="normal" in="SourceGraphic" in2="effect1_dropShadow_241_1378" result="shape"/>
</filter>
</defs>
</svg>
