<svg width="200" height="200" viewBox="0 0 200 200" fill="none" xmlns="http://www.w3.org/2000/svg">
<g clip-path="url(#clip0_242_1675)">
<path d="M102 155C143.421 155 177 121.421 177 80C177 38.5786 143.421 5 102 5C60.5786 5 27 38.5786 27 80C27 121.421 60.5786 155 102 155Z" fill="white" stroke="#132766" stroke-width="3"/>
<path d="M95.7085 50.1624H98.5252V52.979H95.7085V50.1624Z" fill="#132766"/>
<path d="M132.325 83.9624H135.142V86.7791H132.325V83.9624Z" fill="#132766"/>
<path d="M106.975 106.496H109.792V109.312H106.975V106.496Z" fill="#132766"/>
<path d="M95.7085 110.721H98.5252V113.537H95.7085V110.721Z" fill="#132766"/>
<path d="M73.1748 78.329H75.9915V81.1456H73.1748V78.329Z" fill="#132766"/>
<path d="M106.975 50.1624H109.792V52.979H106.975V50.1624Z" fill="#132766"/>
<path d="M129.508 72.6957H132.325V75.5123H129.508V72.6957Z" fill="#132766"/>
<path d="M122.467 58.6124H125.283V61.4291H122.467V58.6124Z" fill="#132766"/>
<path d="M80.2168 58.6124H83.0335V61.4291H80.2168V58.6124Z" fill="#132766"/>
<path d="M122.467 98.0457H125.283V100.862H122.467V98.0457Z" fill="#132766"/>
<path d="M80.2168 98.0457H83.0335V100.862H80.2168V98.0457Z" fill="#132766"/>
<path d="M98.5057 82.6789C98.562 84.4253 99.6905 85.9568 101.342 86.529C101.342 86.7332 101.342 87.756 101.342 89.5956H104.158C104.158 87.7489 104.158 86.7244 104.158 86.5184C106.355 85.7491 107.512 83.3444 106.743 81.1474C106.13 79.394 104.44 78.2497 102.585 78.3289C100.256 78.4046 98.43 80.3517 98.5057 82.6789ZM102.806 83.9623C102.433 83.9764 102.069 83.8426 101.794 83.5873C101.222 83.0609 101.187 82.1684 101.715 81.598C101.968 81.3234 102.321 81.1597 102.694 81.1456C102.699 81.1456 102.745 81.1456 102.75 81.1456C103.507 81.1456 104.128 81.7424 104.158 82.4976C104.19 83.2757 103.584 83.9306 102.806 83.9623Z" fill="#132766"/>
<path d="M109.792 72.6957C109.792 68.807 106.639 65.6541 102.75 65.6541C98.8612 65.6541 95.7083 68.807 95.7083 72.6957C95.7083 72.863 95.7083 74.1956 95.7083 74.3628C94.0271 74.9579 92.8986 76.5458 92.8916 78.3291C92.8916 79.4557 92.8916 88.4691 92.8916 89.5957C92.8916 91.9283 94.784 93.8207 97.1166 93.8207C98.2433 93.8207 107.257 93.8207 108.383 93.8207C110.716 93.8207 112.608 91.9283 112.608 89.5957C112.608 88.4691 112.608 79.4557 112.608 78.3291C112.601 76.5458 111.473 74.9579 109.792 74.3628C109.792 74.3628 109.792 72.863 109.792 72.6957ZM98.5249 72.6957C98.5249 70.3632 100.417 68.4707 102.75 68.4707C105.082 68.4707 106.975 70.3632 106.975 72.6957C106.975 72.789 106.975 73.2591 106.975 74.1041H98.5249C98.5249 73.3524 98.5249 72.8841 98.5249 72.6957ZM109.792 89.5957C109.792 90.3738 109.161 91.0041 108.383 91.0041C107.257 91.0041 98.2433 91.0041 97.1166 91.0041C96.3385 91.0041 95.7083 90.3738 95.7083 89.5957C95.7083 88.4691 95.7083 79.4557 95.7083 78.3291C95.7083 77.5509 96.3385 76.9207 97.1166 76.9207C98.2433 76.9207 107.257 76.9207 108.383 76.9207C109.161 76.9207 109.792 77.5509 109.792 78.3291C109.792 80.5824 109.792 87.3424 109.792 89.5957Z" fill="#132766"/>
<path d="M138.965 92.8348C138.749 92.6183 137.67 91.5391 135.726 89.5956H122.467V86.779H129.508V83.9623H122.467V81.1456H129.841C134.647 78.7427 137.316 77.4065 137.849 77.1407C139.532 78.7515 142.201 78.6934 143.812 77.0122C145.423 75.331 145.364 72.6604 143.683 71.0496C142.002 69.4389 139.331 69.497 137.721 71.1782C136.967 71.9651 136.548 73.0143 136.55 74.104C136.557 74.2747 136.575 74.4455 136.603 74.6145C136.106 74.8627 133.631 76.1003 129.176 78.329H122.467V75.5123H126.692V72.6956H122.467V69.879H128.683C131.471 67.0905 133.02 65.5413 133.33 65.2315C133.895 65.5079 134.513 65.6522 135.142 65.654C137.474 65.654 139.367 63.7615 139.367 61.429C139.367 59.0964 137.474 57.204 135.142 57.204C132.809 57.204 130.917 59.0964 130.917 61.429C130.918 62.0557 131.063 62.6753 131.339 63.2387C131.084 63.4939 129.811 64.7685 127.517 67.0623C124.488 67.0623 122.803 67.0623 122.467 67.0623C122.461 63.1753 119.312 60.0259 115.425 60.0206C115.425 59.7777 115.425 58.563 115.425 56.3783C120.254 51.5495 122.937 48.8684 123.474 48.3315C124.037 48.6079 124.657 48.7522 125.283 48.754C127.616 48.754 129.508 46.8615 129.508 44.529C129.508 42.1964 127.616 40.304 125.283 40.304C122.951 40.304 121.058 42.1964 121.058 44.529C121.06 45.1557 121.204 45.7753 121.481 46.3387C120.889 46.9302 117.932 49.8877 112.608 55.2112V60.0206H109.792V55.7956H106.975V60.0206H104.158C104.158 53.9507 104.158 50.5778 104.158 49.9035C106.359 49.1254 107.512 46.7119 106.734 44.5114C105.956 42.3108 103.542 41.1578 101.342 41.9359C99.1411 42.714 97.9881 45.1275 98.7662 47.328C99.1922 48.5322 100.139 49.4775 101.342 49.9035C101.342 50.5778 101.342 53.9507 101.342 60.0206H98.525V55.7956H95.7083V60.0206H92.8917V49.5796C89.2582 45.9461 87.239 43.9269 86.8358 43.5238C87.1122 42.9587 87.2566 42.3408 87.2583 41.7123C87.2583 39.3798 85.3659 37.4873 83.0333 37.4873C80.7008 37.4873 78.8083 39.3798 78.8083 41.7123C78.8083 44.0449 80.7008 45.9373 83.0333 45.9373C83.66 45.9355 84.2797 45.7912 84.843 45.5148C85.1916 45.8634 86.9362 47.6062 90.075 50.745C90.075 56.3097 90.075 59.4027 90.075 60.0206C86.188 60.0259 83.0386 63.1753 83.0333 67.0623C82.6971 67.0623 81.0124 67.0623 77.9827 67.0623C75.6889 64.7685 74.4161 63.4939 74.1608 63.2387C74.4372 62.6753 74.5816 62.0557 74.5833 61.429C74.5833 59.0964 72.6909 57.204 70.3583 57.204C68.0258 57.204 66.1333 59.0964 66.1333 61.429C66.1333 63.7615 68.0258 65.654 70.3583 65.654C70.985 65.6522 71.6047 65.5079 72.168 65.2315C72.4779 65.5413 74.027 67.0905 76.8155 69.879H83.0333V72.6956H74.0728C69.6471 76.3837 67.1878 78.4311 66.6967 78.8413C66.0928 78.5103 65.4151 78.3343 64.725 78.329C62.3924 78.329 60.5 80.2214 60.5 82.554C60.5 84.8865 62.3924 86.779 64.725 86.779C67.0576 86.779 68.95 84.8865 68.95 82.554C68.9518 81.9889 68.8373 81.4291 68.6155 80.9097C69.0486 80.5489 71.2069 78.7497 75.0939 75.5123H83.0333V78.329H78.8083V81.1456H83.0333V83.9623H70.3583V86.779H83.0333V89.5956H75.2382C71.8336 94.7026 69.9411 97.5404 69.5626 98.1073C69.3602 98.072 69.156 98.0509 68.95 98.0456C66.5946 98.0245 64.6687 99.9152 64.6458 102.271C64.6247 104.626 66.5171 106.552 68.8725 106.575C71.2262 106.596 73.1539 104.704 73.175 102.35C73.1856 101.272 72.7877 100.232 72.0624 99.4364C72.374 98.9681 73.9355 96.6267 76.7451 92.4123C80.5177 92.4123 82.6144 92.4123 83.0333 92.4123C83.0386 96.2993 86.188 99.4487 90.075 99.454C90.075 100.072 90.075 103.165 90.075 108.73C86.9362 111.868 85.1916 113.611 84.843 113.96C84.2797 113.683 83.66 113.539 83.0333 113.537C80.7008 113.537 78.8083 115.43 78.8083 117.762C78.8083 120.095 80.7008 121.987 83.0333 121.987C85.3659 121.987 87.2583 120.095 87.2583 117.762C87.2566 117.136 87.1122 116.516 86.8358 115.953C87.239 115.549 89.2582 113.53 92.8917 109.897V99.454H95.7083V107.904H98.525V99.454H101.342V111.501C106.475 114.712 109.325 116.497 109.896 116.852C109.359 119.158 110.792 121.463 113.098 122C115.404 122.538 117.708 121.104 118.247 118.797C118.784 116.493 117.349 114.187 115.043 113.65C113.768 113.352 112.427 113.655 111.401 114.47C110.918 114.169 108.505 112.659 104.158 109.941V99.454H106.975V103.679H109.792V99.454H112.608V110.721C118.678 110.721 122.051 110.721 122.725 110.721C123.504 112.921 125.917 114.074 128.118 113.296C130.318 112.518 131.471 110.104 130.693 107.904C129.915 105.703 127.501 104.55 125.301 105.328C124.097 105.755 123.151 106.702 122.725 107.904C122.24 107.904 119.805 107.904 115.425 107.904C115.425 102.834 115.425 100.017 115.425 99.454C119.312 99.4487 122.461 96.2993 122.467 92.4123C123.273 92.4123 127.304 92.4123 134.559 92.4123C136.008 93.8611 136.812 94.6674 136.972 94.8276C136.696 95.3909 136.552 96.0106 136.55 96.6373C136.55 98.9699 138.442 100.862 140.775 100.862C143.108 100.862 145 98.9699 145 96.6373C145 94.3048 143.108 92.4123 140.775 92.4123C140.148 92.4141 139.529 92.5584 138.965 92.8348ZM142.183 74.104C142.183 74.8821 141.553 75.5123 140.775 75.5123C139.997 75.5123 139.367 74.8821 139.367 74.104C139.367 73.3259 139.997 72.6956 140.775 72.6956C141.553 72.6956 142.183 73.3259 142.183 74.104ZM136.55 61.429C136.55 62.2071 135.92 62.8373 135.142 62.8373C134.364 62.8373 133.733 62.2071 133.733 61.429C133.733 60.6509 134.364 60.0206 135.142 60.0206C135.92 60.0206 136.55 60.6509 136.55 61.429ZM126.692 44.529C126.692 45.3071 126.061 45.9373 125.283 45.9373C124.505 45.9373 123.875 45.3071 123.875 44.529C123.875 43.7509 124.505 43.1206 125.283 43.1206C126.061 43.1206 126.692 43.7509 126.692 44.529ZM104.158 45.9373C104.158 46.7154 103.528 47.3456 102.75 47.3456C101.972 47.3456 101.342 46.7154 101.342 45.9373C101.342 45.1592 101.972 44.529 102.75 44.529C103.528 44.529 104.158 45.1592 104.158 45.9373ZM83.0333 40.304C83.8114 40.304 84.4417 40.9342 84.4417 41.7123C84.4417 42.4904 83.8114 43.1206 83.0333 43.1206C82.2552 43.1206 81.625 42.4904 81.625 41.7123C81.625 40.9342 82.2552 40.304 83.0333 40.304ZM70.3583 60.0206C71.1364 60.0206 71.7667 60.6509 71.7667 61.429C71.7667 62.2071 71.1364 62.8373 70.3583 62.8373C69.5802 62.8373 68.95 62.2071 68.95 61.429C68.95 60.6509 69.5802 60.0206 70.3583 60.0206ZM63.3167 82.554C63.3167 81.7759 63.9469 81.1456 64.725 81.1456C65.5031 81.1456 66.1333 81.7759 66.1333 82.554C66.1333 83.3321 65.5031 83.9623 64.725 83.9623C63.9469 83.9623 63.3167 83.3321 63.3167 82.554ZM67.5417 102.271C67.5417 101.493 68.1719 100.862 68.95 100.862C69.7281 100.862 70.3583 101.493 70.3583 102.271C70.3583 103.049 69.7281 103.679 68.95 103.679C68.1719 103.679 67.5417 103.049 67.5417 102.271ZM81.625 117.762C81.625 116.984 82.2552 116.354 83.0333 116.354C83.8114 116.354 84.4417 116.984 84.4417 117.762C84.4417 118.54 83.8114 119.171 83.0333 119.171C82.2552 119.171 81.625 118.54 81.625 117.762ZM115.425 117.762C115.425 118.54 114.795 119.171 114.017 119.171C113.239 119.171 112.608 118.54 112.608 117.762C112.608 116.984 113.239 116.354 114.017 116.354C114.795 116.354 115.425 116.984 115.425 117.762ZM128.1 109.312C128.1 110.09 127.47 110.721 126.692 110.721C125.914 110.721 125.283 110.09 125.283 109.312C125.283 108.534 125.914 107.904 126.692 107.904C127.47 107.904 128.1 108.534 128.1 109.312ZM119.65 92.4123C119.65 94.7449 117.758 96.6373 115.425 96.6373C112.89 96.6373 92.61 96.6373 90.075 96.6373C87.7424 96.6373 85.85 94.7449 85.85 92.4123C85.85 89.8773 85.85 69.5973 85.85 67.0623C85.85 64.7298 87.7424 62.8373 90.075 62.8373C92.61 62.8373 112.89 62.8373 115.425 62.8373C117.758 62.8373 119.65 64.7298 119.65 67.0623C119.65 72.1323 119.65 87.3423 119.65 92.4123ZM139.367 96.6373C139.367 95.8592 139.997 95.229 140.775 95.229C141.553 95.229 142.183 95.8592 142.183 96.6373C142.183 97.4154 141.553 98.0456 140.775 98.0456C139.997 98.0456 139.367 97.4154 139.367 96.6373Z" fill="#08A5B5"/>
</g>
<defs>
<clipPath id="clip0_242_1675">
<rect width="200" height="200" fill="white"/>
</clipPath>
</defs>
</svg>
