<svg width="216" height="54" viewBox="0 0 216 54" fill="none" xmlns="http://www.w3.org/2000/svg">
<path d="M64.7227 1.09361C64.7227 0.765112 64.9916 0.496704 65.3208 0.496704H73.1006C76.3803 0.496704 81.1574 0.817192 84.2966 5.05163C86.2235 7.47131 87.0063 10.3877 87.0063 13.6247C87.0063 21.06 83.0843 26.8247 73.494 26.8247H65.3208C64.9916 26.8247 64.7227 26.5563 64.7227 26.2278V1.09361ZM70.0336 21.5688C70.0336 21.8973 70.3026 22.1657 70.6318 22.1657H73.779C79.4834 22.1657 81.6953 18.432 81.6953 13.6968C81.6953 11.6336 81.1614 9.42629 79.913 7.7918C78.809 6.36964 77.0267 5.1598 73.8152 5.1598H70.6318C70.3026 5.1598 70.0336 5.4282 70.0336 5.7567V21.5688Z" fill="#08A5B5"/>
<path d="M89.6396 13.8771C89.6396 5.44428 96.1309 0 103.473 0C111.458 0 117.343 6.18941 117.343 13.6608C117.343 21.1321 111.498 27.3216 103.437 27.3216C95.3762 27.3216 89.6396 20.9519 89.6396 13.9092V13.8731V13.8771ZM94.9506 13.6648C94.9506 18.4681 98.407 22.6665 103.541 22.6665C108.676 22.6665 112.028 18.0394 112.028 13.7008C112.028 9.36224 108.888 4.66309 103.505 4.66309C98.122 4.66309 94.9506 9.00169 94.9506 13.6287V13.6648Z" fill="#08A5B5"/>
<path d="M145.924 18.0034C146.338 18.0034 146.631 18.416 146.486 18.8046C144.636 23.8242 139.706 27.3256 133.845 27.3256C125.788 27.3256 120.012 20.9559 120.012 13.6287C120.012 6.30158 125.467 0 133.809 0C140.898 0.0320487 145.13 4.90346 146.498 8.67319C146.639 9.05778 146.342 9.46239 145.932 9.46239H141.525C141.304 9.46239 141.099 9.34221 140.999 9.1419C140.059 7.31913 137.743 4.69113 133.773 4.65909C128.639 4.65909 125.323 8.96564 125.323 13.6247C125.323 18.2838 128.779 22.6625 133.809 22.6625C138.116 22.6625 140.276 19.5618 140.991 18.2998C141.095 18.1156 141.292 18.0034 141.509 18.0034H145.924Z" fill="#08A5B5"/>
<path d="M153.918 5.15992H148.214V0.496826H164.898V5.15992H159.229V26.8249H153.918V5.15992Z" fill="#08A5B5"/>
<path d="M165.146 13.8771C165.146 5.44428 171.634 0 178.98 0C186.965 0 192.85 6.18941 192.85 13.6608C192.85 21.1321 187.005 27.3216 178.944 27.3216C170.883 27.3216 165.146 20.9519 165.146 13.9092V13.8731V13.8771ZM170.457 13.6648C170.457 18.4681 173.914 22.6665 179.048 22.6665C184.183 22.6665 187.535 18.0394 187.535 13.7008C187.535 9.36224 184.395 4.66309 179.012 4.66309C173.629 4.66309 170.457 9.00169 170.457 13.6287V13.6648Z" fill="#08A5B5"/>
<path d="M196.55 1.09361C196.55 0.765112 196.819 0.496704 197.148 0.496704H204.538C208.637 0.496704 210.989 1.13768 212.419 2.16724C214.594 3.73363 215.771 6.40169 215.771 9.31812C215.771 11.241 215.237 12.9476 214.345 14.2296C213.37 15.6598 212.138 16.4129 210.733 16.8656C210.363 16.9858 210.199 17.4104 210.399 17.7389L215.337 25.9194C215.578 26.316 215.289 26.8207 214.827 26.8207H210.664C210.452 26.8207 210.255 26.7086 210.146 26.5243L203.744 15.4755C203.515 15.0789 203.8 14.5821 204.261 14.5821C206.008 14.5821 207.898 14.474 209.002 13.6207C210.038 12.7674 210.676 11.3813 210.676 9.77882C210.676 8.17638 209.894 6.71817 208.717 5.97303C207.754 5.36811 206.473 5.15579 204.976 5.15579H202.471C202.142 5.15579 201.873 5.4242 201.873 5.7527V26.2278C201.873 26.5563 201.604 26.8247 201.275 26.8247H197.156C196.827 26.8247 196.558 26.5563 196.558 26.2278V1.09361H196.55Z" fill="#08A5B5"/>
<path d="M67.5726 46.0821C67.8456 46.0821 68.0744 46.2864 68.1065 46.5548C68.4437 49.3551 70.4388 49.9079 71.4143 49.9079C73.2489 49.9079 74.666 48.4297 74.666 46.7591C74.666 44.732 72.9598 44.2193 69.64 42.9013C67.8375 42.2603 63.6827 40.778 63.6827 36.2792C63.6827 31.7803 67.7091 29.2405 71.5749 29.2405C74.6098 29.2405 78.596 30.7868 79.0737 35.5901C79.1058 35.9066 78.8569 36.187 78.5358 36.187H74.8225C74.5736 36.187 74.3528 36.0148 74.2966 35.7704C74.0598 34.6848 73.4857 33.2626 71.4143 33.2626C69.8367 33.2626 68.4838 34.3563 68.4838 35.9627C68.4517 37.7294 69.7403 38.1821 73.7667 39.8526C77.4078 41.427 79.435 43.1617 79.435 46.5388C79.435 50.3646 77.0826 53.93 71.4786 53.93C66.296 53.93 63.506 50.9495 63.3093 46.659C63.2933 46.3505 63.5382 46.0861 63.8473 46.0861H67.5726V46.0821Z" fill="#132766"/>
<path d="M82.5908 52.9364V30.2259C82.5908 29.9295 82.8317 29.6891 83.1287 29.6891H86.85C87.1471 29.6891 87.388 29.9295 87.388 30.2259V38.6988C87.388 38.9952 87.6288 39.2356 87.9259 39.2356H96.0269C96.3239 39.2356 96.5648 38.9952 96.5648 38.6988V30.2259C96.5648 29.9295 96.8057 29.6891 97.1027 29.6891H100.824C101.121 29.6891 101.362 29.9295 101.362 30.2259V52.9364C101.362 53.2329 101.121 53.4733 100.824 53.4733H97.1027C96.8057 53.4733 96.5648 53.2329 96.5648 52.9364V43.9828C96.5648 43.6864 96.3239 43.446 96.0269 43.446H87.9259C87.6288 43.446 87.388 43.6864 87.388 43.9828V52.9364C87.388 53.2329 87.1471 53.4733 86.85 53.4733H83.1287C82.8317 53.4733 82.5908 53.2329 82.5908 52.9364Z" fill="#132766"/>
<path d="M106.384 29.6892H110.105C110.402 29.6892 110.643 29.9296 110.643 30.226V52.9366C110.643 53.233 110.402 53.4734 110.105 53.4734H106.384C106.087 53.4734 105.846 53.233 105.846 52.9366V30.226C105.846 29.9296 106.087 29.6892 106.384 29.6892Z" fill="#132766"/>
<path d="M115.657 29.6892H127.945C128.242 29.6892 128.483 29.9296 128.483 30.226V33.3628C128.483 33.6592 128.242 33.8996 127.945 33.8996H120.454C120.157 33.8996 119.916 34.14 119.916 34.4364V38.763C119.916 39.0595 120.157 39.2998 120.454 39.2998H127.784C128.081 39.2998 128.322 39.5402 128.322 39.8366V42.9734C128.322 43.2699 128.081 43.5102 127.784 43.5102H120.454C120.157 43.5102 119.916 43.7506 119.916 44.047V48.7262C119.916 49.0226 120.157 49.263 120.454 49.263H127.945C128.242 49.263 128.483 49.5033 128.483 49.7998V52.9366C128.483 53.233 128.242 53.4734 127.945 53.4734H115.657C115.36 53.4734 115.119 53.233 115.119 52.9366V30.226C115.119 29.9296 115.36 29.6892 115.657 29.6892Z" fill="#132766"/>
<path d="M132.922 29.6891H136.643C136.94 29.6891 137.181 29.9295 137.181 30.2259V48.726C137.181 49.0225 137.422 49.2629 137.719 49.2629H144.467C144.764 49.2629 145.005 49.5032 145.005 49.7997V52.9364C145.005 53.2329 144.764 53.4733 144.467 53.4733H132.918C132.621 53.4733 132.38 53.2329 132.38 52.9364V30.2259C132.38 29.9295 132.621 29.6891 132.918 29.6891H132.922Z" fill="#132766"/>
<path d="M147.454 30.226C147.454 29.9296 147.695 29.6892 147.992 29.6892H155.021C157.984 29.6892 162.299 29.9776 165.133 33.8035C166.872 35.9908 167.582 38.6268 167.582 41.5513C167.582 48.2695 164.038 53.4774 155.375 53.4774H147.988C147.691 53.4774 147.45 53.237 147.45 52.9406V30.23L147.454 30.226ZM152.255 48.7262C152.255 49.0226 152.496 49.263 152.793 49.263H155.635C160.79 49.263 162.785 45.8898 162.785 41.6113C162.785 39.7485 162.303 37.7535 161.175 36.2752C160.176 34.9893 158.566 33.8956 155.668 33.8956H152.793C152.496 33.8956 152.255 34.136 152.255 34.4324V48.7222V48.7262Z" fill="#132766"/>
<path d="M24.6195 25.8228C24.6195 27.5934 24.4623 28.6459 24.1025 29.4755C23.7675 30.1689 23.114 30.887 22.4399 31.3121C21.4721 31.9601 20.3265 32.2532 19.2719 32.2532C18.5522 32.2532 14.8465 32.0055 14.1517 28.2414C14.0855 27.9071 14.0607 27.5233 14.04 27.1436H17.6134C17.6134 27.3004 17.6341 27.4366 17.6589 27.5934C17.907 28.6707 18.5812 29.3187 19.4332 29.3187C20.3555 29.298 20.8476 28.8027 21.0503 28.2414C21.2529 27.7255 21.2736 27.1436 21.2736 26.6276V15.3518H24.6195V25.8228Z" fill="#132766"/>
<path d="M39.5821 31.9395H36.6374V30.1689C35.8516 31.6052 34.2096 32.3193 32.4809 32.3193C28.527 32.3193 26.2109 29.2485 26.2109 25.7733C26.2109 21.8937 29.0192 19.248 32.4809 19.248C34.7266 19.248 36.0997 20.4367 36.6374 21.4231V19.6278H39.5821V31.9354V31.9395ZM29.1598 25.8435C29.1598 27.3665 30.2599 29.587 32.911 29.587C34.5488 29.587 35.6282 28.7368 36.1907 27.6141C36.4843 27.0776 36.6167 26.4915 36.6622 25.8889C36.6829 25.307 36.5712 24.7002 36.323 24.1637C35.8061 22.9998 34.6604 21.9886 32.8862 21.9886C30.5039 21.9886 29.1556 23.916 29.1556 25.8229V25.8435H29.1598Z" fill="#132766"/>
<path d="M56.1439 9.73035C56.1439 9.73035 51.7061 36.43 25.3691 48.7418L30.2205 52.2004C30.2205 52.2004 54.7583 40.582 56.1439 9.73035Z" fill="#132766"/>
<path d="M4.99195 9.73035C4.99195 9.73035 5.26905 38.3657 25.9234 54C25.9234 54 2.63452 42.5178 0 12.9125L4.99195 9.73035Z" fill="#132766"/>
<path d="M1.80273 6.27169C1.80273 6.27169 24.8145 -7.83961 51.8463 6.27169V12.3595C51.8463 12.3595 31.8826 -3.2748 1.80273 6.27169Z" fill="#08A5B5"/>
</svg>
