<svg width="31" height="25" viewBox="0 0 31 25" fill="none" xmlns="http://www.w3.org/2000/svg">
<path d="M26.9737 0H3.28947C2.85749 0 2.42974 0.0850848 2.03065 0.250396C1.63155 0.415708 1.26892 0.658009 0.963465 0.963465C0.346569 1.58036 1.12727e-08 2.41705 1.12727e-08 3.28947V5.92105C-2.1865e-05 6.03925 0.0317972 6.15526 0.0921125 6.25691C0.152428 6.35855 0.239012 6.44207 0.342763 6.49869L14.8165 14.3934C14.9131 14.4462 15.0215 14.4738 15.1316 14.4738C15.2417 14.4738 15.3501 14.4462 15.4467 14.3934L29.9204 6.49869C30.0242 6.44207 30.1107 6.35855 30.1711 6.25691C30.2314 6.15526 30.2632 6.03925 30.2632 5.92105V3.28947C30.2632 2.41705 29.9166 1.58036 29.2997 0.963465C28.6828 0.346569 27.8461 0 26.9737 0Z" fill="#08A5B5"/>
<path d="M16.077 15.5486C15.7873 15.7064 15.4627 15.7891 15.1329 15.7891C14.8031 15.7891 14.4785 15.7064 14.1888 15.5486L0.0151316 7.81903L0 7.8289V21.7105C0 22.5829 0.346569 23.4196 0.963465 24.0365C1.58036 24.6534 2.41705 25 3.28947 25H26.9737C27.8461 25 28.6828 24.6534 29.2997 24.0365C29.9166 23.4196 30.2632 22.5829 30.2632 21.7105V7.8289L30.248 7.81969L16.077 15.5486Z" fill="#08A5B5"/>
</svg>
