<svg width="43" height="40" viewBox="0 0 43 40" fill="none" xmlns="http://www.w3.org/2000/svg">
<path d="M39.692 0H3.62114C3.02322 0 2.44978 0.234126 2.02701 0.650874C1.60422 1.06762 1.3667 1.63285 1.3667 2.22222V37.7778C1.3667 38.3672 1.60422 38.9324 2.02701 39.3492C2.44978 39.7658 3.02322 40 3.62114 40H39.692C40.29 40 40.8634 39.7658 41.286 39.3492C41.7088 38.9324 41.9464 38.3672 41.9464 37.7778V2.22222C41.9464 1.63285 41.7088 1.06762 41.286 0.650874C40.8634 0.234126 40.29 0 39.692 0ZM13.4031 34.0822H7.37926V14.9933H13.4031V34.0822ZM10.3912 12.3867C9.46561 12.3867 8.57795 12.0242 7.92348 11.3791C7.26901 10.734 6.90132 9.85902 6.90132 8.94666C6.90132 8.03432 7.26901 7.15934 7.92348 6.51422C8.57795 5.8691 9.46561 5.50666 10.3912 5.50666C11.3167 5.50666 12.2044 5.8691 12.8589 6.51422C13.5134 7.15934 13.881 8.03432 13.881 8.94666C13.881 9.85902 13.5134 10.734 12.8589 11.3791C12.2044 12.0242 11.3167 12.3867 10.3912 12.3867ZM35.9451 34.0822H29.9282V24.8C29.9282 22.5866 29.8876 19.74 26.7988 19.74C23.6653 19.74 23.1895 22.1534 23.1895 24.6444V34.0844H17.177V14.9956H22.9484V17.6044H23.0318C23.8321 16.1044 25.7979 14.5222 28.7219 14.5222C34.818 14.5222 35.9429 18.4733 35.9429 23.6156V34.0822H35.9451Z" fill="white"/>
</svg>
