<svg width="164" height="35" viewBox="0 0 164 35" fill="none" xmlns="http://www.w3.org/2000/svg">
<path d="M40.8076 0.689579C40.8076 0.482462 40.9772 0.313232 41.1847 0.313232H46.0899C48.1577 0.313232 51.1696 0.515298 53.1489 3.18508C54.3638 4.71068 54.8573 6.54947 54.8573 8.59033C54.8573 13.2782 52.3845 16.9129 46.3379 16.9129H41.1847C40.9772 16.9129 40.8076 16.7437 40.8076 16.5365V0.689579ZM44.1562 13.599C44.1562 13.8061 44.3257 13.9754 44.5333 13.9754H46.5176C50.1142 13.9754 51.5088 11.6213 51.5088 8.63579C51.5088 7.335 51.1722 5.94327 50.385 4.91274C49.689 4.01608 48.5652 3.25328 46.5404 3.25328H44.5333C44.3257 3.25328 44.1562 3.42251 44.1562 3.62963V13.599Z" fill="#08A5B5"/>
<path d="M56.5176 8.74942C56.5176 3.43258 60.6102 0 65.2395 0C70.2737 0 73.9842 3.90238 73.9842 8.61303C73.9842 13.3237 70.299 17.2261 65.2167 17.2261C60.1344 17.2261 56.5176 13.21 56.5176 8.76963V8.7469V8.74942ZM59.8661 8.61556C59.8661 11.644 62.0453 14.2911 65.2825 14.2911C68.5197 14.2911 70.6331 11.3737 70.6331 8.63829C70.6331 5.90283 68.6538 2.94005 65.2597 2.94005C61.8656 2.94005 59.8661 5.67551 59.8661 8.59282V8.61556Z" fill="#08A5B5"/>
<path d="M92.0048 11.351C92.2655 11.351 92.4502 11.6112 92.3591 11.8562C91.1923 15.021 88.0842 17.2286 84.3889 17.2286C79.3091 17.2286 75.667 13.2125 75.667 8.59282C75.667 3.97311 79.1067 0 84.3661 0C88.8359 0.0202065 91.5036 3.0916 92.3667 5.46839C92.4553 5.71087 92.268 5.96598 92.0098 5.96598H89.2307C89.0915 5.96598 88.9625 5.8902 88.8992 5.76391C88.3069 4.61466 86.8465 2.95773 84.3433 2.93752C81.1062 2.93752 79.0155 5.65277 79.0155 8.5903C79.0155 11.5278 81.1947 14.2885 84.3661 14.2885C87.0819 14.2885 88.4436 12.3336 88.8941 11.5379C88.9599 11.4217 89.084 11.351 89.2206 11.351H92.0048Z" fill="#08A5B5"/>
<path d="M97.0448 3.25328H93.4482V0.313232H103.967V3.25328H100.393V16.9129H97.0448V3.25328Z" fill="#08A5B5"/>
<path d="M104.124 8.74942C104.124 3.43258 108.214 0 112.846 0C117.88 0 121.591 3.90238 121.591 8.61303C121.591 13.3237 117.905 17.2261 112.823 17.2261C107.741 17.2261 104.124 13.21 104.124 8.76963V8.7469V8.74942ZM107.473 8.61556C107.473 11.644 109.652 14.2911 112.889 14.2911C116.126 14.2911 118.24 11.3737 118.24 8.63829C118.24 5.90283 116.26 2.94005 112.866 2.94005C109.472 2.94005 107.473 5.67551 107.473 8.59282V8.61556Z" fill="#08A5B5"/>
<path d="M123.924 0.689579C123.924 0.482462 124.093 0.313232 124.301 0.313232H128.961C131.545 0.313232 133.028 0.717363 133.929 1.3665C135.301 2.35409 136.042 4.03628 136.042 5.87508C136.042 7.08747 135.706 8.16347 135.144 8.97173C134.529 9.87344 133.752 10.3483 132.866 10.6337C132.633 10.7095 132.529 10.9772 132.656 11.1843L135.769 16.3421C135.921 16.5921 135.739 16.9104 135.448 16.9104H132.823C132.689 16.9104 132.565 16.8396 132.496 16.7235L128.459 9.75726C128.315 9.5072 128.495 9.194 128.786 9.194C129.887 9.194 131.079 9.1258 131.775 8.5878C132.428 8.0498 132.831 7.17587 132.831 6.16555C132.831 5.15522 132.337 4.23582 131.595 3.76602C130.988 3.38462 130.181 3.25076 129.236 3.25076H127.657C127.45 3.25076 127.28 3.41999 127.28 3.6271V16.5365C127.28 16.7437 127.11 16.9129 126.903 16.9129H124.306C124.098 16.9129 123.929 16.7437 123.929 16.5365V0.689579H123.924Z" fill="#08A5B5"/>
<path d="M42.6044 29.0544C42.7765 29.0544 42.9208 29.1833 42.9411 29.3525C43.1537 31.118 44.4116 31.4666 45.0266 31.4666C46.1833 31.4666 47.0768 30.5346 47.0768 29.4813C47.0768 28.2032 46.0011 27.8799 43.9079 27.0489C42.7715 26.6448 40.1519 25.7103 40.1519 22.8738C40.1519 20.0373 42.6905 18.4359 45.1279 18.4359C47.0413 18.4359 49.5546 19.4109 49.8558 22.4393C49.8761 22.6389 49.7191 22.8157 49.5167 22.8157H47.1755C47.0185 22.8157 46.8793 22.7071 46.8439 22.553C46.6946 21.8685 46.3326 20.9718 45.0266 20.9718C44.0319 20.9718 43.179 21.6614 43.179 22.6742C43.1587 23.7881 43.9712 24.0735 46.5098 25.1268C48.8054 26.1194 50.0836 27.2131 50.0836 29.3424C50.0836 31.7545 48.6004 34.0025 45.0671 34.0025C41.7996 34.0025 40.0405 32.1233 39.9165 29.4182C39.9064 29.2237 40.0608 29.057 40.2556 29.057H42.6044V29.0544Z" fill="#132766"/>
<path d="M52.0732 33.3761V19.0572C52.0732 18.8703 52.2251 18.7188 52.4124 18.7188H54.7587C54.946 18.7188 55.0978 18.8703 55.0978 19.0572V24.3993C55.0978 24.5862 55.2497 24.7378 55.437 24.7378H60.5446C60.7319 24.7378 60.8837 24.5862 60.8837 24.3993V19.0572C60.8837 18.8703 61.0356 18.7188 61.2229 18.7188H63.5692C63.7565 18.7188 63.9083 18.8703 63.9083 19.0572V33.3761C63.9083 33.563 63.7565 33.7145 63.5692 33.7145H61.2229C61.0356 33.7145 60.8837 33.563 60.8837 33.3761V27.7309C60.8837 27.5439 60.7319 27.3924 60.5446 27.3924H55.437C55.2497 27.3924 55.0978 27.5439 55.0978 27.7309V33.3761C55.0978 33.563 54.946 33.7145 54.7587 33.7145H52.4124C52.2251 33.7145 52.0732 33.563 52.0732 33.3761Z" fill="#132766"/>
<path d="M67.0745 18.7188H69.4208C69.6081 18.7188 69.7599 18.8703 69.7599 19.0572V33.3761C69.7599 33.563 69.6081 33.7145 69.4208 33.7145H67.0745C66.8872 33.7145 66.7354 33.563 66.7354 33.3761V19.0572C66.7354 18.8703 66.8872 18.7188 67.0745 18.7188Z" fill="#132766"/>
<path d="M72.9212 18.7188H80.6687C80.856 18.7188 81.0078 18.8703 81.0078 19.0572V21.0349C81.0078 21.2218 80.856 21.3734 80.6687 21.3734H75.9458C75.7585 21.3734 75.6066 21.5249 75.6066 21.7118V24.4397C75.6066 24.6266 75.7585 24.7782 75.9458 24.7782H80.5674C80.7547 24.7782 80.9066 24.9297 80.9066 25.1166V27.0944C80.9066 27.2813 80.7547 27.4328 80.5674 27.4328H75.9458C75.7585 27.4328 75.6066 27.5844 75.6066 27.7713V30.7214C75.6066 30.9083 75.7585 31.0599 75.9458 31.0599H80.6687C80.856 31.0599 81.0078 31.2114 81.0078 31.3983V33.3761C81.0078 33.563 80.856 33.7145 80.6687 33.7145H72.9212C72.7339 33.7145 72.582 33.563 72.582 33.3761V19.0572C72.582 18.8703 72.7339 18.7188 72.9212 18.7188Z" fill="#132766"/>
<path d="M83.8065 18.7188H86.1528C86.3401 18.7188 86.492 18.8703 86.492 19.0572V30.7214C86.492 30.9083 86.6438 31.0599 86.8311 31.0599H91.0858C91.2731 31.0599 91.4249 31.2114 91.4249 31.3983V33.3761C91.4249 33.563 91.2731 33.7145 91.0858 33.7145H83.804C83.6167 33.7145 83.4648 33.563 83.4648 33.3761V19.0572C83.4648 18.8703 83.6167 18.7188 83.804 18.7188H83.8065Z" fill="#132766"/>
<path d="M92.9693 19.0572C92.9693 18.8703 93.1212 18.7188 93.3085 18.7188H97.7403C99.6082 18.7188 102.329 18.9006 104.116 21.3128C105.212 22.6919 105.66 24.3538 105.66 26.1977C105.66 30.4335 103.425 33.717 97.963 33.717H93.306C93.1187 33.717 92.9668 33.5655 92.9668 33.3786V19.0597L92.9693 19.0572ZM95.9964 30.7214C95.9964 30.9083 96.1483 31.0599 96.3356 31.0599H98.1276C101.377 31.0599 102.635 28.9331 102.635 26.2356C102.635 25.0611 102.332 23.8032 101.62 22.8712C100.99 22.0604 99.9752 21.3709 98.1478 21.3709H96.3356C96.1483 21.3709 95.9964 21.5224 95.9964 21.7093V30.7189V30.7214Z" fill="#132766"/>
<path d="M15.5228 16.2811C15.5228 17.3975 15.4237 18.061 15.1969 18.5841C14.9856 19.0213 14.5736 19.4741 14.1486 19.7421C13.5384 20.1506 12.8161 20.3354 12.1512 20.3354C11.6974 20.3354 9.36102 20.1793 8.92294 17.806C8.88122 17.5952 8.86558 17.3532 8.85254 17.1138H11.1055C11.1055 17.2127 11.1186 17.2986 11.1342 17.3975C11.2907 18.0767 11.7157 18.4852 12.2529 18.4852C12.8344 18.4722 13.1447 18.1599 13.2724 17.806C13.4002 17.4807 13.4133 17.1138 13.4133 16.7885V9.6792H15.5228V16.2811Z" fill="#132766"/>
<path d="M24.9568 20.1377H23.1002V19.0213C22.6047 19.9269 21.5695 20.3771 20.4795 20.3771C17.9866 20.3771 16.5264 18.441 16.5264 16.2499C16.5264 13.8038 18.2969 12.1357 20.4795 12.1357C21.8954 12.1357 22.7612 12.8852 23.1002 13.5071V12.3751H24.9568V20.135V20.1377ZM18.3856 16.2941C18.3856 17.2544 19.0792 18.6544 20.7507 18.6544C21.7833 18.6544 22.4639 18.1183 22.8185 17.4105C23.0037 17.0722 23.0871 16.7027 23.1158 16.3228C23.1288 15.9558 23.0584 15.5733 22.902 15.235C22.576 14.5012 21.8537 13.8636 20.7351 13.8636C19.2331 13.8636 18.383 15.0789 18.383 16.2811V16.2941H18.3856Z" fill="#132766"/>
<path d="M35.3984 6.13489C35.3984 6.13489 32.6004 22.9688 15.9951 30.7313L19.0538 32.912C19.0538 32.912 34.5248 25.5867 35.3984 6.13489Z" fill="#132766"/>
<path d="M3.14739 6.13489C3.14739 6.13489 3.3221 24.1893 16.3445 34.0466C16.3445 34.0466 1.66105 26.8071 0 8.14122L3.14739 6.13489Z" fill="#132766"/>
<path d="M1.13672 3.95426C1.13672 3.95426 15.6455 -4.94282 32.6888 3.95426V7.79257C32.6888 7.79257 20.1019 -2.06474 1.13672 3.95426Z" fill="#08A5B5"/>
<rect x="109" y="24" width="55" height="10" rx="2" fill="#ED2939"/>
<path d="M114.987 26C114.423 26 113.98 26.157 113.651 26.4711C113.321 26.7769 113.156 27.1736 113.156 27.6612C113.156 28.1157 113.295 28.4711 113.564 28.7273C113.842 28.9835 114.267 29.2066 114.848 29.3967C115.716 29.6694 116.037 29.9174 116.037 30.3554C116.037 30.8512 115.69 31.1818 115.074 31.1818C114.388 31.1818 114.006 30.8182 113.98 30.157H113C113.026 31.281 113.755 32 115.065 32C115.637 32 116.106 31.8512 116.47 31.5455C116.835 31.2397 117.017 30.8182 117.017 30.2893C117.017 29.8595 116.887 29.5124 116.618 29.2562C116.358 28.9917 115.915 28.7521 115.282 28.5455C114.848 28.3884 114.544 28.2479 114.379 28.124C114.215 28 114.137 27.8264 114.137 27.5868C114.137 27.1157 114.449 26.8264 114.961 26.8264C115.481 26.8264 115.828 27.1405 115.837 27.6777H116.826C116.783 26.5868 116.097 26 114.987 26Z" fill="white"/>
<path d="M117.981 26.1074V31.8926H118.952V26.1074H117.981Z" fill="white"/>
<path d="M124.234 26.1074V30.3388L123.973 29.9504L121.206 26.1074H120.251V31.8926H121.223V27.6777L121.457 28.0413L124.242 31.8926H125.205V26.1074H124.234Z" fill="white"/>
<path d="M129.194 26C128.318 26 127.589 26.281 127.025 26.8512C126.461 27.4215 126.175 28.1322 126.175 29C126.175 29.8678 126.461 30.5785 127.025 31.1488C127.597 31.719 128.326 32 129.22 32C130.07 32 130.747 31.7603 131.241 31.281C131.745 30.8017 131.996 30.1405 131.996 29.2975V28.8512H129.315V29.719H130.964C130.92 30.6446 130.252 31.1322 129.22 31.1322C128.621 31.1322 128.127 30.9339 127.754 30.5289C127.381 30.124 127.198 29.6198 127.198 29C127.198 28.3802 127.381 27.8678 127.754 27.4711C128.127 27.0661 128.604 26.8678 129.185 26.8678C130.044 26.8678 130.599 27.2066 130.86 27.8926H131.935C131.597 26.7107 130.643 26 129.194 26Z" fill="white"/>
<path d="M134.758 26.1074L132.355 31.8926H133.422L133.995 30.4793H136.554L137.136 31.8926H138.203L135.799 26.1074H134.758ZM135.383 27.5785L136.242 29.6446H134.316L135.157 27.5785L135.27 27.2645L135.383 27.5785Z" fill="white"/>
<path d="M138.993 26.1074V31.8926H139.964V29.7273H140.858C141.483 29.7273 141.977 29.562 142.35 29.2314C142.723 28.8926 142.914 28.4628 142.914 27.9256C142.914 27.3884 142.723 26.9504 142.35 26.6116C141.977 26.2727 141.483 26.1074 140.858 26.1074H138.993ZM140.858 26.9752C141.517 26.9752 141.925 27.3306 141.925 27.9256C141.925 28.5124 141.509 28.8595 140.858 28.8595H139.964V26.9752H140.858Z" fill="white"/>
<path d="M146.599 26C145.688 26 144.933 26.281 144.343 26.8512C143.762 27.4132 143.467 28.124 143.467 28.9917C143.467 29.8595 143.762 30.5785 144.343 31.1488C144.933 31.719 145.688 32 146.599 32C147.51 32 148.256 31.719 148.837 31.1488C149.419 30.5785 149.714 29.8595 149.714 28.9917C149.714 28.124 149.419 27.4132 148.837 26.8512C148.256 26.281 147.51 26 146.599 26ZM144.491 28.9917C144.491 28.3719 144.682 27.8678 145.072 27.4711C145.463 27.0661 145.974 26.8678 146.599 26.8678C147.224 26.8678 147.727 27.0661 148.117 27.4711C148.508 27.8678 148.699 28.3719 148.699 28.9917C148.699 29.6116 148.508 30.124 148.117 30.5289C147.727 30.9339 147.224 31.1322 146.599 31.1322C145.974 31.1322 145.463 30.9339 145.072 30.5289C144.682 30.124 144.491 29.6116 144.491 28.9917Z" fill="white"/>
<path d="M150.702 26.1074V31.8926H151.673V29.6281H152.394L153.66 31.8926H154.771L153.409 29.4711C154.103 29.2066 154.51 28.6281 154.51 27.8926C154.51 27.3554 154.32 26.9256 153.946 26.6033C153.573 26.2727 153.079 26.1074 152.454 26.1074H150.702ZM152.454 26.9752C153.114 26.9752 153.521 27.3058 153.521 27.8926C153.521 28.4793 153.105 28.8017 152.454 28.8017H151.673V26.9752H152.454Z" fill="white"/>
<path d="M155.59 26.1074V31.8926H159V31.0248H156.562V29.3471H158.688V28.4876H156.562V26.9752H159V26.1074H155.59Z" fill="white"/>
</svg>
