<svg id="Layer_1" data-name="Layer 1" xmlns="http://www.w3.org/2000/svg" viewBox="0 0 140 35"><defs><style>.cls-1{fill:#26272b;}.cls-2{fill:#525282;}.cls-3{fill:#132766;}.cls-4{fill:#08a5b5;}</style></defs><path class="cls-1" d="M35.55,15.33a4.3,4.3,0,0,1-2.95-.87,4.44,4.44,0,0,1-2-3.57v-5c0-2.2.5-3.44,1.78-4.44A4.4,4.4,0,0,1,34.59.46,14.7,14.7,0,0,1,36.31.37H52.12V4.11H34.45v7.46H52.12v3.76Z"/><path class="cls-1" d="M58.67,15.33A4.76,4.76,0,0,1,54,10.81V.37h3.88v11.2H75.16v3.76Z"/><rect class="cls-1" x="77.27" y="0.37" width="3.88" height="14.96"/><path class="cls-1" d="M83.47,3.55A3.68,3.68,0,0,1,87.28.08a4.55,4.55,0,0,1,3.2,1.45l10.31,10.15V.37h3.88V11.43a5.52,5.52,0,0,1-.29,1.85,3.77,3.77,0,0,1-3.53,2.42,4.72,4.72,0,0,1-3.17-1.47L87.35,4.15V15.33H83.47Z"/><rect class="cls-1" x="107.2" y="0.37" width="3.88" height="14.96"/><path class="cls-1" d="M118.38,15.33a4.27,4.27,0,0,1-2.94-.87,4.45,4.45,0,0,1-2-3.57v-5c0-2.2.5-3.44,1.79-4.44a4.37,4.37,0,0,1,2.24-.95,14.7,14.7,0,0,1,1.72-.09h15.34V4.11H117.28v7.46h17.21v3.76Z"/><path class="cls-2" d="M36,28.75a5,5,0,0,1-5.14-4.69c0-2.61,2.51-4.66,5.68-4.66H52.1v3.73H35v1.76H47.74a5,5,0,0,1,5.17,4.77,4.93,4.93,0,0,1-5.1,4.69h-16V30.6H49V28.75Z"/><polygon class="cls-2" points="54.35 19.4 58.23 19.4 58.23 24.85 66.57 24.85 66.57 19.4 70.45 19.4 70.45 34.35 66.57 34.35 66.57 28.59 58.23 28.59 58.23 34.35 54.35 34.35 54.35 19.4"/><rect class="cls-2" x="73.24" y="19.4" width="3.88" height="14.96"/><path class="cls-2" d="M85,34.35a4.85,4.85,0,0,1-3.38-1.06,5.92,5.92,0,0,1-1.39-1.59,3.91,3.91,0,0,1-.54-2.1V24.19a4.31,4.31,0,0,1,1.54-3.51,5,5,0,0,1,3.85-1.28H97.68v3.73H83.55v2.06H97.68v3.39l-14.13.07v2H97.68v3.75Z"/><path class="cls-2" d="M104.92,34.35a4.74,4.74,0,0,1-4.7-4.52V19.4h3.87V30.6h8.56v3.75Z"/><path class="cls-2" d="M114.29,19.4h15.53a4.8,4.8,0,0,1,3.3,1A6.63,6.63,0,0,1,134.45,22a4.19,4.19,0,0,1,.49,2.11v5.54a5.51,5.51,0,0,1-.12,1.21,5.7,5.7,0,0,1-1.89,2.57,5.16,5.16,0,0,1-3.17.93H114.29Zm3.88,11.2h12.9V23.13h-12.9Z"/><path class="cls-3" d="M11.28,11.85A4.07,4.07,0,0,1,11,13.53a2.12,2.12,0,0,1-.76.84,2.62,2.62,0,0,1-1.45.44A2.32,2.32,0,0,1,6.48,13a3.85,3.85,0,0,1-.05-.5H8.07a1.65,1.65,0,0,0,0,.21.88.88,0,0,0,.81.79.75.75,0,0,0,.74-.5,1.88,1.88,0,0,0,.11-.74V7.05h1.53Z"/><path class="cls-3" d="M18.13,14.66H16.78v-.81a2.1,2.1,0,0,1-1.9,1,2.84,2.84,0,0,1-2.87-3,2.86,2.86,0,0,1,2.87-3,2.08,2.08,0,0,1,1.9,1V9h1.35Zm-4.77-2.8a1.69,1.69,0,0,0,1.72,1.72,1.6,1.6,0,0,0,1.5-.9,2.22,2.22,0,0,0,.22-.8,1.83,1.83,0,0,0-.16-.79,1.67,1.67,0,0,0-1.57-1,1.7,1.7,0,0,0-1.71,1.76Z"/><path class="cls-3" d="M25.72,4.47s-2,12.25-14.1,17.9L13.84,24A23,23,0,0,0,25.72,4.47"/><path class="cls-3" d="M0,5.93,2.29,4.47s.12,13.14,9.59,20.32A23.79,23.79,0,0,1,0,5.93"/><path class="cls-4" d="M.83,2.88a24.25,24.25,0,0,1,22.92,0V5.67S14.61-1.5.83,2.88"/><polygon class="cls-2" points="136.86 0.71 136.86 2.35 136.53 2.35 136.53 0.71 135.92 0.71 135.92 0.42 137.47 0.42 137.47 0.71 136.86 0.71"/><polygon class="cls-2" points="139.7 2.35 139.7 0.91 139.08 2.15 138.87 2.15 138.26 0.91 138.26 2.35 137.95 2.35 137.95 0.42 138.34 0.42 138.98 1.71 139.62 0.42 140 0.42 140 2.35 139.7 2.35"/></svg>