<svg width="25" height="25" viewBox="0 0 25 25" fill="none" xmlns="http://www.w3.org/2000/svg">
<path fill-rule="evenodd" clip-rule="evenodd" d="M11.3961 0.457651C11.6892 0.164622 12.0866 0 12.501 0C15.8151 0.00372208 18.9924 1.32189 21.3358 3.66532C23.6792 6.00874 24.9974 9.18603 25.0011 12.5001C25.0011 12.9145 24.8365 13.312 24.5435 13.605C24.2504 13.898 23.853 14.0627 23.4386 14.0627C23.0242 14.0627 22.6268 13.898 22.3337 13.605C22.0407 13.312 21.8761 12.9145 21.8761 12.5001C21.8736 10.0145 20.8851 7.63131 19.1274 5.87368C17.3698 4.11604 14.9867 3.12752 12.501 3.12503C12.0866 3.12503 11.6892 2.96041 11.3961 2.66738C11.1031 2.37435 10.9385 1.97692 10.9385 1.56252C10.9385 1.14811 11.1031 0.750679 11.3961 0.457651ZM20.5743 17.2205L16.3289 15.3345C15.8878 15.1373 15.3938 15.0916 14.924 15.2047C14.4542 15.3177 14.035 15.5832 13.732 15.9595L12.5085 17.4892C10.5027 16.2021 8.79529 14.5011 7.50068 12.5001L9.03038 11.2767C9.4064 10.9737 9.67162 10.5548 9.78467 10.0854C9.89773 9.61593 9.85227 9.12225 9.65539 8.68133L7.78037 4.42503C7.57002 3.95109 7.19816 3.56727 6.7311 3.34205C6.26405 3.11682 5.73217 3.06482 5.23034 3.19533L1.63655 4.13284C1.11576 4.26838 0.663197 4.59114 0.365419 5.0394C0.0676416 5.48765 -0.0544569 6.02993 0.0224732 6.56255C0.692167 11.2106 2.84916 15.5167 6.1706 18.8365C9.49204 22.1562 13.7993 24.311 18.4477 24.9784C18.9804 25.0538 19.5222 24.9302 19.9696 24.6313C20.417 24.3324 20.7385 23.8791 20.8727 23.358L21.8102 19.7643C21.9406 19.2625 21.8878 18.7308 21.6612 18.2645C21.4347 17.7982 21.0493 17.4281 20.5743 17.2205ZM15.626 12.5001C15.626 12.9145 15.7906 13.312 16.0837 13.605C16.3767 13.898 16.7741 14.0626 17.1885 14.0626C17.6029 14.0626 18.0004 13.898 18.2934 13.605C18.5864 13.312 18.7511 12.9145 18.7511 12.5001C18.7511 10.8425 18.0926 9.25278 16.9205 8.08066C15.7483 6.90855 14.1586 6.25006 12.501 6.25006C12.0866 6.25006 11.6892 6.41468 11.3961 6.70771C11.1031 7.00074 10.9385 7.39817 10.9385 7.81258C10.9385 8.22698 11.1031 8.62442 11.3961 8.91744C11.6892 9.21047 12.0866 9.37509 12.501 9.37509C13.3298 9.37509 14.1247 9.70434 14.7107 10.2904C15.2968 10.8765 15.626 11.6713 15.626 12.5001Z" fill="#08A5B5"/>
</svg>
