<svg width="30" height="30" viewBox="0 0 30 30" fill="none" xmlns="http://www.w3.org/2000/svg">
<path d="M15 30C23.2843 30 30 23.2843 30 15C30 6.71573 23.2843 0 15 0C6.71573 0 0 6.71573 0 15C0 23.2843 6.71573 30 15 30Z" fill="#F0F0F0"/>
<path d="M14.3477 15.0002H29.9998C29.9998 13.6463 29.8193 12.3349 29.4831 11.0872H14.3477V15.0002Z" fill="#D80027"/>
<path d="M14.3477 7.17405H27.7982C26.88 5.67569 25.7061 4.3513 24.3371 3.26099H14.3477V7.17405Z" fill="#D80027"/>
<path d="M14.9999 30.0004C18.5301 30.0004 21.7749 28.7802 24.3372 26.7395H5.6626C8.22496 28.7802 11.4697 30.0004 14.9999 30.0004V30.0004Z" fill="#D80027"/>
<path d="M2.20146 22.8264H27.7983C28.5354 21.6236 29.1071 20.3087 29.4831 18.9133H0.516602C0.892598 20.3087 1.4643 21.6236 2.20146 22.8264V22.8264Z" fill="#D80027"/>
<path d="M15 15C15 6.71578 15 5.73914 15 0C6.71578 0 0 6.71578 0 15H15Z" fill="#0052B4"/>
<path d="M9.97476 12.8396C7.92621 12.8396 6.26555 11.1788 6.26555 9.13034C6.26555 7.08185 7.92627 5.42112 9.97476 5.42112C10.6135 5.42112 11.2145 5.58267 11.7392 5.86696C10.9161 5.06206 9.79037 4.56519 8.54812 4.56519C6.02689 4.56519 3.98291 6.60911 3.98291 9.1304C3.98291 11.6517 6.02689 13.6956 8.54812 13.6956C9.79037 13.6956 10.9161 13.1987 11.7392 12.3938C11.2145 12.678 10.6136 12.8396 9.97476 12.8396V12.8396Z" fill="#FFDA44"/>
<path d="M11.0201 6.52148L11.6786 7.89855L13.1658 7.55496L12.4998 8.92834L13.6958 9.8768L12.2067 10.2125L12.2109 11.7389L11.0201 10.7839L9.82924 11.7389L9.83334 10.2125L8.34424 9.8768L9.54025 8.92834L8.87422 7.55496L10.3615 7.89855L11.0201 6.52148Z" fill="#FFDA44"/>
</svg>
