<?xml version="1.0" encoding="UTF-8"?>
<svg xmlns="http://www.w3.org/2000/svg" xmlns:xlink="http://www.w3.org/1999/xlink" width="150pt" height="25pt" viewBox="0 0 150 25" version="1.1">
<g id="surface1">
<path style=" stroke:none;fill-rule:nonzero;fill:rgb(95.686275%,20%,23.921569%);fill-opacity:1;" d="M 20.804688 10.433594 L 20.804688 18.230469 L 17.148438 18.230469 L 17.148438 11.289062 C 17.148438 9.757812 16.449219 8.824219 15.167969 8.824219 C 13.917969 8.824219 13.0625 9.855469 13.039062 11.515625 L 13.039062 18.230469 L 9.382812 18.230469 L 9.382812 11.339844 C 9.382812 9.757812 8.679688 8.824219 7.425781 8.824219 C 6.125 8.824219 5.273438 9.878906 5.273438 11.59375 L 5.273438 18.230469 L 1.613281 18.230469 L 1.613281 5.808594 L 5.273438 5.808594 L 5.273438 7.367188 C 5.925781 6.234375 7.125 5.480469 8.753906 5.480469 C 10.433594 5.480469 11.710938 6.285156 12.386719 7.644531 C 13.164062 6.335938 14.566406 5.480469 16.375 5.480469 C 19.203125 5.480469 20.804688 7.417969 20.804688 10.433594 Z M 29 14.128906 L 25.917969 5.808594 L 22.058594 5.808594 L 27.070312 18.203125 L 26.71875 19.007812 C 26.21875 20.214844 25.492188 20.640625 24.414062 20.640625 C 23.914062 20.640625 23.4375 20.542969 23.011719 20.339844 L 23.011719 23.410156 C 23.4375 23.636719 24.113281 23.863281 25.089844 23.863281 C 27.421875 23.863281 29.050781 22.53125 30.355469 19.3125 L 35.890625 5.808594 L 32.132812 5.808594 Z M 51.902344 5.480469 C 50.25 5.480469 48.996094 6.183594 48.242188 7.390625 L 48.242188 5.808594 L 44.585938 5.808594 L 44.585938 18.230469 L 48.242188 18.230469 L 48.242188 11.640625 C 48.242188 9.90625 49.171875 8.851562 50.574219 8.851562 C 52 8.851562 52.800781 9.78125 52.800781 11.414062 L 52.800781 18.226562 L 56.460938 18.226562 L 56.460938 10.558594 C 56.460938 7.417969 54.734375 5.480469 51.902344 5.480469 Z M 60.042969 5.253906 L 60.042969 5.808594 L 58.289062 5.808594 L 58.289062 8.824219 L 60.042969 8.824219 L 60.042969 18.230469 L 63.675781 18.230469 L 63.675781 8.824219 L 66.882812 8.824219 L 66.882812 5.808594 L 63.675781 5.808594 L 63.675781 5.28125 C 63.675781 3.796875 64.578125 3.195312 65.757812 3.195312 C 66.332031 3.195312 66.785156 3.320312 67.160156 3.519531 L 67.160156 0.402344 C 66.683594 0.152344 65.957031 0 65.132812 0 C 62.023438 0 60.042969 1.910156 60.042969 5.253906 Z M 81.042969 12.019531 C 81.042969 15.714844 78.160156 18.554688 74.328125 18.554688 C 70.492188 18.554688 67.613281 15.714844 67.613281 12.019531 C 67.613281 8.320312 70.492188 5.480469 74.328125 5.480469 C 78.164062 5.480469 81.042969 8.320312 81.042969 12.019531 Z M 77.433594 12.019531 C 77.433594 10.230469 76.03125 8.824219 74.328125 8.824219 C 72.621094 8.824219 71.21875 10.230469 71.21875 12.019531 C 71.21875 13.804688 72.621094 15.210938 74.328125 15.210938 C 76.03125 15.210938 77.433594 13.804688 77.433594 12.019531 Z M 77.433594 12.019531 "/>
<path style=" stroke:none;fill-rule:nonzero;fill:rgb(0%,0%,0%);fill-opacity:1;" d="M 41.867188 18.21875 L 37.230469 18.21875 L 38.214844 10.519531 C 38.957031 10.742188 40.140625 10.742188 40.882812 10.519531 Z M 39.550781 9.800781 C 40.757812 9.800781 41.695312 8.859375 41.695312 7.644531 C 41.695312 6.429688 40.757812 5.492188 39.550781 5.492188 C 38.339844 5.492188 37.402344 6.429688 37.402344 7.644531 C 37.402344 8.859375 38.339844 9.800781 39.550781 9.800781 Z M 39.550781 9.800781 "/>
<path style=" stroke:none;fill-rule:nonzero;fill:rgb(0%,0%,0%);fill-opacity:1;" d="M 84.121094 17.933594 L 84.121094 6.601562 L 86.460938 6.601562 L 86.460938 11.003906 C 86.742188 10.59375 87.105469 10.28125 87.558594 10.066406 C 88.019531 9.851562 88.515625 9.742188 89.042969 9.742188 C 89.582031 9.742188 90.074219 9.851562 90.527344 10.066406 C 90.988281 10.28125 91.386719 10.578125 91.722656 10.957031 C 92.066406 11.324219 92.335938 11.765625 92.527344 12.285156 C 92.722656 12.789062 92.816406 13.339844 92.816406 13.933594 C 92.816406 14.527344 92.722656 15.078125 92.527344 15.585938 C 92.335938 16.09375 92.066406 16.535156 91.722656 16.914062 C 91.386719 17.289062 90.988281 17.585938 90.527344 17.804688 C 90.074219 18.019531 89.582031 18.128906 89.042969 18.128906 C 88.515625 18.128906 88.019531 18.03125 87.558594 17.835938 C 87.105469 17.628906 86.742188 17.316406 86.460938 16.898438 L 86.460938 17.933594 Z M 90.480469 13.933594 C 90.480469 13.644531 90.425781 13.375 90.316406 13.125 C 90.210938 12.878906 90.066406 12.660156 89.882812 12.476562 C 89.699219 12.285156 89.484375 12.132812 89.238281 12.023438 C 88.988281 11.917969 88.71875 11.863281 88.429688 11.863281 C 88.140625 11.863281 87.871094 11.917969 87.625 12.023438 C 87.375 12.132812 87.160156 12.285156 86.976562 12.476562 C 86.796875 12.660156 86.648438 12.878906 86.542969 13.125 C 86.433594 13.375 86.382812 13.644531 86.382812 13.933594 C 86.382812 14.226562 86.433594 14.496094 86.542969 14.742188 C 86.648438 14.992188 86.796875 15.214844 86.976562 15.40625 C 87.160156 15.589844 87.375 15.738281 87.625 15.84375 C 87.871094 15.953125 88.140625 16.007812 88.429688 16.007812 C 88.71875 16.007812 88.988281 15.953125 89.238281 15.84375 C 89.484375 15.738281 89.699219 15.589844 89.882812 15.40625 C 90.066406 15.214844 90.210938 14.992188 90.316406 14.742188 C 90.425781 14.496094 90.480469 14.226562 90.480469 13.933594 Z M 99.542969 9.9375 L 101.898438 9.9375 L 101.898438 17.933594 L 99.542969 17.933594 L 99.542969 16.914062 C 99.304688 17.289062 98.988281 17.59375 98.589844 17.820312 C 98.203125 18.035156 97.746094 18.144531 97.21875 18.144531 C 96.304688 18.144531 95.589844 17.851562 95.074219 17.269531 C 94.558594 16.6875 94.296875 15.886719 94.296875 14.875 L 94.296875 9.9375 L 96.652344 9.9375 L 96.652344 14.308594 C 96.652344 14.835938 96.773438 15.246094 97.007812 15.539062 C 97.257812 15.828125 97.605469 15.972656 98.058594 15.972656 C 98.507812 15.972656 98.871094 15.816406 99.136719 15.503906 C 99.40625 15.179688 99.542969 14.734375 99.542969 14.160156 Z M 106.570312 11.621094 C 106.355469 11.621094 106.179688 11.671875 106.039062 11.78125 C 105.898438 11.878906 105.828125 12.007812 105.828125 12.171875 C 105.828125 12.460938 106.050781 12.667969 106.492188 12.785156 L 107.492188 13.042969 C 108.242188 13.238281 108.8125 13.539062 109.199219 13.949219 C 109.597656 14.351562 109.796875 14.835938 109.796875 15.40625 C 109.796875 15.808594 109.71875 16.175781 109.554688 16.507812 C 109.394531 16.84375 109.167969 17.132812 108.878906 17.382812 C 108.597656 17.621094 108.257812 17.804688 107.863281 17.933594 C 107.472656 18.074219 107.050781 18.144531 106.585938 18.144531 C 105.792969 18.144531 105.097656 17.96875 104.507812 17.625 C 103.914062 17.28125 103.484375 16.800781 103.214844 16.183594 L 105.121094 15.132812 C 105.269531 15.46875 105.480469 15.730469 105.75 15.925781 C 106.015625 16.121094 106.300781 16.21875 106.601562 16.21875 C 106.851562 16.21875 107.050781 16.164062 107.199219 16.054688 C 107.363281 15.949219 107.441406 15.796875 107.441406 15.601562 C 107.441406 15.320312 107.199219 15.121094 106.714844 15.003906 L 105.78125 14.777344 C 104.265625 14.421875 103.507812 13.601562 103.507812 12.316406 C 103.507812 11.9375 103.582031 11.59375 103.730469 11.28125 C 103.882812 10.957031 104.09375 10.679688 104.359375 10.453125 C 104.628906 10.226562 104.953125 10.050781 105.328125 9.921875 C 105.714844 9.789062 106.136719 9.726562 106.585938 9.726562 C 106.929688 9.726562 107.265625 9.773438 107.585938 9.871094 C 107.910156 9.957031 108.210938 10.082031 108.492188 10.242188 C 108.769531 10.40625 109.019531 10.601562 109.234375 10.828125 C 109.449219 11.054688 109.621094 11.308594 109.75 11.585938 L 107.828125 12.605469 C 107.710938 12.304688 107.535156 12.066406 107.296875 11.894531 C 107.058594 11.710938 106.820312 11.621094 106.570312 11.621094 Z M 111.234375 17.933594 L 111.234375 9.9375 L 113.589844 9.9375 L 113.589844 17.933594 Z M 113.785156 7.621094 C 113.785156 7.804688 113.746094 7.984375 113.671875 8.15625 C 113.609375 8.316406 113.511719 8.464844 113.382812 8.59375 C 113.261719 8.710938 113.117188 8.808594 112.945312 8.882812 C 112.785156 8.960938 112.609375 8.996094 112.414062 8.996094 C 112.21875 8.996094 112.039062 8.960938 111.867188 8.882812 C 111.703125 8.808594 111.558594 8.710938 111.429688 8.59375 C 111.3125 8.464844 111.214844 8.316406 111.140625 8.15625 C 111.074219 7.984375 111.042969 7.804688 111.042969 7.621094 C 111.042969 7.4375 111.074219 7.265625 111.140625 7.105469 C 111.214844 6.929688 111.3125 6.785156 111.429688 6.667969 C 111.558594 6.535156 111.703125 6.433594 111.867188 6.359375 C 112.039062 6.285156 112.21875 6.246094 112.414062 6.246094 C 112.609375 6.246094 112.785156 6.285156 112.945312 6.359375 C 113.117188 6.433594 113.261719 6.535156 113.382812 6.667969 C 113.511719 6.785156 113.609375 6.929688 113.671875 7.105469 C 113.746094 7.265625 113.785156 7.4375 113.785156 7.621094 Z M 118.019531 17.933594 L 115.664062 17.933594 L 115.664062 9.9375 L 118.019531 9.9375 L 118.019531 10.957031 C 118.265625 10.566406 118.582031 10.265625 118.96875 10.050781 C 119.367188 9.832031 119.835938 9.726562 120.375 9.726562 C 121.289062 9.726562 122.003906 10.015625 122.519531 10.601562 C 123.046875 11.183594 123.308594 11.980469 123.308594 12.996094 L 123.308594 17.933594 L 120.953125 17.933594 L 120.953125 13.546875 C 120.953125 13.015625 120.832031 12.613281 120.582031 12.332031 C 120.335938 12.039062 119.980469 11.894531 119.519531 11.894531 C 119.066406 11.894531 118.703125 12.058594 118.421875 12.378906 C 118.152344 12.695312 118.019531 13.128906 118.019531 13.691406 Z M 132.742188 16.023438 C 132.410156 16.679688 131.925781 17.199219 131.289062 17.578125 C 130.667969 17.953125 129.917969 18.144531 129.046875 18.144531 C 128.425781 18.144531 127.855469 18.039062 127.339844 17.835938 C 126.820312 17.628906 126.375 17.34375 126 16.976562 C 125.632812 16.601562 125.34375 16.152344 125.128906 15.632812 C 124.921875 15.117188 124.820312 14.550781 124.820312 13.933594 C 124.820312 13.332031 124.921875 12.773438 125.128906 12.265625 C 125.34375 11.75 125.632812 11.300781 126 10.921875 C 126.375 10.546875 126.8125 10.253906 127.304688 10.050781 C 127.8125 9.832031 128.359375 9.726562 128.953125 9.726562 C 129.554688 9.726562 130.101562 9.832031 130.597656 10.050781 C 131.101562 10.253906 131.53125 10.546875 131.886719 10.921875 C 132.242188 11.300781 132.515625 11.753906 132.710938 12.285156 C 132.914062 12.800781 133.015625 13.375 133.015625 14 C 133.015625 14.140625 133.011719 14.257812 133 14.355469 C 133 14.453125 132.996094 14.527344 132.984375 14.582031 L 127.128906 14.582031 C 127.148438 14.820312 127.214844 15.035156 127.320312 15.230469 C 127.429688 15.425781 127.570312 15.597656 127.742188 15.746094 C 127.925781 15.886719 128.125 16 128.339844 16.085938 C 128.5625 16.164062 128.800781 16.199219 129.046875 16.199219 C 129.488281 16.199219 129.839844 16.113281 130.097656 15.941406 C 130.355469 15.769531 130.574219 15.53125 130.757812 15.230469 Z M 130.710938 13.042969 C 130.65625 12.613281 130.46875 12.261719 130.144531 11.992188 C 129.824219 11.710938 129.417969 11.570312 128.933594 11.570312 C 128.699219 11.570312 128.476562 11.613281 128.273438 11.699219 C 128.070312 11.777344 127.886719 11.882812 127.726562 12.023438 C 127.5625 12.164062 127.429688 12.320312 127.320312 12.492188 C 127.226562 12.667969 127.164062 12.851562 127.144531 13.042969 Z M 137.214844 11.621094 C 137 11.621094 136.820312 11.671875 136.679688 11.78125 C 136.542969 11.878906 136.472656 12.007812 136.472656 12.171875 C 136.472656 12.460938 136.691406 12.667969 137.132812 12.785156 L 138.132812 13.042969 C 138.886719 13.238281 139.457031 13.539062 139.84375 13.949219 C 140.242188 14.351562 140.441406 14.835938 140.441406 15.40625 C 140.441406 15.808594 140.359375 16.175781 140.199219 16.507812 C 140.035156 16.84375 139.8125 17.132812 139.519531 17.382812 C 139.242188 17.621094 138.902344 17.804688 138.503906 17.933594 C 138.117188 18.074219 137.691406 18.144531 137.230469 18.144531 C 136.433594 18.144531 135.742188 17.96875 135.148438 17.625 C 134.558594 17.28125 134.125 16.800781 133.859375 16.183594 L 135.761719 15.132812 C 135.914062 15.46875 136.121094 15.730469 136.390625 15.925781 C 136.660156 16.121094 136.945312 16.21875 137.246094 16.21875 C 137.492188 16.21875 137.691406 16.164062 137.84375 16.054688 C 138.003906 15.949219 138.085938 15.796875 138.085938 15.601562 C 138.085938 15.320312 137.84375 15.121094 137.359375 15.003906 L 136.421875 14.777344 C 134.90625 14.421875 134.148438 13.601562 134.148438 12.316406 C 134.148438 11.9375 134.222656 11.59375 134.375 11.28125 C 134.523438 10.957031 134.734375 10.679688 135.003906 10.453125 C 135.273438 10.226562 135.59375 10.050781 135.972656 9.921875 C 136.359375 9.789062 136.777344 9.726562 137.230469 9.726562 C 137.574219 9.726562 137.90625 9.773438 138.230469 9.871094 C 138.554688 9.957031 138.855469 10.082031 139.132812 10.242188 C 139.414062 10.40625 139.660156 10.601562 139.875 10.828125 C 140.089844 11.054688 140.261719 11.308594 140.390625 11.585938 L 138.472656 12.605469 C 138.355469 12.304688 138.175781 12.066406 137.941406 11.894531 C 137.703125 11.710938 137.460938 11.621094 137.214844 11.621094 Z M 144.570312 11.621094 C 144.355469 11.621094 144.179688 11.671875 144.039062 11.78125 C 143.898438 11.878906 143.828125 12.007812 143.828125 12.171875 C 143.828125 12.460938 144.050781 12.667969 144.492188 12.785156 L 145.492188 13.042969 C 146.242188 13.238281 146.8125 13.539062 147.199219 13.949219 C 147.597656 14.351562 147.796875 14.835938 147.796875 15.40625 C 147.796875 15.808594 147.71875 16.175781 147.554688 16.507812 C 147.394531 16.84375 147.167969 17.132812 146.878906 17.382812 C 146.597656 17.621094 146.257812 17.804688 145.863281 17.933594 C 145.476562 18.074219 145.050781 18.144531 144.585938 18.144531 C 143.792969 18.144531 143.097656 17.96875 142.507812 17.625 C 141.914062 17.28125 141.484375 16.800781 141.214844 16.183594 L 143.121094 15.132812 C 143.269531 15.46875 143.480469 15.730469 143.75 15.925781 C 144.015625 16.121094 144.300781 16.21875 144.601562 16.21875 C 144.851562 16.21875 145.050781 16.164062 145.199219 16.054688 C 145.363281 15.949219 145.441406 15.796875 145.441406 15.601562 C 145.441406 15.320312 145.199219 15.121094 144.714844 15.003906 L 143.78125 14.777344 C 142.265625 14.421875 141.507812 13.601562 141.507812 12.316406 C 141.507812 11.9375 141.582031 11.59375 141.730469 11.28125 C 141.882812 10.957031 142.09375 10.679688 142.359375 10.453125 C 142.628906 10.226562 142.953125 10.050781 143.328125 9.921875 C 143.714844 9.789062 144.136719 9.726562 144.585938 9.726562 C 144.929688 9.726562 145.265625 9.773438 145.585938 9.871094 C 145.910156 9.957031 146.210938 10.082031 146.492188 10.242188 C 146.769531 10.40625 147.019531 10.601562 147.234375 10.828125 C 147.449219 11.054688 147.621094 11.308594 147.75 11.585938 L 145.828125 12.605469 C 145.710938 12.304688 145.535156 12.066406 145.296875 11.894531 C 145.058594 11.710938 144.820312 11.621094 144.570312 11.621094 Z M 144.570312 11.621094 "/>
</g>
</svg>
