<svg width="200" height="200" viewBox="0 0 200 200" fill="none" xmlns="http://www.w3.org/2000/svg">
<g clip-path="url(#clip0_242_1690)">
<path d="M103 155C144.421 155 178 121.421 178 80C178 38.5786 144.421 5 103 5C61.5786 5 28 38.5786 28 80C28 121.421 61.5786 155 103 155Z" fill="white" stroke="#132766" stroke-width="3"/>
<path d="M102.75 59.5H114V61.75H102.75V59.5Z" fill="#08A5B5"/>
<path d="M102.75 64H114V66.25H102.75V64Z" fill="#08A5B5"/>
<path d="M102.75 68.5H114V70.75H102.75V68.5Z" fill="#08A5B5"/>
<path d="M102.75 73H114V75.25H102.75V73Z" fill="#08A5B5"/>
<path d="M92.7684 61.5447C93.1791 62.9917 94.4967 63.993 96 64C96.1125 64 97.0125 64 97.125 64C97.7466 64 98.25 64.5034 98.25 65.125C98.25 65.35 98.25 66.475 98.25 68.5H100.5C100.5 66.475 100.5 65.35 100.5 65.125C100.5 63.2617 98.9883 61.75 97.125 61.75C97.0125 61.75 96.1125 61.75 96 61.75C95.3784 61.75 94.875 61.2466 94.875 60.625C94.875 60.5814 94.875 60.2383 94.875 60.1947C95.5964 59.3833 95.9958 58.3356 96 57.25C96 57.025 96 55.225 96 55C96 52.5152 93.9848 50.5 91.5 50.5C89.0152 50.5 87 52.5152 87 55C87 55.225 87 57.025 87 57.25C87.0042 58.3356 87.4036 59.3833 88.125 60.1947C88.125 60.2383 88.125 60.5814 88.125 60.625C88.125 61.2466 87.6216 61.75 87 61.75C86.8875 61.75 85.9875 61.75 85.875 61.75C84.0117 61.75 82.5 63.2617 82.5 65.125C82.5 65.35 82.5 66.475 82.5 68.5H84.75C84.75 66.475 84.75 65.35 84.75 65.125C84.75 64.5034 85.2534 64 85.875 64C85.9875 64 86.8875 64 87 64C88.5033 63.993 89.8209 62.9917 90.2316 61.5447C91.0556 61.8189 91.9444 61.8189 92.7684 61.5447ZM89.25 55C89.25 53.7569 90.2569 52.75 91.5 52.75C92.7431 52.75 93.75 53.7569 93.75 55C93.75 55.225 93.75 57.025 93.75 57.25C93.75 58.4931 92.7431 59.5 91.5 59.5C90.2569 59.5 89.25 58.4931 89.25 57.25C89.25 56.8 89.25 55.45 89.25 55Z" fill="#132766"/>
<path d="M112.875 57.25C113.497 57.25 114 56.7466 114 56.125C114 55.675 114 52.075 114 51.625C114 51.0034 113.497 50.5 112.875 50.5C111.975 50.5 104.775 50.5 103.875 50.5C103.253 50.5 102.75 51.0034 102.75 51.625C102.75 52.075 102.75 55.675 102.75 56.125C102.75 56.7466 103.253 57.25 103.875 57.25C105.675 57.25 111.975 57.25 112.875 57.25ZM105 52.75H111.75V55H105V52.75Z" fill="#08A5B5"/>
<path d="M129.75 68.5C129.3 68.5 127.05 68.5 123 68.5C123 58.375 123 52.75 123 51.625C123 51.0034 122.497 50.5 121.875 50.5C121.65 50.5 120.525 50.5 118.5 50.5C118.5 48.475 118.5 47.35 118.5 47.125C118.5 46.5034 117.997 46 117.375 46C113.55 46 82.95 46 79.125 46C78.5034 46 78 46.5034 78 47.125C78 48.7745 78 57.025 78 71.875C75.975 71.875 74.85 71.875 74.625 71.875C71.52 71.8792 69.0042 74.395 69 77.5C69 80.5375 69 104.838 69 107.875C69.0042 110.98 71.52 113.496 74.625 113.5C79.35 113.5 117.15 113.5 121.875 113.5C124.88 113.49 127.347 111.118 127.475 108.114C128.373 104.859 135.561 78.8064 136.459 75.5495C136.486 75.4511 136.5 75.3512 136.5 75.25C136.496 71.5234 133.477 68.5042 129.75 68.5ZM120.75 52.75V77.5H118.5V52.75H120.75ZM80.25 48.25H116.25V77.5H94.2155C91.0387 74.3233 89.2739 72.557 88.9209 72.2041C88.71 71.9931 88.4231 71.875 88.125 71.875C87.6005 71.875 84.975 71.875 80.25 71.875V48.25ZM125.25 107.875C125.25 109.738 123.738 111.25 121.875 111.25C117.15 111.25 79.35 111.25 74.625 111.25C72.7617 111.25 71.25 109.738 71.25 107.875C71.25 104.838 71.25 80.5375 71.25 77.5C71.25 75.6367 72.7617 74.125 74.625 74.125C75.4941 74.125 79.8394 74.125 87.6595 74.125C90.8363 77.3017 92.6011 79.068 92.9541 79.4209C93.165 79.6319 93.4519 79.75 93.75 79.75C96.5625 79.75 119.062 79.75 121.875 79.75C123.738 79.75 125.25 81.2617 125.25 83.125C125.25 88.075 125.25 102.925 125.25 107.875ZM127.5 99.5669C127.5 89.702 127.5 84.2205 127.5 83.125C127.497 80.4531 125.617 78.1511 123 77.6125C123 77.1555 123 74.8675 123 70.75C127.05 70.75 129.3 70.75 129.75 70.75C132.18 70.7486 134.173 72.6766 134.25 75.1066C133.35 78.3677 131.1 86.5211 127.5 99.5669Z" fill="#08A5B5"/>
<path d="M103.875 89.875C103.875 86.5 103.875 84.6255 103.875 84.25C103.875 83.6284 103.372 83.125 102.75 83.125C101.85 83.125 94.65 83.125 93.75 83.125C93.1284 83.125 92.625 83.6284 92.625 84.25C92.625 84.6255 92.625 86.5 92.625 89.875C89.25 89.875 87.3755 89.875 87 89.875C86.3784 89.875 85.875 90.3784 85.875 91C85.875 91.9 85.875 99.1 85.875 100C85.875 100.622 86.3784 101.125 87 101.125C87.3755 101.125 89.25 101.125 92.625 101.125C92.625 104.5 92.625 106.375 92.625 106.75C92.625 107.372 93.1284 107.875 93.75 107.875C94.65 107.875 101.85 107.875 102.75 107.875C103.372 107.875 103.875 107.372 103.875 106.75C103.875 106.375 103.875 104.5 103.875 101.125C107.25 101.125 109.125 101.125 109.5 101.125C110.122 101.125 110.625 100.622 110.625 100C110.625 99.1 110.625 91.9 110.625 91C110.625 90.3784 110.122 89.875 109.5 89.875C108.75 89.875 106.875 89.875 103.875 89.875ZM108.375 98.875C105 98.875 103.125 98.875 102.75 98.875C102.128 98.875 101.625 99.3784 101.625 100C101.625 100.375 101.625 102.25 101.625 105.625H94.875C94.875 102.25 94.875 100.375 94.875 100C94.875 99.3784 94.3716 98.875 93.75 98.875C93.3745 98.875 91.5 98.875 88.125 98.875V92.125C91.5 92.125 93.3745 92.125 93.75 92.125C94.3716 92.125 94.875 91.6216 94.875 91C94.875 90.6245 94.875 88.75 94.875 85.375H101.625C101.625 88.75 101.625 90.6245 101.625 91C101.625 91.6216 102.128 92.125 102.75 92.125C103.125 92.125 105 92.125 108.375 92.125V98.875Z" fill="#132766"/>
</g>
<defs>
<clipPath id="clip0_242_1690">
<rect width="200" height="200" fill="white"/>
</clipPath>
</defs>
</svg>
