<svg width="200" height="200" viewBox="0 0 200 200" fill="none" xmlns="http://www.w3.org/2000/svg">
<g clip-path="url(#clip0_242_1668)">
<path d="M103 155C144.421 155 178 121.421 178 80C178 38.5786 144.421 5 103 5C61.5786 5 28 38.5786 28 80C28 121.421 61.5786 155 103 155Z" fill="white" stroke="#132766" stroke-width="3"/>
<path d="M125.74 44.875C125.74 43.5625 125.74 42.8337 125.74 42.6875C125.74 40.1025 123.636 38 121.053 38C118.468 38 116.365 40.1025 116.365 42.6875C116.365 42.8337 116.365 43.5625 116.365 44.875H90.115C90.115 43.5625 90.115 42.8337 90.115 42.6875C90.115 40.1025 88.0112 38 85.4275 38C82.8425 38 80.74 40.1025 80.74 42.6875C80.74 42.9125 80.74 44.7087 80.74 44.9325C80.6062 44.8962 80.4675 44.875 80.3225 44.875C79.7 44.875 74.72 44.875 74.0975 44.875C69.79 44.875 66.285 48.38 66.285 52.6875C66.285 55.3488 66.285 76.64 66.285 79.3025C66.285 80.165 66.985 80.865 67.8475 80.865C68.71 80.865 69.41 80.165 69.41 79.3025C69.41 78.08 69.41 71.9688 69.41 60.9688C103.208 60.9688 121.984 60.9688 125.74 60.9688C126.603 60.9688 127.302 60.2687 127.302 59.4062C127.302 58.5438 126.603 57.8438 125.74 57.8438C121.984 57.8438 103.208 57.8438 69.41 57.8438C69.41 54.75 69.41 53.0312 69.41 52.6875C69.41 50.1025 71.5125 48 74.0975 48C74.72 48 79.7 48 80.3225 48C80.4675 48 80.6062 47.9788 80.74 47.9425C80.74 48.1438 80.74 49.7525 80.74 49.9537C80.74 52.5375 82.8425 54.6413 85.4275 54.6413C88.0112 54.6413 90.115 52.5375 90.115 49.9537C90.115 49.8225 90.115 49.1725 90.115 48H116.365C116.365 49.1725 116.365 49.8225 116.365 49.9537C116.365 52.5375 118.468 54.6413 121.053 54.6413C123.636 54.6413 125.74 52.5375 125.74 49.9537C125.74 49.8225 125.74 49.1725 125.74 48C130.209 48 132.691 48 133.188 48C135.772 48 137.875 50.1025 137.875 52.6875C137.875 58.625 137.875 106.124 137.875 112.061C137.875 113.612 136.612 114.875 135.061 114.875C133.51 114.875 132.249 113.612 132.249 112.061C132.249 111.658 132.249 108.424 132.249 108.02C132.249 107.156 131.549 106.457 130.686 106.457C128.868 106.457 114.327 106.457 112.51 106.457C111.647 106.457 110.947 107.156 110.947 108.02C110.947 108.882 111.647 109.582 112.51 109.582C113.617 109.582 119.155 109.582 129.122 109.582C129.122 111.07 129.122 111.896 129.122 112.061C129.122 113.079 129.38 114.037 129.834 114.875C123.544 114.875 73.2275 114.875 66.9375 114.875C65.3863 114.875 64.125 113.614 64.125 112.062C64.125 111.897 64.125 111.07 64.125 109.582C85.1087 109.582 96.7663 109.582 99.0975 109.582C99.96 109.582 100.66 108.882 100.66 108.02C100.66 107.156 99.96 106.457 99.0975 106.457C97.5363 106.457 85.0475 106.457 83.4862 106.457C86.2162 104.106 87.95 100.627 87.95 96.75C87.95 89.685 82.2025 83.9375 75.1375 83.9375C68.0725 83.9375 62.325 89.685 62.325 96.75C62.325 100.627 64.0588 104.106 66.7888 106.457C66.3663 106.457 62.985 106.457 62.5625 106.457C61.7 106.457 61 107.156 61 108.02C61 108.424 61 111.659 61 112.062C61 115.336 63.6637 118 66.9375 118C73.75 118 128.249 118 135.061 118C138.336 118 141 115.336 141 112.061C141 106.124 141 58.625 141 52.6875C141 48.38 137.495 44.875 133.188 44.875C132.195 44.875 129.711 44.875 125.74 44.875ZM85.4275 51.5162C84.565 51.5162 83.865 50.815 83.865 49.9537C83.865 49.2262 83.865 43.4138 83.865 42.6875C83.865 41.8263 84.565 41.125 85.4275 41.125C86.2887 41.125 86.99 41.8263 86.99 42.6875C86.99 43.1725 86.99 45.5937 86.99 49.9537C86.5225 50.995 86.0012 51.5162 85.4275 51.5162ZM121.053 51.5162C120.19 51.5162 119.49 50.815 119.49 49.9537C119.49 49.2262 119.49 43.4138 119.49 42.6875C119.49 41.8263 120.19 41.125 121.053 41.125C121.914 41.125 122.615 41.8263 122.615 42.6875C122.615 43.1725 122.615 45.5937 122.615 49.9537C122.148 50.995 121.626 51.5162 121.053 51.5162ZM75.1375 87.0625C80.4788 87.0625 84.825 91.4087 84.825 96.75C84.825 102.091 80.4788 106.438 75.1375 106.438C69.795 106.438 65.45 102.091 65.45 96.75C65.45 91.4087 69.7962 87.0625 75.1375 87.0625Z" fill="#08A5B5"/>
<path d="M133.069 57.8438C132.658 57.8438 132.255 58.0113 131.964 58.3013C131.674 58.5925 131.506 58.995 131.506 59.4062C131.506 59.8175 131.674 60.22 131.964 60.5112C132.255 60.8012 132.658 60.9688 133.069 60.9688C133.48 60.9688 133.883 60.8012 134.174 60.5112C134.464 60.22 134.631 59.8175 134.631 59.4062C134.631 58.995 134.464 58.5925 134.174 58.3013C133.883 58.0113 133.48 57.8438 133.069 57.8438Z" fill="#08A5B5"/>
<path d="M106.56 106.458C106.149 106.458 105.745 106.624 105.455 106.914C105.164 107.206 104.998 107.608 104.998 108.019C104.998 108.431 105.164 108.833 105.455 109.125C105.745 109.416 106.149 109.581 106.56 109.581C106.97 109.581 107.374 109.416 107.664 109.125C107.955 108.833 108.123 108.43 108.123 108.019C108.123 107.608 107.955 107.206 107.664 106.914C107.374 106.624 106.97 106.458 106.56 106.458Z" fill="#08A5B5"/>
<path d="M90.4136 91.4375C90.4136 94.7113 93.0773 97.375 96.3511 97.375C99.6248 97.375 102.289 94.7113 102.289 91.4375C102.289 88.1637 99.6248 85.5 96.3511 85.5C93.0773 85.5 90.4136 88.1637 90.4136 91.4375ZM93.5386 91.4375C93.5386 89.8863 94.7998 88.625 96.3511 88.625C97.9011 88.625 99.1636 89.8863 99.1636 91.4375C99.1636 92.9887 97.9011 94.25 96.3511 94.25C94.7998 94.25 93.5386 92.9887 93.5386 91.4375Z" fill="#08A5B5"/>
<path d="M104.996 91.4375C104.996 94.7113 107.66 97.375 110.934 97.375C114.207 97.375 116.871 94.7113 116.871 91.4375C116.871 88.1637 114.207 85.5 110.934 85.5C107.66 85.5 104.996 88.1637 104.996 91.4375ZM108.121 91.4375C108.121 89.8863 109.384 88.625 110.934 88.625C112.485 88.625 113.746 89.8863 113.746 91.4375C113.746 92.9887 112.485 94.25 110.934 94.25C109.384 94.25 108.121 92.9887 108.121 91.4375Z" fill="#08A5B5"/>
<path d="M119.58 91.4375C119.58 94.7113 122.244 97.375 125.518 97.375C128.791 97.375 131.455 94.7113 131.455 91.4375C131.455 88.1637 128.791 85.5 125.518 85.5C122.244 85.5 119.58 88.1637 119.58 91.4375ZM122.705 91.4375C122.705 89.8863 123.966 88.625 125.518 88.625C127.069 88.625 128.33 89.8863 128.33 91.4375C128.33 92.9887 127.069 94.25 125.518 94.25C123.966 94.25 122.705 92.9887 122.705 91.4375Z" fill="#08A5B5"/>
<path d="M75.8301 75.1875C75.8301 78.4613 78.4938 81.125 81.7676 81.125C85.0413 81.125 87.7051 78.4613 87.7051 75.1875C87.7051 71.9137 85.0413 69.25 81.7676 69.25C78.4938 69.25 75.8301 71.9137 75.8301 75.1875ZM78.9551 75.1875C78.9551 73.6363 80.2163 72.375 81.7676 72.375C83.3188 72.375 84.5801 73.6363 84.5801 75.1875C84.5801 76.7387 83.3188 78 81.7676 78C80.2163 78 78.9551 76.7387 78.9551 75.1875Z" fill="#08A5B5"/>
<path d="M104.996 75.1875C104.996 78.4613 107.66 81.125 110.934 81.125C114.207 81.125 116.871 78.4613 116.871 75.1875C116.871 71.9137 114.207 69.25 110.934 69.25C107.66 69.25 104.996 71.9137 104.996 75.1875ZM108.121 75.1875C108.121 73.6363 109.384 72.375 110.934 72.375C112.485 72.375 113.746 73.6363 113.746 75.1875C113.746 76.7387 112.485 78 110.934 78C109.384 78 108.121 76.7387 108.121 75.1875Z" fill="#08A5B5"/>
<path d="M119.58 75.1875C119.58 78.4613 122.244 81.125 125.518 81.125C128.791 81.125 131.455 78.4613 131.455 75.1875C131.455 71.9137 128.791 69.25 125.518 69.25C122.244 69.25 119.58 71.9137 119.58 75.1875ZM122.705 75.1875C122.705 73.6363 123.966 72.375 125.518 72.375C127.069 72.375 128.33 73.6363 128.33 75.1875C128.33 76.7387 127.069 78 125.518 78C123.966 78 122.705 76.7387 122.705 75.1875Z" fill="#08A5B5"/>
<path d="M90.4136 75.1875C90.4136 78.4613 93.0773 81.125 96.3511 81.125C99.6248 81.125 102.289 78.4613 102.289 75.1875C102.289 71.9137 99.6248 69.25 96.3511 69.25C93.0773 69.25 90.4136 71.9137 90.4136 75.1875ZM93.5386 75.1875C93.5386 73.6363 94.7998 72.375 96.3511 72.375C97.9011 72.375 99.1636 73.6363 99.1636 75.1875C99.1636 76.7387 97.9011 78 96.3511 78C94.7998 78 93.5386 76.7387 93.5386 75.1875Z" fill="#08A5B5"/>
<path d="M78.4935 92.9425C78.1548 93.2812 76.4585 94.9775 73.4048 98.0312C72.3623 96.9875 71.7823 96.4075 71.666 96.2912C71.056 95.6812 70.0673 95.6812 69.456 96.2912C68.846 96.9025 68.846 97.8912 69.456 98.5012C69.741 98.7862 72.016 101.061 72.2998 101.345C72.5935 101.639 72.991 101.802 73.4048 101.802C73.8198 101.802 74.2173 101.639 74.5098 101.345C75.1298 100.726 80.0848 95.7712 80.7035 95.1512C81.3135 94.5412 81.3135 93.5525 80.7035 92.9425C80.0935 92.3325 79.1035 92.3325 78.4935 92.9425Z" fill="#132766"/>
</g>
<defs>
<clipPath id="clip0_242_1668">
<rect width="200" height="200" fill="white"/>
</clipPath>
</defs>
</svg>
