<svg width="32" height="32" viewBox="0 0 32 32" fill="none" xmlns="http://www.w3.org/2000/svg">
<path d="M16.0993 31.9996C24.881 31.9996 32 24.8362 32 15.9996C32 7.16308 24.881 -0.000366211 16.0993 -0.000366211C7.31768 -0.000366211 0.19873 7.16308 0.19873 15.9996C0.19873 24.8362 7.31768 31.9996 16.0993 31.9996Z" fill="#F0F0F0"/>
<path d="M0.19873 15.9997C0.19873 7.16314 7.31774 -0.000366211 16.0993 -0.000366211C24.881 -0.000366211 32 7.16314 32 15.9997" fill="#D80027"/>
<path d="M9.87677 8.34728C9.87677 6.01616 11.5049 4.06878 13.6791 3.59097C13.3449 3.5176 12.9983 3.47778 12.642 3.47778C9.96932 3.47778 7.80273 5.65791 7.80273 8.34734C7.80273 11.0368 9.96932 13.2169 12.642 13.2169C12.9981 13.2169 13.3448 13.1771 13.6791 13.1036C11.5049 12.6258 9.87677 10.6785 9.87677 8.34728Z" fill="#F0F0F0"/>
<path d="M16.0993 3.82556L16.4425 4.88838H17.5531L16.6546 5.54531L16.9978 6.60813L16.0993 5.95131L15.2008 6.60813L15.544 5.54531L14.6455 4.88838H15.7561L16.0993 3.82556Z" fill="#F0F0F0"/>
<path d="M13.4041 5.9126L13.7473 6.97547H14.8579L13.9594 7.63235L14.3026 8.69516L13.4041 8.03835L12.5055 8.69516L12.8488 7.63235L11.9502 6.97547H13.0608L13.4041 5.9126Z" fill="#F0F0F0"/>
<path d="M18.7927 5.9126L19.1359 6.97547H20.2465L19.3479 7.63235L19.6912 8.69516L18.7927 8.03835L17.8941 8.69516L18.2374 7.63235L17.3389 6.97547H18.4494L18.7927 5.9126Z" fill="#F0F0F0"/>
<path d="M17.7546 9.04297L18.0978 10.1058H19.2084L18.3098 10.7627L18.6531 11.8255L17.7546 11.1687L16.8561 11.8255L17.1993 10.7627L16.3008 10.1058H17.4113L17.7546 9.04297Z" fill="#F0F0F0"/>
<path d="M14.4421 9.04297L14.7853 10.1058H15.896L14.9974 10.7627L15.3407 11.8255L14.4421 11.1687L13.5436 11.8255L13.8868 10.7627L12.9883 10.1058H14.0989L14.4421 9.04297Z" fill="#F0F0F0"/>
</svg>
