<svg width="22" height="26" viewBox="0 0 22 26" fill="none" xmlns="http://www.w3.org/2000/svg">
<path d="M13.5167 15.7519H8.42621C6.28929 15.7543 4.24057 16.6042 2.72954 18.1152C1.2185 19.6262 0.368569 21.675 0.366211 23.8119C0.366201 23.894 0.390001 23.9743 0.434727 24.0431C0.479453 24.1119 0.543184 24.1663 0.618192 24.1996C0.777695 24.2705 4.59177 25.9329 10.9715 25.9329C17.3512 25.9329 21.1653 24.2705 21.3248 24.1996C21.3998 24.1663 21.4635 24.1119 21.5082 24.0431C21.553 23.9743 21.5768 23.894 21.5767 23.8119C21.5744 21.675 20.7245 19.6262 19.2134 18.1152C17.7024 16.6042 15.6537 15.7543 13.5167 15.7519Z" fill="#08A5B5"/>
<path d="M10.9712 13.6308C14.3704 13.6308 16.9101 10.0624 16.9101 6.87187C16.9101 5.29676 16.2844 3.78617 15.1706 2.6724C14.0569 1.55863 12.5463 0.932922 10.9712 0.932922C9.39607 0.932922 7.88547 1.55863 6.7717 2.6724C5.65794 3.78617 5.03223 5.29676 5.03223 6.87187C5.03223 10.0624 7.57198 13.6308 10.9712 13.6308Z" fill="#08A5B5"/>
</svg>
