<svg width="200" height="200" viewBox="0 0 200 200" fill="none" xmlns="http://www.w3.org/2000/svg">
<g clip-path="url(#clip0_242_1683)">
<path d="M103 155C144.421 155 178 121.421 178 80C178 38.5786 144.421 5 103 5C61.5786 5 28 38.5786 28 80C28 121.421 61.5786 155 103 155Z" fill="white" stroke="#132766" stroke-width="3"/>
<g clip-path="url(#clip1_242_1683)">
<path d="M128.343 79.0449C127.74 79.6924 122.918 84.868 122.315 85.5155C121.536 83.0108 119.197 81.1876 116.439 81.1876C115.364 81.1876 106.759 81.1876 105.683 81.1876C104.866 81.1876 104.594 80.8758 103.176 79.7832C97.7702 75.0702 89.6513 75.0855 84.2624 79.828C83.8665 80.1758 80.7033 82.9605 80.3085 83.3094C78.5311 82.3677 76.4563 82.3447 74.6691 83.2383C74.2152 83.4647 70.5872 85.2782 70.1344 85.5046C69.1216 86.0121 68.7115 87.2436 69.2168 88.2565C70.4472 90.7174 80.2899 110.404 81.5204 112.865C82.0279 113.878 83.2594 114.288 84.2733 113.781C84.7261 113.555 88.3541 111.74 88.808 111.514C91.0425 110.397 92.2872 108.117 92.2063 105.795C94.629 105.795 114.016 105.795 116.439 105.795C120.933 105.795 125.227 103.649 127.923 100.054C128.907 98.7411 136.783 88.239 137.768 86.9265C139.677 84.3824 139.375 80.6516 136.811 78.5341C134.47 76.6047 130.771 76.4396 128.343 79.0449ZM84.2722 109.196L73.8018 88.2565C75.4227 87.446 76.3229 86.9954 76.5033 86.9057C77.5161 86.4004 78.7466 86.8083 79.2541 87.8233C80.1182 89.5504 87.0263 103.368 87.8904 105.095C88.3957 106.109 87.9855 107.338 86.9727 107.846C86.6129 108.026 85.7127 108.476 84.2722 109.196ZM124.643 97.5927C122.715 100.161 119.65 101.694 116.439 101.694C114.729 101.693 106.173 101.693 90.7746 101.694L83.0899 86.3238C85.4185 84.2741 86.7124 83.1344 86.9716 82.9069C90.8336 79.5097 96.6579 79.5097 100.52 82.9069C102.794 84.9096 104.209 85.2891 105.683 85.2891C106.759 85.2891 115.363 85.2891 116.439 85.2891C117.57 85.2891 118.49 86.209 118.49 87.3388C118.49 88.4697 117.57 89.3896 116.439 89.3896C115.392 89.3896 107.013 89.3896 105.966 89.3896C104.834 89.3896 103.915 90.3083 103.915 91.4404C103.915 92.5724 104.834 93.4911 105.966 93.4911C107.15 93.4911 116.629 93.4911 117.813 93.4911C119.515 93.4911 121.156 92.778 122.315 91.5322C123.218 90.5632 130.441 82.8096 131.344 81.8405C132.17 80.9546 133.435 81.029 134.212 81.7082C135.023 82.4191 135.111 83.6343 134.486 84.4655C132.518 87.0905 125.627 96.2802 124.643 97.5927Z" fill="#08A5B5"/>
<path d="M114.389 52.3409C114.389 47.827 110.741 44.0022 106.187 44.0022C101.665 44.0022 97.8467 47.8205 97.8467 52.3409C97.8467 54.4661 98.679 56.4709 100.192 58.012C96.4412 60.1142 93.7451 64.1502 93.7451 68.8828C93.7451 69.0884 93.7451 70.7291 93.7451 70.9336C93.7451 72.0656 94.6639 72.9844 95.7959 72.9844C97.8609 72.9844 114.375 72.9844 116.439 72.9844C117.571 72.9844 118.49 72.0656 118.49 70.9336C118.49 70.7291 118.49 69.0884 118.49 68.8828C118.49 64.2431 115.937 60.1449 112.119 57.9956C113.523 56.5234 114.389 54.5328 114.389 52.3409ZM110.287 52.3409C110.287 54.6028 108.447 56.4425 106.187 56.4425C103.89 56.4425 101.948 54.5645 101.948 52.3409C101.948 50.0845 103.929 48.1038 106.187 48.1038C108.409 48.1038 110.287 50.0441 110.287 52.3409ZM106.187 60.5441C110.708 60.5441 114.389 64.2847 114.389 68.8828C113.286 68.8828 107.771 68.8828 97.8467 68.8828C100.392 63.3233 103.172 60.5441 106.187 60.5441Z" fill="#132766"/>
</g>
</g>
<defs>
<clipPath id="clip0_242_1683">
<rect width="200" height="200" fill="white"/>
</clipPath>
<clipPath id="clip1_242_1683">
<rect width="70" height="70" fill="white" transform="translate(69 44)"/>
</clipPath>
</defs>
</svg>
