<svg width="51" height="35" viewBox="0 0 51 35" fill="none" xmlns="http://www.w3.org/2000/svg">
<path fill-rule="evenodd" clip-rule="evenodd" d="M45.7032 3.55532C46.4259 4.30056 46.9391 5.2232 47.1913 6.2302H47.1891C47.8631 9.9626 48.1906 13.7493 48.1674 17.542C48.179 21.2776 47.8522 25.0086 47.1891 28.6858C46.9369 29.6927 46.4235 30.6154 45.7008 31.3607C44.9782 32.1059 44.0717 32.6473 43.0729 32.9304C39.4213 33.9062 24.82 33.9062 24.82 33.9062C24.82 33.9062 10.2184 33.9062 6.56687 32.9304C5.58811 32.6622 4.69507 32.1462 3.97402 31.4322C3.25298 30.718 2.72831 29.8301 2.45071 28.8538C1.77832 25.123 1.45145 21.336 1.4748 17.5444C1.45745 13.7789 1.78569 10.0197 2.4554 6.31424C2.7072 5.30742 3.22012 4.38484 3.94239 3.63961C4.66468 2.89437 5.57077 2.35285 6.56921 2.06967C10.2208 1.09375 24.8222 1.09375 24.8222 1.09375C24.8222 1.09375 39.4237 1.09375 43.0753 1.98562C44.0741 2.26866 44.9804 2.81011 45.7032 3.55532ZM19.8023 9.53496C19.5688 9.8455 19.5688 10.4035 19.5688 11.5172V23.3544C19.5688 24.4681 19.5688 25.0261 19.8023 25.3341C19.9022 25.4684 20.0298 25.5795 20.1765 25.66C20.3231 25.7405 20.4853 25.7887 20.6522 25.8011C21.0397 25.8291 21.509 25.5279 22.4476 24.9257L31.6511 19.007C32.4659 18.484 32.8722 18.2226 33.0124 17.891C33.0732 17.747 33.1047 17.5922 33.1047 17.4358C33.1047 17.2793 33.0732 17.1245 33.0124 16.9805C32.8722 16.6489 32.4659 16.3874 31.6511 15.8645L22.4476 9.94588C21.509 9.34351 21.0397 9.04234 20.6522 9.07036C20.4855 9.08246 20.3234 9.13021 20.1768 9.21036C20.0302 9.29053 19.9025 9.40122 19.8023 9.53496Z" fill="white"/>
</svg>
